<?xml version="1.0" encoding="utf-8"?>
<!-- Generator: Adobe Illustrator 23.1.0, SVG Export Plug-In . SVG Version: 6.00 Build 0)  -->
<!DOCTYPE svg PUBLIC "-//W3C//DTD SVG 1.1//EN" "http://www.w3.org/Graphics/SVG/1.1/DTD/svg11.dtd" [
	<!ENTITY ns_extend "http://ns.adobe.com/Extensibility/1.0/">
	<!ENTITY ns_ai "http://ns.adobe.com/AdobeIllustrator/10.0/">
	<!ENTITY ns_graphs "http://ns.adobe.com/Graphs/1.0/">
	<!ENTITY ns_vars "http://ns.adobe.com/Variables/1.0/">
	<!ENTITY ns_imrep "http://ns.adobe.com/ImageReplacement/1.0/">
	<!ENTITY ns_sfw "http://ns.adobe.com/SaveForWeb/1.0/">
	<!ENTITY ns_custom "http://ns.adobe.com/GenericCustomNamespace/1.0/">
	<!ENTITY ns_adobe_xpath "http://ns.adobe.com/XPath/1.0/">
]>
<svg version="1.1" id="Layer_1" xmlns:x="&ns_extend;" xmlns:i="&ns_ai;" xmlns:graph="&ns_graphs;"
	 xmlns="http://www.w3.org/2000/svg" xmlns:xlink="http://www.w3.org/1999/xlink" x="0px" y="0px" viewBox="0 0 65.348 65.739"
	 enable-background="new 0 0 65.348 65.739" xml:space="preserve">
<metadata>
	<sfw  xmlns="&ns_sfw;">
		<slices></slices>
		<sliceSourceBounds  bottomLeftOrigin="true" height="60.032" width="59.403" x="-6139.612" y="-585.185"></sliceSourceBounds>
		<optimizationSettings>
			<targetSettings  fileFormat="PNG24Format" targetSettingsID="0">
				<PNG24Format  filtered="false" interlaced="false" matteColor="#FFFFFF" noMatteColor="false" transparency="true">
					</PNG24Format>
			</targetSettings>
		</optimizationSettings>
	</sfw>
</metadata>
<linearGradient id="SVGID_1_" gradientUnits="userSpaceOnUse" x1="3.3584" y1="33.3112" x2="62.7614" y2="33.3112">
	<stop  offset="0" style="stop-color:#F2D71A"/>
	<stop  offset="1" style="stop-color:#ECB024"/>
</linearGradient>
<path fill="url(#SVGID_1_)" d="M48.48,63.228H17.64c-7.887,0-14.281-6.394-14.281-14.281V17.676c0-7.887,6.394-14.281,14.281-14.281
	H48.48c7.887,0,14.281,6.394,14.281,14.281v31.271C62.761,56.834,56.367,63.228,48.48,63.228z"/>
<polygon points="19.312,38.914 28.659,28.62 28.648,3.196 19.312,3.293 "/>
<polygon points="39.053,21.824 19.312,42.705 19.312,55.092 50.574,21.85 "/>
<path d="M57.624,60.003L37.928,35.156l-5.899,6.384l18.408,21.688C50.437,63.228,55.39,62.309,57.624,60.003z"/>
</svg>
