<svg width="158" height="41" viewBox="0 0 158 41" fill="none" xmlns="http://www.w3.org/2000/svg">
<g clip-path="url(#clip0_5106_104683)">
<path d="M8.65674 27.6397V25.5857L13.7533 20.0276L13.7475 6.35449H24.3536C28.5739 6.35449 31.9952 9.81318 31.9952 14.0796V31.0535C31.9952 31.0535 32.1391 34.5959 29.2479 36.9682L18.7118 23.5313L25.4768 16.3353L19.3138 16.3214L8.65674 27.6397Z" fill="url(#paint0_linear_5106_104683)"/>
<path d="M24.5878 38.7085L15.5347 27.6474L8.74854 34.9551L8.75303 34.2809L15.5559 26.9839L25.1374 38.7125L24.5878 38.7085Z" fill="url(#paint1_linear_5106_104683)"/>
<path d="M31.9939 31.0535V14.0424C31.9939 9.79647 28.5893 6.35449 24.3891 6.35449H13.7461L13.7521 20.0484L14.0605 6.67374L24.5123 6.69679C24.8574 6.6988 25.2029 6.72818 25.5415 6.79658C31.4411 7.98933 31.5567 13.5296 31.5567 13.5296V31.1972C31.5567 34.7835 28.9602 36.6031 28.9602 36.6031L29.2467 36.9682C30.925 35.558 31.9939 33.432 31.9939 31.0535Z" fill="url(#paint2_linear_5106_104683)"/>
<path opacity="0.4" d="M19.3169 16.3212L19.7144 15.9194H25.8905L25.4794 16.3351L19.3169 16.3212Z" fill="url(#paint3_linear_5106_104683)"/>
<path d="M13.7541 20.0276V20.4527L8.65674 26.0079L8.65737 25.5857L13.7541 20.0276Z" fill="url(#paint4_linear_5106_104683)"/>
<path d="M2.7507 8.29452C0.238214 10.7285 0.415145 12.4045 0.220751 13.6744V31.1723C0.220751 31.1723 -0.011184 35.7056 4.51929 37.7867C5.69047 38.3247 6.96956 38.5794 8.25587 38.5888L25.4037 39.0352L15.5605 27.011L8.75331 34.3125V27.6136L8.75404 27.613V25.5627L8.75331 25.5633V6.40693C8.74923 6.4064 8.41461 6.35449 7.88057 6.35449C6.68388 6.35449 4.48447 6.61465 2.7507 8.29452Z" fill="url(#paint5_linear_5106_104683)"/>
<path d="M25.1372 39.0283H8.25225C6.87925 39.0182 5.59232 38.7417 4.42731 38.2064C-0.184725 36.088 -0.000892217 31.4275 0.00151288 31.3807L0.00130374 13.8773L0.00381341 13.8606C0.0298512 13.6909 0.049092 13.5122 0.0695876 13.3229C0.197894 12.1361 0.373885 10.5106 2.59818 8.35562C4.39531 6.61444 6.67785 6.35449 7.87842 6.35449C8.40147 6.35449 8.71518 6.40143 8.75272 6.40693V6.83696C8.71863 6.83178 8.37031 6.79394 7.87842 6.79394C6.743 6.79394 4.58626 7.03803 2.89913 8.67276C0.788816 10.7171 0.629662 12.1884 0.501878 13.3707C0.481487 13.5589 0.462246 13.737 0.436104 13.9109V31.3921C0.427006 31.5823 0.270675 35.8143 4.60707 37.8063C5.71623 38.316 6.94377 38.5792 8.25539 38.5887L25.1372 38.7125V39.0283Z" fill="url(#paint6_linear_5106_104683)"/>
</g>
<path d="M38.8769 22H42.4402V17.0485L44.3144 15.1049L49.3353 22H53.6159L46.7207 12.6754L53.3382 5.80339H48.9651L42.4402 12.8836V5.80339H38.8769V22ZM54.0744 22H57.6376V15.4982H64.2088V22H67.7721V5.80339H64.2088V12.2126H57.6376V5.80339H54.0744V22ZM69.9497 22H82.2823V18.8301H73.4898V15.4288H81.1254V12.2589H73.4898V8.9733H82.1666V5.80339H69.9497V22ZM83.7462 22H95.3847V18.7607H87.3095V5.80339H83.7462V22ZM103.308 22.2777C108.306 22.2777 111.939 18.5062 111.939 13.9017V13.8554C111.939 9.25096 108.352 5.52574 103.355 5.52574C98.3567 5.52574 94.7241 9.29723 94.7241 13.9017V13.948C94.7241 18.5524 98.3105 22.2777 103.308 22.2777ZM103.355 18.9921C100.485 18.9921 98.4493 16.6783 98.4493 13.9017V13.8554C98.4493 11.0789 100.439 8.81133 103.308 8.81133C106.177 8.81133 108.214 11.1251 108.214 13.9017V13.948C108.214 16.7245 106.224 18.9921 103.355 18.9921ZM116.575 22H120.139V15.5445L126.363 5.80339H122.314L118.38 12.3052L114.516 5.80339H110.351L116.575 15.6139V22ZM122.934 22H126.567L128.048 18.3673H134.896L136.377 22H140.102L133.161 5.6877H129.875L122.934 22ZM129.32 15.2206L131.472 9.96823L133.624 15.2206H129.32ZM140.898 22H144.461V16.8171H147.261L150.732 22H154.897L150.94 16.2155C152.999 15.4519 154.411 13.8091 154.411 11.1945V11.1483C154.411 9.59803 153.948 8.37171 153.022 7.44619C151.935 6.3587 150.362 5.80339 148.302 5.80339H140.898V22ZM144.461 13.6703V9.01957H148.002C149.76 9.01957 150.801 9.78313 150.801 11.3334V11.3797C150.801 12.7679 149.829 13.6703 148.071 13.6703H144.461Z" fill="white"/>
<g clip-path="url(#clip1_5106_104683)">
<path d="M37.4097 29.0313L37.4807 28.9248H48.8151L49.2647 29.824L49.1938 29.9305H47.5137L47.5492 38.4491L47.4545 38.5556L46.4134 38.2716L46.4489 32.8647H44.1062C44.6505 33.7047 44.899 34.4146 44.899 35.0298C44.899 36.2248 43.9288 37.053 42.8285 37.053C41.0892 37.053 39.5512 35.6332 38.2615 32.4151V32.3441L38.8649 32.0246C39.9298 34.6039 41.0892 35.8107 42.3197 35.8107C43.0178 35.8107 43.9761 35.2901 43.9761 34.2253C43.9761 33.7639 43.6093 33.054 42.0831 32.8647L41.6571 31.8827L41.7281 31.7762H46.4489V29.9305H37.8593L37.4097 29.0313Z" fill="white"/>
<path d="M48.3775 29.0313L48.4485 28.9248H50.1404C49.9865 26.7715 49.1347 25.7185 47.8687 25.7185C46.9814 25.7185 46.4963 26.3219 46.4963 26.9845C46.4963 27.5405 46.7447 28.0611 47.1233 28.5462L47.0405 28.6527L46.0585 28.2031C45.6326 27.6943 45.3486 27.1383 45.3486 26.5585C45.3486 25.5765 46.0467 24.7957 47.3481 24.7957C49.1347 24.7957 50.8621 26.5112 51.1815 28.9366H52.5185L52.9681 29.8358L52.8971 29.9423H51.217L51.2525 38.4609L51.1579 38.5674L50.1167 38.2835L50.1404 29.9423H48.8152L48.3656 29.0431L48.3775 29.0313Z" fill="white"/>
<path d="M52.0688 29.0313L52.1398 28.9248H60.8714L61.321 29.824L61.25 29.9305H59.57L59.6055 38.4491L59.5108 38.5556L58.4696 38.2716L58.5051 32.8292C58.0555 32.8055 57.5705 32.8055 57.0617 32.8055C54.9912 32.8055 54.2222 33.5154 54.2222 34.3436C54.2222 35.2901 55.1568 36.3786 56.8487 37.3961L56.0442 38.5437H55.9614C54.1748 36.911 53.2757 35.3374 53.2757 33.894C53.2757 32.4506 54.0565 31.6579 56.4583 31.6579C57.18 31.6579 57.8544 31.6579 58.517 31.717V29.9423H52.5303L52.0807 29.0431L52.0688 29.0313Z" fill="white"/>
<path d="M64.2905 29.0313L64.3615 28.9248H75.7552L76.2048 29.824L76.1338 29.9305H71.2829V32.8173L71.3066 32.841C71.8508 32.2968 72.4897 31.9655 73.2114 31.9655C74.4182 31.9655 75.3292 33.0776 75.3292 34.3199C75.3292 35.3374 74.7732 36.3076 74.0041 37.2659H73.9095L72.9275 36.5561C73.8148 35.5386 74.4182 34.5802 74.4182 33.7284C74.4182 33.2788 74.1816 32.9711 73.6965 32.9711C72.892 32.9711 72.0283 33.6337 71.2947 34.5566L71.3184 38.4609L71.2237 38.5674L70.2062 38.2834L70.2417 35.5386L70.2181 35.5149C69.6265 36.0355 68.9758 36.2484 68.325 36.2484C66.6213 36.2484 65.4382 34.9588 65.4382 33.4917C65.4382 32.0246 66.6095 31.2793 68.1357 31.2793C68.8338 31.2793 69.5437 31.3739 70.2536 31.575V29.9423H64.7401L64.2905 29.0431V29.0313ZM70.2536 32.3796C69.804 32.2849 69.3189 32.2258 68.8338 32.2258C67.5323 32.2258 66.5503 33.1013 66.5503 34.0715C66.5503 34.8405 67.0236 35.2428 67.7926 35.2428C68.5617 35.2428 69.4135 34.7932 70.2536 33.8822V32.3796Z" fill="white"/>
<path d="M79.837 29.9424H78.157L78.1924 38.461L78.0978 38.5675L77.0566 38.2835L77.0803 29.9424H75.7552L75.3056 29.0432L75.3766 28.9367H77.2104C76.962 28.3806 76.7017 27.8246 76.4177 27.2566C75.8853 26.1918 75.5777 25.7422 74.4892 25.7422C73.9331 25.7422 73.3771 25.8369 72.8328 25.9789L72.7618 25.9197L72.2886 24.6419C72.7973 24.4881 73.3889 24.4053 74.0869 24.4053C75.8262 24.4053 76.1929 25.5293 77.9558 28.9367H79.4466L79.8962 29.8359L79.8252 29.9424H79.837Z" fill="white"/>
<path d="M85.1139 29.7056V29.6346C85.9302 29.0903 86.7111 28.7827 87.3855 28.7827C88.2137 28.7827 88.8999 29.1495 89.456 29.8475C89.8701 30.38 90.0831 30.9597 90.0831 31.6223C90.0831 32.1665 89.9056 32.5924 89.5862 32.9474C89.8583 33.1248 90.0476 33.3141 90.2132 33.4916C90.4498 33.7282 90.8166 33.8584 91.349 33.8584C91.9051 33.8584 92.4375 33.7046 92.8871 33.3851V29.9659H91.1006L90.651 29.0667L90.722 28.9602H98.9566L99.4062 29.8594L99.3352 29.9659H97.6552L97.6907 38.4845L97.596 38.591L96.5549 38.307L96.5785 29.9659H93.9519L93.9874 38.4845L93.8928 38.591L92.8635 38.307V34.8522C92.6268 34.9232 92.3665 34.9587 92.0589 34.9587C91.5383 34.9587 91.0532 34.8049 90.6628 34.5091L90.6392 34.5328C90.7456 34.8167 90.7456 35.1125 90.7456 35.4438C90.7456 36.7334 89.7163 37.6326 88.4148 37.6326C86.4035 37.6326 85.0074 35.9762 83.8716 33.6927V33.6218L84.4277 33.2787C85.4807 35.3373 86.6638 36.414 87.9416 36.414C88.8644 36.414 89.7991 35.7159 89.7991 34.7812C89.7991 33.9885 89.314 33.468 88.4622 33.468C88.0244 33.468 87.4447 33.6336 86.7466 33.9412L86.0367 32.8291L86.0604 32.7581C86.9596 32.3913 87.7641 32.1665 88.4148 32.1665C88.8763 31.847 89.1721 31.433 89.1721 30.936C89.1721 30.3918 88.7106 29.954 88.0717 29.954C87.4328 29.954 86.6756 30.2616 85.8356 30.8059L85.1139 29.7292V29.7056Z" fill="white"/>
<path d="M98.5308 29.0313L98.6018 28.9248H107.227L107.676 29.824L107.605 29.9305H105.535V32.6872L105.452 32.7818H104.08C101.926 32.7818 100.909 33.4562 100.909 34.6749C100.909 35.7515 101.737 36.5797 103.015 36.5797C103.512 36.5797 103.973 36.4496 104.446 36.213C104.198 35.9763 104.08 35.6687 104.08 35.3019C104.08 34.7577 104.553 34.2253 105.204 34.2253C105.57 34.2253 105.878 34.3673 106.138 34.6275C106.422 34.9115 106.564 35.2546 106.564 35.6332C106.564 36.1301 106.292 36.5561 105.772 36.911C106.742 37.7984 107.109 38.5201 107.109 39.0998C107.109 39.857 106.659 40.4013 106.008 40.8509H105.937L104.837 39.9635C105.476 39.5376 105.902 39.0762 105.902 38.4964C105.902 38.0941 105.701 37.68 105.251 37.2305C104.695 37.5144 104.139 37.5972 103.559 37.5972C101.323 37.5972 99.7731 35.8817 99.7731 34.1661C99.7731 32.4506 101.098 31.7052 102.92 31.7052H104.21C104.399 31.7052 104.494 31.6105 104.494 31.4449V29.9305H98.9804L98.5308 29.0313Z" fill="white"/>
<path d="M106.789 29.0313L106.86 28.9248H115.592L116.041 29.824L115.97 29.9305H114.29L114.326 38.4491L114.231 38.5556L113.19 38.2716L113.225 32.8292C112.776 32.8055 112.291 32.8055 111.782 32.8055C109.711 32.8055 108.942 33.5154 108.942 34.3436C108.942 35.2901 109.877 36.3786 111.569 37.3961L110.764 38.5437H110.682C108.895 36.911 107.996 35.3374 107.996 33.894C107.996 32.4506 108.777 31.6579 111.179 31.6579C111.9 31.6579 112.575 31.6579 113.237 31.717V29.9423H107.25L106.801 29.0431L106.789 29.0313Z" fill="white"/>
<path d="M119.011 29.0313L119.082 28.9248H127.896L128.346 29.824L128.275 29.9305H126.595L126.63 38.4491L126.536 38.5556L125.494 38.2716L125.53 35.7752C124.903 36.2366 124.193 36.4614 123.4 36.4614C121.708 36.4614 120.158 35.1245 120.158 33.5036C120.158 32.0838 121.353 31.2083 122.998 31.2083C123.814 31.2083 124.666 31.3147 125.542 31.5395V29.9305H119.472L119.023 29.0313H119.011ZM122.229 32.5216C121.578 32.8528 121.247 33.3734 121.247 34.0833C121.247 34.8287 121.767 35.4557 122.915 35.4557C123.341 35.4557 123.743 35.3848 124.11 35.2546L122.229 32.5334V32.5216ZM124.69 34.9588C125.175 34.6512 125.542 34.1543 125.542 33.4681V32.4032C124.997 32.2613 124.441 32.2021 123.909 32.2021C123.519 32.2021 123.164 32.2258 122.868 32.3086L124.678 34.9707L124.69 34.9588Z" fill="white"/>
<path d="M127.459 29.0313L127.53 28.9248H136.178L136.628 29.824L136.557 29.9305H134.877L134.924 38.4491L134.83 38.5556L133.777 38.2716L133.812 33.5391C133.362 33.4917 132.925 33.4681 132.428 33.4681C131.813 33.4681 131.28 33.5272 130.89 33.6455V34.3554C130.89 34.7695 130.854 35.0416 130.795 35.16C130.653 35.3966 130.44 35.5149 130.168 35.5149C129.754 35.5149 128.535 34.2844 128.535 33.4681C128.535 33.1368 128.748 32.841 129.198 32.6399C129.695 32.4151 130.322 32.3441 130.996 32.3441C131.848 32.3441 132.795 32.4151 133.8 32.5216V29.9423H127.896L127.447 29.0431L127.459 29.0313Z" fill="white"/>
<path d="M135.729 29.0313L135.8 28.9248H139.87L140.319 29.824L140.248 29.9305H138.568L138.604 38.4491L138.509 38.5556L137.468 38.2716L137.492 29.9305H136.166L135.717 29.0313H135.729Z" fill="white"/>
<path d="M155.901 29.9421H154.221L154.257 38.4608L154.162 38.5672L153.121 38.2833L153.144 29.9421H150.518L150.553 38.4608L150.459 38.5672L149.429 38.2833V34.8285C149.193 34.8995 148.932 34.935 148.625 34.935C148.104 34.935 147.619 34.7812 147.229 34.4854L147.205 34.5091C147.312 34.793 147.312 35.0888 147.312 35.4201C147.312 36.7097 146.282 37.6089 144.981 37.6089C142.969 37.6089 141.573 35.9525 140.438 33.669V33.5981L140.994 33.2549C142.047 35.3136 143.23 36.3903 144.507 36.3903C145.43 36.3903 146.365 35.6922 146.365 34.7575C146.365 33.9648 145.88 33.4442 145.028 33.4442C144.59 33.4442 144.011 33.6099 143.313 33.9175L142.603 32.8053L142.626 32.7344C143.525 32.3676 144.33 32.1428 144.981 32.1428C145.442 31.8233 145.738 31.4092 145.738 30.9123C145.738 30.3681 145.277 29.9303 144.638 29.9303C143.999 29.9303 143.242 30.2379 142.402 30.7822L141.68 29.7055V29.6345C142.496 29.0903 143.277 28.7827 143.951 28.7827C144.78 28.7827 145.466 29.1494 146.022 29.8475C146.436 30.3799 146.649 30.9596 146.649 31.6222C146.649 32.1665 146.472 32.5924 146.152 32.9473C146.424 33.1248 146.613 33.3141 146.779 33.4916C147.016 33.7282 147.383 33.8583 147.915 33.8583C148.471 33.8583 149.003 33.7045 149.453 33.3851V29.9658H147.666L147.217 29.0666L147.288 28.9601H153.286C153.038 28.4041 152.778 27.848 152.494 27.2801C151.961 26.2153 151.642 25.7657 150.565 25.7657C150.009 25.7657 149.453 25.8603 148.909 26.0023L148.838 25.9431L148.365 24.6653C148.873 24.5115 149.465 24.4287 150.163 24.4287C151.902 24.4287 152.269 25.5527 154.032 28.9601H155.523L155.972 29.8593L155.901 29.9658V29.9421Z" fill="white"/>
</g>
<defs>
<linearGradient id="paint0_linear_5106_104683" x1="8.65674" y1="21.6613" x2="31.9964" y2="21.6613" gradientUnits="userSpaceOnUse">
<stop stop-color="#F2D71A"/>
<stop offset="1" stop-color="#ECB024"/>
</linearGradient>
<linearGradient id="paint1_linear_5106_104683" x1="8.74854" y1="32.8482" x2="25.1374" y2="32.8482" gradientUnits="userSpaceOnUse">
<stop stop-color="#F2D71A"/>
<stop offset="1" stop-color="#ECB024"/>
</linearGradient>
<linearGradient id="paint2_linear_5106_104683" x1="22.87" y1="6.29829" x2="22.87" y2="35.7624" gradientUnits="userSpaceOnUse">
<stop stop-color="#F2D71A"/>
<stop offset="1" stop-color="#ECB024"/>
</linearGradient>
<linearGradient id="paint3_linear_5106_104683" x1="19.3169" y1="16.1273" x2="25.8905" y2="16.1273" gradientUnits="userSpaceOnUse">
<stop stop-color="#F2D71A"/>
<stop offset="1" stop-color="#ECB024"/>
</linearGradient>
<linearGradient id="paint4_linear_5106_104683" x1="8.65674" y1="23.0177" x2="13.7541" y2="23.0177" gradientUnits="userSpaceOnUse">
<stop stop-color="#F2D71A"/>
<stop offset="1" stop-color="#ECB024"/>
</linearGradient>
<linearGradient id="paint5_linear_5106_104683" x1="0.218712" y1="22.6948" x2="25.4036" y2="22.6948" gradientUnits="userSpaceOnUse">
<stop stop-color="#F2D71A"/>
<stop offset="1" stop-color="#ECB024"/>
</linearGradient>
<linearGradient id="paint6_linear_5106_104683" x1="12.5686" y1="6.46375" x2="12.5686" y2="37.0203" gradientUnits="userSpaceOnUse">
<stop stop-color="#F2D71A"/>
<stop offset="1" stop-color="#ECB024"/>
</linearGradient>
<clipPath id="clip0_5106_104683">
<rect width="31.9961" height="32.6806" fill="white" transform="translate(0 6.35449)"/>
</clipPath>
<clipPath id="clip1_5106_104683">
<rect width="118.563" height="16.4457" fill="white" transform="translate(37.4097 24.4053)"/>
</clipPath>
</defs>
</svg>
