<svg width="21" height="21" viewBox="0 0 21 21" fill="none" xmlns="http://www.w3.org/2000/svg">
<path d="M3.27604 4.72146C1.96674 4.19775 1.40451 3.25813 1.62016 2.04383C1.80244 1.00923 2.71638 0.264726 3.81002 0.254457C4.93191 0.244188 5.82274 0.968151 6.0538 2.0772C6.28998 3.21192 5.69695 4.17721 4.40306 4.72146C4.59303 4.76767 4.75477 4.80105 4.91137 4.84469C6.59292 5.31193 7.64292 6.74189 7.70197 8.63651C7.70453 8.75717 7.70453 8.87527 7.70197 8.99593C7.68913 9.61463 7.44268 9.87136 6.82654 9.87393C5.45819 9.87906 4.08985 9.87393 2.72151 9.87393C2.08483 9.87393 1.44559 9.87906 0.808913 9.87393C0.23385 9.86622 0.0104993 9.63774 0.00279759 9.07808C-0.0023369 8.5595 -0.0151731 8.04091 0.126025 7.53517C0.523948 6.10521 1.44302 5.20411 2.87555 4.82159C2.99107 4.79078 3.1066 4.76511 3.2786 4.72403L3.27604 4.72146Z" fill="url(#paint0_linear_7746_128420)"/>
<path d="M16.0892 4.71085C14.8055 4.20511 14.2356 3.28347 14.441 2.1051C14.6284 1.03199 15.4936 0.279788 16.5744 0.254116C17.6911 0.228443 18.6256 0.929301 18.8618 1.97674C19.0697 2.89324 18.7796 4.13066 17.2727 4.71085C18.8156 5.05487 19.8604 5.94313 20.3508 7.45524C20.5485 8.06624 20.5023 8.69265 20.474 9.31393C20.4586 9.66564 20.1659 9.86332 19.7218 9.87102C19.0184 9.88129 18.3124 9.87359 17.609 9.87359C16.3202 9.87359 15.0315 9.87359 13.7427 9.87359C13.0264 9.87359 12.7954 9.63483 12.7903 8.91087C12.7723 6.67736 13.8916 5.24227 16.0917 4.71085H16.0892Z" fill="url(#paint1_linear_7746_128420)"/>
<path d="M9.57109 15.6165C8.24383 14.8771 7.76632 13.9709 8.06155 12.8362C8.32598 11.817 9.20654 11.1289 10.2514 11.1264C11.2526 11.1212 12.1512 11.8144 12.4284 12.8079C12.7416 13.9195 12.2718 14.8232 10.9805 15.5908C11.055 15.7089 11.1885 15.6961 11.2937 15.7269C12.9368 16.2018 14.0792 17.6883 14.0997 19.3903C14.1151 20.6919 14.0638 20.7433 12.7724 20.7433C10.9369 20.7433 9.10129 20.7433 7.26571 20.7433C6.59565 20.7433 6.41338 20.5379 6.38771 19.8576C6.32866 18.2171 6.93453 16.9335 8.36449 16.0735C8.71877 15.8604 9.11669 15.7551 9.56852 15.6165H9.57109Z" fill="url(#paint2_linear_7746_128420)"/>
<path d="M17.3002 10.9569C17.9446 10.9569 17.9677 10.9569 17.924 11.5936C17.7674 13.8759 16.7816 15.7372 15.0128 17.1851C14.8408 17.3263 14.7098 17.3365 14.6148 17.1106C14.4916 16.8154 14.1194 16.5766 14.1733 16.2968C14.222 16.0504 14.5738 15.8655 14.7843 15.6499C15.8831 14.5228 16.5249 13.1853 16.6147 11.6039C16.6507 10.9595 16.643 10.9595 17.2976 10.9595L17.3002 10.9569Z" fill="url(#paint3_linear_7746_128420)"/>
<path d="M3.20889 10.957C3.843 10.957 3.8353 10.957 3.87124 11.5808C3.97393 13.3779 4.75437 14.8412 6.09704 16.0093C6.34093 16.2198 6.40254 16.379 6.17663 16.6152C6.14839 16.6434 6.13041 16.6794 6.10988 16.7127C5.68115 17.3623 5.66574 17.3802 5.09582 16.8565C3.5606 15.4445 2.70314 13.6962 2.56451 11.6116C2.52087 10.957 2.54397 10.9544 3.20889 10.9544V10.957Z" fill="url(#paint4_linear_7746_128420)"/>
<path d="M13.8118 4.39254C13.8092 4.40794 13.8118 4.42591 13.8015 4.43361C13.5294 4.6852 13.2598 4.93936 12.9826 5.18325C12.8311 5.31674 12.6796 5.20378 12.5333 5.15244C11.0109 4.60305 9.48598 4.59535 7.97131 5.15757C7.68891 5.26283 7.4938 5.23973 7.31152 5.00611C7.24734 4.92396 7.15749 4.85721 7.0779 4.79046C6.55932 4.35403 6.54905 4.33606 7.19857 4.06906C9.31141 3.20133 11.4165 3.22444 13.5037 4.16405C13.6218 4.21796 13.7553 4.25647 13.8144 4.39254H13.8118Z" fill="url(#paint5_linear_7746_128420)"/>
<defs>
<linearGradient id="paint0_linear_7746_128420" x1="0" y1="5.06528" x2="7.70391" y2="5.06528" gradientUnits="userSpaceOnUse">
<stop stop-color="#F2D71A"/>
<stop offset="1" stop-color="#ECB024"/>
</linearGradient>
<linearGradient id="paint1_linear_7746_128420" x1="12.79" y1="5.0649" x2="20.4998" y2="5.0649" gradientUnits="userSpaceOnUse">
<stop stop-color="#F2D71A"/>
<stop offset="1" stop-color="#ECB024"/>
</linearGradient>
<linearGradient id="paint2_linear_7746_128420" x1="6.38379" y1="15.9348" x2="14.1016" y2="15.9348" gradientUnits="userSpaceOnUse">
<stop stop-color="#F2D71A"/>
<stop offset="1" stop-color="#ECB024"/>
</linearGradient>
<linearGradient id="paint3_linear_7746_128420" x1="14.168" y1="14.1218" x2="17.9379" y2="14.1218" gradientUnits="userSpaceOnUse">
<stop stop-color="#F2D71A"/>
<stop offset="1" stop-color="#ECB024"/>
</linearGradient>
<linearGradient id="paint4_linear_7746_128420" x1="2.55078" y1="14.0905" x2="6.31695" y2="14.0905" gradientUnits="userSpaceOnUse">
<stop stop-color="#F2D71A"/>
<stop offset="1" stop-color="#ECB024"/>
</linearGradient>
<linearGradient id="paint5_linear_7746_128420" x1="6.69922" y1="4.34207" x2="13.8144" y2="4.34207" gradientUnits="userSpaceOnUse">
<stop stop-color="#F2D71A"/>
<stop offset="1" stop-color="#ECB024"/>
</linearGradient>
</defs>
</svg>
