<svg width="20" height="20" viewBox="0 0 20 20" fill="none" xmlns="http://www.w3.org/2000/svg">
<path d="M10 2C7.87827 2 5.84344 2.84285 4.34315 4.34315C2.84285 5.84344 2 7.87827 2 10C2 12.1217 2.84285 14.1566 4.34315 15.6569C5.84344 17.1571 7.87827 18 10 18C12.1217 18 14.1566 17.1571 15.6569 15.6569C17.1571 14.1566 18 12.1217 18 10C18 7.87827 17.1571 5.84344 15.6569 4.34315C14.1566 2.84285 12.1217 2 10 2ZM6.494 8.075C6.48637 8.14178 6.46535 8.20633 6.4322 8.2648C6.39905 8.32326 6.35446 8.37445 6.30108 8.41529C6.2477 8.45613 6.18664 8.4858 6.12154 8.50251C6.05644 8.51921 5.98863 8.52263 5.92219 8.51254C5.85574 8.50245 5.792 8.47907 5.73479 8.44379C5.67759 8.40851 5.62808 8.36206 5.58923 8.30722C5.55038 8.25237 5.52298 8.19026 5.50868 8.12459C5.49438 8.05891 5.49347 7.99103 5.506 7.925C5.633 7.09 6.392 6.5 7.248 6.5C8.104 6.5 8.863 7.09 8.99 7.925C9.00253 7.99103 9.00162 8.05891 8.98732 8.12459C8.97302 8.19026 8.94562 8.25237 8.90677 8.30722C8.86792 8.36206 8.81841 8.40851 8.76121 8.44379C8.704 8.47907 8.64026 8.50245 8.57381 8.51254C8.50737 8.52263 8.43956 8.51921 8.37446 8.50251C8.30936 8.4858 8.2483 8.45613 8.19492 8.41529C8.14154 8.37445 8.09695 8.32326 8.0638 8.2648C8.03065 8.20633 8.00963 8.14178 8.002 8.075C7.957 7.78 7.663 7.5 7.248 7.5C6.833 7.5 6.539 7.78 6.494 8.075ZM11.994 8.075C11.9699 8.20215 11.8974 8.315 11.7918 8.3898C11.6862 8.46461 11.5557 8.49556 11.4277 8.47613C11.2998 8.45671 11.1843 8.38842 11.1057 8.28564C11.027 8.18286 10.9913 8.05358 11.006 7.925C11.133 7.09 11.892 6.5 12.748 6.5C13.604 6.5 14.363 7.09 14.49 7.925C14.5047 8.05358 14.469 8.18286 14.3903 8.28564C14.3117 8.38842 14.1962 8.45671 14.0683 8.47613C13.9403 8.49556 13.8098 8.46461 13.7042 8.3898C13.5986 8.315 13.5261 8.20215 13.502 8.075C13.456 7.78 13.163 7.5 12.748 7.5C12.333 7.5 12.04 7.78 11.994 8.075ZM5.495 10.5H14.495C14.28 12.7 12.566 14.5 9.995 14.5C7.424 14.5 5.71 12.7 5.495 10.5Z" fill="url(#paint0_linear_49172_215)"/>
<defs>
<linearGradient id="paint0_linear_49172_215" x1="2" y1="10" x2="18" y2="10" gradientUnits="userSpaceOnUse">
<stop stop-color="#F2D71A"/>
<stop offset="1" stop-color="#ECB024"/>
</linearGradient>
</defs>
</svg>
