<svg width="24" height="18" viewBox="0 0 24 18" fill="none" xmlns="http://www.w3.org/2000/svg">
<path d="M16.6312 8.20221C16.5814 8.20221 16.5293 8.20221 16.4795 8.20221C14.8972 8.23467 13.6408 9.48778 13.6747 11.0006C13.7087 12.5134 15.0194 13.7146 16.6017 13.6821C16.6063 13.6821 16.6108 13.6821 16.613 13.6821C18.1954 13.68 19.4744 12.4528 19.4721 10.94C19.4721 10.9357 19.4721 10.9313 19.4721 10.927C19.4721 9.42502 18.2022 8.20437 16.6289 8.20221H16.6312ZM17.4393 11.1846C17.2989 11.3858 17.0296 11.4659 16.7964 11.375C16.7217 11.3469 16.7126 11.3685 16.7172 11.4313V11.4941C16.7172 11.5792 16.7602 11.6246 16.8462 11.6304C16.9232 11.6261 16.9888 11.6845 16.9933 11.7581C16.9933 11.7624 16.9933 11.7646 16.9933 11.7689C16.9979 11.8425 16.9413 11.9053 16.8643 11.9096C16.8575 11.9096 16.853 11.9096 16.8462 11.9096C16.7557 11.9118 16.6628 11.9096 16.57 11.9096C16.4772 11.9096 16.3867 11.9118 16.2939 11.9096C16.2192 11.9139 16.1535 11.8576 16.1512 11.7841C16.1512 11.7797 16.1512 11.7732 16.1512 11.7689C16.1512 11.6953 16.2101 11.6347 16.2871 11.6347C16.2871 11.6347 16.2893 11.6347 16.2916 11.6347C16.3821 11.6275 16.4274 11.5806 16.4274 11.4941V11.4226C16.4342 11.362 16.4161 11.3534 16.355 11.375C16.0675 11.4811 15.7438 11.3426 15.6329 11.0677C15.6102 11.0136 15.5989 10.9552 15.5966 10.8967C15.5831 10.6781 15.6691 10.5007 15.8162 10.3448C16.0109 10.1349 16.2486 9.96176 16.4727 9.77779C16.527 9.72585 16.613 9.72585 16.6674 9.77346C16.9186 9.98123 17.1903 10.1674 17.394 10.4227C17.5887 10.6651 17.6045 10.9616 17.4393 11.1867V11.1846Z" fill="url(#paint0_linear_4440_129452)"/>
<path d="M9.92852 6.25009C9.42597 5.32378 8.40277 4.76324 7.31166 4.81734C5.76781 4.85847 4.54314 6.07478 4.55899 7.55081C4.55899 7.82351 4.59974 8.0962 4.68349 8.35592C5.14303 9.80164 6.74121 10.6154 8.25337 10.1761C8.43899 10.1414 8.57708 9.99426 8.5884 9.81463C8.74912 8.64809 9.20186 7.53782 9.91267 6.57689C9.99416 6.48383 10.001 6.34964 9.92852 6.25009ZM8.19904 7.57029C7.98399 7.79537 7.76893 8.02262 7.55162 8.2477C7.47465 8.32562 7.40448 8.32562 7.32977 8.2477C7.12151 8.02478 6.91551 7.80186 6.71178 7.57678C6.64387 7.5032 6.64613 7.44909 6.71178 7.3755C6.91778 7.15042 7.12378 6.9275 7.32977 6.70458C7.40221 6.62667 7.47239 6.62667 7.54709 6.70242C7.76667 6.92967 7.98172 7.15691 8.19904 7.38416C8.2262 7.40797 8.24205 7.43827 8.24431 7.4729C8.24431 7.50969 8.22847 7.54648 8.19904 7.57245V7.57029Z" fill="url(#paint1_linear_4440_129452)"/>
<path d="M24 11.7062C23.8982 12.3143 23.7352 12.9095 23.5178 13.4895C22.8704 15.0933 21.6299 16.4135 20.0363 17.2056C19.0266 17.7185 17.9016 17.9912 16.7584 17.9977C14.9452 18.0431 13.1772 17.435 11.8099 16.2966C8.70638 13.7536 8.34645 9.28654 11.0063 6.31717C12.1087 5.08787 13.6209 4.25463 15.287 3.96245C19.3096 3.25907 23.1692 5.8064 23.9049 9.6523C23.9276 9.7735 23.948 9.8947 23.9638 10.0159C23.9729 10.0678 23.9842 10.1176 24 10.1674V11.7062ZM20.5252 10.9422C20.5252 8.87966 18.7776 7.20668 16.6203 7.20452C14.463 7.20452 12.7132 8.87533 12.7109 10.9379C12.7109 13.0004 14.4585 14.6734 16.6158 14.6756C18.7708 14.6799 20.5207 13.0112 20.523 10.9509C20.523 10.9465 20.523 10.9444 20.523 10.94L20.5252 10.9422ZM21.9898 9.94015L22.678 9.84708C22.8252 9.82761 22.8614 9.76484 22.8342 9.61767C22.6871 8.87749 22.3883 8.17411 21.9559 7.54431C21.8789 7.43393 21.8133 7.40796 21.6978 7.49453C21.5824 7.5811 21.3967 7.70663 21.2428 7.80618C21.1523 7.86462 21.1183 7.91656 21.1817 8.02261C21.5258 8.5745 21.7725 9.17616 21.9106 9.80596C21.9265 9.87738 21.9536 9.94448 21.9921 9.94231L21.9898 9.94015ZM15.7126 5.65491C15.6786 5.45579 15.6424 5.2437 15.6107 5.03809C15.5971 4.92771 15.5337 4.90607 15.4319 4.92555C14.6396 5.0922 13.8812 5.37788 13.1863 5.77611C13.098 5.82588 13.0595 5.87783 13.1297 5.97522C13.2632 6.14836 13.3945 6.32366 13.5236 6.50113C13.5869 6.59203 13.6571 6.58121 13.7318 6.5271C14.2796 6.17 14.8999 5.9276 15.5518 5.81506C15.6447 5.80424 15.7352 5.78043 15.7103 5.65707L15.7126 5.65491ZM17.9921 4.99048C17.9038 4.97966 17.8835 5.03593 17.8721 5.09869C17.8314 5.31079 17.7884 5.52289 17.7499 5.73498C17.7273 5.86268 17.8065 5.9038 17.9174 5.9341C18.4562 6.05962 18.9655 6.28254 19.4205 6.58554C19.5405 6.66562 19.6084 6.64181 19.6854 6.5336C19.7963 6.37128 19.914 6.21545 20.0408 6.06395C20.163 5.92544 20.1178 5.85618 19.9706 5.77178C19.5269 5.52289 19.0583 5.31728 18.5716 5.15713C18.3747 5.09869 18.18 5.05757 17.9853 4.99481L17.9899 4.98831L17.9921 4.99048ZM15.4477 16.1516C15.4794 16.0434 15.3775 16.0261 15.2847 16.0044C14.9474 15.9113 14.6215 15.7923 14.3068 15.6451C14.0782 15.5456 13.8699 15.2491 13.6526 15.34C13.4353 15.4309 13.3266 15.7231 13.1704 15.9243L13.1433 15.959C13.0731 16.039 13.1048 16.0867 13.1863 16.1343C13.7907 16.4741 14.4404 16.7359 15.1172 16.9091C15.2213 16.9372 15.3028 16.935 15.3255 16.8095C15.364 16.5866 15.407 16.3767 15.45 16.1473L15.4477 16.1516ZM22.9338 12.1001C22.9338 12.0157 22.8704 12.007 22.798 11.994C22.5897 11.9616 22.395 11.9378 22.2004 11.8901C22.0487 11.8555 21.9921 11.901 21.9514 12.0373C21.845 12.4096 21.7024 12.7732 21.5258 13.1216C21.442 13.2991 21.2111 13.4722 21.2971 13.6497C21.3832 13.8272 21.6141 13.8964 21.7748 14.0241C21.8993 14.1193 21.9831 14.1128 22.0736 13.9787C22.2841 13.6757 22.4698 13.3532 22.6237 13.0199C22.7618 12.7212 22.8659 12.4096 22.9315 12.0914V12.1001H22.9338ZM17.8608 16.0823C17.8925 16.2901 17.9174 16.4589 17.9446 16.6277C17.9582 16.7316 17.9989 16.7835 18.1279 16.7597C18.789 16.6515 19.4251 16.4329 20.0068 16.117C20.1178 16.0585 20.1268 16.0022 20.0544 15.907C19.9208 15.7339 19.7873 15.5607 19.665 15.3789C19.5948 15.2751 19.5315 15.2902 19.4341 15.3421C18.9859 15.5975 18.5037 15.7966 18.0034 15.9373C17.8993 15.9568 17.8405 16.0087 17.8608 16.0867V16.0823ZM11.1806 11.9919C10.9724 12.0222 10.7664 12.059 10.5581 12.0806C10.4087 12.0958 10.3747 12.165 10.4132 12.2927C10.5966 12.8944 10.8546 13.4722 11.1851 14.0111C11.2463 14.1128 11.3119 14.1237 11.4093 14.0522C11.5519 13.9462 11.6967 13.8531 11.8461 13.7536C11.9548 13.6843 11.9571 13.6086 11.8982 13.509C11.6515 13.0848 11.4817 12.626 11.3934 12.1477C11.3911 12.0568 11.3096 11.9832 11.2146 11.9875C11.2033 11.9875 11.1919 11.9875 11.1806 11.9919ZM11.1535 9.66745C11.3006 9.70208 11.3232 9.60036 11.3481 9.50513C11.4545 9.11556 11.6107 8.74115 11.8099 8.38621C11.8959 8.22389 12.1178 8.08321 12.0657 7.9079C12.0137 7.7326 11.7601 7.67416 11.6107 7.54647C11.4613 7.41878 11.4025 7.46423 11.33 7.60274C11.0244 8.12 10.7799 8.66972 10.6034 9.24109C10.5385 9.4503 10.6154 9.57367 10.8343 9.61118L11.1557 9.66961L11.1535 9.66745Z" fill="url(#paint2_linear_4440_129452)"/>
<path d="M0 7.5421C0.165251 4.52945 1.60497 2.28943 4.52063 1.04715C7.75548 -0.290368 11.5291 0.759299 13.5098 3.54687C13.6819 3.78927 13.6796 3.7871 13.3989 3.89965C13.2563 3.95808 13.1137 4.01868 12.9711 4.07928C12.8715 4.12257 12.7787 4.18533 12.6813 4.07928C12.6383 4.02734 12.5817 4.05764 12.5364 4.0901C12.3531 4.21563 12.0905 4.3022 11.9977 4.47534C11.7487 4.92551 11.2348 5.08133 10.9292 5.45142C10.8047 5.60292 10.7209 5.5618 10.6078 5.41896C9.89242 4.41041 8.69265 3.81524 7.42045 3.83472C5.26087 3.82823 3.50649 5.49687 3.4997 7.56158C3.49517 9.34277 4.8036 10.8794 6.62815 11.2343C7.15559 11.3447 7.70341 11.3382 8.22859 11.217C8.43686 11.1694 8.51609 11.217 8.52967 11.4356C8.55457 11.7408 8.59532 12.0416 8.65191 12.3424C8.69945 12.6346 8.66323 12.9376 8.74019 13.2255C8.76283 13.312 8.75604 13.4051 8.88733 13.4246C8.96883 13.4246 8.9892 13.5068 9.01863 13.5696C9.11597 13.7795 9.20652 13.9959 9.31065 14.2015C9.38309 14.3422 9.3695 14.4093 9.19067 14.4504C8.2716 14.6647 7.31858 14.7101 6.38367 14.5824C3.17146 14.1453 0.629312 11.7689 0.108658 8.7108C0.0430105 8.32556 0.00679114 7.936 0 7.54426V7.5421ZM6.51723 2.33055C6.47422 2.07301 6.44026 1.86091 6.40631 1.64881C6.39272 1.55791 6.34066 1.52978 6.24105 1.54926C5.44876 1.70941 4.68815 1.99509 3.99319 2.39332C3.89132 2.44959 3.86642 2.51452 3.94112 2.60974C4.07015 2.77856 4.19692 2.94737 4.31916 3.11835C4.37123 3.1941 4.42329 3.22007 4.50705 3.16163C5.07298 2.78721 5.71587 2.53616 6.39272 2.42362C6.46516 2.4128 6.52176 2.36951 6.51723 2.33055ZM8.82169 1.62717C8.7085 1.59687 8.67002 1.65747 8.65417 1.7527C8.62022 1.95181 8.58626 2.16391 8.54099 2.36951C8.51609 2.47556 8.56362 2.52101 8.66096 2.54265C9.22236 2.67684 9.75207 2.90408 10.2297 3.21574C10.3112 3.26768 10.3859 3.2785 10.4516 3.19193C10.5964 2.99282 10.7413 2.79587 10.8907 2.61624C10.9428 2.54698 10.936 2.50153 10.8568 2.45392C10.2275 2.08166 9.54155 1.80464 8.82169 1.62933V1.62717ZM6.23426 12.8251C6.25237 12.6887 6.19352 12.6433 6.1007 12.626C5.56421 12.4961 5.05487 12.2753 4.60213 11.9702C4.54553 11.9161 4.45499 11.9182 4.40066 11.9702C4.38707 11.9832 4.37802 11.9962 4.37123 12.0135C4.23767 12.1953 4.09958 12.3771 3.95697 12.5545C3.87774 12.6519 3.9049 12.7082 4.00677 12.7666C4.61118 13.1064 5.26087 13.3661 5.93998 13.5349C6.01695 13.5544 6.09391 13.5696 6.11429 13.4549C6.15503 13.2276 6.20031 13.009 6.23653 12.8229L6.23426 12.8251ZM1.19071 8.83417C1.20203 8.87529 1.21335 8.91857 1.22693 8.96186C1.39445 9.49643 1.62308 10.0094 1.91057 10.4942C2.06451 10.7582 2.06224 10.7582 2.30899 10.5915C2.42896 10.5093 2.54894 10.4249 2.67118 10.347C2.73683 10.3189 2.76626 10.2431 2.73456 10.1803C2.73004 10.1717 2.72551 10.1652 2.72098 10.1587C2.45613 9.71286 2.27277 9.2259 2.17543 8.72162C2.15958 8.63505 2.11431 8.58311 2.01697 8.59393L1.3039 8.69998C1.23372 8.7108 1.16581 8.73677 1.19071 8.832V8.83417ZM1.97848 6.27817C2.10752 6.29765 2.12563 6.18294 2.15279 6.07906C2.26145 5.69166 2.41764 5.31724 2.62138 4.96663C2.7074 4.81297 2.93151 4.67012 2.8636 4.5143C2.79568 4.35847 2.57158 4.28488 2.4267 4.16369C2.28182 4.04249 2.1958 4.08794 2.10752 4.23727C1.84266 4.67445 1.62761 5.13977 1.47141 5.62456C1.26315 6.29549 1.21788 6.12884 1.90378 6.26951C1.92868 6.27384 1.95358 6.27601 1.97848 6.27817Z" fill="url(#paint3_linear_4440_129452)"/>
<defs>
<linearGradient id="paint0_linear_4440_129452" x1="13.6741" y1="10.9425" x2="19.4721" y2="10.9425" gradientUnits="userSpaceOnUse">
<stop stop-color="#F2D71A"/>
<stop offset="1" stop-color="#ECB024"/>
</linearGradient>
<linearGradient id="paint1_linear_4440_129452" x1="4.55884" y1="7.55446" x2="9.97864" y2="7.55446" gradientUnits="userSpaceOnUse">
<stop stop-color="#F2D71A"/>
<stop offset="1" stop-color="#ECB024"/>
</linearGradient>
<linearGradient id="paint2_linear_4440_129452" x1="9.22485" y1="10.9229" x2="24" y2="10.9229" gradientUnits="userSpaceOnUse">
<stop stop-color="#F2D71A"/>
<stop offset="1" stop-color="#ECB024"/>
</linearGradient>
<linearGradient id="paint3_linear_4440_129452" x1="0" y1="7.56162" x2="13.6269" y2="7.56162" gradientUnits="userSpaceOnUse">
<stop stop-color="#F2D71A"/>
<stop offset="1" stop-color="#ECB024"/>
</linearGradient>
</defs>
</svg>
