<svg _ngcontent-csh-c55="" fill="#e30539" viewBox="0 0 282.38 133.2" xmlns="http://www.w3.org/2000/svg"><path _ngcontent-csh-c55="" d="M225.18 48.18l-40.51-7.86 40.5-16.27 7.94 9.23z"></path><path _ngcontent-csh-c55="" d="M278.69 27.35C273.85 16.76 270.3 7.71 269 5.54c-3.7-6.26-9.21-5.92-13.94-5.1-12.61 2.17-17.53 4.39-39.76 10.3-3.27.9-9.44 2.71-12.84 1.53-9-3.08-11.73-5.55-16.05-5.06-6.66.79-20.41 7.23-35.34 18.14-4.67 3.36-4.13 7.38-5 10a1 1 0 00.62 1.18h.18c2.17.22 25.86 2.28 26.94 2.43a1 1 0 01-.54-.88.86.86 0 01.49-.8c6.76-3.64 31.32-16.65 46.15-22.5 20.29-8 25.19-8.91 31.35-9.49a36.88 36.88 0 014.93.06 3 3 0 012.62 1.93c2.8 8.22 11 26.79 15.34 32.94a3 3 0 01-2.2 1.52c-1.14 0-3.46-2.13-4.9-3.4a1 1 0 00-1.14-.07c-24.33 15-41.87 21.54-44.4 22.44a.79.79 0 01-.64 0l-12.43-4.63a10.24 10.24 0 001.63-2.71 3.9 3.9 0 00.35-1.55c-.09-2-2-2.43-2.86-2.54-3.31-.41-92.12-13.51-114.39-15.7-9.45-1-18.44 3.89-22.33 9v.13l12.61 13.17a.92.92 0 001.07.21l9.92-4.57s1.36 4.2.09 4.91C86.29 61 78.31 65 70.59 69c-3.1 1.64-3 4.74-4 9.1-.42 1.9-.59 3.53-.59 3.53S83.25 73 93.85 67.9a1 1 0 011.08.21c1.51 1.63 2 2 3 3a.94.94 0 010 1.33.82.82 0 01-.22.16c-2.5 1.33-5.08 2.69-7.06 3.87-1.57.93 0 4.06 0 4.06l28.79-13.64s1.79 1.77-1.38 3.74C113.15 73.71 67.74 96.86 63.84 97c-10.3.26-29.73-19.12-36.75-22.07-5.92-2.49-12.3 1.57-20.95 6.65-2.35 1.4-.92 4.78-.92 4.78L17.76 80s1.55 1.79-.19 2.88c-6.07 3.85-14.85 7.7-16.2 8.67-2 1.42-1.22 8.07-1.22 8.07L12 94.09a1 1 0 011 .06l25.42 24.2a28.07 28.07 0 004.71-1.59l-21.2-22.55a1 1 0 01.14-1.4l.12-.09c2.17-1.1 4.76-1.91 8.43.9 3.08 2.38 13.86 11.06 24.29 10.13 3.48-.3 3.53.77 3.53.77s-4.43 2.13-9.68 5c-2.6 1.44-.49 5.23-.49 5.23 26.87-11 60-24.74 64.6-26.74a1 1 0 011 .13l7.77 6.17c1.1 1.69 56.36-19.53 73.41-28.14 1-.47 9.62-.07 13.81-.11 1.92 0 1.85.84 1.85.84S72.42 122 38.49 120.77h-.06l-7.23 3.1c4.24 2.8 3.23 7.64 10.45 3.9.43 1 .93 2 1.46 3.16 1.4 3 1.4 3.06 10.58-.06 26-8.78 142.68-43.67 168.82-54.49 14.76-6.09 35.17-14.5 47.89-22.38 12.6-7.72 15.11-11.72 8.29-26.65zM167 27.89c-1.57 1.12-11.91-.81-11.91-.81s11.44-10.17 22.33-11.47c3.24-.39 9.79 2.15 9.79 2.15s-14.59 6.1-20.21 10.13zm34.7-10.12L187 25.35s-3.42-2.07.43-3.81c1-.45 3.25-1.74 5.08-2.69a1.34 1.34 0 00-.13-2.43l-11-4.39a8.43 8.43 0 017.47-1.53c1.59.49 8.24 3.29 12.61 5.12a1.16 1.16 0 01.87 1.38 1.13 1.13 0 01-.61.77zm3.7 35.73c-1.44 2.13-4.8 6.09-9.74 5.29-2.41-.41-100.49-20.31-100.73-20.33-.69-.19-.6-1.66.65-1.51L204.75 52a1 1 0 01.78 1.19 1.07 1.07 0 01-.13.31zm70.88-44.73l-.3.07a.78.78 0 00-.26.17l1-.26z"></path><path _ngcontent-csh-c55="" d="M244.42 10.2s-1.78 7.37-4.59 15.87l-5.2-6.57-4.21 1.92 7.66 9.7c-2.39 6.54-5.27 13.05-8.34 16.89l7.68-3.49c1.75-1.62 3.16-4.9 4.26-8.84L245.9 41l4.24-1.93-7.16-9c1.56-8.19 2.02-17.07 1.44-19.87z"></path></svg>