<svg width="61" height="50" viewBox="0 0 61 50" fill="none" xmlns="http://www.w3.org/2000/svg">
<g clip-path="url(#clip0_5501_2772)">
<path d="M49.3773 30.1948C50.998 30.0767 52.5085 29.4396 53.7371 28.3605C54.001 28.1441 54.2963 27.8293 54.5199 27.572C55.583 26.3295 56.2063 24.7918 56.3226 23.1468C56.3509 22.8289 56.3539 22.3719 56.3226 22.0283C56.2003 20.2077 55.4429 18.5066 54.1457 17.1899C52.8976 15.9216 51.2262 15.1074 49.3788 14.9803C49.0358 14.9485 48.59 14.9515 48.2769 14.9803C46.6561 15.0983 45.1412 15.7355 43.917 16.81C43.7798 16.9326 43.6471 17.0567 43.5144 17.1899C43.3817 17.3246 43.255 17.4578 43.1402 17.6046C42.165 18.7397 41.5522 20.1335 41.3703 21.6152C42.5005 22.1025 43.5577 22.7669 44.5015 23.5841H44.5179C44.7073 23.7657 45.2277 24.2183 45.6973 24.7586C45.8852 24.9659 46.0612 25.1778 46.2326 25.3957L46.8276 23.5433C46.8887 23.3647 46.8216 23.174 46.6785 23.0681L44.8758 21.7423C44.5448 21.5017 44.7162 20.9765 45.1188 20.9765H47.3509C47.5269 20.9765 47.6864 20.8584 47.7416 20.6859L48.4364 18.5323C48.5572 18.1464 49.1029 18.1464 49.2252 18.5323L49.914 20.6859C49.9752 20.86 50.1347 20.9765 50.3107 20.9765H52.5428C52.9454 20.9765 53.1109 21.5017 52.7858 21.7423L50.9831 23.0681C50.834 23.174 50.7744 23.3647 50.8281 23.5433L51.5229 25.6969C51.6437 26.0889 51.2083 26.4067 50.8788 26.166L49.0761 24.8403C48.927 24.7283 48.7287 24.7283 48.5855 24.8403L46.7828 26.166C47.6148 27.3965 48.2157 28.7676 48.5691 30.2114C48.6571 30.2175 48.7451 30.2175 48.833 30.2175C49.0149 30.2175 49.1968 30.2114 49.3788 30.1948H49.3773Z" fill="white"/>
<path d="M42.3559 16.807L40.3668 14.7926C38.8951 16.4377 37.9304 18.4506 37.5666 20.6224C38.503 20.7116 39.4244 20.9023 40.3116 21.2035C40.5651 19.569 41.2704 18.048 42.3559 16.8055V16.807Z" fill="white"/>
<path d="M48.2753 13.8528V11C45.6079 11.1286 43.1163 12.1805 41.1481 13.9981L43.1372 16.0185C44.5641 14.7261 46.3564 13.9769 48.2739 13.8528H48.2753Z" fill="white"/>
<path d="M56.509 13.9981C54.6079 12.241 52.1163 11.1286 49.3773 11V13.8528C51.2948 13.9754 53.087 14.7261 54.5199 16.0185L56.509 13.9981Z" fill="white"/>
<path d="M57.4305 22.0268H60.2411C60.1144 19.2467 59.0169 16.7177 57.2873 14.7881L55.2982 16.807C56.5716 18.2614 57.3097 20.0851 57.4305 22.0268Z" fill="white"/>
<path d="M49.3773 31.3132C49.1954 31.3299 49.0134 31.3359 48.8315 31.3359H48.7868C48.8912 31.9806 48.9419 32.6844 48.9419 33.2822C48.9419 33.6439 48.9285 33.8739 48.9091 34.1827C49.0641 34.1827 49.2237 34.1766 49.3773 34.166C52.0388 34.0434 54.5363 32.9916 56.509 31.1725L54.5199 29.1536C53.087 30.44 51.2903 31.1952 49.3773 31.3132Z" fill="white"/>
<path d="M55.3027 28.365L57.2873 30.3794C59.084 28.3817 60.1143 25.8543 60.2411 23.1452H57.4304C57.3097 25.087 56.5701 26.9046 55.3027 28.365Z" fill="white"/>
<path d="M41.3256 39.062C41.6074 38.8153 41.8653 38.5535 42.1024 38.2674C43.1327 37.0642 43.7888 35.5266 43.9096 33.8422C43.9394 33.5107 43.9394 33.0552 43.9096 32.7237C43.7888 31.0393 43.1327 29.5077 42.1024 28.3045C41.8653 28.0185 41.6014 27.7506 41.3196 27.51C40.1342 26.4642 38.6238 25.7922 36.9598 25.6742C36.6317 25.6439 36.1859 25.6439 35.8579 25.6742C34.1983 25.7968 32.6834 26.4687 31.498 27.51C31.2222 27.7567 30.9627 28.0185 30.7212 28.2985C28.2878 31.1528 28.2773 35.3919 30.7212 38.2735C30.9642 38.5535 31.2222 38.8168 31.498 39.062C32.6834 40.1017 34.1983 40.7737 35.8579 40.8962C36.1814 40.9265 36.6362 40.9265 36.9598 40.8962C38.6238 40.7737 40.1342 40.1017 41.3256 39.062ZM36.414 38.6473C36.1054 38.6473 35.8623 38.3961 35.8623 38.0873V35.4297C35.8519 35.4297 35.84 35.4403 35.8295 35.4524C35.6581 35.6144 35.5045 35.7884 35.3494 35.961C34.3236 37.1248 32.4284 36.6042 32.1258 35.0771L32.1198 35.0499C32.0482 34.7139 32.081 34.4006 32.169 34.0994C32.2465 33.8316 32.4776 33.4456 32.6655 33.2383C34.0731 31.5993 34.9051 30.8743 35.746 29.4956C35.922 29.2111 36.0771 28.9084 36.253 28.6178C36.2858 28.5618 36.3574 28.4831 36.4081 28.4831C36.4737 28.4892 36.5512 28.5618 36.584 28.6223C38.0005 31.3647 40.1894 32.866 40.5636 33.8134C40.5696 33.824 40.5741 33.8361 40.58 33.8467C40.8067 34.4612 40.8067 35.1664 40.5025 35.743C40.249 36.2303 39.8196 36.6208 39.2515 36.7328C38.6446 36.8448 38.1213 36.6602 37.7023 36.2076C37.4488 35.9398 37.2177 35.6477 36.9806 35.3632C36.9747 35.3571 36.9702 35.3526 36.9642 35.3526V38.0873C36.9642 38.3945 36.7167 38.6473 36.4125 38.6473H36.414Z" fill="white"/>
<path d="M36.9597 42.0207V44.8675C39.6988 44.7389 42.1904 43.625 44.0915 41.8694L42.1024 39.849C40.7142 41.096 38.922 41.8906 36.9597 42.0192V42.0207Z" fill="white"/>
<path d="M42.8852 27.5085C44.1034 28.919 44.8907 30.7306 45.0189 32.7222H47.8236C47.6969 29.9481 46.5994 27.4237 44.8698 25.4941L42.8852 27.5085Z" fill="white"/>
<path d="M42.8852 39.062L44.8698 41.0764C46.6009 39.1407 47.6969 36.6178 47.8236 33.8422H45.0189C44.8922 35.8399 44.1094 37.6515 42.8852 39.062Z" fill="white"/>
<path d="M44.087 24.701C42.1859 22.944 39.6943 21.8316 36.9597 21.7029V24.5558C38.922 24.6783 40.7127 25.4789 42.1024 26.7154L44.087 24.701Z" fill="white"/>
<path d="M27.8047 33.8422H25C25.1267 36.6224 26.2242 39.1452 27.9538 41.0809L29.9428 39.062C28.7142 37.6515 27.9314 35.8399 27.8047 33.8422Z" fill="white"/>
<path d="M28.7306 41.8694C30.6317 43.6265 33.1233 44.7389 35.8579 44.8675V42.0207C33.8956 41.8921 32.1094 41.0976 30.7212 39.8505L28.7321 41.8709L28.7306 41.8694Z" fill="white"/>
<path d="M29.9428 27.5085L27.9538 25.4881C26.2227 27.4177 25.1267 29.9406 25 32.7223H27.8106C27.9314 30.7306 28.7142 28.9175 29.9443 27.5085H29.9428Z" fill="white"/>
<path d="M35.8579 24.5558V21.7029C33.1248 21.8316 30.6332 22.95 28.7306 24.701L30.7197 26.72C32.1094 25.4774 33.8941 24.6783 35.8564 24.5542L35.8579 24.5558Z" fill="white"/>
<path d="M30.1487 0H4.03778C1.81162 0 0 1.8388 0 4.09836V45.9016C0 48.1612 1.81162 50 4.03778 50H30.1487C32.3749 50 34.1865 48.1612 34.1865 45.9016V4.09836C34.1865 1.8388 32.3749 0 30.1487 0ZM9.55607 7.65027C10.6705 7.65027 11.575 8.56831 11.575 9.69945C11.575 10.8306 10.6705 11.7486 9.55607 11.7486C8.44164 11.7486 7.53718 10.8306 7.53718 9.69945C7.53718 8.56831 8.44164 7.65027 9.55607 7.65027ZM17.0932 34.6995C16.6114 34.6995 16.1309 34.526 15.7473 34.1776L9.727 28.7117C9.71354 28.6995 9.70008 28.6872 9.68662 28.6749C8.1765 27.2268 7.4497 25.0383 7.74311 22.8183C8.02171 20.7077 9.20613 18.8962 10.9114 17.9713C11.7392 17.5232 12.6154 17.2964 13.5144 17.2964C14.8779 17.2964 16.1242 17.8238 17.0932 18.7077C18.0623 17.8238 19.3086 17.2964 20.6721 17.2964C21.5711 17.2964 22.446 17.5232 23.2724 17.9699C24.979 18.8948 26.1634 20.7063 26.4434 22.8169C26.7368 25.0369 26.01 27.2254 24.4999 28.6735C24.4864 28.6858 24.473 28.6981 24.4595 28.7104L18.4392 34.1762C18.0556 34.5246 17.5751 34.6981 17.0932 34.6981V34.6995ZM24.6304 42.3497C23.516 42.3497 22.6115 41.4331 22.6115 40.3005C22.6115 39.168 23.516 38.2514 24.6304 38.2514C25.7449 38.2514 26.6493 39.1694 26.6493 40.3005C26.6493 41.4317 25.7449 42.3497 24.6304 42.3497Z" fill="white"/>
</g>
<defs>
<clipPath id="clip0_5501_2772">
<rect width="61" height="50" fill="white"/>
</clipPath>
</defs>
</svg>
