<svg width="50" height="50" viewBox="0 0 50 50" fill="none" xmlns="http://www.w3.org/2000/svg">
<path d="M26.1333 19.875V22.3888C26.1333 23.1873 26.2928 23.8571 26.6075 24.379C27.0416 25.0992 27.7542 25.5119 28.5633 25.5119C29.356 25.5119 30.1437 25.1259 30.9044 24.3652L39.2074 16.0622C41.0305 14.2391 41.0305 11.2728 39.2074 9.44977L30.9044 1.1467C30.1437 0.385666 29.356 0 28.5633 0C27.3536 0 26.1333 0.965881 26.1333 3.12309V5.40619C14.3451 6.10237 4.58639 15.1489 3.13604 26.9932C3.05479 27.6546 3.43092 28.2879 4.05081 28.5332C4.22628 28.6026 4.40901 28.6362 4.58944 28.6362C5.04644 28.6362 5.48971 28.4222 5.772 28.0365C9.66223 22.7211 15.9084 19.5477 22.4804 19.5477C23.698 19.5477 24.9225 19.6575 26.1333 19.875Z" fill="white"/>
<path d="M45.9232 21.4668C45.3033 21.2212 44.5961 21.4256 44.202 21.9639C40.3122 27.2789 34.066 30.4523 27.4941 30.4523C26.2764 30.4523 25.0519 30.3425 23.8411 30.125V27.6112C23.8411 25.4539 22.6204 24.4881 21.4111 24.4881C20.6184 24.4881 19.8307 24.8741 19.0697 25.6351L10.7666 33.9378C8.94394 35.7609 8.94394 38.7272 10.767 40.5506L19.0697 48.8533C19.8307 49.6143 20.6184 50 21.4111 50C22.6204 50 23.8411 49.0341 23.8411 46.8769V44.5938C35.6297 43.8976 45.388 34.8511 46.8384 23.0072C46.9196 22.3453 46.5435 21.7121 45.9232 21.4668Z" fill="white"/>
</svg>
