<svg width="50" height="50" viewBox="0 0 50 50" fill="none" xmlns="http://www.w3.org/2000/svg">
<g clip-path="url(#clip0_5501_2910)">
<path d="M31.6486 24.6531C31.0324 25.4459 30.5745 26.3726 30.3242 27.393C31.0106 28.1094 31.5776 28.9377 32.0018 29.847C31.97 29.6104 31.9481 29.3719 31.9481 29.127C31.9481 27.9491 32.3268 26.8605 32.9631 25.9675L31.6486 24.6531Z" fill="white"/>
<path d="M35.023 35.9785C35.6556 35.4169 36.3665 34.9436 37.1384 34.5749C35.2241 34.4802 33.5675 33.3998 32.6691 31.8268C32.7919 32.4249 32.8584 33.0439 32.8584 33.6783C32.8584 33.9969 32.8411 34.3118 32.8092 34.6222C33.5329 35.2503 34.2638 35.6991 35.023 35.9785Z" fill="white"/>
<path d="M42.9186 33.873C43.8607 32.7825 44.4514 31.4572 44.6289 30.0372H42.7893C42.5299 31.5764 41.6278 32.8972 40.3653 33.7128C40.5919 33.6955 40.8195 33.6782 41.0507 33.6782C41.6906 33.6782 42.3151 33.7465 42.9186 33.873Z" fill="white"/>
<path d="M22.8455 28.2987V26.459C21.5184 26.6256 20.3041 27.1499 19.2973 27.9327L20.5963 29.2317C21.2535 28.7629 22.0181 28.4389 22.8455 28.2987Z" fill="white"/>
<path d="M16.5366 32.7678H18.3762C18.5164 31.9404 18.8404 31.1758 19.3092 30.5186L18.0103 29.2197C17.2274 30.2264 16.7031 31.4407 16.5366 32.7678Z" fill="white"/>
<path d="M18.0103 38.1366L19.3092 36.8377C18.8404 36.1805 18.5164 35.4159 18.3762 34.5884H16.5366C16.7031 35.9156 17.2274 37.1299 18.0103 38.1366Z" fill="white"/>
<path d="M41.9609 35.5616V37.4012C42.7884 37.5414 43.553 37.8654 44.2102 38.3342L45.5091 37.0353C44.5024 36.2524 43.2881 35.7281 41.9609 35.5616Z" fill="white"/>
<path d="M26.9153 38.1247C26.2581 38.5934 25.4935 38.9175 24.6661 39.0577V40.8973C25.9932 40.7307 27.2075 40.2064 28.2143 39.4236L26.9153 38.1247Z" fill="white"/>
<path d="M22.8455 39.0577C22.0181 38.9175 21.2535 38.5934 20.5963 38.1247L19.2973 39.4236C20.3041 40.2064 21.5184 40.7307 22.8455 40.8973V39.0577Z" fill="white"/>
<path d="M36.604 39.6211L35.3051 38.3222C34.5223 39.3289 33.998 40.5432 33.8314 41.8704H35.671C35.8112 41.0429 36.1353 40.2783 36.604 39.6211Z" fill="white"/>
<path d="M40.1404 37.4012V35.5616C38.8132 35.7281 37.5989 36.2524 36.5922 37.0353L37.8911 38.3342C38.5483 37.8654 39.3129 37.5414 40.1404 37.4012Z" fill="white"/>
<path d="M37.4096 32.768C39.4205 32.768 41.0506 31.1378 41.0506 29.127C41.0506 27.1161 39.4205 25.4859 37.4096 25.4859C35.3987 25.4859 33.7686 27.1161 33.7686 29.127C33.7686 31.1378 35.3987 32.768 37.4096 32.768Z" fill="white"/>
<path d="M38.3198 23.7474C39.1473 23.8876 39.9119 24.2117 40.5691 24.6804L41.8671 23.3824C40.8604 22.5996 39.647 22.0735 38.3198 21.9069V23.7474Z" fill="white"/>
<path d="M36.4994 23.7473V21.9031C35.1714 22.0633 33.9498 22.5794 32.9358 23.3659L34.2502 24.6803C34.9074 24.2115 35.672 23.8875 36.4994 23.7473Z" fill="white"/>
<path d="M23.7559 37.3192C25.7667 37.3192 27.3969 35.6891 27.3969 33.6782C27.3969 31.6673 25.7667 30.0372 23.7559 30.0372C21.745 30.0372 20.1148 31.6673 20.1148 33.6782C20.1148 35.6891 21.745 37.3192 23.7559 37.3192Z" fill="white"/>
<path d="M29.5013 29.2197L28.2023 30.5186C28.6711 31.1758 28.9952 31.9404 29.1353 32.7678H30.975C30.8084 31.4407 30.2841 30.2264 29.5013 29.2197Z" fill="white"/>
<path d="M28.2143 27.9327C27.2075 27.1499 25.9932 26.6256 24.6661 26.459V28.2987C25.4935 28.4389 26.2581 28.7629 26.9153 29.2317L28.2143 27.9327Z" fill="white"/>
<path d="M30.975 34.5884H29.1353C28.9952 35.4159 28.6711 36.1805 28.2023 36.8377L29.5013 38.1366C30.2841 37.1299 30.8084 35.9156 30.975 34.5884Z" fill="white"/>
<path d="M44.628 28.2166C44.4614 26.8903 43.9389 25.6751 43.1561 24.6675L41.8562 25.9673C42.325 26.6245 42.6491 27.3891 42.7892 28.2166H44.628Z" fill="white"/>
<path d="M13.3998 5.9918L12.9183 4.94501L12.1409 5.88803L12.6489 6.98125L13.3998 5.9918Z" fill="white"/>
<path d="M22.7527 6.42249L22.5151 5.29468L21.5475 6.04109L21.8014 7.22169L22.7527 6.42249Z" fill="white"/>
<path d="M34.0427 48.5818C32.7356 47.0062 31.9482 44.9836 31.9482 42.7807C31.9482 40.7682 32.6127 38.9122 33.7232 37.4029C33.2626 37.1836 32.8129 36.9151 32.3706 36.5956C31.1499 40.1865 27.7537 42.7807 23.7559 42.7807C18.7367 42.7807 14.6533 38.6973 14.6533 33.6782C14.6533 28.659 18.7367 24.5756 23.7559 24.5756C25.6237 24.5756 27.3614 25.1427 28.8078 26.1112C30.0731 22.5075 33.4829 20.0243 37.4088 20.0243H37.4662C39.0564 20.0343 40.5474 20.4558 41.8454 21.1831L45.0877 8.31844C45.3963 7.09505 44.6517 5.84891 43.4283 5.54033L21.716 0.0687822C20.4935 -0.237064 19.2465 0.505705 18.9379 1.72818L9.16629 40.5005C8.85771 41.7239 9.6023 42.971 10.8257 43.2787L32.538 48.7502C33.0487 48.8785 33.5748 48.8021 34.0427 48.5818ZM27.0155 5.86165L39.4951 9.00659C40.3398 9.21959 41.0517 9.74845 41.4986 10.4967C41.9455 11.244 42.0739 12.1215 41.8609 12.9662L40.2734 19.2661L38.5084 18.8219L40.0959 12.522C40.1906 12.1488 40.1332 11.761 39.9357 11.4306C39.7382 11.1002 39.4241 10.8662 39.0509 10.7725L26.5713 7.62755L27.0155 5.86165ZM19.981 4.95049L22.5498 2.96704C22.7974 2.77497 23.1269 2.724 23.4209 2.83323C23.7149 2.94155 23.9325 3.19369 23.9971 3.49954L24.6461 6.58076C24.7153 6.90936 24.5979 7.2498 24.3412 7.46553L21.8134 9.58733C21.6468 9.7266 21.4393 9.80033 21.2281 9.80033C21.1289 9.80033 21.0288 9.78395 20.9323 9.75118C20.6301 9.64741 20.4043 9.39345 20.3379 9.08123L19.647 5.86256C19.5742 5.5194 19.7034 5.16531 19.981 4.95049Z" fill="white"/>
<path d="M36.604 45.9402C36.1353 45.283 35.8112 44.5183 35.671 43.6909H33.8314C33.998 45.0181 34.5223 46.2324 35.3051 47.2391L36.604 45.9402Z" fill="white"/>
<path d="M17.1718 1.2841C17.1855 1.2304 17.2119 1.18307 17.2273 1.13027L12.0989 0.706091C11.4873 0.656937 10.8965 0.846271 10.4304 1.24041C9.96349 1.63546 9.67949 2.1889 9.62942 2.79786L6.33066 42.6452C6.22689 43.9023 7.16536 45.011 8.42242 45.1148L11.7576 45.3906L10.3822 45.0438C8.18485 44.4903 6.84859 42.2529 7.40203 40.0556L17.1718 1.2841ZM10.3713 5.17181L12.4367 2.6686C12.636 2.42739 12.9455 2.30814 13.2559 2.34546C13.5663 2.38551 13.8348 2.58304 13.965 2.86795L15.2812 5.72798C15.4214 6.03291 15.3822 6.39155 15.1802 6.65826L13.1858 9.28708C13.0128 9.51464 12.7434 9.64754 12.4603 9.64754C12.4285 9.64754 12.3957 9.64572 12.3629 9.64208C12.0452 9.6084 11.7694 9.40996 11.6347 9.1205L10.2475 6.13486C10.1 5.81718 10.1483 5.44216 10.3713 5.17181Z" fill="white"/>
<path d="M7.27016 49.8316L23.3426 48.3105L22.5506 48.1112L8.27235 46.9288C6.01491 46.7412 4.32912 44.7523 4.51663 42.4949L7.61696 5.03876L3.07296 5.4684C2.46491 5.52574 1.91512 5.81703 1.52553 6.28763C1.13594 6.75914 0.952975 7.35354 1.01032 7.96159L4.77696 47.7671C4.8953 49.0251 6.01764 49.9599 7.27016 49.8316ZM3.79207 13.4077L2.00159 10.645C1.81135 10.351 1.8068 9.97326 1.98976 9.67469L3.68557 6.90751C3.84941 6.64081 4.13887 6.47605 4.452 6.47241C4.76877 6.48607 5.05823 6.62715 5.22754 6.89022L6.92972 9.53906C7.11177 9.82215 7.12269 10.1817 6.95885 10.4748L5.35042 13.3567C5.19477 13.6352 4.9044 13.8118 4.58581 13.8227C4.5758 13.8227 4.56578 13.8227 4.55577 13.8227C4.2481 13.8227 3.96046 13.6671 3.79207 13.4077Z" fill="white"/>
<path d="M4.48012 9.09497L3.84203 10.1363L4.49832 11.1494L5.10364 10.0644L4.48012 9.09497Z" fill="white"/>
<path d="M45.4973 39.6211C45.9661 40.2783 46.2901 41.0429 46.4303 41.8704H48.27C48.1034 40.5432 47.5791 39.3289 46.7963 38.3222L45.4973 39.6211Z" fill="white"/>
<path d="M41.0507 46.4217C43.0616 46.4217 44.6917 44.7916 44.6917 42.7807C44.6917 40.7698 43.0616 39.1397 41.0507 39.1397C39.0398 39.1397 37.4097 40.7698 37.4097 42.7807C37.4097 44.7916 39.0398 46.4217 41.0507 46.4217Z" fill="white"/>
<path d="M40.1404 48.1605C39.3129 48.0203 38.5483 47.6963 37.8911 47.2275L36.5922 48.5264C37.5989 49.3092 38.8132 49.8335 40.1404 50.0001V48.1605Z" fill="white"/>
<path d="M45.4973 45.9402L46.7963 47.2391C47.5791 46.2324 48.1034 45.0181 48.27 43.6909H46.4303C46.2901 44.5183 45.9661 45.283 45.4973 45.9402Z" fill="white"/>
<path d="M41.9609 50.0001C43.2881 49.8335 44.5024 49.3092 45.5091 48.5264L44.2102 47.2275C43.553 47.6963 42.7884 48.0203 41.9609 48.1605V50.0001Z" fill="white"/>
</g>
<defs>
<clipPath id="clip0_5501_2910">
<rect width="50" height="50" fill="white"/>
</clipPath>
</defs>
</svg>
