<svg width="50" height="50" viewBox="0 0 50 50" fill="none" xmlns="http://www.w3.org/2000/svg">
<g clip-path="url(#clip0_5498_2666)">
<path d="M46.4286 29.4643H50V40.1786H46.4286V29.4643Z" fill="white"/>
<path d="M47.3214 7.14285C47.0157 7.14285 46.7172 7.11183 46.4286 7.05301V27.6786H48.2143V7.05301C47.9257 7.11183 47.6271 7.14285 47.3214 7.14285Z" fill="white"/>
<path d="M47.3214 5.35714C48.8008 5.35714 50 4.15791 50 2.67857C50 1.19924 48.8008 0 47.3214 0C45.8421 0 44.6429 1.19924 44.6429 2.67857C44.6429 4.15791 45.8421 5.35714 47.3214 5.35714Z" fill="white"/>
<path d="M31.3443 14.6851L31.25 14.4966L31.1557 14.6851C31.0693 14.8578 30.9292 14.998 30.7565 15.0844L30.568 15.1786L30.7565 15.2729C30.9292 15.3593 31.0693 15.4993 31.1557 15.6722L31.25 15.8607L31.3443 15.6722C31.4307 15.4995 31.5708 15.3593 31.7435 15.2729L31.932 15.1786L31.7435 15.0843C31.5708 14.9979 31.4307 14.8578 31.3443 14.6851Z" fill="white"/>
<path d="M22.3214 3.57144C11.9826 3.57144 3.57141 11.9826 3.57141 22.3214H41.0714C41.0714 11.9826 32.6603 3.57144 22.3214 3.57144ZM15.5779 15.9771L14.0584 16.737L13.2985 18.2565C13.1473 18.5589 12.8382 18.75 12.5 18.75C12.1618 18.75 11.8527 18.5589 11.7014 18.2565L10.9416 16.737L9.42208 15.9771C9.11963 15.8259 8.92855 15.5168 8.92855 15.1786C8.92855 14.8404 9.11963 14.5313 9.42208 14.38L10.9416 13.6202L11.7014 12.1007C11.8527 11.7982 12.1618 11.6072 12.5 11.6072C12.8382 11.6072 13.1473 11.7982 13.2985 12.1007L14.0584 13.6202L15.5779 14.38C15.8803 14.5313 16.0714 14.8404 16.0714 15.1786C16.0714 15.5168 15.8803 15.8259 15.5779 15.9771ZM27.0022 12.4733L23.9505 13.2363L23.1876 16.288C23.0882 16.6854 22.7311 16.9643 22.3214 16.9643C21.9117 16.9643 21.5546 16.6854 21.4552 16.288L20.6923 13.2363L17.6406 12.4733C17.2432 12.3739 16.9643 12.0169 16.9643 11.6072C16.9643 11.1974 17.2432 10.8403 17.6406 10.741L20.6923 9.97803L21.4552 6.92635C21.5547 6.52892 21.9117 6.25001 22.3214 6.25001C22.7311 6.25001 23.0883 6.52892 23.1876 6.92635L23.9505 9.97803L27.0022 10.741C27.3998 10.8404 27.6786 11.1974 27.6786 11.6072C27.6786 12.0169 27.3998 12.374 27.0022 12.4733ZM34.3279 15.9771L32.8084 16.737L32.0485 18.2565C31.8973 18.5589 31.5882 18.75 31.25 18.75C30.9118 18.75 30.6027 18.5589 30.4514 18.2565L29.6916 16.737L28.1721 15.9771C27.8696 15.8259 27.6786 15.5168 27.6786 15.1786C27.6786 14.8404 27.8696 14.5313 28.1721 14.38L29.6916 13.6202L30.4514 12.1007C30.6027 11.7982 30.9118 11.6072 31.25 11.6072C31.5882 11.6072 31.8973 11.7982 32.0485 12.1007L32.8084 13.6202L34.3279 14.38C34.6303 14.5313 34.8214 14.8404 34.8214 15.1786C34.8214 15.5168 34.6303 15.8259 34.3279 15.9771Z" fill="white"/>
<path d="M22.3214 0C10.0134 0 0 10.0134 0 22.3214V44.6429H44.6429V22.3214C44.6429 10.0134 34.6295 0 22.3214 0ZM14.2857 41.0714C14.2857 41.5645 13.8859 41.9643 13.3929 41.9643H2.67857C2.18549 41.9643 1.78571 41.5645 1.78571 41.0714V26.7857C1.78571 26.2926 2.18549 25.8929 2.67857 25.8929H13.3929C13.8859 25.8929 14.2857 26.2926 14.2857 26.7857V41.0714ZM28.5714 41.0714C28.5714 41.5645 28.1717 41.9643 27.6786 41.9643H16.9643C16.4712 41.9643 16.0714 41.5645 16.0714 41.0714V26.7857C16.0714 26.2926 16.4712 25.8929 16.9643 25.8929H27.6786C28.1717 25.8929 28.5714 26.2926 28.5714 26.7857V41.0714ZM42.8571 41.0714C42.8571 41.5645 42.4574 41.9643 41.9643 41.9643H31.25C30.7569 41.9643 30.3571 41.5645 30.3571 41.0714V26.7857C30.3571 26.2926 30.7569 25.8929 31.25 25.8929H41.9643C42.4574 25.8929 42.8571 26.2926 42.8571 26.7857V41.0714ZM42.8571 23.2143C42.8571 23.7074 42.4574 24.1071 41.9643 24.1071H2.67857C2.18549 24.1071 1.78571 23.7074 1.78571 23.2143V22.3214C1.78571 10.998 10.998 1.78571 22.3214 1.78571C33.6449 1.78571 42.8571 10.998 42.8571 22.3214V23.2143Z" fill="white"/>
<path d="M22.3481 10.9308L22.3214 10.8242L22.2948 10.9309C22.2147 11.2508 21.965 11.5006 21.6451 11.5806L21.5385 11.6071L21.6452 11.6338C21.9651 11.7138 22.2149 11.9636 22.2949 12.2835L22.3215 12.3902L22.3482 12.2835C22.4282 11.9636 22.678 11.7138 22.9979 11.6338L23.1046 11.6071L22.9979 11.5805C22.6778 11.5004 22.4281 11.2508 22.3481 10.9308Z" fill="white"/>
<path d="M17.8571 40.1786H20.5357C20.5357 38.5175 21.6756 37.1176 23.2143 36.7201V34.8214H20.5357C20.0426 34.8214 19.6429 34.4217 19.6429 33.9286C19.6429 33.4355 20.0426 33.0357 20.5357 33.0357H24.1071C24.6002 33.0357 25 33.4355 25 33.9286V37.5C25 37.9931 24.6002 38.3929 24.1071 38.3929C23.1225 38.3929 22.3214 39.194 22.3214 40.1786H26.7857V31.25H17.8571V40.1786Z" fill="white"/>
<path d="M32.1429 40.1786H41.0714V27.6786H32.1429V40.1786ZM34.8214 29.4643H38.3929C38.8859 29.4643 39.2857 29.864 39.2857 30.3571V33.9286C39.2857 34.4216 38.8859 34.8214 38.3929 34.8214C37.4083 34.8214 36.6071 35.6225 36.6071 36.6071V37.5C36.6071 37.9931 36.2074 38.3928 35.7143 38.3928C35.2212 38.3928 34.8214 37.9931 34.8214 37.5V36.6071C34.8214 34.9461 35.9614 33.5462 37.5 33.1486V31.25H34.8214C34.3283 31.25 33.9286 30.8502 33.9286 30.3571C33.9286 29.864 34.3283 29.4643 34.8214 29.4643Z" fill="white"/>
<path d="M17.8571 27.6786H26.7857V29.4643H17.8571V27.6786Z" fill="white"/>
<path d="M0 46.4286H44.6429V50H0V46.4286Z" fill="white"/>
<path d="M3.57141 40.1786H12.5V27.6786H3.57141V40.1786ZM6.24998 29.4643H9.82141C10.3145 29.4643 10.7143 29.864 10.7143 30.3571V33.9286C10.7143 34.4216 10.3145 34.8214 9.82141 34.8214C8.83681 34.8214 8.0357 35.6225 8.0357 36.6071V37.5C8.0357 37.9931 7.63592 38.3928 7.14284 38.3928C6.64976 38.3928 6.24998 37.9931 6.24998 37.5V36.6071C6.24998 34.9461 7.38983 33.5462 8.92855 33.1486V31.25H6.24998C5.7569 31.25 5.35713 30.8502 5.35713 30.3571C5.35713 29.864 5.7569 29.4643 6.24998 29.4643Z" fill="white"/>
<path d="M12.5943 14.6851L12.5 14.4966L12.4057 14.6851C12.3193 14.8578 12.1792 14.998 12.0063 15.0844L11.8179 15.1786L12.0064 15.2729C12.1792 15.3593 12.3194 15.4993 12.4058 15.6722L12.5001 15.8607L12.5944 15.6722C12.6808 15.4995 12.8208 15.3593 12.9937 15.2729L13.1822 15.1786L12.9937 15.0843C12.8207 14.9979 12.6807 14.8578 12.5943 14.6851Z" fill="white"/>
</g>
<defs>
<clipPath id="clip0_5498_2666">
<rect width="50" height="50" fill="white"/>
</clipPath>
</defs>
</svg>
