<svg width="50" height="50" viewBox="0 0 50 50" fill="none" xmlns="http://www.w3.org/2000/svg">
<g clip-path="url(#clip0_5501_2723)">
<path d="M46.0976 15.3658H50V19.2683H46.0976V15.3658Z" fill="white"/>
<path d="M46.0976 30.7317H50V34.6342H46.0976V30.7317Z" fill="white"/>
<path d="M46.0976 20.4878H50V24.3902H46.0976V20.4878Z" fill="white"/>
<path d="M46.0976 25.6097H50V29.5122H46.0976V25.6097Z" fill="white"/>
<path d="M46.0976 5.12195H50V9.02439H46.0976V5.12195Z" fill="white"/>
<path d="M46.0976 40.9756H50V44.8781H46.0976V40.9756Z" fill="white"/>
<path d="M46.0976 35.8537H50V39.7561H46.0976V35.8537Z" fill="white"/>
<path d="M46.0976 10.2439H50V14.1463H46.0976V10.2439Z" fill="white"/>
<path d="M35.8537 46.0976H39.7561V50H35.8537V46.0976Z" fill="white"/>
<path d="M25.6097 46.0976H29.5122V50H25.6097V46.0976Z" fill="white"/>
<path d="M30.7317 46.0976H34.6342V50H30.7317V46.0976Z" fill="white"/>
<path d="M5.12195 46.0976H9.02439V50H5.12195V46.0976Z" fill="white"/>
<path d="M40.9756 46.0976H44.8781V50H40.9756V46.0976Z" fill="white"/>
<path d="M46.0976 50H49.3902C49.7266 50 50 49.7266 50 49.3902V46.0976H46.0976V50Z" fill="white"/>
<path d="M20.4878 46.0976H24.3902V50H20.4878V46.0976Z" fill="white"/>
<path d="M10.2439 46.0976H14.1463V50H10.2439V46.0976Z" fill="white"/>
<path d="M15.3658 46.0976H19.2683V50H15.3658V46.0976Z" fill="white"/>
<path d="M5.12195 5.12195V44.878H44.878V5.12195H5.12195ZM39.2327 28.1331C39.2327 29.9451 37.7591 31.4187 35.9472 31.4187H31.7693V36.2978C31.7693 38.1087 30.2957 39.5833 28.4837 39.5833H14.0518C12.2419 39.5833 10.7673 38.1087 10.7673 36.2978V21.8659C10.7673 20.0539 12.2419 18.5803 14.0518 18.5803H18.2317V13.7022C18.2317 11.8913 19.7053 10.4167 21.5163 10.4167H35.9472C37.7591 10.4167 39.2327 11.8913 39.2327 13.7022V28.1331Z" fill="white"/>
<path d="M28.4837 19.5193H14.0518C12.7571 19.5193 11.7053 20.5701 11.7053 21.8659V36.2978C11.7053 37.5935 12.7571 38.6443 14.0518 38.6443H28.4837C29.7805 38.6443 30.8303 37.5935 30.8303 36.2978V21.8659C30.8303 20.5701 29.7805 19.5193 28.4837 19.5193ZM26.1372 22.2693C27.2104 22.2693 28.0813 23.1413 28.0813 24.2134C28.0813 25.2856 27.2104 26.1585 26.1372 26.1585C25.064 26.1585 24.1921 25.2856 24.1921 24.2134C24.1921 23.1413 25.065 22.2693 26.1372 22.2693ZM16.3974 22.2693C17.2439 22.2693 17.9655 22.813 18.2317 23.5691C18.3029 23.7703 18.3415 23.9878 18.3415 24.2134C18.3415 24.439 18.3029 24.6555 18.2317 24.8577C17.9655 25.6138 17.2439 26.1585 16.3974 26.1585C15.3252 26.1585 14.4522 25.2856 14.4522 24.2134C14.4522 23.1413 15.3252 22.2693 16.3974 22.2693ZM16.3974 35.8984C15.3252 35.8984 14.4522 35.0264 14.4522 33.9533C14.4522 32.8801 15.3252 32.0092 16.3974 32.0092C17.4695 32.0092 18.3415 32.8811 18.3415 33.9533C18.3415 35.0254 17.4695 35.8984 16.3974 35.8984ZM26.1372 35.8984C25.065 35.8984 24.1921 35.0264 24.1921 33.9533C24.1921 32.8801 25.065 32.0092 26.1372 32.0092C27.2094 32.0092 28.0813 32.8811 28.0813 33.9533C28.0813 35.0254 27.2104 35.8984 26.1372 35.8984ZM21.2673 31.0285C20.1951 31.0285 19.3222 30.1555 19.3222 29.0833C19.3222 29.0468 19.3232 29.0092 19.3252 28.9736C19.3821 27.9522 20.2317 27.1392 21.2673 27.1392C22.3029 27.1392 23.2114 28.0112 23.2114 29.0833C23.2114 29.6301 22.9837 30.126 22.6189 30.4797C22.2693 30.8191 21.7927 31.0285 21.2673 31.0285Z" fill="white"/>
<path d="M0 20.4878H3.90244V24.3902H0V20.4878Z" fill="white"/>
<path d="M0 40.9756H3.90244V44.8781H0V40.9756Z" fill="white"/>
<path d="M0 15.3658H3.90244V19.2683H0V15.3658Z" fill="white"/>
<path d="M0 30.7317H3.90244V34.6342H0V30.7317Z" fill="white"/>
<path d="M0 25.6097H3.90244V29.5122H0V25.6097Z" fill="white"/>
<path d="M0 10.2439H3.90244V14.1463H0V10.2439Z" fill="white"/>
<path d="M0 35.8537H3.90244V39.7561H0V35.8537Z" fill="white"/>
<path d="M0 49.3902C0 49.7266 0.273374 50 0.609756 50H3.90244V46.0976H0V49.3902Z" fill="white"/>
<path d="M0 5.12195H3.90244V9.02439H0V5.12195Z" fill="white"/>
<path d="M20.4878 0H24.3902V3.90244H20.4878V0Z" fill="white"/>
<path d="M25.6097 0H29.5122V3.90244H25.6097V0Z" fill="white"/>
<path d="M15.3658 0H19.2683V3.90244H15.3658V0Z" fill="white"/>
<path d="M30.7317 0H34.6342V3.90244H30.7317V0Z" fill="white"/>
<path d="M10.2439 0H14.1463V3.90244H10.2439V0Z" fill="white"/>
<path d="M40.9756 0H44.8781V3.90244H40.9756V0Z" fill="white"/>
<path d="M49.3902 0H46.0976V3.90244H50V0.609756C50 0.273374 49.7266 0 49.3902 0Z" fill="white"/>
<path d="M35.8537 0H39.7561V3.90244H35.8537V0Z" fill="white"/>
<path d="M5.12195 0H9.02439V3.90244H5.12195V0Z" fill="white"/>
<path d="M0 0.609756V3.90244H3.90244V0H0.609756C0.273374 0 0 0.273374 0 0.609756Z" fill="white"/>
<path d="M35.9471 11.3557H21.5163C20.2195 11.3557 19.1697 12.4055 19.1697 13.7022V18.5803H28.4837C28.6951 18.5803 28.9014 18.6006 29.1016 18.6392H29.1026C30.4553 19.0356 31.498 20.1728 31.7571 21.5782V21.5813C31.7652 21.6748 31.7693 21.7703 31.7693 21.8658V30.4797H35.9471C37.2439 30.4797 38.2937 29.4299 38.2937 28.1331V13.7022C38.2937 12.4055 37.2439 11.3557 35.9471 11.3557ZM23.8638 17.4228C23.1047 17.4228 22.4878 16.8059 22.4878 16.0518C22.4878 15.2978 23.1047 14.6768 23.8638 14.6768C24.623 14.6768 25.2388 15.2927 25.2388 16.0518C25.2388 16.811 24.6219 17.4228 23.8638 17.4228ZM33.5996 27.1585C32.8404 27.1585 32.2307 26.5478 32.2307 25.7886C32.2307 25.0295 32.8404 24.4126 33.5996 24.4126C34.3587 24.4126 34.9746 25.0295 34.9746 25.7886C34.9746 26.5478 34.3587 27.1585 33.5996 27.1585ZM33.5996 17.4228C32.8404 17.4228 32.2307 16.8059 32.2307 16.0518C32.2307 15.2978 32.8404 14.6768 33.5996 14.6768C34.3587 14.6768 34.9746 15.2927 34.9746 16.0518C34.9746 16.811 34.3587 17.4228 33.5996 17.4228Z" fill="white"/>
</g>
<defs>
<clipPath id="clip0_5501_2723">
<rect width="50" height="50" fill="white"/>
</clipPath>
</defs>
</svg>
