<svg width="50" height="50" viewBox="0 0 50 50" fill="none" xmlns="http://www.w3.org/2000/svg">
<g clip-path="url(#clip0_5501_2792)">
<path fill-rule="evenodd" clip-rule="evenodd" d="M50 23.7273H46.8763C46.2396 12.6549 37.3436 3.76017 26.2696 3.12373V0H23.7272V3.12373C12.6549 3.76028 3.76028 12.6549 3.12373 23.7273H0V26.2697H3.12373C3.76017 37.3438 12.6549 46.2396 23.7273 46.8763V50H26.2697V46.8763C37.3439 46.2397 46.2398 37.3438 46.8764 26.2697H50V23.7273ZM44.3289 23.7273H42.8446C42.2199 14.8744 35.1242 7.77998 26.2696 7.1554V5.67108C35.9413 6.30064 43.6993 14.0572 44.3289 23.7273ZM40.2949 26.2697C39.681 33.7216 33.7215 39.681 26.2696 40.2949V37.259H23.7272V40.2948C16.2769 39.6808 10.3188 33.7215 9.70498 26.2697H12.7378V23.7273H9.70498C10.3188 16.2771 16.2769 10.319 23.7271 9.70519V12.738H26.2695V9.70519C33.7213 10.319 39.6808 16.2771 40.2947 23.7274H37.2589V26.2698H40.2949V26.2697ZM23.7272 5.67108V7.1554C14.8744 7.77998 7.77998 14.8745 7.1554 23.7273H5.67108C6.30074 14.0573 14.0573 6.30074 23.7272 5.67108ZM5.67108 26.2697H7.1554C7.77998 35.1242 14.8745 42.2199 23.7273 42.8446V44.3289C14.0573 43.6993 6.30064 35.9413 5.67108 26.2697ZM26.2696 44.3289V42.8446C35.1242 42.22 42.22 35.1242 42.8446 26.2697H44.3289C43.6993 35.9413 35.9413 43.6993 26.2696 44.3289Z" fill="white"/>
<path fill-rule="evenodd" clip-rule="evenodd" d="M26.2696 17.4202V15.6958H23.7272V17.4203C20.5065 17.9589 17.9589 20.5066 17.4203 23.7273H15.6958V26.2697H17.4202C17.9587 29.492 20.5063 32.0408 23.7272 32.5797V34.3043H26.2696V32.5798C29.492 32.0411 32.041 29.4922 32.5797 26.2697H34.3041V23.7273H32.5795C32.0408 20.5064 29.4919 17.9587 26.2696 17.4202ZM26.2696 29.9852V28.5269H23.7272V29.9851C21.9108 29.5212 20.4781 28.0874 20.0147 26.2698H21.4732V23.7274H20.0149C20.4784 21.9112 21.911 20.4786 23.7272 20.015V21.4732H26.2696V20.0148C28.0872 20.4782 29.5211 21.9109 29.985 23.7273H28.5268V26.2697H29.9852C29.5215 28.0875 28.0875 29.5215 26.2696 29.9852Z" fill="white"/>
<path fill-rule="evenodd" clip-rule="evenodd" d="M24.9984 23.7283C24.2988 23.7283 23.7283 24.2988 23.7283 24.9985C23.7283 25.7012 24.2988 26.2717 24.9984 26.2717C25.7012 26.2717 26.2717 25.7013 26.2717 24.9985C26.2717 24.2988 25.7012 23.7283 24.9984 23.7283Z" fill="white"/>
</g>
<defs>
<clipPath id="clip0_5501_2792">
<rect width="50" height="50" fill="white"/>
</clipPath>
</defs>
</svg>
