<svg width="50" height="50" viewBox="0 0 50 50" fill="none" xmlns="http://www.w3.org/2000/svg">
<g clip-path="url(#clip0_5501_2797)">
<path d="M11.4118 24.3393C6.82304 24.3393 6.80293 15.357 11.4098 15.357C9.89787 18.0517 9.89141 21.6323 11.4118 24.3393Z" fill="white"/>
<path d="M38.6318 24.3393C40.151 21.6133 40.1416 18.0575 38.6298 15.357C43.2291 15.357 43.2217 24.3393 38.6318 24.3393Z" fill="white"/>
<path d="M31.6763 13.025H18.3643C9.83398 13.025 9.80762 26.6704 18.3643 26.6704H31.6763C40.2259 26.6704 40.2204 13.025 31.6763 13.025ZM28.2236 18.3348H21.8171C21.3567 18.3348 20.9834 17.9615 20.9834 17.5012C20.9834 17.0408 21.3567 16.6675 21.8171 16.6675H28.2236C28.684 16.6675 29.0572 17.0408 29.0572 17.5012C29.0572 17.9615 28.684 18.3348 28.2236 18.3348Z" fill="white"/>
<path d="M37.3939 26.0065C35.9965 27.4519 34.0108 28.3376 31.6763 28.3376H18.3643C16.1882 28.3376 14.1554 27.5625 12.6477 26.0065H12.1621C14.5658 39.8362 35.475 39.8064 37.8784 26.0065H37.3939ZM28.5564 30.2946C26.6676 32.1646 23.3605 32.1595 21.48 30.2936C21.1538 29.9695 21.1507 29.4422 21.4758 29.115C21.7999 28.7878 22.3271 28.7857 22.6543 29.1098C23.8912 30.3363 26.1451 30.3363 27.3841 29.1098C27.7103 28.7857 28.2386 28.7878 28.5627 29.115C28.8867 29.4422 28.8836 29.9704 28.5564 30.2946Z" fill="white"/>
<path d="M21.3402 42.2608C21.7127 42.4406 25.081 43.968 28.6192 42.272C30.384 41.4258 31.5063 40.1177 32.2175 38.8613C31.6403 38.3463 31.1854 37.72 30.8969 36.924C27.2179 38.4002 22.8172 38.4044 19.1199 36.9178C18.8226 37.7278 18.3513 38.3594 17.7536 38.8763C18.4415 40.0708 19.5572 41.4001 21.3402 42.2608Z" fill="white"/>
<path d="M33.5919 39.7962C29.6991 46.5051 20.1669 46.3022 16.3516 39.8006C12.2623 41.9052 5.12244 41.8763 5.11691 49.1544C5.11691 49.6124 5.48871 50 5.95054 50H44.0483C44.5128 50 44.882 49.6355 44.883 49.1784C44.8872 41.9184 37.6685 41.9622 33.5919 39.7962Z" fill="white"/>
<path d="M42.2769 8.5306C41.9653 8.95158 41.6037 9.3809 41.1973 9.80917V14.4316C40.6409 14.0669 40.0271 13.8398 39.3904 13.7439C38.3484 10.45 35.2609 8.05439 31.6231 8.05439H18.4164C14.7786 8.05439 11.6911 10.45 10.6501 13.7449C10.0545 13.8322 9.42645 14.0583 8.8526 14.4306V10.3948C8.8526 8.25029 10.4625 6.53406 12.4643 6.26522C17.415 -4.69802 33.3039 2.12522 38.7152 1.82199C42.256 1.6241 44.3974 5.6599 42.2769 8.5306Z" fill="white"/>
<path d="M37.744 14.0773C36.2612 12.3226 34.1094 11.3576 31.6763 11.3576H18.3643C15.9311 11.3576 13.7804 12.3215 12.2976 14.0732C13.177 11.5431 15.5873 9.72165 18.4164 9.72165H31.6231C34.4533 9.72175 36.8656 11.5453 37.744 14.0773Z" fill="white"/>
</g>
<defs>
<clipPath id="clip0_5501_2797">
<rect width="50" height="50" fill="white"/>
</clipPath>
</defs>
</svg>
