<svg width="20" height="22" viewBox="0 0 20 22" fill="none" xmlns="http://www.w3.org/2000/svg">
<path d="M5.58072 21.1552C5.20518 20.9282 4.93549 20.5828 4.63304 20.2819C3.60219 19.2581 2.58141 18.2245 1.55812 17.1959C1.12713 16.7617 0.698657 16.3251 0.265144 15.8958C0.0383063 15.6713 -0.0675515 15.4173 0.0458676 15.1114C0.159287 14.8055 0.401248 14.655 0.726382 14.6501C1.33128 14.6402 1.93367 14.6402 2.53857 14.6377C2.87883 14.6377 2.87883 14.6377 2.87883 14.3121C2.87883 12.5458 2.87883 10.7771 2.87883 9.01083C2.87883 8.36699 3.14095 8.10797 3.79626 8.10797C5.15981 8.10797 6.52336 8.10797 7.88439 8.10797C8.49181 8.10797 8.75646 8.36699 8.75646 8.9615C8.75646 10.7278 8.75646 12.4965 8.75646 14.2628C8.75646 14.655 8.70857 14.6353 9.14712 14.6353C9.69405 14.6353 10.2435 14.6303 10.7904 14.6353C11.2416 14.6402 11.4962 14.7981 11.6071 15.1212C11.7104 15.4173 11.6045 15.6565 11.3928 15.8687C10.3141 16.9516 9.23534 18.0371 8.15659 19.12C7.58194 19.6972 7.00728 20.2696 6.43766 20.8493C6.3192 20.9701 6.19318 21.0762 6.04196 21.1502L5.5782 21.1502L5.58072 21.1552Z" fill="white"/>
<path d="M10.6691 9.57095C10.6691 8.65081 10.664 7.72821 10.6741 6.80807C10.6741 6.59839 10.6086 6.53425 10.3969 6.53918C9.80709 6.55152 9.21732 6.54658 8.62754 6.53918C8.18646 6.53425 7.93694 6.38377 7.821 6.06801C7.70758 5.76459 7.81596 5.51791 8.03272 5.30082C9.09129 4.23761 10.1499 3.1744 11.2085 2.10872C11.8159 1.49694 12.4233 0.885156 13.0282 0.273376C13.3785 -0.0818508 13.807 -0.0941849 14.1548 0.256108C15.8334 1.9385 17.507 3.62336 19.1856 5.30823C19.3998 5.52284 19.488 5.77199 19.3847 6.06062C19.2788 6.3591 19.052 6.51945 18.7319 6.52438C18.122 6.53672 17.5095 6.53672 16.8996 6.54165C16.5492 6.54165 16.5492 6.54165 16.5492 6.87714C16.5492 8.64341 16.5492 10.4121 16.5492 12.1784C16.5492 12.8149 16.2896 13.0714 15.6444 13.0714C14.2758 13.0714 12.9047 13.0714 11.5361 13.0714C10.9413 13.0714 10.6716 12.8099 10.6716 12.2302C10.6716 11.3421 10.6716 10.4565 10.6716 9.56848L10.6691 9.57095Z" fill="white"/>
</svg>
