<svg width="27" height="22" viewBox="0 0 27 22" fill="none" xmlns="http://www.w3.org/2000/svg">
<path d="M18.6137 9.77136C18.5582 9.77136 18.5001 9.77136 18.4446 9.77136C16.6808 9.80921 15.2803 11.2702 15.3181 13.0341C15.356 14.7979 16.817 16.1984 18.5809 16.1605C18.5859 16.1605 18.5909 16.1605 18.5935 16.1605C20.3573 16.158 21.783 14.7272 21.7805 12.9634C21.7805 12.9584 21.7805 12.9533 21.7805 12.9483C21.7805 11.1971 20.3649 9.77389 18.6111 9.77136H18.6137ZM19.5145 13.2486C19.358 13.4832 19.0578 13.5766 18.7979 13.4706C18.7146 13.4378 18.7045 13.463 18.7096 13.5362V13.6094C18.7096 13.7086 18.7575 13.7616 18.8534 13.7684C18.9392 13.7633 19.0124 13.8315 19.0174 13.9173C19.0174 13.9223 19.0174 13.9248 19.0174 13.9298C19.0225 14.0156 18.9594 14.0888 18.8736 14.0939C18.866 14.0939 18.8609 14.0939 18.8534 14.0939C18.7524 14.0964 18.649 14.0939 18.5455 14.0939C18.4421 14.0939 18.3411 14.0964 18.2377 14.0939C18.1544 14.0989 18.0812 14.0333 18.0787 13.9475C18.0787 13.9425 18.0787 13.9349 18.0787 13.9298C18.0787 13.844 18.1443 13.7734 18.2301 13.7734C18.2301 13.7734 18.2326 13.7734 18.2352 13.7734C18.3361 13.765 18.3866 13.7103 18.3866 13.6094V13.5261C18.3941 13.4555 18.374 13.4454 18.3058 13.4706C17.9854 13.5943 17.6245 13.4327 17.5009 13.1123C17.4756 13.0492 17.463 12.9811 17.4605 12.9129C17.4453 12.6581 17.5412 12.4512 17.7053 12.2695C17.9223 12.0247 18.1872 11.8229 18.437 11.6084C18.4976 11.5478 18.5935 11.5478 18.654 11.6033C18.9341 11.8456 19.2369 12.0626 19.464 12.3603C19.6811 12.643 19.6987 12.9887 19.5145 13.2511V13.2486Z" fill="white"/>
<path d="M11.1399 7.49534C10.5797 6.41534 9.43911 5.76178 8.22285 5.82487C6.50192 5.87281 5.1368 7.29094 5.15447 9.01188C5.15447 9.32982 5.19986 9.64777 5.29323 9.95057C5.80547 11.6362 7.58696 12.585 9.27257 12.0727C9.47949 12.0323 9.63341 11.8608 9.64603 11.6513C9.82519 10.2912 10.3299 8.99674 11.1222 7.87636C11.213 7.76786 11.2206 7.61141 11.1399 7.49534ZM9.21201 9.03459C8.97229 9.29702 8.73257 9.56197 8.49033 9.8244C8.40453 9.91524 8.32631 9.91524 8.24304 9.8244C8.01089 9.5645 7.78124 9.30459 7.55414 9.04216C7.47843 8.95636 7.48096 8.89328 7.55414 8.80749C7.78376 8.54506 8.01341 8.28515 8.24304 8.02524C8.32379 7.9344 8.40201 7.9344 8.48528 8.02272C8.73005 8.28767 8.96977 8.55263 9.21201 8.81758C9.24229 8.84534 9.25996 8.88066 9.26248 8.92104C9.26248 8.96393 9.24481 9.00683 9.21201 9.03711V9.03459Z" fill="white"/>
<path d="M26.8253 13.8569C26.7118 14.5659 26.5301 15.2598 26.2878 15.9361C25.5662 17.8059 24.1834 19.3452 22.407 20.2687C21.2816 20.8668 20.0274 21.1847 18.7531 21.1923C16.7319 21.2453 14.7612 20.5362 13.237 19.2089C9.77751 16.244 9.37632 11.0357 12.3413 7.57368C13.5702 6.14041 15.2557 5.16891 17.1129 4.82826C21.5969 4.00817 25.8992 6.97817 26.7193 11.4622C26.7446 11.6035 26.7673 11.7448 26.7849 11.8861C26.795 11.9467 26.8076 12.0047 26.8253 12.0627V13.8569ZM22.952 12.9661C22.952 10.5613 21.004 8.61078 18.5992 8.60826C16.1944 8.60826 14.2439 10.5563 14.2413 12.9611C14.2413 15.3658 16.1894 17.3164 18.5941 17.3189C20.9964 17.324 22.9469 15.3784 22.9495 12.9762C22.9495 12.9712 22.9495 12.9686 22.9495 12.9636L22.952 12.9661ZM24.5846 11.7978L25.3517 11.6893C25.5157 11.6666 25.5561 11.5934 25.5258 11.4218C25.3618 10.5588 25.0287 9.73873 24.5468 9.00443C24.461 8.87574 24.3878 8.84546 24.2591 8.94639C24.1304 9.04732 23.9235 9.19368 23.7519 9.30975C23.651 9.37789 23.6131 9.43845 23.6838 9.56209C24.0673 10.2055 24.3424 10.907 24.4963 11.6413C24.514 11.7246 24.5442 11.8028 24.5871 11.8003L24.5846 11.7978ZM17.5873 6.80153C17.5495 6.56938 17.5091 6.32209 17.4738 6.08237C17.4586 5.95368 17.388 5.92845 17.2744 5.95116C16.3912 6.14546 15.5459 6.47854 14.7713 6.94284C14.6729 7.00088 14.63 7.06144 14.7082 7.17499C14.8571 7.37686 15.0034 7.58125 15.1473 7.78817C15.2179 7.89415 15.2961 7.88153 15.3794 7.81845C15.99 7.40209 16.6814 7.11947 17.4082 6.98826C17.5116 6.97564 17.6126 6.94789 17.5848 6.80405L17.5873 6.80153ZM20.1284 6.02686C20.03 6.01424 20.0072 6.07985 19.9946 6.15303C19.9492 6.40032 19.9012 6.6476 19.8584 6.89489C19.8331 7.04377 19.9214 7.09172 20.0451 7.12704C20.6456 7.2734 21.2134 7.53331 21.7206 7.88658C21.8543 7.97994 21.93 7.95218 22.0158 7.82602C22.1395 7.63676 22.2707 7.45508 22.412 7.27845C22.5483 7.11695 22.4978 7.0362 22.3338 6.93779C21.8392 6.6476 21.3169 6.40788 20.7743 6.22116C20.5548 6.15303 20.3378 6.10508 20.1208 6.0319L20.1259 6.02433L20.1284 6.02686ZM17.2921 19.0398C17.3274 18.9137 17.2139 18.8935 17.1104 18.8683C16.7344 18.7598 16.3711 18.621 16.0203 18.4494C15.7655 18.3333 15.5333 17.9876 15.2911 18.0936C15.0488 18.1996 14.9277 18.5402 14.7536 18.7749L14.7233 18.8153C14.6451 18.9086 14.6804 18.9641 14.7713 19.0197C15.445 19.4158 16.1692 19.7212 16.9237 19.923C17.0398 19.9558 17.1306 19.9533 17.1558 19.807C17.1987 19.547 17.2467 19.3023 17.2946 19.0348L17.2921 19.0398ZM25.6368 14.3161C25.6368 14.2177 25.5662 14.2076 25.4854 14.1925C25.2533 14.1546 25.0363 14.1269 24.8193 14.0713C24.6502 14.031 24.5872 14.084 24.5417 14.2429C24.4231 14.677 24.2642 15.1009 24.0673 15.5071C23.974 15.7141 23.7166 15.9159 23.8125 16.1228C23.9084 16.3298 24.1657 16.4105 24.3449 16.5594C24.4837 16.6704 24.5771 16.6628 24.678 16.5064C24.9127 16.1531 25.1196 15.7771 25.2911 15.3885C25.445 15.0403 25.5611 14.677 25.6343 14.306V14.3161H25.6368ZM19.982 18.9591C20.0173 19.2013 20.0451 19.3982 20.0754 19.595C20.0905 19.7161 20.1359 19.7767 20.2798 19.7489C21.0166 19.6227 21.7257 19.3679 22.3742 18.9995C22.4978 18.9313 22.5079 18.8657 22.4272 18.7547C22.2783 18.5528 22.1294 18.351 21.9931 18.139C21.9149 18.0179 21.8443 18.0355 21.7358 18.0961C21.2361 18.3939 20.6986 18.626 20.141 18.79C20.0249 18.8127 19.9593 18.8733 19.982 18.9641V18.9591ZM12.5356 14.1899C12.3034 14.2253 12.0738 14.2682 11.8416 14.2934C11.6751 14.3111 11.6373 14.3918 11.6802 14.5407C11.8845 15.2422 12.1722 15.9159 12.5406 16.5442C12.6087 16.6628 12.6819 16.6755 12.7904 16.5922C12.9494 16.4685 13.1109 16.36 13.2774 16.244C13.3985 16.1632 13.4011 16.0749 13.3355 15.9588C13.0604 15.4642 12.8712 14.9293 12.7727 14.3716C12.7702 14.2656 12.6794 14.1798 12.5734 14.1849C12.5608 14.1849 12.5482 14.1849 12.5356 14.1899ZM12.5053 11.4798C12.6693 11.5202 12.6945 11.4016 12.7223 11.2906C12.8409 10.8364 13.015 10.3998 13.237 9.98602C13.3329 9.79676 13.5802 9.63275 13.5222 9.42835C13.4641 9.22396 13.1815 9.15583 13.015 9.00695C12.8484 8.85807 12.7828 8.91106 12.7021 9.07256C12.3614 9.67564 12.0889 10.3166 11.8921 10.9827C11.8198 11.2267 11.9056 11.3705 12.1495 11.4142L12.5078 11.4824L12.5053 11.4798Z" fill="white"/>
<path d="M0.0751953 9.00435C0.259402 5.49182 1.86425 2.88014 5.11436 1.4292C8.72025 -0.130235 12.9267 1.09359 15.1346 4.34369C15.3264 4.62631 15.3239 4.62379 15.011 4.755C14.852 4.82313 14.693 4.89379 14.5341 4.96444C14.423 5.01491 14.3196 5.08809 14.2111 4.96444C14.1631 4.90388 14.1001 4.93921 14.0496 4.97706C13.8452 5.12341 13.5525 5.22435 13.449 5.42622C13.1715 5.95108 12.5986 6.13276 12.258 6.56425C12.1192 6.74089 12.0259 6.69295 11.8997 6.5264C11.1023 5.35052 9.76489 4.65659 8.34676 4.6793C5.93947 4.67173 3.98386 6.61724 3.97629 9.02453C3.97125 11.1013 5.42975 12.8929 7.46358 13.3067C8.05153 13.4354 8.66221 13.4278 9.24763 13.2865C9.47978 13.231 9.56807 13.2865 9.58321 13.5414C9.61097 13.8972 9.65641 14.2479 9.7195 14.5986C9.77249 14.9393 9.73211 15.2926 9.81791 15.6282C9.84314 15.7291 9.83557 15.8376 9.98193 15.8603C10.0728 15.8603 10.0955 15.9562 10.1283 16.0294C10.2368 16.2742 10.3377 16.5265 10.4538 16.7662C10.5345 16.9302 10.5194 17.0085 10.3201 17.0564C9.29557 17.3062 8.23321 17.3592 7.19106 17.2103C3.61293 16.7031 0.781736 13.93 0.198838 10.3644C0.12566 9.91528 0.085291 9.46108 0.077721 9.00435H0.0751953ZM7.33994 2.92556C7.292 2.62528 7.25415 2.37799 7.21629 2.1307C7.20115 2.02472 7.14312 1.99191 7.03209 2.01463C6.14891 2.20135 5.30106 2.53444 4.52639 2.99874C4.41284 3.06434 4.38508 3.14005 4.46835 3.25108C4.61218 3.4479 4.75349 3.64472 4.88975 3.84407C4.94779 3.93238 5.00583 3.96267 5.09919 3.89453C5.73003 3.45799 6.44669 3.16527 7.20118 3.03406C7.28193 3.02144 7.34499 2.97098 7.33994 2.92556ZM9.90875 2.10546C9.78258 2.07014 9.73968 2.14079 9.72202 2.25182C9.68417 2.48397 9.64632 2.73126 9.59585 2.97098C9.5681 3.09462 9.62109 3.14762 9.72959 3.17285C10.3554 3.3293 10.9458 3.59425 11.4783 3.95762C11.5691 4.01818 11.6524 4.0308 11.7255 3.92986C11.887 3.69771 12.0486 3.46809 12.2151 3.25865C12.2731 3.1779 12.2655 3.12491 12.1772 3.06939C11.4757 2.63537 10.7112 2.31238 9.90875 2.10799V2.10546ZM7.02452 15.1614C7.04471 15.0024 6.9791 14.9494 6.87564 14.9292C6.2776 14.7778 5.70985 14.5204 5.20517 14.1646C5.14209 14.1015 5.04115 14.1041 4.98059 14.1646C4.96545 14.1798 4.95536 14.1949 4.94779 14.2151C4.79891 14.4271 4.64501 14.639 4.48604 14.8459C4.39772 14.9595 4.42798 15.0251 4.54153 15.0932C5.21527 15.4894 5.9395 15.7922 6.69651 15.989C6.7823 16.0117 6.8681 16.0294 6.89081 15.8957C6.93623 15.6307 6.98667 15.3758 7.02704 15.1588L7.02452 15.1614ZM1.40249 10.5108C1.41511 10.5587 1.4277 10.6092 1.44284 10.6597C1.62957 11.2829 1.88443 11.881 2.2049 12.4462C2.37649 12.7541 2.37397 12.7541 2.64901 12.5598C2.78274 12.4639 2.91648 12.3655 3.05274 12.2746C3.12592 12.2418 3.15872 12.1535 3.1234 12.0803C3.11835 12.0702 3.1133 12.0627 3.10826 12.0551C2.81302 11.5353 2.60866 10.9675 2.50014 10.3796C2.48248 10.2786 2.432 10.2181 2.32349 10.2307L1.52866 10.3543C1.45043 10.367 1.37473 10.3972 1.40249 10.5083V10.5108ZM2.28061 7.5307C2.42445 7.55341 2.44464 7.41967 2.47492 7.29855C2.59604 6.84687 2.77013 6.41033 2.99723 6.00154C3.09312 5.82238 3.34293 5.65584 3.26723 5.47416C3.19153 5.29248 2.94174 5.20668 2.78025 5.06538C2.61875 4.92407 2.52284 4.97706 2.42443 5.15117C2.1292 5.66089 1.8895 6.20341 1.71538 6.76865C1.48323 7.55089 1.43274 7.35659 2.19732 7.52061C2.22508 7.52566 2.25286 7.52818 2.28061 7.5307Z" fill="white"/>
</svg>
