<svg width="28" height="28" viewBox="0 0 28 28" fill="none" xmlns="http://www.w3.org/2000/svg">
<rect width="28" height="28" rx="8" fill="#FF6621"/>
<path d="M13.5294 8.00527C15.4007 8.00527 17.272 8.00185 19.1433 8.00527C20.1072 8.0087 20.7407 8.46411 20.9547 9.27736C20.9975 9.44172 20.9992 9.6078 20.9992 9.77387C20.9992 12.0013 21.001 14.2305 20.9992 16.4579C20.9992 17.5262 20.3384 18.1854 19.2734 18.1905C18.7273 18.1922 18.1811 18.2008 17.6367 18.1871C17.3953 18.182 17.3131 18.271 17.284 18.509C17.1693 19.4626 16.7772 19.793 15.8047 19.793C14.2348 19.793 12.6631 19.793 11.0931 19.793C10.2764 19.793 9.79528 19.3565 9.75077 18.5415C9.73536 18.2607 9.6395 18.1803 9.37241 18.1871C8.78174 18.2025 8.19107 18.1974 7.60211 18.1871C6.77859 18.1734 6.10916 17.5519 6.05437 16.7284C5.96192 15.3382 6.02356 13.9445 6.01842 12.5526C6.01329 11.5836 5.96706 10.6128 6.04411 9.64718C6.128 8.59081 6.77345 8.0087 7.85036 8.00356C9.74394 7.99671 11.6375 8.00185 13.5311 8.00185L13.5294 8.00527ZM14.007 13.8897C14.007 13.5559 14.0036 13.222 14.0088 12.8882C14.0088 12.7923 13.966 12.6605 14.0687 12.6142C14.1954 12.556 14.257 12.6981 14.3358 12.7666C14.4522 12.8693 14.5532 12.9909 14.6713 13.0919C14.911 13.2974 15.1627 13.2974 15.3596 13.1022C15.5359 12.9275 15.5496 12.6057 15.3562 12.4054C14.8682 11.902 14.3717 11.4072 13.8684 10.9176C13.6526 10.7087 13.3958 10.7001 13.1801 10.909C12.6665 11.4021 12.1614 11.9054 11.6683 12.4191C11.4475 12.6485 11.468 12.9002 11.6752 13.1005C11.8789 13.2956 12.1254 13.2974 12.3634 13.0936C12.4901 12.984 12.5997 12.8574 12.723 12.7444C12.7932 12.681 12.8497 12.556 12.9644 12.6108C13.0722 12.6622 13.0329 12.7889 13.0329 12.883C13.0363 13.5627 13.0312 14.2407 13.0397 14.9204C13.0431 15.2628 13.2503 15.4769 13.5362 15.4683C13.8102 15.458 13.9985 15.2491 14.0053 14.9256C14.0139 14.5814 14.007 14.2356 14.007 13.8897ZM13.5277 18.6785C14.2844 18.6785 15.0412 18.6785 15.7979 18.6785C15.9708 18.6785 16.1369 18.6853 16.1455 18.4354C16.154 18.17 15.9759 18.1957 15.8082 18.1957C14.2947 18.1957 12.7829 18.1957 11.2694 18.1974C11.1153 18.1974 10.915 18.1392 10.9047 18.4097C10.8945 18.7076 11.1016 18.6802 11.2917 18.6802C12.0364 18.6802 12.7829 18.6802 13.5277 18.6802V18.6785Z" fill="white"/>
</svg>
