<?xml version="1.0" encoding="utf-8"?>
<!-- Generator: Adobe Illustrator 27.1.0, SVG Export Plug-In . SVG Version: 6.00 Build 0)  -->
<svg version="1.1" id="Layer_1" xmlns="http://www.w3.org/2000/svg" xmlns:xlink="http://www.w3.org/1999/xlink" x="0px" y="0px"
	 viewBox="0 0 25 22" style="enable-background:new 0 0 25 22;" xml:space="preserve">
<style type="text/css">
	.st0{fill:#FFFFFF;}
</style>
<g>
	<path class="st0" d="M24.3,1.3c-0.4-0.8-1.2-1.2-2.1-1.2c-0.9,0-1.7,0.7-1.9,1.6C20,2.5,20.3,3.5,21,4c0.2,0.1,0.2,0.2,0.2,0.4
		c0,1.9,0,3.9,0,5.8c0,2,0,4,0,6.1c0,0.1,0,0.2-0.2,0.2c-1,0-1.9,0-2.9,0c-0.1,0-0.2,0-0.2-0.2c0-0.6,0-1.2,0-1.9
		c0-0.1,0-0.1,0.1-0.2c0.7-0.1,1-0.5,1-1.2c0-3.2,0-6.4,0-9.6c0-0.8-0.4-1.2-1.2-1.2c-1.3,0-2.5,0-3.8,0c-0.2,0-0.3,0-0.4-0.2
		c-2-2.6-5.9-2.6-7.8,0C5.8,2.2,5.7,2.3,5.5,2.3c-1.3,0-2.6,0-3.8,0c-0.6,0-0.9,0.2-1.1,0.7C0.5,3.1,0.5,3.3,0.5,3.5
		c0,3.2,0,6.3,0,9.5c0,0.1,0,0.2,0,0.3c0.1,0.5,0.4,0.8,0.8,0.9c0.2,0,0.2,0.1,0.2,0.3c0,2.4,0,4.7,0,7.1c0,0.2,0,0.3,0.3,0.3
		c2.6,0,5.3,0,7.9,0c2.6,0,5.3,0,7.9,0c0.3,0,0.3-0.1,0.3-0.3c0-0.9,0-1.8,0-2.7c0-0.2,0.1-0.2,0.2-0.2c1,0,1.9,0,2.9,0
		c0.2,0,0.4,0,0.6,0c1.1-0.2,1.8-1.1,1.8-2.2c0-3.9,0-7.9,0-11.8c0-0.3,0-0.5,0.3-0.6c0.1-0.1,0.2-0.2,0.3-0.3
		C24.6,2.9,24.7,2.1,24.3,1.3z M13.4,18.6c-1.2,0-2.4,0-3.6,0c-1.2,0-2.4,0-3.6,0c-0.2,0-0.2,0-0.2-0.2c0-0.6,0-1.2,0-1.8
		c0-0.1,0-0.2,0.2-0.2c2.4,0,4.9,0,7.3,0c0.2,0,0.2,0.1,0.2,0.2c0,0.6,0,1.2,0,1.8C13.6,18.6,13.5,18.6,13.4,18.6z M16.9,11.8
		c0,0.2,0,0.3-0.2,0.3c-2.3,0-4.6,0-6.9,0c-2.3,0-4.6,0-6.8,0c-0.2,0-0.3,0-0.3-0.3c0-2.4,0-4.8,0-7.1c0-0.2,0-0.2,0.2-0.2
		c4.6,0,9.1,0,13.7,0c0.2,0,0.3,0,0.3,0.3C16.9,7.1,16.9,9.5,16.9,11.8z"/>
	<g>
		<path class="st0" d="M5.8,6.7H3.4v-1h3.7v0.8l-2.3,4.3H3.5L5.8,6.7z"/>
		<path class="st0" d="M10.3,6.7H7.9v-1h3.7v0.8l-2.3,4.3H8L10.3,6.7z"/>
		<path class="st0" d="M14.8,6.7h-2.4v-1h3.7v0.8l-2.3,4.3h-1.3L14.8,6.7z"/>
	</g>
</g>
</svg>
