<svg width="22" height="22" viewBox="0 0 22 22" fill="none" xmlns="http://www.w3.org/2000/svg">
<path d="M10.7744 9.37582C10.803 9.37733 10.8316 9.37787 10.8602 9.37991V9.37787C11.3557 9.41871 11.8185 9.64143 12.1597 10.0031C12.3847 10.2321 12.5502 10.5127 12.6419 10.8203C12.7011 11.0137 12.7315 11.2148 12.7318 11.417V11.6376H14.0476C14.3823 11.6358 14.7027 11.5019 14.9391 11.2651C15.1756 11.0282 15.309 10.7076 15.3102 10.3729V7.63094C15.3053 7.29745 15.1707 6.97891 14.935 6.74289C14.6993 6.50681 14.3811 6.37172 14.0476 6.36621H11.3056C10.9721 6.37172 10.6539 6.50681 10.4182 6.74289C10.1825 6.97891 10.0479 7.29745 10.043 7.63094V9.37377H10.6886C10.7172 9.37377 10.7458 9.3748 10.7744 9.37582ZM13.1077 9.00192C13.1086 9.08696 13.0841 9.1703 13.0374 9.24141C12.9908 9.31251 12.9241 9.36817 12.8457 9.40126C12.7674 9.4344 12.681 9.44346 12.5975 9.42738C12.514 9.4113 12.4371 9.37075 12.3767 9.3109C12.3163 9.25106 12.275 9.17464 12.2581 9.09125C12.2412 9.00792 12.2495 8.92146 12.2818 8.8428C12.3142 8.76414 12.3692 8.69689 12.4398 8.64956C12.5105 8.60219 12.5936 8.57695 12.6786 8.57695C12.7347 8.57661 12.7904 8.58733 12.8423 8.60848C12.8943 8.62968 12.9415 8.66092 12.9814 8.7004C13.0212 8.73987 13.0529 8.7868 13.0746 8.83856C13.0963 8.89032 13.1076 8.94583 13.1077 9.00192Z" fill="white"/>
<path d="M7.87438 15.4557H10.6898C10.851 15.4562 11.0107 15.425 11.1596 15.3636C11.3086 15.3021 11.444 15.2118 11.558 15.0979C11.6719 14.984 11.7622 14.8486 11.8236 14.6996C11.885 14.5506 11.9163 14.391 11.9158 14.2298V11.4164C11.9168 11.2185 11.8691 11.0234 11.7768 10.8484L11.7758 10.8489C11.6869 10.6752 11.5573 10.5255 11.3982 10.4126C11.2389 10.2997 11.0549 10.227 10.8615 10.2006C10.8329 10.1986 10.8043 10.1981 10.7757 10.1966C10.747 10.1945 10.7184 10.1904 10.6898 10.1904H10.0442L10.0446 10.1925H7.87438C7.71322 10.1919 7.55356 10.2232 7.40457 10.2846C7.25559 10.346 7.1202 10.4363 7.00626 10.5503C6.89232 10.6642 6.80206 10.7996 6.7406 10.9486C6.6792 11.0976 6.64791 11.2572 6.64844 11.4184V14.2298C6.64791 14.391 6.67924 14.5506 6.74065 14.6996C6.80206 14.8486 6.89232 14.984 7.00626 15.0979C7.1202 15.2118 7.25559 15.3021 7.40457 15.3636C7.55356 15.425 7.71322 15.4563 7.87438 15.4557ZM10.135 13.8212H9.95324C9.84993 13.7993 9.75835 13.7398 9.69636 13.6543C9.63432 13.5687 9.6063 13.4632 9.6176 13.3582C9.62891 13.2531 9.67881 13.156 9.75767 13.0857C9.83647 13.0153 9.93857 12.9767 10.0442 12.9774C10.1283 12.9771 10.2106 13.0012 10.2812 13.0468V13.0489C10.3403 13.0879 10.3887 13.1411 10.4222 13.2035C10.4558 13.2659 10.4733 13.3356 10.4733 13.4064C10.4733 13.4772 10.4558 13.5469 10.4222 13.6094C10.3887 13.6717 10.3403 13.7249 10.2812 13.764V13.7619C10.2361 13.7895 10.1866 13.8095 10.135 13.8212ZM9.17718 11.827H9.38304C9.47622 11.8492 9.55912 11.9023 9.61833 11.9776C9.67755 12.0529 9.70952 12.146 9.70913 12.2418C9.70898 12.3217 9.68642 12.3999 9.64402 12.4677C9.60157 12.5354 9.54099 12.5899 9.46916 12.6249C9.39732 12.6599 9.3171 12.674 9.23761 12.6657C9.15813 12.6574 9.08259 12.6269 9.01957 12.5777C8.95651 12.5286 8.90855 12.4628 8.88111 12.3877C8.85363 12.3127 8.84778 12.2314 8.8642 12.1532C8.88063 12.075 8.91864 12.003 8.974 11.9453C9.02932 11.8876 9.09969 11.8467 9.17718 11.827ZM8.28298 13.0489V13.0468C8.35365 13.0012 8.43596 12.9771 8.51998 12.9774C8.62564 12.9767 8.72779 13.0153 8.8066 13.0857C8.8854 13.156 8.93531 13.2532 8.94661 13.3582C8.95797 13.4632 8.9299 13.5687 8.86786 13.6543C8.80586 13.7398 8.71429 13.7993 8.61097 13.8212H8.42919C8.37758 13.8095 8.32821 13.7895 8.28298 13.7619V13.764C8.22396 13.7249 8.17552 13.6717 8.14199 13.6094C8.10846 13.5469 8.09092 13.4772 8.09092 13.4064C8.09092 13.3356 8.10846 13.2659 8.14199 13.2035C8.17552 13.1411 8.22396 13.0879 8.28298 13.0489Z" fill="white"/>
<path d="M0.0615234 4.64648V8.27942H0.878719H3.89876V4.64648H0.878719H0.0615234Z" fill="white"/>
<path d="M19.8513 0H18.0615V3.82895H21.8945V2.04319C21.8943 1.50136 21.679 0.981785 21.2959 0.598657C20.9127 0.215528 20.3932 0.000199815 19.8513 0Z" fill="white"/>
<path d="M0.0615234 17.9922V19.7861C0.0624153 20.3277 0.277962 20.8469 0.66094 21.2299C1.04392 21.6128 1.5631 21.8284 2.10471 21.8293H3.89861V17.9922H0.0615234Z" fill="white"/>
<path d="M0.0615234 2.04319V3.82895H0.878797V3.8269H3.89861V0H2.10471C1.5631 0.000891859 1.04392 0.216439 0.66094 0.599417C0.277962 0.982399 0.0624153 1.50157 0.0615234 2.04319Z" fill="white"/>
<path d="M0.0615234 9.09656V12.7295H0.878719H3.89876V9.09656H0.878719H0.0615234Z" fill="white"/>
<path d="M13.6162 0.817196V3.82905H17.2452V0.817196V0H13.6162V0.817196Z" fill="white"/>
<path d="M0.0615234 13.5469V17.1755H0.878719H3.89876V13.5469H0.878719H0.0615234Z" fill="white"/>
<path d="M4.71484 21.0122V21.8294H8.34349V21.0122V17.9922H4.71484V21.0122Z" fill="white"/>
<path d="M9.16211 21.0122V21.8294H12.7989V21.0122V17.9922H9.16211V21.0122Z" fill="white"/>
<path d="M13.6162 21.0122V21.8294H17.2452V21.0122V17.9922H13.6162V21.0122Z" fill="white"/>
<path d="M18.0615 17.9922V21.8293H19.8513C20.3932 21.8291 20.9127 21.6138 21.2959 21.2306C21.679 20.8475 21.8943 20.3279 21.8945 19.7861V17.9922H18.0615Z" fill="white"/>
<path d="M18.0615 4.64648V8.27942H21.0773H21.8945V4.64648H21.0773H18.0615Z" fill="white"/>
<path d="M18.0615 13.5469V17.1755H21.0773H21.8945V13.5469H21.0773H18.0615Z" fill="white"/>
<path d="M18.0615 9.09656V12.7295H21.0773H21.8945V9.09656H21.0773H18.0615Z" fill="white"/>
<path d="M12.7989 0.817196V0H9.16211V0.817196V3.82905H12.7989V0.817196Z" fill="white"/>
<path d="M8.34349 0.817196V0H4.71484V0.817196V3.82905H8.34349V0.817196Z" fill="white"/>
<path d="M4.71484 17.1753H17.2437V4.64648H4.71484V17.1753ZM5.83045 11.4176C5.83064 10.8758 6.04596 10.3562 6.42911 9.97307C6.81222 9.58992 7.33179 9.3746 7.87363 9.37441H9.22624V7.63363C9.22619 7.0816 9.4452 6.55214 9.83518 6.16143C10.2251 5.77071 10.7541 5.55062 11.3062 5.54955H14.0481C14.6001 5.55062 15.1292 5.77071 15.5191 6.16143C15.9091 6.55214 16.1281 7.0816 16.1281 7.63363V10.3715C16.1284 10.6449 16.0749 10.9157 15.9705 11.1685C15.8662 11.4212 15.713 11.6509 15.5199 11.8444C15.3267 12.038 15.0973 12.1916 14.8448 12.2964C14.5923 12.4013 14.3216 12.4553 14.0481 12.4555H12.7323V14.229C12.7321 14.7708 12.5168 15.2904 12.1336 15.6735C11.7505 16.0567 11.2309 16.272 10.6891 16.2722H7.87363C7.33179 16.272 6.81222 16.0567 6.42911 15.6735C6.04596 15.2904 5.83064 14.7708 5.83045 14.229V11.4176Z" fill="white"/>
</svg>
