<svg width="28" height="28" viewBox="0 0 28 28" fill="none" xmlns="http://www.w3.org/2000/svg">
<rect width="28" height="28" rx="8" fill="#FF6621"/>
<g clip-path="url(#clip0_5727_2118)">
<g clip-path="url(#clip1_5727_2118)">
<path d="M20.6716 14.4049H13.6915C13.6584 14.402 13.6201 14.4009 13.5818 14.4009C12.8371 14.4009 12.2257 14.969 12.1607 15.6944L12.1602 15.6996C12.228 16.4313 12.8411 16.9994 13.587 16.9994C13.6305 16.9994 13.6735 16.9977 13.7164 16.9936L13.7112 16.9942H20.6716C20.6809 16.9954 20.6919 16.996 20.7024 16.996C20.877 16.996 21.0202 16.8607 21.0318 16.6896V16.6885V14.7107C21.008 14.5373 20.8601 14.4049 20.6815 14.4049C20.678 14.4049 20.6745 14.4049 20.671 14.4049H20.6716ZM13.6915 16.5076C13.2332 16.5076 12.862 16.1377 12.862 15.6811C12.862 15.2245 13.2332 14.8546 13.6915 14.8546C14.1497 14.8546 14.5209 15.2245 14.5209 15.6811V15.6834C14.5209 16.1388 14.1503 16.5076 13.6938 16.5076H13.6915Z" fill="#F5F5F5"/>
<path d="M19.0977 9.68484H20.1075C19.9515 9.23922 19.5715 8.90863 19.1058 8.82367L19.0977 8.82251V9.68484Z" fill="#F5F5F5"/>
<path d="M13.638 13.9738H20.5625V11.8717C20.5033 11.2625 19.9923 10.7903 19.3699 10.7903C19.3386 10.7903 19.3073 10.7915 19.2765 10.7938H19.2806H8.28308C8.2738 10.784 8.26104 10.777 8.24712 10.7759C8.09457 10.7036 7.98842 10.5557 7.97682 10.3817V10.3805C7.99654 10.1638 8.14909 9.98752 8.3521 9.93204L8.35558 9.93146V9.01538C7.59747 9.05121 6.98438 10.1291 6.98438 11.4769V19.4367C7.04412 20.0459 7.55513 20.5175 8.17693 20.5175C8.20767 20.5175 8.23841 20.5164 8.26916 20.514H8.2651H19.2626C19.2887 20.5164 19.3194 20.5175 19.3508 20.5175C19.9726 20.5175 20.4836 20.0453 20.5427 19.4408L20.5433 19.4361V17.3341H13.6571C12.5394 17.3341 11.6374 16.5792 11.6374 15.6632C11.6374 14.7292 12.5388 13.9743 13.6386 13.9743L13.638 13.9738Z" fill="#F5F5F5"/>
<path d="M10.1517 6.51074C10.1517 6.51074 9.67773 6.72068 9.69998 7.05086C9.69998 7.05086 9.91304 6.73325 10.3092 6.69146L10.1517 6.51074Z" fill="#F5F5F5"/>
<path d="M10.306 6.68686C10.306 6.68686 9.86671 6.77993 9.69141 7.05611C9.69141 7.05611 9.69141 6.68176 10.1529 6.51123L10.306 6.68686Z" fill="#F5F5F5"/>
<path d="M9.50826 7.85706C9.50826 7.85706 9.50051 7.9104 9.50017 7.9087C9.48028 7.82683 9.47016 7.67023 9.48095 7.59312C9.65693 6.98302 10.5442 6.96875 10.5442 6.96875L10.7907 7.26599C9.55748 7.26089 9.50826 7.85672 9.50826 7.85672V7.8574" fill="#F5F5F5"/>
<path d="M12.8508 7.78462C12.8453 7.76621 12.8388 7.7478 12.832 7.72974C12.8358 7.73962 12.8423 7.75871 12.8508 7.78462Z" fill="#F5F5F5"/>
<path d="M12.0667 9.0608C12.0667 9.0608 12.5215 8.95855 12.6965 8.68237C12.6965 8.68237 12.6965 9.05672 12.235 9.22725L12.0664 9.0608H12.0667Z" fill="#F5F5F5"/>
<path d="M12.8802 7.88152C12.8802 7.88152 12.8808 7.87948 12.8812 7.88152C12.9011 7.96339 12.9183 8.0687 12.9071 8.14581C12.7312 8.75591 11.851 8.77018 11.851 8.77018L11.6133 8.4658C12.8465 8.4709 12.8798 7.88254 12.8798 7.88254V7.88186" fill="#F5F5F5"/>
<path d="M9.87109 6.17456L11.0544 7.57684C11.0544 7.57684 11.1333 6.95825 11.1795 6.88827C11.1795 6.88827 12.9352 7.78406 12.6975 8.68256C12.6975 8.68256 13.2251 8.31908 12.2889 7.32071C11.3527 6.32267 9.87109 6.17456 9.87109 6.17456Z" fill="#F5F5F5"/>
<path d="M12.9482 7.69359C12.9354 7.55262 12.8953 7.38752 12.7982 7.22752C12.5538 6.82498 12.1624 6.46897 11.3253 6.10957C11.3253 6.10957 11.3829 5.84597 11.4244 5.60036C11.4244 5.60036 10.5604 5.58881 9.875 6.11433C9.875 6.11433 11.3644 6.14184 12.4051 7.1426C12.4051 7.1426 12.7105 7.39805 12.8336 7.72926C12.8403 7.74726 12.8464 7.76561 12.8521 7.78395C12.8794 7.87091 12.9219 8.03023 12.9067 8.14505C12.9141 8.11957 12.9205 8.09342 12.9256 8.06556C12.9256 8.06556 12.9681 7.90726 12.9485 7.69325L12.9482 7.69359Z" fill="#F5F5F5"/>
<path d="M12.5474 9.57536L11.3527 8.17275C11.3527 8.17275 11.2718 8.74888 11.2391 8.86166C11.2391 8.86166 9.45268 7.95432 9.69035 7.05615C9.69035 7.05615 9.19344 7.43118 10.1296 8.42922C11.0658 9.42726 12.5474 9.57536 12.5474 9.57536Z" fill="#F5F5F5"/>
<path d="M9.42772 8.06782C9.44053 8.2088 9.49245 8.38544 9.58954 8.54544C9.83395 8.94798 10.2516 9.29074 11.0887 9.65014C11.0887 9.65014 11.0007 10.1108 10.9781 10.1974C10.9781 10.1974 11.8189 10.1661 12.5039 9.64029C12.5039 9.64029 11.1332 9.6284 9.99577 8.64531C9.99577 8.64531 9.71664 8.40582 9.57134 8.09296C9.47728 7.8905 9.47425 7.64116 9.48065 7.59326C9.47323 7.61874 9.44896 7.67649 9.44391 7.70434C9.44391 7.70434 9.40817 7.85415 9.42772 8.06816V8.06782Z" fill="#F5F5F5"/>
<path d="M17.7223 5.6844L18.6969 6.87553L16.3742 10.0554L14.051 6.87478L14.9979 5.6844H17.7223Z" stroke="#F5F5F5" stroke-width="0.168107"/>
<path fill-rule="evenodd" clip-rule="evenodd" d="M18.2801 6.90153L17.5861 6.06299H15.1862L14.4922 6.90153L16.4006 9.44607L18.2801 6.90153ZM16.4002 9.15726L16.834 8.55004L15.2147 6.32356L14.7231 6.90187L16.4002 9.15726ZM17.5555 6.32356L16.5434 7.79824L16.9482 8.37655L18.047 6.90187L17.5555 6.32356ZM16.5434 6.26574H17.382L16.9772 6.78621L16.5434 6.26574ZM16.8922 6.98862L16.4296 7.62475L15.3886 6.26574H16.285L16.8922 6.98862Z" fill="#F5F5F5"/>
</g>
</g>
<defs>
<clipPath id="clip0_5727_2118">
<rect width="16.8" height="16.0696" fill="white" transform="translate(5.60156 5.59961)"/>
</clipPath>
<clipPath id="clip1_5727_2118">
<rect width="14.121" height="15.4658" fill="white" transform="translate(6.88281 5.60034)"/>
</clipPath>
</defs>
</svg>
