<svg width="23" height="22" viewBox="0 0 23 22" fill="none" xmlns="http://www.w3.org/2000/svg">
<mask id="mask0_4988_107547" style="mask-type:luminance" maskUnits="userSpaceOnUse" x="0" y="0" width="23" height="22">
<path d="M22.271 0H0.441406V21.8296H22.271V0Z" fill="white"/>
</mask>
<g mask="url(#mask0_4988_107547)">
<path d="M11.1551 19.641C8.25903 19.641 5.36299 19.641 2.46695 19.641C1.97381 19.641 1.97253 19.6397 1.97125 19.1478C1.97125 18.5612 1.96485 17.9746 1.97253 17.3892C1.98534 16.4017 2.45286 15.6639 3.35587 15.3142C4.58166 14.839 5.84716 14.4675 7.09216 14.0423C7.33169 13.9603 7.44568 14.1153 7.58274 14.2421C8.58053 15.1643 9.75509 15.6869 11.1141 15.7061C12.5295 15.7266 13.7565 15.2053 14.7851 14.2396C14.9977 14.0397 15.177 13.9949 15.4524 14.091C16.5475 14.4727 17.6529 14.8288 18.7519 15.2002C19.8368 15.5665 20.4017 16.3568 20.4042 17.493C20.4042 18.0553 20.385 18.6188 20.4119 19.1799C20.4286 19.5385 20.3184 19.6512 19.9495 19.6499C17.0176 19.6359 14.0857 19.6423 11.1538 19.6423L11.1551 19.641Z" fill="white"/>
<path d="M11.1807 10.4495C9.69746 10.4495 8.2155 10.4508 6.73225 10.4495C5.74598 10.4482 5.1222 9.94743 5.03638 8.97909C4.95953 8.11322 4.93647 7.23327 5.05688 6.3674C5.16959 5.55533 5.79978 5.02505 6.6221 5.02249C9.65904 5.0148 12.696 5.0148 15.7329 5.02249C16.577 5.02377 17.2136 5.55149 17.3199 6.38405C17.4339 7.27297 17.4249 8.17599 17.325 9.06619C17.2264 9.93718 16.6065 10.447 15.7355 10.4495C14.2164 10.4547 12.6985 10.4508 11.1794 10.4508L11.1807 10.4495ZM7.34579 8.09913C8.1822 8.08761 8.07716 8.21313 8.07844 7.35367C8.07844 6.53904 8.17707 6.63894 7.35091 6.63894C6.50298 6.63894 6.6221 6.53647 6.6221 7.38441C6.6221 8.20416 6.51579 8.08761 7.34707 8.09913H7.34579Z" fill="white"/>
<path d="M11.19 3.96925C9.91173 3.96925 8.63215 3.97053 7.35384 3.96925C6.92219 3.96925 6.8812 3.8988 7.09767 3.51838C7.94432 2.03002 9.2508 1.28967 10.9377 1.21026C12.5708 1.13341 13.9375 1.68546 14.9532 3.00219C15.0762 3.1623 15.1799 3.33906 15.2799 3.51582C15.495 3.89752 15.4579 3.96669 15.0262 3.96669C13.7479 3.96925 12.4683 3.96669 11.19 3.96669V3.96925Z" fill="white"/>
<path d="M11.1753 11.5452C12.2628 11.5452 13.3515 11.5452 14.439 11.5452C14.8475 11.5452 14.8911 11.5952 14.7092 11.9397C13.9573 13.3756 12.8058 14.2555 11.1471 14.2376C9.5217 14.2209 8.39453 13.3435 7.66188 11.9307C7.48896 11.5977 7.53123 11.5452 7.91036 11.5452C8.99782 11.5426 10.0866 11.5452 11.174 11.5452H11.1753Z" fill="white"/>
</g>
</svg>
