<svg width="30" height="22" viewBox="0 0 30 22" fill="none" xmlns="http://www.w3.org/2000/svg">
<path d="M29.8736 5.61515C29.7909 5.91553 29.6762 6.42487 29.5135 6.92376C28.0783 11.2675 26.6379 15.6087 25.1867 19.9472C24.5785 21.7678 23.6235 22.2275 21.7749 21.645C18.7553 20.6917 15.7356 19.7383 12.716 18.7692C10.8433 18.1658 10.3845 17.2699 10.9927 15.4311C12.4625 10.9802 13.9404 6.52935 15.4208 2.08371C16.0611 0.169111 16.9573 -0.274931 18.894 0.336279C21.951 1.30272 25 2.27961 28.0543 3.24606C29.1267 3.58823 29.8816 4.17854 29.8709 5.61515H29.8736ZM24.9306 9.9772C24.9306 8.28723 23.3781 7.24243 21.8576 8.02342C21.052 8.43873 20.8733 8.14618 20.5345 7.53758C19.7503 6.18718 18.1177 6.07486 17.0881 7.279C16.5145 7.95028 16.2691 8.83053 16.4158 9.6951C16.6452 11.3851 17.4909 12.7929 18.5152 14.1277C18.7499 14.5325 19.2621 14.6945 19.6942 14.5038C20.8706 14.1695 21.991 13.6601 23.01 12.9967C24.0637 12.2653 24.928 11.3642 24.9333 9.97981L24.9306 9.9772Z" fill="white"/>
<path d="M8.92741 19.2703C6.80938 20.3151 5.66501 19.8633 4.97678 17.8155C3.52297 13.4795 2.07983 9.13837 0.6527 4.78677C-0.0995466 2.50126 0.308587 1.76729 2.60534 1.02025C3.47496 0.738157 4.35791 0.492628 5.21686 0.176575C6.02246 -0.121193 6.36657 0.111275 6.3479 0.947117C6.33189 1.99453 6.3479 3.04195 6.3479 4.0972V14.3154C6.35323 16.4119 7.21307 18.0636 8.92741 19.2703Z" fill="white"/>
<path d="M11.0813 19.5111C8.96863 20.0701 7.66421 19.1716 7.66421 17.1133C7.6562 12.3203 7.6562 7.52464 7.66421 2.72899C7.66421 1.02596 8.44579 0.252808 10.1637 0.21624C11.196 0.195344 12.231 0.258032 13.2607 0.197956C14.3517 0.137879 14.4638 0.563637 14.1543 1.47C12.7992 5.44809 11.4895 9.43924 10.1584 13.4252C9.04332 16.7999 9.02999 16.7999 11.0813 19.5111Z" fill="white"/>
</svg>
