<svg version="1.2" xmlns="http://www.w3.org/2000/svg" viewBox="0 0 19 21" width="19" height="21">
	<title>3-svg</title>
	<defs>
		<clipPath clipPathUnits="userSpaceOnUse" id="cp1">
			<path d="m9.79 20.28h-2.52c-0.39 0-0.71-0.32-0.71-0.71q0-0.28 0.18-0.48c0.85-0.91 2.13-3.52 2.13-3.52-1.4 1.27-3.55 1.06-3.55 1.06-2.44-0.08-4.39-1.99-4.38-4.42 0.02-2.77 2.14-4.74 4.78-7.15 3.3-3.02 4.04-4.77 4.04-4.77 0 0 0.75 1.75 4.05 4.77 2.64 2.41 4.76 4.38 4.77 7.15 0.02 2.43-1.94 4.34-4.37 4.42 0 0-2.15 0.21-3.55-1.06 0 0 1.28 2.61 2.12 3.52q0.19 0.2 0.19 0.48c0 0.39-0.32 0.71-0.71 0.71 0 0-2.47 0-2.47 0z"/>
		</clipPath>
		<clipPath clipPathUnits="userSpaceOnUse" id="cp2">
			<path d=""/>
		</clipPath>
		<clipPath clipPathUnits="userSpaceOnUse" id="cp3">
			<path d="m9.8 20.28h-2.53c-0.39 0-0.71-0.32-0.71-0.71q0-0.28 0.19-0.48c0.84-0.91 2.12-3.52 2.12-3.52-1.4 1.27-3.55 1.06-3.55 1.06-2.44-0.08-4.39-1.99-4.38-4.42 0.02-2.77 2.14-4.74 4.78-7.15 3.3-3.02 4.04-4.77 4.04-4.77 0 0 0.75 1.75 4.05 4.77 2.64 2.41 4.76 4.38 4.78 7.15 0.01 2.43-1.94 4.34-4.38 4.42 0 0-2.15 0.21-3.55-1.06 0 0 1.28 2.61 2.12 3.52q0.19 0.2 0.19 0.48c0 0.39-0.32 0.71-0.71 0.71 0 0-2.46 0-2.46 0z"/>
		</clipPath>
	</defs>
	<style>
		.s0 { fill: #ff9922 } 
		.s1 { fill: #ffffff } 
		.s2 { fill: #008800 } 
		.s3 { fill: #00008b } 
		.s4 { fill: #000000 } 
	</style>
	<g id="Clip-Path" clip-path="url(#cp1)">
		<g id="Layer">
			<path id="Layer" class="s0" d="m29.1 0.1h-38.7v6.6h38.7z"/>
			<path id="Layer" class="s1" d="m29.1 6.7h-38.7v7.1h38.7z"/>
			<path id="Layer" class="s2" d="m29.1 13.8h-38.7v6.7h38.7z"/>
			<path id="Layer" fill-rule="evenodd" class="s3" d="m12.5 10.3c0 1.5-1.2 2.7-2.7 2.7-1.5 0-2.8-1.2-2.8-2.7 0-1.5 1.3-2.8 2.8-2.8 1.5 0 2.7 1.3 2.7 2.8zm-0.9 1.5q-0.1 0-0.1-0.1 0-0.1 0.1-0.1 0.1 0 0.1 0.1 0.1-0.2 0.2-0.4 0 0 0 0-0.1 0-0.1-0.1 0-0.1 0.1-0.1 0.1 0 0.1 0 0.1-0.2 0.1-0.4 0 0 0 0-0.1 0-0.1-0.1 0-0.1 0.1-0.1 0 0 0 0 0.1-0.1 0.1-0.2 0-0.1-0.1-0.2 0 0 0 0-0.1 0-0.1-0.1 0-0.1 0.1-0.1 0 0 0 0 0-0.2-0.1-0.4 0 0-0.1 0-0.1 0-0.1-0.1 0-0.1 0.1-0.1 0 0 0 0-0.1-0.2-0.2-0.4 0 0.1-0.1 0.1-0.1 0-0.1-0.1 0-0.1 0.1-0.2-0.1-0.1-0.3-0.2 0 0-0.1 0-0.1 0-0.1-0.1 0 0 0-0.1-0.1-0.1-0.3-0.2 0 0.1-0.1 0.1-0.1 0-0.1-0.1 0 0 0-0.1-0.2 0-0.4-0.1 0 0 0 0 0 0.1-0.1 0.2-0.1-0.1-0.1-0.2 0 0 0 0-0.1 0-0.2 0-0.1 0-0.2 0 0 0 0 0 0 0.1-0.1 0.1-0.1 0-0.2-0.1 0 0 0 0-0.2 0-0.4 0.1 0.1 0.1 0.1 0.1 0 0.1-0.1 0.1-0.1 0-0.1-0.1 0 0 0 0-0.2 0.1-0.4 0.2 0.1 0 0.1 0.1-0.1 0.1-0.2 0.1-0.1 0-0.1-0.1-0.1 0.2-0.3 0.3 0.1 0 0.1 0.1 0 0.2-0.1 0.2-0.1 0-0.1-0.1-0.1 0.2-0.2 0.4 0 0 0 0 0.1 0 0.1 0.1 0 0.1-0.1 0.1 0 0-0.1 0-0.1 0.2-0.1 0.4 0 0 0.1 0 0.1 0 0.1 0.1 0 0.1-0.1 0.1-0.1 0-0.1 0 0 0.1 0 0.2 0 0.1 0 0.2 0 0 0.1 0 0.1 0 0.1 0.1 0 0.1-0.1 0.1-0.1 0-0.1 0 0 0.2 0.1 0.4 0.1 0 0.1 0 0.1 0 0.1 0.1 0 0.1-0.1 0.1 0 0 0 0 0.1 0.2 0.2 0.4 0-0.1 0.1-0.1 0.1 0 0.1 0.1 0 0.1-0.1 0.1 0.2 0.2 0.3 0.3 0.1-0.1 0.2-0.1 0.1 0 0.1 0.2 0 0-0.1 0.1 0.2 0.1 0.4 0.2 0 0 0-0.1 0-0.1 0.1-0.1 0.1 0 0.1 0.1 0 0.1-0.1 0.1 0.2 0.1 0.5 0.2 0-0.1 0-0.1 0-0.1 0.1-0.1 0.1 0 0.1 0.1 0 0.1 0 0.1 0.1 0 0.2 0 0.1 0 0.2 0 0 0 0-0.1 0-0.1 0.1-0.1 0.1 0 0.1 0.1 0 0 0 0 0.2 0 0.4-0.1 0 0 0 0 0-0.1 0.1-0.1 0.1 0 0.1 0.1 0.2-0.1 0.3-0.3 0 0 0-0.1 0-0.1 0.1-0.1 0.1 0 0.1 0.1 0.2-0.1 0.3-0.3z"/>
			<path id="Layer" class="s3" d="m9.8 9.8c-0.3 0-0.5 0.2-0.5 0.5 0 0.2 0.2 0.5 0.5 0.5 0.2 0 0.4-0.3 0.4-0.5 0-0.3-0.2-0.5-0.4-0.5z"/>
			<path id="Layer" class="s3" d="m9.9 9.3l-0.1-1.4-0.1 1.4 0.1 0.5z"/>
			<path id="Layer" class="s3" d="m8.8 10.2l-1.4 0.1 1.4 0.1 0.5-0.1z"/>
			<path id="Layer" class="s3" d="m9.2 9.5l-1.1-0.9 0.9 1.1 0.4 0.2z"/>
			<path id="Layer" class="s3" d="m9 9.7l-1.2-0.6 1.1 0.8 0.5 0.1z"/>
			<path id="Layer" class="s3" d="m8.9 9.9l-1.4-0.2 1.3 0.4 0.5 0.1z"/>
			<path id="Layer" class="s3" d="m9.4 9.4l-0.8-1.1 0.6 1.2 0.3 0.4z"/>
			<path id="Layer" class="s3" d="m9.6 9.3l-0.4-1.3 0.2 1.4 0.2 0.4z"/>
			<path id="Layer" class="s3" d="m10.7 10.2l1.4 0.1-1.4 0.1-0.4-0.1h-0.1 0.1-0.1 0.1z"/>
			<path id="Layer" class="s3" d="m10.4 9.5l1-0.9-0.9 1.1-0.4 0.2z"/>
			<path id="Layer" class="s3" d="m10.5 9.7l1.3-0.6-1.2 0.8-0.4 0.1z"/>
			<path id="Layer" class="s3" d="m10.7 9.9l1.3-0.2-1.3 0.4-0.5 0.1z"/>
			<path id="Layer" class="s3" d="m10.2 9.4l0.8-1.1-0.7 1.2-0.3 0.4z"/>
			<path id="Layer" class="s3" d="m9.9 9.3l0.5-1.3-0.3 1.4-0.2 0.4z"/>
			<path id="Layer" class="s3" d="m9.9 11.2l-0.1 1.4-0.1-1.4 0.1-0.4z"/>
			<path id="Layer" class="s3" d="m9.2 11l-1.1 0.9 0.9-1 0.4-0.3z"/>
			<path id="Layer" class="s3" d="m9 10.9l-1.2 0.5 1.1-0.7 0.5-0.2z"/>
			<path id="Layer" class="s3" d="m8.9 10.6l-1.4 0.3 1.3-0.5h0.5z"/>
			<path id="Layer" class="s3" d="m9.4 11.2l-0.8 1.1 0.6-1.3 0.3-0.3z"/>
			<path id="Layer" class="s3" d="m9.6 11.2l-0.4 1.4 0.2-1.4 0.2-0.5z"/>
			<path id="Layer" class="s3" d="m10.4 11l1 0.9-0.9-1-0.4-0.3z"/>
			<path id="Layer" class="s3" d="m10.5 10.9l1.3 0.5-1.2-0.7-0.4-0.2z"/>
			<path id="Layer" class="s3" d="m10.7 10.6l1.3 0.3-1.3-0.5h-0.5z"/>
			<path id="Layer" class="s3" d="m10.2 11.2l0.8 1.1-0.7-1.3-0.3-0.3z"/>
			<path id="Layer" class="s3" d="m9.9 11.2l0.5 1.4-0.3-1.4-0.2-0.5z"/>
		</g>
	</g>
	<g id="Clip-Path" clip-path="url(#cp2)">
		<g id="Layer">
			<g id="Layer" style="opacity: .5">
				<g id="Clip-Path" clip-path="url(#cp3)">
					<g id="Layer">
						<path id="Layer" class="s4" d="m29.1 0.1h-38.7v6.6h38.7z"/>
						<path id="Layer" class="s4" d="m29.1 13.8h-38.7v6.7h38.7z"/>
						<path id="Layer" fill-rule="evenodd" class="s4" d="m12.5 10.3c0 1.5-1.2 2.7-2.7 2.7-1.5 0-2.8-1.2-2.8-2.7 0-1.5 1.3-2.8 2.8-2.8 1.5 0 2.7 1.3 2.7 2.8zm-0.9 1.5q-0.1 0-0.1-0.1 0-0.1 0.1-0.1 0.1 0 0.1 0.1 0.1-0.2 0.2-0.4 0 0 0 0-0.1 0-0.1-0.1 0-0.1 0.1-0.1 0.1 0 0.1 0 0.1-0.2 0.1-0.4 0 0 0 0-0.1 0-0.1-0.1 0-0.1 0.1-0.1 0 0 0 0 0.1-0.1 0.1-0.2 0-0.1-0.1-0.2 0 0 0 0-0.1 0-0.1-0.1 0-0.1 0.1-0.1 0 0 0 0 0-0.2-0.1-0.4 0 0-0.1 0-0.1 0-0.1-0.1 0-0.1 0.1-0.1 0 0 0 0-0.1-0.2-0.2-0.4 0 0.1-0.1 0.1-0.1 0-0.1-0.1 0-0.1 0.1-0.2-0.1-0.1-0.3-0.2 0 0-0.1 0-0.1 0-0.1-0.1 0 0 0-0.1-0.1-0.1-0.3-0.2 0 0.1-0.1 0.1-0.1 0-0.1-0.1 0 0 0-0.1-0.2 0-0.4-0.1 0 0 0 0 0 0.1-0.1 0.2-0.1-0.1-0.1-0.2 0 0 0 0-0.1 0-0.2 0-0.1 0-0.2 0 0 0 0 0 0 0.1-0.1 0.1-0.1 0-0.2-0.1 0 0 0 0-0.2 0-0.4 0.1 0.1 0.1 0.1 0.1 0 0.1-0.1 0.1-0.1 0-0.1-0.1 0 0 0 0-0.2 0.1-0.4 0.2 0.1 0 0.1 0.1-0.1 0.1-0.2 0.1-0.1 0-0.1-0.1-0.1 0.2-0.3 0.3 0.1 0 0.1 0.1 0 0.2-0.1 0.2-0.1 0-0.1-0.1-0.1 0.2-0.2 0.4 0 0 0 0 0.1 0 0.1 0.1 0 0.1-0.1 0.1 0 0-0.1 0-0.1 0.2-0.1 0.4 0 0 0.1 0 0.1 0 0.1 0.1 0 0.1-0.1 0.1-0.1 0-0.1 0 0 0.1 0 0.2 0 0.1 0 0.2 0 0 0.1 0 0.1 0 0.1 0.1 0 0.1-0.1 0.1-0.1 0-0.1 0 0 0.2 0.1 0.4 0.1 0 0.1 0 0.1 0 0.1 0.1 0 0.1-0.1 0.1 0 0 0 0 0.1 0.2 0.2 0.4 0-0.1 0.1-0.1 0.1 0 0.1 0.1 0 0.1-0.1 0.1 0.2 0.2 0.3 0.3 0.1-0.1 0.2-0.1 0.1 0 0.1 0.2 0 0-0.1 0.1 0.2 0.1 0.4 0.2 0 0 0-0.1 0-0.1 0.1-0.1 0.1 0 0.1 0.1 0 0.1-0.1 0.1 0.2 0.1 0.5 0.2 0-0.1 0-0.1 0-0.1 0.1-0.1 0.1 0 0.1 0.1 0 0.1 0 0.1 0.1 0 0.2 0 0.1 0 0.2 0 0 0 0-0.1 0-0.1 0.1-0.1 0.1 0 0.1 0.1 0 0 0 0 0.2 0 0.4-0.1 0 0 0 0 0-0.1 0.1-0.1 0.1 0 0.1 0.1 0.2-0.1 0.3-0.3 0 0 0-0.1 0-0.1 0.1-0.1 0.1 0 0.1 0.1 0.2-0.1 0.3-0.3z"/>
						<path id="Layer" class="s4" d="m9.8 9.8c-0.3 0-0.5 0.2-0.5 0.5 0 0.2 0.2 0.5 0.5 0.5 0.2 0 0.4-0.3 0.4-0.5 0-0.3-0.2-0.5-0.4-0.5z"/>
						<path id="Layer" class="s4" d="m9.9 9.3l-0.1-1.4-0.1 1.4 0.1 0.5z"/>
						<path id="Layer" class="s4" d="m8.8 10.2l-1.4 0.1 1.4 0.1 0.5-0.1z"/>
						<path id="Layer" class="s4" d="m9.2 9.5l-1.1-0.9 0.9 1.1 0.4 0.2z"/>
						<path id="Layer" class="s4" d="m9 9.7l-1.2-0.6 1.1 0.8 0.5 0.1z"/>
						<path id="Layer" class="s4" d="m8.9 9.9l-1.4-0.2 1.3 0.4 0.5 0.1z"/>
						<path id="Layer" class="s4" d="m9.4 9.4l-0.8-1.1 0.6 1.2 0.3 0.4z"/>
						<path id="Layer" class="s4" d="m9.6 9.3l-0.4-1.3 0.2 1.4 0.2 0.4z"/>
						<path id="Layer" class="s4" d="m10.7 10.2l1.4 0.1-1.4 0.1-0.4-0.1h-0.1 0.1-0.1 0.1z"/>
						<path id="Layer" class="s4" d="m10.4 9.5l1-0.9-0.9 1.1-0.4 0.2z"/>
						<path id="Layer" class="s4" d="m10.5 9.7l1.3-0.6-1.2 0.8-0.4 0.1z"/>
						<path id="Layer" class="s4" d="m10.7 9.9l1.3-0.2-1.3 0.4-0.5 0.1z"/>
						<path id="Layer" class="s4" d="m10.2 9.4l0.8-1.1-0.7 1.2-0.3 0.4z"/>
						<path id="Layer" class="s4" d="m9.9 9.3l0.5-1.3-0.3 1.4-0.2 0.4z"/>
						<path id="Layer" class="s4" d="m9.9 11.2l-0.1 1.4-0.1-1.4 0.1-0.4z"/>
						<path id="Layer" class="s4" d="m9.2 11l-1.1 0.9 0.9-1 0.4-0.3z"/>
						<path id="Layer" class="s4" d="m9 10.9l-1.2 0.5 1.1-0.7 0.5-0.2z"/>
						<path id="Layer" class="s4" d="m8.9 10.6l-1.4 0.3 1.3-0.5h0.5z"/>
						<path id="Layer" class="s4" d="m9.4 11.2l-0.8 1.1 0.6-1.3 0.3-0.3z"/>
						<path id="Layer" class="s4" d="m9.6 11.2l-0.4 1.4 0.2-1.4 0.2-0.5z"/>
						<path id="Layer" class="s4" d="m10.4 11l1 0.9-0.9-1-0.4-0.3z"/>
						<path id="Layer" class="s4" d="m10.5 10.9l1.3 0.5-1.2-0.7-0.4-0.2z"/>
						<path id="Layer" class="s4" d="m10.7 10.6l1.3 0.3-1.3-0.5h-0.5z"/>
						<path id="Layer" class="s4" d="m10.2 11.2l0.8 1.1-0.7-1.3-0.3-0.3z"/>
						<path id="Layer" class="s4" d="m9.9 11.2l0.5 1.4-0.3-1.4-0.2-0.5z"/>
					</g>
				</g>
			</g>
		</g>
	</g>
</svg>