<svg width="20" height="24" viewBox="0 0 20 24" fill="none" xmlns="http://www.w3.org/2000/svg">
<path d="M10.0037 18.3751C15.0437 18.3751 19.1444 14.2275 19.1444 9.18753C19.1444 4.14751 15.0437 0 10.0037 0C4.96368 0 0.863037 4.14751 0.863037 9.18753C0.863037 14.2275 4.96368 18.3751 10.0037 18.3751ZM5.32283 7.66592C5.4059 7.41185 5.62565 7.22646 5.89068 7.18802L8.29669 6.83852L9.37336 4.65775C9.60957 4.17709 10.3978 4.17709 10.6341 4.65775L11.7107 6.83852L14.1168 7.18802C14.3818 7.22646 14.6015 7.41185 14.6846 7.66592C14.767 7.92068 14.6983 8.20011 14.5068 8.3869L12.7654 10.085L13.1761 12.4821C13.2214 12.7458 13.1129 13.0122 12.8966 13.1701C12.6783 13.3275 12.3921 13.3475 12.1557 13.223L10.0037 12.0914L7.85175 13.223C7.61555 13.3479 7.32923 13.3267 7.11084 13.1701C6.89456 13.0122 6.78604 12.7457 6.83137 12.4821L7.242 10.085L5.50068 8.38686C5.3091 8.20015 5.24043 7.92068 5.32283 7.66592Z" fill="white"/>
<path d="M8.69015 9.95794L8.45808 11.3154L9.67617 10.6748C9.77916 10.6205 9.8911 10.5938 10.0037 10.5938C10.1163 10.5938 10.2282 10.6205 10.3312 10.6748L11.5493 11.3154L11.3172 9.95794C11.2781 9.72999 11.3536 9.49721 11.5191 9.33586L12.5051 8.37455L11.1428 8.17678C10.9134 8.14383 10.7157 7.99964 10.6134 7.79226L10.0037 6.55762L9.39394 7.79222C9.29161 7.99959 9.09389 8.14378 8.86453 8.17673L7.5022 8.3745L8.48822 9.33581C8.65373 9.49716 8.7293 9.72994 8.69015 9.95794Z" fill="white"/>
<path d="M0.234735 21.4855C0.422892 21.6929 0.714034 21.7664 0.979769 21.6778L3.99005 20.6561L5.24869 23.575C5.35993 23.8332 5.63663 23.9376 5.89416 24C6.17157 24 6.42357 23.8366 6.53687 23.5826L8.29347 19.6298C5.85029 19.2288 3.69122 17.9901 2.11715 16.2134L0.111126 20.7261C-0.00217168 20.9815 0.0458754 21.2796 0.234735 21.4855Z" fill="white"/>
<path d="M13.4705 23.5826C13.5838 23.8366 13.8351 24 14.1132 24C14.3453 23.9561 14.6474 23.8332 14.7587 23.575L16.0174 20.6561L19.0276 21.6778C19.2927 21.7664 19.5845 21.6929 19.7727 21.4855C19.9615 21.2795 20.0096 20.9815 19.8963 20.7261L17.8903 16.2134C16.3162 17.9902 14.1572 19.2288 11.714 19.6298L13.4705 23.5826Z" fill="white"/>
</svg>
