<svg width="49" height="48" viewBox="0 0 49 48" fill="none" xmlns="http://www.w3.org/2000/svg">
<g clip-path="url(#clip0_30725_40603)">
<path d="M40.6814 0.25C44.8607 0.25 48.25 3.63858 48.25 7.81926V40.1814C48.25 44.3607 44.8607 47.75 40.6814 47.75H8.31926C4.13928 47.75 0.75 44.3607 0.75 40.1814V7.81926C0.75 3.63858 4.13928 0.25 8.31926 0.25H40.6814Z" fill="#FFFC00"/>
<path d="M40.5149 32.1427C40.3749 31.6794 39.705 31.3528 39.705 31.3528C39.6417 31.3194 39.585 31.2894 39.5383 31.2661C38.4218 30.7262 37.4319 30.0762 36.5986 29.3396C35.9287 28.7463 35.3554 28.0931 34.8954 27.3998C34.3321 26.5532 34.0688 25.8466 33.9555 25.4633C33.8922 25.2133 33.9022 25.1133 33.9555 24.9834C33.9988 24.8734 34.1288 24.77 34.1888 24.72C34.5655 24.4534 35.1721 24.0601 35.5454 23.8201C35.8687 23.6102 36.1453 23.4302 36.3086 23.3168C36.8319 22.9502 37.1919 22.5769 37.4019 22.1736C37.6752 21.6537 37.7085 21.0804 37.4952 20.5171C37.2086 19.7572 36.4986 19.3039 35.5954 19.3039C35.3954 19.3039 35.1887 19.3272 34.9821 19.3705C34.4655 19.4839 33.9755 19.6672 33.5656 19.8272C33.5356 19.8405 33.5022 19.8172 33.5056 19.7838C33.5489 18.7673 33.5989 17.4007 33.4856 16.1042C33.3856 14.931 33.1423 13.941 32.749 13.0778C32.3523 12.2112 31.8357 11.5713 31.4324 11.108C31.0491 10.668 30.3725 10.0181 29.3526 9.43479C27.9194 8.61487 26.2862 8.19824 24.4997 8.19824C22.7166 8.19824 21.0867 8.61487 19.6502 9.43479C18.5703 10.0514 17.8803 10.748 17.567 11.108C17.1637 11.5713 16.6471 12.2112 16.2505 13.0778C15.8539 13.941 15.6139 14.9276 15.5139 16.1042C15.4006 17.4074 15.4472 18.6639 15.4939 19.7838C15.4939 19.8172 15.4639 19.8405 15.4306 19.8272C15.0206 19.6672 14.5306 19.4839 14.014 19.3705C13.8107 19.3272 13.6041 19.3039 13.4008 19.3039C12.5008 19.3039 11.7909 19.7572 11.5009 20.5171C11.2876 21.0804 11.3209 21.6537 11.5943 22.1736C11.8076 22.5769 12.1642 22.9502 12.6875 23.3168C12.8475 23.4302 13.1274 23.6102 13.4507 23.8201C13.814 24.0568 14.404 24.4401 14.784 24.7034C14.8306 24.7367 14.9906 24.8567 15.0406 24.9834C15.0939 25.1167 15.1039 25.2167 15.0339 25.4833C14.9173 25.8699 14.654 26.5699 14.1007 27.3998C13.6407 28.0964 13.0674 28.7463 12.3975 29.3396C11.5643 30.0762 10.5743 30.7262 9.45778 31.2661C9.40446 31.2928 9.34113 31.3228 9.27447 31.3628C9.27447 31.3628 8.60786 31.7027 8.48121 32.1427C8.29456 32.7926 8.79118 33.4026 9.29447 33.7292C10.1211 34.2625 11.1276 34.5491 11.7109 34.7058C11.8742 34.7491 12.0209 34.7891 12.1542 34.8291C12.2375 34.8558 12.4475 34.9358 12.5375 35.0524C12.6508 35.1991 12.6642 35.3791 12.7042 35.5824C12.7675 35.9257 12.9108 36.349 13.3341 36.6423C13.8007 36.9622 14.3907 36.9856 15.1406 37.0156C15.9239 37.0456 16.8971 37.0822 18.0137 37.4522C18.5303 37.6222 19.0002 37.9122 19.5402 38.2455C20.6734 38.9421 22.0833 39.8087 24.4897 39.8087C26.8995 39.8087 28.3194 38.9387 29.4593 38.2388C29.9992 37.9088 30.4625 37.6222 30.9691 37.4555C32.0857 37.0856 33.0589 37.0489 33.8422 37.0189C34.5921 36.9889 35.1821 36.9689 35.6487 36.6456C36.102 36.3323 36.232 35.8657 36.292 35.5157C36.3253 35.3424 36.3453 35.1857 36.4453 35.0591C36.5319 34.9491 36.7253 34.8724 36.8153 34.8424C36.9519 34.7991 37.1052 34.7591 37.2752 34.7125C37.8585 34.5558 38.5918 34.3725 39.4817 33.8692C40.5549 33.2593 40.6282 32.5127 40.5149 32.1427Z" fill="white"/>
<path d="M41.4415 31.7826C41.2049 31.136 40.7516 30.7927 40.2383 30.5061C40.1416 30.4494 40.0517 30.4028 39.9783 30.3694C39.825 30.2894 39.6684 30.2128 39.5117 30.1328C37.9085 29.2829 36.6553 28.2096 35.7887 26.9397C35.4954 26.5098 35.2921 26.1232 35.1488 25.8065C35.0754 25.5932 35.0788 25.4732 35.1321 25.3632C35.1721 25.2799 35.2788 25.1932 35.3388 25.1499C35.6154 24.9666 35.8987 24.7833 36.092 24.66C36.4353 24.4366 36.7086 24.26 36.8819 24.14C37.5419 23.6801 38.0018 23.1901 38.2885 22.6435C38.6951 21.8736 38.7451 20.9936 38.4318 20.167C37.9985 19.0205 36.9119 18.3072 35.5987 18.3072C35.3254 18.3072 35.0488 18.3372 34.7755 18.3972C34.7021 18.4139 34.6322 18.4305 34.5622 18.4472C34.5755 17.6673 34.5555 16.834 34.4855 16.0208C34.2389 13.1544 33.2356 11.6512 32.189 10.4546C31.7524 9.95465 30.9925 9.22472 29.8526 8.57145C28.2627 7.6582 26.4629 7.19824 24.4998 7.19824C22.5433 7.19824 20.7434 7.6582 19.1536 8.56812C18.007 9.22139 17.2471 9.95465 16.8138 10.4513C15.7672 11.6478 14.764 13.151 14.5174 16.0174C14.4474 16.8307 14.4307 17.6639 14.4407 18.4439C14.3707 18.4272 14.2974 18.4105 14.2274 18.3939C13.9541 18.3339 13.6741 18.3039 13.4041 18.3039C12.0909 18.3039 11.0043 19.0171 10.571 20.1637C10.2577 20.9903 10.3077 21.8702 10.7144 22.6401C11.001 23.1868 11.4643 23.6767 12.1209 24.1367C12.2976 24.26 12.5675 24.4366 12.9108 24.6566C13.0975 24.7766 13.3675 24.9533 13.6341 25.1299C13.6741 25.1566 13.8174 25.2632 13.8674 25.3632C13.9241 25.4766 13.9241 25.5999 13.8407 25.8265C13.7008 26.1365 13.4974 26.5165 13.2108 26.9364C12.3609 28.1796 11.1443 29.2329 9.59447 30.0728C8.77122 30.5094 7.91796 30.7994 7.55799 31.7793C7.28469 32.5192 7.46467 33.3625 8.15461 34.0724C8.38125 34.3157 8.66789 34.5324 9.02786 34.7324C9.87445 35.199 10.5944 35.429 11.161 35.5856C11.261 35.6156 11.491 35.6889 11.591 35.7789C11.8443 35.9989 11.8076 36.3322 12.1442 36.8188C12.3476 37.1221 12.5809 37.3288 12.7742 37.4621C13.4774 37.9487 14.2707 37.9787 15.1106 38.0121C15.8672 38.0421 16.7271 38.0754 17.7071 38.3987C18.1137 38.532 18.537 38.792 19.0236 39.092C20.1968 39.8152 21.8067 40.8018 24.4964 40.8018C27.1895 40.8018 28.806 39.8086 29.9893 39.0853C30.4759 38.7887 30.8958 38.5287 31.2891 38.3987C32.269 38.0754 33.129 38.0421 33.8856 38.0121C34.7255 37.9787 35.5154 37.9487 36.222 37.4621C36.442 37.3088 36.722 37.0588 36.9419 36.6788C37.1819 36.2689 37.1786 35.9789 37.4052 35.7823C37.4986 35.7023 37.7019 35.6323 37.8119 35.5989C38.3818 35.4423 39.1117 35.2123 39.975 34.7357C40.3583 34.5257 40.6549 34.2957 40.8916 34.0324C40.8949 34.0291 40.8982 34.0258 40.9016 34.0224C41.5448 33.3225 41.7082 32.5059 41.4415 31.7826ZM39.0517 33.0658C37.5919 33.8724 36.622 33.7858 35.8687 34.2691C35.2288 34.6824 35.6054 35.5723 35.1421 35.8923C34.5688 36.2889 32.879 35.8656 30.6959 36.5855C28.896 37.1821 27.7461 38.892 24.5031 38.892C21.2534 38.892 20.1368 37.1888 18.3103 36.5855C16.1272 35.8656 14.434 36.2889 13.8641 35.8923C13.4008 35.5723 13.7774 34.6824 13.1375 34.2691C12.3842 33.7824 11.4143 33.8691 9.95444 33.0658C9.02453 32.5526 9.55114 32.2359 9.86111 32.0859C15.1473 29.5295 15.9872 25.5765 16.0272 25.2799C16.0739 24.9266 16.1239 24.6466 15.7339 24.2833C15.3573 23.9334 13.6808 22.8968 13.2175 22.5735C12.4475 22.0369 12.1109 21.5003 12.3609 20.8403C12.5342 20.3837 12.9608 20.2137 13.4108 20.2137C13.5508 20.2137 13.6941 20.2304 13.8307 20.2604C14.674 20.4437 15.4939 20.867 15.9672 20.9803C16.0339 20.997 16.0905 21.0036 16.1405 21.0036C16.3938 21.0036 16.4805 20.877 16.4638 20.587C16.4105 19.6638 16.2772 17.8639 16.4238 16.1807C16.6238 13.8676 17.3704 12.7211 18.257 11.7045C18.6836 11.2179 20.6834 9.10473 24.5064 9.10473C28.3394 9.10473 30.3292 11.2179 30.7558 11.7045C31.6424 12.7177 32.389 13.8643 32.589 16.1807C32.7357 17.8639 32.609 19.6638 32.549 20.587C32.529 20.8903 32.6223 21.0036 32.8723 21.0036C32.9223 21.0036 32.9823 20.997 33.0456 20.9803C33.5189 20.867 34.3388 20.4437 35.1821 20.2604C35.3188 20.2304 35.4621 20.2137 35.6021 20.2137C36.052 20.2137 36.4786 20.387 36.652 20.8403C36.9019 21.5003 36.562 22.0369 35.7954 22.5735C35.3321 22.8968 33.6556 23.9334 33.2789 24.2833C32.889 24.6433 32.939 24.9233 32.9856 25.2799C33.0223 25.5765 33.8656 29.5295 39.1517 32.0859C39.4517 32.2359 39.9817 32.5526 39.0517 33.0658Z" fill="black"/>
</g>
<defs>
<clipPath id="clip0_30725_40603">
<rect x="0.75" y="0.25" width="47.5" height="47.5" rx="23.75" fill="white"/>
</clipPath>
</defs>
</svg>
