<svg width="29" height="23" viewBox="0 0 29 23" fill="none" xmlns="http://www.w3.org/2000/svg">
<path d="M14.3298 0.0100385C17.8912 0.0100385 21.4527 0.00352167 25.0142 0.0100385C26.8487 0.0165554 28.0543 0.883296 28.4616 2.43105C28.543 2.74386 28.5463 3.05993 28.5463 3.37601C28.5463 7.61522 28.5496 11.8577 28.5463 16.0969C28.5463 18.1302 27.2885 19.3847 25.2618 19.3944C24.2224 19.3977 23.1829 19.414 22.1467 19.3879C21.6873 19.3781 21.5309 19.5476 21.4755 20.0005C21.2572 21.8154 20.511 22.4443 18.6602 22.4443C15.6722 22.4443 12.681 22.4443 9.69304 22.4443C8.13877 22.4443 7.22312 21.6134 7.1384 20.0624C7.10907 19.528 6.92663 19.3749 6.41832 19.3879C5.29416 19.4172 4.17 19.4075 3.04911 19.3879C1.4818 19.3618 0.207745 18.179 0.103475 16.6117C-0.0724803 13.9659 0.0448358 11.3135 0.0350605 8.66443C0.0252852 6.82016 -0.0626845 4.97263 0.0839447 3.13488C0.243607 1.12442 1.47201 0.0165521 3.52157 0.00677684C7.1254 -0.00625687 10.7292 0.00352037 14.333 0.00352037L14.3298 0.0100385ZM15.2389 11.2093C15.2389 10.5739 15.2324 9.93848 15.2422 9.30308C15.2422 9.12061 15.1607 8.86971 15.3562 8.78174C15.5973 8.67095 15.7146 8.9414 15.8645 9.07174C16.0861 9.26724 16.2783 9.49859 16.5031 9.69084C16.9593 10.0818 17.4383 10.0818 17.813 9.71039C18.1486 9.37803 18.1747 8.76544 17.8065 8.38421C16.8779 7.42623 15.9329 6.48454 14.9749 5.55263C14.5644 5.15511 14.0756 5.13881 13.6651 5.53634C12.6875 6.47477 11.7263 7.43275 10.7879 8.41028C10.3675 8.8469 10.4066 9.32589 10.8009 9.70713C11.1887 10.0786 11.6578 10.0818 12.1108 9.6941C12.3519 9.48556 12.5605 9.24443 12.7951 9.02938C12.9287 8.90881 13.0362 8.67095 13.2545 8.77522C13.4598 8.87297 13.3848 9.1141 13.3848 9.29331C13.3914 10.5869 13.3816 11.8772 13.3979 13.1708C13.4044 13.8225 13.7987 14.2298 14.3428 14.2135C14.8642 14.194 15.2226 13.7965 15.2356 13.1806C15.2519 12.5257 15.2389 11.8675 15.2389 11.2093ZM14.3265 20.3231C15.7667 20.3231 17.207 20.3231 18.6472 20.3231C18.9763 20.3231 19.2924 20.3361 19.3087 19.8604C19.3249 19.3553 18.986 19.4042 18.6667 19.4042C15.7863 19.4042 12.9091 19.4042 10.0287 19.4075C9.73543 19.4075 9.35416 19.2967 9.33461 19.8115C9.31506 20.3785 9.7093 20.3263 10.071 20.3263C11.4884 20.3263 12.9091 20.3263 14.3265 20.3263V20.3231Z" fill="url(#paint0_linear_4988_107649)"/>
<defs>
<linearGradient id="paint0_linear_4988_107649" x1="0" y1="11.2222" x2="28.5478" y2="11.2222" gradientUnits="userSpaceOnUse">
<stop stop-color="#F2D71A"/>
<stop offset="1" stop-color="#ECB024"/>
</linearGradient>
</defs>
</svg>
