<svg width="29" height="28" viewBox="0 0 29 28" fill="none" xmlns="http://www.w3.org/2000/svg">
<rect x="0.599609" y="-3.05176e-05" width="28" height="28" rx="8" fill="#FF6621"/>
<path d="M20.2302 20.7912H11.0326C11.0209 20.7873 11.0091 20.7813 10.9954 20.7774C10.136 20.5695 9.6426 19.936 9.6426 19.0411C9.6426 15.7052 9.64847 12.3673 9.63869 9.02933C9.63477 8.00974 10.4512 7.2792 11.3556 7.28514C14.2394 7.30098 17.1212 7.29108 20.005 7.29108C20.3594 7.29108 20.5003 7.43362 20.5003 7.79592C20.5003 11.9634 20.5003 16.1308 20.5023 20.2983C20.5023 20.524 20.4318 20.6903 20.2302 20.7932V20.7912ZM15.3965 18.269C14.2414 18.269 13.0863 18.269 11.9312 18.269C11.7178 18.269 11.5064 18.267 11.293 18.269C10.69 18.2809 10.2887 18.8926 10.5256 19.4529C10.6861 19.835 10.9993 19.9875 11.3909 19.9875C14.1004 19.9875 16.808 19.9875 19.5175 19.9914C19.6428 19.9914 19.6859 19.9498 19.6839 19.8231C19.68 19.3717 19.6839 18.9184 19.6839 18.467C19.6839 18.273 19.68 18.267 19.4862 18.267C18.1236 18.267 16.7591 18.267 15.3965 18.267V18.269ZM15.0793 9.86282C15.0401 9.86282 15.001 9.86282 14.9618 9.86282C14.1709 9.86282 13.3819 9.86282 12.591 9.86282C12.3502 9.86282 12.1896 10.0133 12.1877 10.233C12.1857 10.4568 12.3482 10.6092 12.5949 10.6132C12.6262 10.6132 12.6556 10.6132 12.6869 10.6132C14.2766 10.6132 15.8644 10.6132 17.4541 10.6132C17.5108 10.6132 17.5676 10.6151 17.6224 10.6092C17.8202 10.5894 17.9611 10.4211 17.9533 10.2212C17.9455 10.0093 17.7869 9.8648 17.5519 9.86282C16.7277 9.86282 15.9016 9.86282 15.0773 9.86282H15.0793Z" fill="white"/>
</svg>
