<svg width="19" height="19" viewBox="0 0 19 19" fill="none" xmlns="http://www.w3.org/2000/svg">
<g clip-path="url(#clip0_7763_129907)">
<path d="M18.9719 8.33861C19.0015 8.68213 18.8712 9.01979 18.7054 9.3544C18.4507 9.87267 18.1575 10.3762 17.965 10.9152C17.7192 11.6111 17.9857 12.3189 18.0598 13.0149C18.1723 14.0544 17.7458 14.8895 16.7952 15.3071C14.6895 16.2311 15.1278 15.8047 13.8455 17.7593C13.2561 18.6596 12.4239 18.9558 11.3933 18.6566C9.10404 17.9933 9.88293 17.9933 7.59663 18.6566C6.56303 18.9558 5.7279 18.6626 5.1415 17.7681C3.86211 15.8135 4.29449 16.2311 2.19476 15.3131C1.24114 14.8955 0.7821 14.0573 0.933139 13.0267C1.00422 12.5469 1.05752 12.0642 1.10787 11.5845C1.14341 11.238 1.05752 10.9063 0.903526 10.5953C0.684369 10.1481 0.453371 9.70683 0.237178 9.25669C-0.186323 8.38008 -0.0382454 7.52416 0.64587 6.83712C0.776177 6.70678 0.897604 6.56466 1.04568 6.45805C1.96968 5.79462 2.40503 4.86768 2.55311 3.76598C2.64195 3.10852 2.92034 2.54287 3.48303 2.1401C3.93911 1.81433 4.47515 1.73437 4.98454 1.77287C6.20763 1.8706 7.14644 1.35233 8.05269 0.614905C9.0744 -0.217291 9.88586 -0.187676 10.9372 0.600096C11.0646 0.694862 11.1978 0.777789 11.3134 0.884406C12.0152 1.53594 12.8386 1.82025 13.7981 1.7551C14.1091 1.73437 14.4289 1.77287 14.7369 1.83506C15.6254 2.01571 16.1614 2.57841 16.3657 3.45206C16.9196 5.82426 16.6797 5.21122 18.2552 6.74826C18.6965 7.17771 18.9926 7.6634 18.9719 8.3416V8.33861ZM9.49202 15.7691C13.0547 15.7691 15.8623 12.9705 15.8682 9.4107C15.8741 5.84793 13.0755 3.03448 9.51867 3.0256C5.93517 3.01672 3.12172 5.82426 3.12469 9.40478C3.12469 12.9646 5.93223 15.7691 9.49202 15.7691Z" fill="url(#paint0_linear_7763_129907)"/>
<path d="M3.64551 9.39594C3.64551 6.15307 6.26056 3.54099 9.50342 3.54395C12.7434 3.54395 15.3495 6.16491 15.3466 9.41374C15.3436 12.6507 12.7197 15.2509 9.46792 15.245C6.25166 15.2391 3.64551 12.6211 3.64551 9.39594ZM6.8203 8.39795C6.50045 8.41271 6.23684 8.5519 6.08288 8.86584C5.90814 9.21826 5.99993 9.53811 6.25757 9.80167C6.87062 10.4295 7.48959 11.0544 8.12039 11.6645C8.52911 12.0614 8.96149 12.0554 9.37015 11.6467C10.5015 10.5154 11.618 9.37227 12.7404 8.22912C12.9329 8.03364 13.0306 7.79673 12.9744 7.51244C12.9063 7.1896 12.7167 6.97637 12.4028 6.86975C12.0741 6.75722 11.8105 6.87865 11.5825 7.10372C10.7206 7.96556 9.85585 8.82735 9.0059 9.70102C8.80156 9.91127 8.66531 9.91719 8.46689 9.70102C8.15595 9.36337 7.81834 9.04949 7.49849 8.72372C7.31783 8.54007 7.10459 8.42162 6.82323 8.39198L6.8203 8.39795Z" fill="url(#paint1_linear_7763_129907)"/>
</g>
<defs>
<linearGradient id="paint0_linear_7763_129907" x1="0" y1="9.38489" x2="18.9762" y2="9.38489" gradientUnits="userSpaceOnUse">
<stop stop-color="#F2D71A"/>
<stop offset="1" stop-color="#ECB024"/>
</linearGradient>
<linearGradient id="paint1_linear_7763_129907" x1="3.64551" y1="9.39448" x2="15.3466" y2="9.39448" gradientUnits="userSpaceOnUse">
<stop stop-color="#F2D71A"/>
<stop offset="1" stop-color="#ECB024"/>
</linearGradient>
<clipPath id="clip0_7763_129907">
<rect width="19" height="19" fill="white"/>
</clipPath>
</defs>
</svg>
