<svg width="24" height="24" viewBox="0 0 24 24" fill="none" xmlns="http://www.w3.org/2000/svg">
<g clip-path="url(#clip0_1344_5049)">
<mask id="mask0_1344_5049" style="mask-type:luminance" maskUnits="userSpaceOnUse" x="0" y="0" width="24" height="24">
<path d="M24 0H0V24H24V0Z" fill="white"/>
</mask>
<g mask="url(#mask0_1344_5049)">
<path d="M23.9669 11.757C23.6604 8.56498 20.8183 6.2259 17.6195 6.53411C17.5118 6.54367 17.404 6.558 17.2987 6.57473C16.329 6.71091 15.4119 7.09559 14.6338 7.68812C14.9379 8.78718 15.1845 9.89341 15.3904 11.0115C16.1159 9.48245 17.9475 8.83019 19.4823 9.55413C21.0147 10.278 21.6683 12.1058 20.9428 13.6373C20.4185 14.7412 19.2884 15.4293 18.0649 15.3887C17.2436 15.3719 16.4654 15.0207 15.9124 14.4186C15.9794 14.9562 16.044 15.4986 16.1063 16.0433C16.1446 16.0744 16.1853 16.1007 16.2308 16.1246C16.475 16.2536 16.7288 16.3611 16.9898 16.4447C17.0616 16.4638 17.1407 16.4806 17.1143 16.569C17.0736 16.7625 17.0353 16.9345 17.0018 17.1089C16.9802 17.2141 16.9156 17.2117 16.8342 17.1878C16.6163 17.1209 16.4128 17.0444 16.2093 16.9584C16.2404 17.2499 16.2715 17.5438 16.3026 17.8257C16.8821 18.0168 17.4854 18.1196 18.096 18.1291C18.9986 18.1506 19.8917 17.9523 20.701 17.5533C21.9748 16.9441 22.9828 15.8952 23.5383 14.5978C23.7251 14.1247 23.8663 13.6373 23.9621 13.138L24.0004 11.8908C23.9717 11.8526 23.9717 11.8072 23.9717 11.7642L23.9669 11.757ZM17.4543 8.08713C16.9371 8.16119 16.4439 8.34517 16.0033 8.6271C15.9363 8.66772 15.8812 8.67727 15.8333 8.60082C15.7352 8.45029 15.637 8.30455 15.5365 8.16836C15.4838 8.08952 15.5149 8.0489 15.5867 8.01067C16.1422 7.69768 16.748 7.47787 17.3753 7.36079C17.4567 7.34646 17.5022 7.36079 17.5118 7.45636C17.5309 7.626 17.5549 7.79325 17.5764 7.96528C17.598 8.06562 17.5237 8.07996 17.4519 8.08952L17.4543 8.08713ZM20.9692 8.4049C20.8638 8.52436 20.7681 8.65099 20.6771 8.7824C20.6148 8.86603 20.5598 8.88753 20.4592 8.81824C20.1096 8.55781 19.7169 8.36189 19.2955 8.24721C19.207 8.22093 19.1447 8.18509 19.1686 8.08235C19.2046 7.90793 19.2453 7.73591 19.2812 7.56149C19.2812 7.50893 19.3075 7.46353 19.3793 7.47548C19.5302 7.52565 19.6834 7.57105 19.8319 7.626C20.215 7.76697 20.5837 7.94616 20.9309 8.16119C21.0434 8.23526 21.0793 8.2926 20.9788 8.4049H20.9716H20.9692ZM20.689 16.6526C20.2222 16.8987 19.7169 17.0611 19.195 17.1328C19.0896 17.1472 19.0633 17.1041 19.0513 17.0205C19.037 16.8819 19.0178 16.741 19.001 16.5713C18.9819 16.5068 19.0322 16.4662 19.116 16.4471C19.5206 16.3491 19.9109 16.1986 20.2748 15.9979C20.3538 15.9597 20.4017 15.9477 20.4544 16.0338C20.5454 16.1843 20.6459 16.33 20.7465 16.4662C20.7896 16.5546 20.7824 16.6024 20.6914 16.6478H20.6843L20.689 16.6526ZM21.8694 9.85757C21.994 9.77872 22.1161 9.69988 22.2334 9.61386C22.3507 9.52785 22.3794 9.56847 22.4369 9.66165C22.7625 10.192 22.978 10.7798 23.0738 11.3938C23.093 11.5157 23.0738 11.5682 22.9469 11.5802L22.401 11.6399C22.3699 11.6399 22.3531 11.5826 22.3435 11.5181C22.2501 11.002 22.0706 10.5026 21.8168 10.0439C21.7737 9.94358 21.7952 9.90296 21.8742 9.85757H21.8671H21.8694ZM22.8248 14.1677C22.6955 14.4377 22.5423 14.6982 22.3699 14.9419C22.2909 15.0494 22.2286 15.0518 22.1352 14.9729C22.0083 14.8654 21.8216 14.7866 21.7665 14.6528C21.7114 14.519 21.891 14.3684 21.9604 14.2203C22.1065 13.9384 22.2286 13.6445 22.322 13.3411C22.3555 13.2312 22.4034 13.1929 22.5207 13.2264C22.6715 13.2718 22.832 13.2933 22.9876 13.3267C23.0451 13.3267 23.0977 13.3458 23.0929 13.4151C23.0355 13.6756 22.9469 13.9288 22.832 14.1701H22.8248V14.1677Z" fill="url(#paint0_linear_1344_5049)"/>
<path d="M20.4066 12.3856C20.3707 13.6256 19.3339 14.6004 18.0913 14.5646C18.0865 14.5646 18.0817 14.5646 18.0769 14.5646C16.8319 14.5502 15.8334 13.5324 15.8478 12.29C15.8622 11.0476 16.8822 10.0512 18.1272 10.0656C18.1655 10.0656 18.2014 10.0656 18.2397 10.0704C19.4752 10.1086 20.4449 11.1407 20.4066 12.3736C20.4066 12.3784 20.4066 12.3832 20.4066 12.3903V12.3856Z" fill="black"/>
<path d="M0 5.57599C0 4.42437 0.735059 3.50928 1.80293 3.3492C4.08233 3.00515 6.36173 2.69932 8.6531 2.36961C9.46238 2.25492 10.2741 2.15218 11.0833 2.03033C12.338 1.8368 13.437 2.58464 13.6237 3.83661C14.0332 6.58426 14.4115 9.33191 14.7993 12.0819C15.113 14.2968 15.4123 16.5164 15.7355 18.7289C15.9175 19.9713 15.2351 21.0608 13.9996 21.2663C11.9812 21.5984 9.95083 21.8588 7.92044 22.1455C6.85257 22.296 5.7823 22.437 4.71443 22.5995C3.43107 22.793 2.34165 22.0499 2.14771 20.7621C1.74068 18.0503 1.36477 15.3313 0.97928 12.6147C0.665623 10.4023 0.361543 8.18267 0.0502809 5.97022C0.0311263 5.80775 0.00957731 5.64528 0 5.57599ZM10.8367 11.272C10.8655 10.6006 10.4752 9.97939 9.85745 9.70941C9.22534 9.38208 8.45677 9.48243 7.9348 9.96506C7.73847 10.1371 7.59481 10.2494 7.29552 10.1156C6.35933 9.69507 5.42315 9.98178 4.95147 10.7846C4.47979 11.5874 4.67612 12.5168 5.50216 13.1667C6.1199 13.6493 6.74722 14.1224 7.38171 14.5859C8.00663 15.0422 8.51662 14.9777 8.99788 14.3685C9.51506 13.7186 10.0059 13.04 10.5183 12.3758C10.7505 12.0557 10.8631 11.6662 10.8367 11.272ZM13.8464 17.7708C13.8584 17.4339 13.7458 17.2834 13.5543 17.1973C13.3843 17.1018 13.1664 17.1615 13.0682 17.3311C13.0611 17.3431 13.0563 17.355 13.0491 17.3694C12.8312 18.0192 12.5894 18.2367 12.1345 17.5199C12.0052 17.3574 11.7681 17.3288 11.6029 17.4602C11.5885 17.4721 11.5742 17.4864 11.5598 17.4984C11.3731 17.6155 11.318 17.8616 11.4377 18.0479C11.4401 18.0527 11.4449 18.0575 11.4473 18.0623C11.7849 18.564 12.1105 19.0729 12.4816 19.5484C12.6995 19.8375 13.0635 19.8231 13.2119 19.503C13.4825 18.9104 13.662 18.2773 13.844 17.766V17.7708H13.8464ZM1.93222 6.85424C1.93222 7.20069 2.028 7.3751 2.26025 7.43961C2.47095 7.49934 2.69601 7.399 2.78939 7.1983C2.9115 7.00716 2.87319 6.6631 3.09108 6.61771C3.36403 6.56037 3.40473 6.9307 3.58191 7.08361C3.75909 7.23653 3.93149 7.33449 4.15176 7.18635C4.35768 7.09317 4.44627 6.84947 4.35049 6.64638C4.34331 6.63204 4.33613 6.61532 4.32655 6.60098C4.02486 6.06101 3.6705 5.55449 3.26826 5.0838C3.13896 4.89505 2.88277 4.84727 2.69601 4.97629C2.62418 5.02646 2.56911 5.09575 2.54038 5.17699C2.28179 5.73607 2.1094 6.35011 1.93222 6.85424Z" fill="black"/>
</g>
</g>
<defs>
<linearGradient id="paint0_linear_1344_5049" x1="14.6338" y1="12.3188" x2="24.0004" y2="12.3188" gradientUnits="userSpaceOnUse">
<stop/>
<stop offset="1"/>
</linearGradient>
<clipPath id="clip0_1344_5049">
<rect width="24" height="24" fill="white"/>
</clipPath>
</defs>
</svg>
