<svg width="24" height="24" viewBox="0 0 24 24" fill="none" xmlns="http://www.w3.org/2000/svg">
<path d="M9.0745 20.8335L6.55 23.3835C6.2695 23.6385 5.8955 23.8085 5.4875 23.8085C5.09299 23.8085 4.71464 23.6518 4.43568 23.3728C4.15672 23.0939 4 22.7155 4 22.321V22.1085L4.85 15.8355C5.0285 13.872 6.669 12.3335 8.675 12.3335H16.325C18.331 12.3335 19.9715 13.872 20.15 15.8355L21 22.1085V22.321C21 22.7155 20.8433 23.0939 20.5643 23.3728C20.2854 23.6518 19.907 23.8085 19.5125 23.8085C19.1045 23.8085 18.7305 23.6385 18.45 23.3835L15.9255 20.8335H9.0745ZM8.25 14.0335V15.7335H6.55V16.5835H8.25V18.2835H9.1V16.5835H10.8V15.7335H9.1V14.0335H8.25ZM16.325 14.0335C16.1559 14.0335 15.9938 14.1007 15.8742 14.2202C15.7547 14.3398 15.6875 14.5019 15.6875 14.671C15.6875 14.8401 15.7547 15.0022 15.8742 15.1218C15.9938 15.2413 16.1559 15.3085 16.325 15.3085C16.4941 15.3085 16.6562 15.2413 16.7758 15.1218C16.8953 15.0022 16.9625 14.8401 16.9625 14.671C16.9625 14.5019 16.8953 14.3398 16.7758 14.2202C16.6562 14.1007 16.4941 14.0335 16.325 14.0335ZM14.8375 15.521C14.6684 15.521 14.5063 15.5882 14.3867 15.7077C14.2672 15.8273 14.2 15.9894 14.2 16.1585C14.2 16.3276 14.2672 16.4897 14.3867 16.6093C14.5063 16.7288 14.6684 16.796 14.8375 16.796C15.0066 16.796 15.1687 16.7288 15.2883 16.6093C15.4078 16.4897 15.475 16.3276 15.475 16.1585C15.475 15.9894 15.4078 15.8273 15.2883 15.7077C15.1687 15.5882 15.0066 15.521 14.8375 15.521ZM17.8125 15.521C17.6434 15.521 17.4813 15.5882 17.3617 15.7077C17.2422 15.8273 17.175 15.9894 17.175 16.1585C17.175 16.3276 17.2422 16.4897 17.3617 16.6093C17.4813 16.7288 17.6434 16.796 17.8125 16.796C17.9816 16.796 18.1437 16.7288 18.2633 16.6093C18.3828 16.4897 18.45 16.3276 18.45 16.1585C18.45 15.9894 18.3828 15.8273 18.2633 15.7077C18.1437 15.5882 17.9816 15.521 17.8125 15.521ZM16.325 17.0085C16.1559 17.0085 15.9938 17.0757 15.8742 17.1952C15.7547 17.3148 15.6875 17.4769 15.6875 17.646C15.6875 17.8151 15.7547 17.9772 15.8742 18.0968C15.9938 18.2163 16.1559 18.2835 16.325 18.2835C16.4941 18.2835 16.6562 18.2163 16.7758 18.0968C16.8953 17.9772 16.9625 17.8151 16.9625 17.646C16.9625 17.4769 16.8953 17.3148 16.7758 17.1952C16.6562 17.0757 16.4941 17.0085 16.325 17.0085Z" fill="white"/>
<mask id="mask0_229_683" style="mask-type:alpha" maskUnits="userSpaceOnUse" x="4" y="1" width="17" height="13">
<rect x="4" y="1" width="17" height="12.9524" fill="#D9D9D9"/>
</mask>
<g mask="url(#mask0_229_683)">
<path d="M15.58 6.6751C15.1158 3.8166 14.0211 1.80957 12.7471 1.80957C11.4731 1.80957 10.3783 3.8166 9.91419 6.6751H15.58ZM9.67412 9.74806C9.67412 10.4587 9.71253 11.1405 9.77975 11.7967H15.7112C15.7784 11.1405 15.8168 10.4587 15.8168 9.74806C15.8168 9.03744 15.7784 8.35562 15.7112 7.69942H9.77975C9.71253 8.35562 9.67412 9.03744 9.67412 9.74806ZM20.0678 6.6751C19.1523 4.50161 17.2989 2.82109 15.0102 2.14247C15.7912 3.22441 16.329 4.85372 16.6107 6.6751H20.0678ZM10.4808 2.14247C8.19526 2.82109 6.33867 4.50161 5.42639 6.6751H8.88347C9.16196 4.85372 9.69973 3.22441 10.4808 2.14247ZM20.4103 7.69942H16.7387C16.806 8.37163 16.8444 9.05984 16.8444 9.74806C16.8444 10.4363 16.806 11.1245 16.7387 11.7967H20.4071C20.5831 11.1405 20.6824 10.4587 20.6824 9.74806C20.6824 9.03744 20.5831 8.35562 20.4103 7.69942ZM8.6498 9.74806C8.6498 9.05984 8.68821 8.37163 8.75543 7.69942H5.08388C4.91103 8.35562 4.80859 9.03744 4.80859 9.74806C4.80859 10.4587 4.91103 11.1405 5.08388 11.7967H8.75223C8.68821 11.1245 8.6498 10.4363 8.6498 9.74806ZM9.91419 12.821C10.3783 15.6795 11.4731 17.6865 12.7471 17.6865C14.0211 17.6865 15.1158 15.6795 15.58 12.821H9.91419ZM15.0134 17.3536C17.2989 16.675 19.1555 14.9945 20.071 12.821H16.6139C16.3322 14.6424 15.7944 16.2717 15.0134 17.3536ZM5.42639 12.821C6.34187 14.9945 8.19526 16.675 10.484 17.3536C9.70293 16.2717 9.16516 14.6424 8.88347 12.821H5.42639Z" fill="white"/>
</g>
</svg>
