<svg width="19" height="16" viewBox="0 0 19 16" fill="none" xmlns="http://www.w3.org/2000/svg">
<path d="M18.5506 7.5691C18.3133 5.09424 16.1132 3.27968 13.6383 3.51827C13.5558 3.52601 13.4719 3.53632 13.3894 3.54922C12.6388 3.65497 11.9282 3.95288 11.3259 4.41329C11.5606 5.26447 11.7528 6.12339 11.9101 6.99004C12.4724 5.80355 13.8898 5.29671 15.0763 5.859C16.2628 6.4213 16.7696 7.83864 16.2073 9.02513C15.8023 9.88146 14.9267 10.4141 13.9801 10.3831C13.3455 10.3702 12.7433 10.0981 12.3138 9.62998C12.3654 10.0478 12.4157 10.4683 12.4634 10.89C12.4931 10.9145 12.5253 10.9351 12.5588 10.9519C12.7471 11.0525 12.9432 11.135 13.1469 11.2008C13.2024 11.2163 13.2643 11.2279 13.2424 11.2962C13.2101 11.4458 13.1818 11.5799 13.1547 11.7141C13.1379 11.7953 13.0876 11.7927 13.0257 11.7747C12.858 11.7231 12.6994 11.6638 12.5421 11.5967C12.5653 11.8237 12.5911 12.0507 12.6143 12.2686C13.0618 12.4169 13.53 12.4956 14.002 12.5033C14.6997 12.5201 15.3922 12.3666 16.0177 12.0558C17.003 11.5838 17.7846 10.7687 18.214 9.7641C18.3585 9.39784 18.4681 9.01868 18.5416 8.63178L18.5713 7.66453C18.5506 7.63616 18.5506 7.60005 18.5506 7.5691ZM13.5106 4.72281C13.1108 4.78085 12.7278 4.92271 12.3886 5.14066C12.337 5.1729 12.2945 5.17935 12.2571 5.12003C12.181 5.00396 12.1062 4.89047 12.0275 4.78343C11.9875 4.72281 12.0107 4.69057 12.0662 4.66091C12.4969 4.41845 12.9651 4.24822 13.45 4.15665C13.5119 4.14504 13.5493 4.15665 13.5558 4.23016C13.5712 4.36171 13.5893 4.49196 13.6061 4.6248C13.6228 4.70476 13.5661 4.71636 13.5106 4.72281ZM16.2305 4.96914C16.1493 5.06199 16.0745 5.16001 16.0035 5.26189C15.9545 5.32766 15.9133 5.34314 15.8359 5.28897C15.5663 5.0865 15.2607 4.93561 14.9357 4.84533C14.8673 4.8247 14.8196 4.79632 14.8364 4.71765C14.8648 4.58353 14.8957 4.4494 14.9241 4.31399C14.9241 4.27401 14.9447 4.2379 15.0002 4.24693C15.1162 4.28562 15.2349 4.32044 15.3497 4.36429C15.6463 4.47262 15.9313 4.6119 16.1996 4.77956C16.2873 4.8363 16.3143 4.88144 16.237 4.96914H16.2305ZM16.0139 11.3672C15.6527 11.558 15.262 11.6844 14.8583 11.7399C14.7771 11.7515 14.7564 11.7179 14.7474 11.6522C14.7358 11.5451 14.7216 11.4355 14.7087 11.304C14.6932 11.2537 14.7319 11.2227 14.7977 11.2085C15.1111 11.1324 15.4116 11.0151 15.6953 10.8603C15.7559 10.8307 15.7946 10.8216 15.8346 10.8887C15.9055 11.006 15.9829 11.1182 16.0616 11.2253C16.0951 11.2936 16.0887 11.331 16.019 11.3659L16.0139 11.3672ZM16.9282 6.0963C17.0237 6.03569 17.1204 5.97378 17.2107 5.90672C17.3009 5.83966 17.3229 5.8719 17.368 5.94412C17.6195 6.35552 17.7871 6.81207 17.8606 7.28795C17.8761 7.3821 17.8606 7.42208 17.7626 7.43239L17.3409 7.47882C17.3177 7.47882 17.3035 7.43497 17.2958 7.38468C17.2236 6.98359 17.0856 6.59669 16.887 6.24074C16.8534 6.16336 16.8702 6.13112 16.9321 6.0963H16.9282ZM17.6672 9.4404C17.5679 9.65061 17.4492 9.85051 17.3138 10.0401C17.2532 10.1239 17.2042 10.1252 17.132 10.0633C17.034 9.97948 16.8895 9.91886 16.847 9.8144C16.8044 9.70994 16.9424 9.59387 16.9966 9.4778C17.1101 9.25855 17.2042 9.03028 17.2777 8.79557C17.3035 8.71045 17.3422 8.68079 17.4325 8.70658C17.5498 8.7414 17.6724 8.75817 17.7936 8.78396C17.8374 8.78396 17.8787 8.79943 17.8748 8.85231C17.8297 9.05479 17.7613 9.25082 17.6736 9.43911L17.6672 9.4404Z" fill="white"/>
<path d="M15.796 8.05624C15.7676 9.01832 14.9654 9.77536 14.0033 9.74698C13.9995 9.74698 13.9969 9.74698 13.993 9.74698C13.0297 9.73667 12.2559 8.9461 12.2675 7.98143C12.2778 7.01806 13.0683 6.24426 14.033 6.25587C14.0614 6.25587 14.091 6.25716 14.1194 6.25845C15.0751 6.28811 15.8269 7.0877 15.796 8.04334C15.796 8.04721 15.796 8.05108 15.796 8.05624Z" fill="white"/>
<path d="M0 2.77426C0 1.88182 0.570031 1.17121 1.39413 1.04741C3.15838 0.780445 4.92264 0.543147 6.69593 0.287794C7.3227 0.198808 7.95077 0.120138 8.57755 0.0234136C9.54866 -0.126187 10.3985 0.452871 10.543 1.42399C10.8602 3.55451 11.153 5.68632 11.4535 7.81813C11.6959 9.53725 11.9268 11.2577 12.177 12.9742C12.3176 13.9389 11.7888 14.7836 10.8332 14.9409C9.27009 15.1976 7.69928 15.4001 6.12848 15.6232C5.3018 15.7405 4.47384 15.8502 3.64717 15.9765C2.65413 16.1261 1.81069 15.5497 1.66109 14.5515C1.34512 12.448 1.05494 10.3394 0.757032 8.23341C0.515865 6.51815 0.278567 4.79774 0.0386899 3.07991C0.0232139 2.95482 0.00644831 2.82843 0 2.77426ZM8.38667 7.19265C8.4086 6.67162 8.10811 6.18929 7.62835 5.98165C7.13957 5.72759 6.54504 5.80626 6.14008 6.18026C5.98919 6.3131 5.8757 6.40079 5.64614 6.29633C4.92264 5.97005 4.19785 6.19187 3.83159 6.81607C3.46532 7.43897 3.61879 8.15989 4.25847 8.66415C4.73693 9.03815 5.22184 9.40442 5.7132 9.76423C6.19683 10.1189 6.59146 10.0686 6.96289 9.59658C7.36268 9.09232 7.74184 8.56614 8.13906 8.05156C8.31961 7.80137 8.40602 7.4983 8.38667 7.19265ZM10.7158 12.2326C10.7261 11.9721 10.6384 11.8548 10.4888 11.7877C10.356 11.7129 10.1883 11.7593 10.1135 11.8922C10.1084 11.9012 10.1032 11.9115 10.0993 11.9205C9.93169 12.4248 9.7434 12.5925 9.39261 12.0379C9.29202 11.9115 9.10889 11.8909 8.9825 11.9902C8.97089 11.9992 8.95928 12.0095 8.95026 12.0211C8.80581 12.1127 8.76326 12.3036 8.85482 12.448C8.8574 12.4519 8.85998 12.4558 8.86256 12.4596C9.12307 12.8491 9.37714 13.2437 9.66344 13.6126C9.8311 13.8383 10.1135 13.8254 10.2283 13.5778C10.4385 13.1174 10.5765 12.6273 10.7171 12.2301V12.2326H10.7158ZM1.49472 3.76601C1.49472 4.03426 1.56823 4.16968 1.74878 4.21998C1.91257 4.2664 2.08667 4.18773 2.15889 4.03297C2.25304 3.88466 2.22467 3.6177 2.39232 3.58288C2.60383 3.53774 2.63478 3.82663 2.77148 3.94399C2.90819 4.06135 3.04231 4.13873 3.21126 4.02266C3.36989 3.94915 3.43953 3.76215 3.36602 3.60352C3.36086 3.59191 3.35441 3.5803 3.34796 3.5687C3.11453 3.15085 2.84113 2.75621 2.53032 2.39252C2.43101 2.24679 2.23241 2.20939 2.08667 2.3087C2.03122 2.3461 1.98866 2.40155 1.96545 2.46474C1.76555 2.89936 1.63142 3.37654 1.49472 3.76601Z" fill="white"/>
</svg>
