<svg version="1.2" xmlns="http://www.w3.org/2000/svg" viewBox="0 0 279 70" width="279" height="70">
	<title>animated-whatsapp-svg</title>
	<defs>
		<linearGradient id="g1" x2="1" gradientUnits="userSpaceOnUse" gradientTransform="matrix(231.224,0,0,47.04,47.776,33.52)">
			<stop offset="0" stop-color="#ff4a00"/>
			<stop offset="1" stop-color="#e4440a"/>
		</linearGradient>
		<linearGradient id="g2" x2="1" gradientUnits="userSpaceOnUse" gradientTransform="matrix(0,-56.534,56.534,0,42.467,60.714)">
			<stop offset="0" stop-color="#25cf43"/>
			<stop offset="1" stop-color="#61fd7d"/>
		</linearGradient>
	</defs>
	<style>
		.s0 { opacity: 0;fill: url(#g1) } 
		.s1 { opacity: 0;fill: #1a1a1a } 
		.s2 { opacity: 0;fill: none;stroke: #1a1a1a;stroke-linecap: round;stroke-width: 1.3 } 
		.s3 { fill: url(#g2) } 
		.s4 { fill: #ffffff } 
		@keyframes fadeInLeft {
  0% {
    opacity: 0;
    transform: translateX(-35px);
  }
  100% {
    opacity: 1;
    transform: translateX(0);
  }
}

@keyframes fadeOutLeft {
  0% {
    opacity: 1;
    transform: translateX(0);
  }
  100% {
    opacity: 0;
    transform: translateX(-35px);
  }
}

#animate {
  opacity: 0;
  animation: fadeInLeft 1s ease-in-out 2s forwards, fadeOutLeft 1s ease-in-out 20s forwards;
}


	</style>
	<path id="animate" class="s0" d="m47.8 19c0-5 4-9 9-9h213.2c5 0 9 4 9 9v29c0 5-4 9-9 9h-213.2c-5 0-9-4-9-9z"/>
	<path id="animate" fill-rule="evenodd" class="s1" d="m82.8 31.2v-8.4h3.3c2 0 3.2 1.1 3.2 2.8 0 1.9-1.5 2.9-3.4 2.9h-1.7v2.7zm1.5-4.1h1.7c1.2 0 1.9-0.6 1.9-1.5 0-1-0.8-1.5-1.9-1.5h-1.7zm6.5 4.1v-8.8h1.4v8.8zm5.2 0.1c-1.2 0-2.2-0.7-2.2-2 0-1.4 1-2 2.6-2 0.7 0 1.2 0.1 1.7 0.2v-0.1c0-0.9-0.6-1.4-1.6-1.4-0.7 0-1.2 0.2-1.8 0.4l-0.4-1.1c0.7-0.3 1.4-0.6 2.4-0.6q1.4 0 2.1 0.7 0.7 0.8 0.7 2v3.8h-1.4v-0.8c-0.5 0.5-1.1 0.9-2.1 0.9zm0.4-1.1c1 0 1.7-0.5 1.7-1.3v-0.5c-0.4-0.1-0.8-0.2-1.4-0.2-1 0-1.5 0.4-1.5 1v0.1c0 0.6 0.5 0.9 1.2 0.9zm7.3-0.7l1.7-4.7h1.5l-2.5 6.5c-0.5 1.3-1.1 1.8-2.1 1.8-0.6 0-1.1-0.1-1.5-0.4l0.5-1.1q0.4 0.3 0.8 0.3c0.5 0 0.7-0.2 0.9-0.7l-2.6-6.4h1.6zm9.8 1.8c-1.2 0-2.3-0.7-2.3-2 0-1.4 1.1-2 2.7-2 0.7 0 1.2 0.1 1.7 0.2v-0.1c0-0.9-0.6-1.4-1.6-1.4-0.7 0-1.2 0.1-1.8 0.4l-0.4-1.2c0.7-0.3 1.4-0.5 2.4-0.5q1.4 0 2.1 0.7 0.7 0.7 0.7 2v3.8h-1.4v-0.8c-0.5 0.5-1.1 0.9-2.1 0.9zm0.4-1.1c1 0 1.7-0.5 1.7-1.3v-0.5c-0.4-0.1-0.9-0.2-1.4-0.2-1 0-1.5 0.4-1.5 1v0.1c0 0.6 0.5 0.9 1.2 0.9zm4.8 1v-6.4h1.5v1c0.4-0.6 1-1.1 1.9-1.1 1.5 0 2.3 0.9 2.3 2.4v4.1h-1.5v-3.6c0-1-0.4-1.6-1.3-1.6-0.9 0-1.4 0.6-1.4 1.6v3.6zm10 0.1c-1.5 0-2.9-1.2-2.9-3.3 0-2.1 1.4-3.3 2.9-3.3 1.1 0 1.8 0.5 2.2 1.1v-3.4h1.4v8.8h-1.4v-1.1c-0.5 0.7-1.1 1.2-2.2 1.2zm0.4-1.3c1 0 1.8-0.8 1.8-2 0-1.3-0.8-2.1-1.8-2.1-1 0-1.8 0.8-1.8 2.1 0 1.2 0.8 2 1.8 2zm11.1 1.2l-2.9-8.4h1.6l2 6.2 2.1-6.3h1.2l2.1 6.3 2-6.2h1.5l-2.9 8.4h-1.3l-2-6-2.1 6zm10.8-7.4v-1.3h1.6v1.3zm0 7.4v-6.4h1.5v6.4zm3.3 0v-6.4h1.5v1c0.4-0.6 1-1.1 2-1.1 1.4 0 2.2 0.9 2.2 2.4v4.1h-1.4v-3.6c0-1-0.5-1.6-1.4-1.6-0.8 0-1.4 0.6-1.4 1.6v3.6zm7.3 0v-1.7h1.6v1.7zm11.1 0.1c-2.6 0-4.4-1.9-4.4-4.3 0-2.4 1.8-4.4 4.4-4.4 1.4 0 2.3 0.4 3.2 1.1l-0.9 1.2c-0.7-0.6-1.3-0.9-2.4-0.9-1.5 0-2.7 1.3-2.7 2.9v0.1c0 1.7 1.1 3 2.9 3 0.8 0 1.5-0.3 2-0.7v-1.5h-2.2v-1.3h3.6v3.5c-0.8 0.7-2 1.3-3.5 1.3zm8.2 0c-1.9 0-3.3-1.3-3.3-3.3 0-1.8 1.3-3.3 3.1-3.3 2 0 3 1.6 3 3.4q0 0.2 0 0.4h-4.6c0.1 1 0.8 1.6 1.8 1.6 0.7 0 1.2-0.3 1.7-0.7l0.9 0.7c-0.7 0.7-1.5 1.2-2.6 1.2zm-1.8-3.8h3.2c-0.1-0.9-0.6-1.6-1.6-1.6-0.9 0-1.5 0.6-1.6 1.6zm8.2 3.8c-1 0-1.8-0.5-1.8-1.9v-3.3h-0.8v-1.3h0.8v-1.7h1.5v1.7h1.7v1.3h-1.7v3.1c0 0.5 0.2 0.8 0.7 0.8q0.5 0 0.9-0.3v1.2c-0.3 0.2-0.7 0.4-1.3 0.4zm8.3 0c-1.2 0-2.3-0.7-2.3-2 0-1.4 1.1-2 2.6-2 0.8 0 1.2 0.1 1.7 0.2v-0.1c0-0.9-0.5-1.4-1.5-1.4-0.8 0-1.3 0.1-1.8 0.4l-0.4-1.2c0.7-0.3 1.3-0.5 2.4-0.5q1.4 0 2.1 0.7 0.6 0.7 0.6 2v3.8h-1.4v-0.8c-0.4 0.5-1.1 0.9-2 0.9zm0.4-1.1c0.9 0 1.7-0.5 1.7-1.3v-0.5c-0.4-0.1-0.9-0.2-1.5-0.2-0.9 0-1.5 0.4-1.5 1v0.1c0 0.6 0.6 0.9 1.3 0.9zm8.4 1v-6.4h1.4v1c0.4-0.6 1-1.1 2-1.1 1.4 0 2.3 0.9 2.3 2.4v4.1h-1.5v-3.6c0-1-0.5-1.6-1.3-1.6-0.9 0-1.5 0.6-1.5 1.6v3.6zm10.4 0.1c-1.8 0-3.3-1.3-3.3-3.3 0-1.8 1.3-3.3 3.1-3.3 2 0 3.1 1.6 3.1 3.4q0 0.2-0.1 0.4h-4.6c0.1 1 0.9 1.6 1.8 1.6 0.7 0 1.2-0.3 1.7-0.7l0.9 0.7c-0.6 0.7-1.5 1.2-2.6 1.2zm-1.8-3.8h3.2c-0.1-0.9-0.6-1.6-1.6-1.6-0.9 0-1.5 0.6-1.6 1.6zm7.3 3.7l-2-6.4h1.5l1.2 4.4 1.5-4.4h1.2l1.4 4.4 1.3-4.4h1.5l-2.1 6.4h-1.3l-1.4-4.3-1.5 4.3zm12.7 0v-8.4h1.5v8.4zm3.7 0v-8.4h3.1c2.7 0 4.5 1.8 4.5 4.1v0.1c0 2.3-1.8 4.2-4.5 4.2zm3.2-7.1h-1.7v5.7h1.7c1.7 0 2.9-1.2 2.9-2.8 0-1.7-1.2-2.9-2.9-2.9zm-157.3 13.7v-1.3h1.6v1.3zm0 7.4v-6.4h1.5v6.4zm3.3 0v-6.4h1.5v1c0.4-0.6 1-1.1 2-1.1 1.4 0 2.2 0.9 2.2 2.4v4.1h-1.4v-3.6c0-1-0.5-1.6-1.4-1.6-0.8 0-1.4 0.6-1.4 1.6v3.6zm9.6 0.1c-0.9 0-1.9-0.3-2.7-1l0.7-1q1 0.8 2 0.8c0.7 0 1-0.2 1-0.7 0-0.5-0.6-0.6-1.4-0.9-0.9-0.2-2-0.6-2-1.8 0-1.3 1-2 2.3-2 0.8 0 1.6 0.3 2.3 0.7l-0.6 1.1c-0.6-0.4-1.2-0.6-1.8-0.6-0.5 0-0.8 0.2-0.8 0.6 0 0.5 0.6 0.7 1.4 0.9 0.9 0.3 2 0.7 2 1.9 0 1.3-1.1 2-2.4 2zm5.8 0c-1 0-1.8-0.5-1.8-1.9v-3.3h-0.8v-1.3h0.8v-1.7h1.5v1.7h1.7v1.3h-1.7v3.1c0 0.5 0.3 0.8 0.8 0.8q0.4 0 0.9-0.3v1.2c-0.4 0.2-0.8 0.4-1.4 0.4zm4.7 0c-1.2 0-2.3-0.7-2.3-2 0-1.4 1.1-2 2.7-2 0.7 0 1.2 0.1 1.7 0.2v-0.1c0-0.9-0.6-1.4-1.6-1.4-0.7 0-1.2 0.1-1.8 0.4l-0.4-1.2c0.7-0.3 1.4-0.5 2.4-0.5q1.4 0 2.1 0.7 0.7 0.7 0.7 2v3.8h-1.5v-0.8c-0.4 0.5-1 0.9-2 0.9zm0.4-1.1c1 0 1.7-0.5 1.7-1.3v-0.5c-0.4-0.1-0.9-0.2-1.5-0.2-0.9 0-1.4 0.4-1.4 1v0.1c0 0.6 0.5 0.9 1.2 0.9zm4.8 1v-6.4h1.5v1c0.4-0.6 0.9-1.1 1.9-1.1 1.5 0 2.3 0.9 2.3 2.4v4.1h-1.5v-3.6c0-1-0.5-1.6-1.3-1.6-0.9 0-1.4 0.6-1.4 1.6v3.6zm9.5 0.1c-1 0-1.8-0.5-1.8-1.9v-3.3h-0.8v-1.3h0.8v-1.7h1.5v1.7h1.7v1.3h-1.7v3.1c0 0.5 0.2 0.8 0.7 0.8q0.5 0 0.9-0.3v1.2c-0.3 0.2-0.7 0.4-1.3 0.4zm2.9-0.1v-8.8h1.5v8.8zm6.1-1.7l1.6-4.7h1.5l-2.5 6.5c-0.5 1.3-1 1.8-2.1 1.8-0.6 0-1-0.1-1.5-0.4l0.5-1.1q0.4 0.3 0.9 0.3c0.4 0 0.6-0.2 0.9-0.7l-2.7-6.4h1.6zm11 1.8c-1.9 0-3.3-1.5-3.3-3.3 0-1.8 1.4-3.3 3.3-3.3 2 0 3.4 1.5 3.4 3.3 0 1.8-1.4 3.3-3.4 3.3zm0-1.3c1.2 0 2-0.9 2-2 0-1.1-0.8-2-2-2-1.1 0-1.9 0.9-1.9 2 0 1.1 0.8 2 1.9 2zm6.5 1.2l-2.6-6.4h1.6l1.7 4.7 1.7-4.7h1.5l-2.6 6.4zm7.7 0.1c-1.8 0-3.2-1.3-3.2-3.3 0-1.8 1.2-3.3 3.1-3.3 2 0 3 1.6 3 3.4q0 0.2 0 0.4h-4.7c0.2 1 0.9 1.6 1.8 1.6 0.8 0 1.2-0.3 1.8-0.8l0.8 0.8c-0.6 0.7-1.4 1.2-2.6 1.2zm-1.8-3.8h3.3c-0.1-0.9-0.7-1.6-1.7-1.6-0.9 0-1.5 0.6-1.6 1.6zm6.1 3.6v-6.3h1.5v1.4c0.4-0.9 1.1-1.6 2.3-1.5v1.5h-0.1c-1.3 0-2.2 0.9-2.2 2.5v2.4zm11 0.1l-2.9-8.5h1.6l2 6.3 2.1-6.3h1.2l2.1 6.3 2-6.3h1.5l-2.9 8.5h-1.3l-2-6-2.1 6zm10.8-0.1v-8.7h1.5v3.4c0.4-0.6 1-1.1 2-1.1 1.4 0 2.2 0.9 2.2 2.4v4h-1.4v-3.6c0-0.9-0.5-1.5-1.4-1.5-0.8 0-1.4 0.6-1.4 1.6v3.5zm9.3 0.2c-1.2 0-2.3-0.7-2.3-2 0-1.4 1.1-2 2.6-2 0.8 0 1.2 0.1 1.7 0.2v-0.1c0-0.9-0.5-1.4-1.5-1.4-0.8 0-1.3 0.1-1.8 0.4l-0.4-1.2c0.7-0.3 1.4-0.5 2.4-0.5q1.4 0 2.1 0.7 0.7 0.7 0.6 2v3.7h-1.4v-0.7c-0.4 0.5-1.1 0.9-2 0.9zm0.4-1.1c0.9 0 1.7-0.5 1.7-1.3v-0.5c-0.4-0.1-0.9-0.2-1.5-0.2-0.9 0-1.5 0.4-1.5 1v0.1c0 0.6 0.6 0.9 1.3 0.9zm6.8 1.1c-1 0-1.8-0.5-1.8-1.9v-3.3h-0.8v-1.3h0.8v-1.7h1.5v1.7h1.7v1.3h-1.7v3.1c0 0.5 0.3 0.8 0.8 0.8q0.4 0 0.9-0.3v1.2c-0.4 0.2-0.8 0.4-1.4 0.4zm5 0c-0.9 0-1.9-0.3-2.7-1l0.7-1q1.1 0.8 2.1 0.8c0.6 0 1-0.2 1-0.7 0-0.5-0.7-0.7-1.5-0.9-0.9-0.2-1.9-0.6-1.9-1.8v-0.1c0-1.2 1-1.9 2.2-1.9 0.8 0 1.7 0.3 2.3 0.7l-0.5 1.1c-0.6-0.4-1.3-0.6-1.8-0.6-0.6 0-0.9 0.2-0.9 0.6 0 0.5 0.7 0.7 1.4 0.9 0.9 0.3 2 0.7 2 1.9 0 1.3-1 2-2.4 2zm3.3-0.2l3.7-8.4h1.4l3.7 8.4h-1.6l-0.8-2h-4l-0.9 2zm2.9-3.3h2.9l-1.4-3.3zm7.1 5.2v-8.2h1.5v1c0.4-0.7 1.1-1.2 2.1-1.2 1.5 0 3 1.2 3 3.3 0 2.1-1.5 3.3-3 3.3-1 0-1.7-0.5-2.1-1.1v2.9zm3.2-3c1 0 1.8-0.8 1.8-2.1 0-1.2-0.8-2-1.8-2-1 0-1.8 0.8-1.8 2 0 1.2 0.8 2.1 1.8 2.1zm4.8 3v-8.2h1.5v1c0.4-0.7 1.1-1.2 2.1-1.2 1.5 0 3 1.2 3 3.3 0 2.1-1.5 3.3-3 3.3-1 0-1.7-0.5-2.1-1.1v2.9zm3.2-3c1 0 1.9-0.8 1.9-2.1 0-1.2-0.9-2-1.9-2-0.9 0-1.8 0.8-1.8 2 0 1.2 0.9 2.1 1.8 2.1z"/>
	<path id="animate" fill-rule="evenodd" class="s2" d="m264.4 30l2.9 2.9c0.1 0.1 0.1 0.2 0 0.2l-2.9 2.9"/>
	<g id="Layer">
		<path id="Layer" class="s3" d="m70.7 32.4c0 15.7-12.6 28.3-28.2 28.3-5 0-9.6-1.3-13.7-3.5-1.9-1.1-10.1 3.4-11.7 1.9-1.3-1.1 3.9-8.1 2.9-9.5-3.6-4.8-5.8-10.7-5.8-17.2 0-15.6 12.7-28.2 28.3-28.2 15.6 0 28.2 12.6 28.2 28.2z"/>
		<path id="Layer" fill-rule="evenodd" class="s4" d="m74.3 33c0 17.1-13.9 31-31 31-5.2 0-10.3-1.3-14.9-3.8l-16.4 4.3 4.4-16c-2.7-4.7-4.1-10-4.1-15.5 0-17.1 13.9-31 31-31 8.3 0 16 3.2 21.9 9.1 5.8 5.8 9.1 13.6 9.1 21.9zm-5.3 0c0.1-6.9-2.6-13.3-7.5-18.2-4.9-4.9-11.3-7.6-18.2-7.6-14.2 0-25.8 11.6-25.8 25.8 0 4.9 1.4 9.6 4 13.7l0.6 1-2.6 9.5 9.7-2.6 1 0.6c3.9 2.3 8.4 3.6 13.1 3.6 14.2 0 25.7-11.6 25.7-25.8zm-10.1 7.4c0.2 0.3 0.2 1.9-0.4 3.7-0.7 1.8-3.8 3.5-5.3 3.7-1.3 0.2-3 0.3-4.8-0.3-1.2-0.4-2.6-0.9-4.5-1.7-7.7-3.3-12.8-11.1-13.2-11.7-0.4-0.5-3.2-4.2-3.2-8 0-3.8 2-5.7 2.7-6.4 0.8-0.8 1.6-1 2.1-1 0.5 0 1.1 0 1.5 0 0.5 0 1.1-0.2 1.7 1.3 0.7 1.6 2.2 5.4 2.4 5.8 0.2 0.4 0.3 0.8 0.1 1.4-0.3 0.5-0.4 0.8-0.8 1.2-0.4 0.5-0.8 1.1-1.1 1.4-0.4 0.4-0.8 0.8-0.4 1.6 0.5 0.8 2 3.3 4.3 5.3 3 2.7 5.5 3.5 6.2 3.9 0.8 0.4 1.3 0.3 1.7-0.2 0.5-0.5 2-2.3 2.5-3 0.5-0.8 1-0.7 1.7-0.4 0.7 0.2 4.5 2.1 5.3 2.5 0.8 0.4 1.3 0.6 1.5 0.9z"/>
	</g>
</svg>