<svg width="24" height="24" viewBox="0 0 24 24" fill="none" xmlns="http://www.w3.org/2000/svg">
<path d="M7.7554 3.95813C3.99715 7.50317 3.48547 8.00781 3.10913 8.57622C2.68273 9.2084 2.37016 9.91882 2.12878 10.7857C2.02941 11.1409 1.99382 11.4891 2.00086 12.3133C2.00086 13.2725 2.022 13.4357 2.19256 13.9474C2.55481 15.0486 3.2085 15.8799 4.22444 16.5477C5.12655 17.1372 6.37015 17.535 7.30786 17.535C8.59373 17.528 9.53886 17.3007 10.4625 16.7749C10.761 16.6114 11.0168 16.4765 11.0238 16.4906C11.0524 16.5191 10.7398 18.6218 10.5904 19.4531C10.2493 21.2933 9.63118 22.9199 9.11283 23.3534C8.95636 23.4813 8.95636 23.7371 9.11987 23.8791C9.24075 23.9855 9.56036 24 12.2745 24C15.1091 24 15.3008 23.993 15.4076 23.8721C15.5852 23.6804 15.5566 23.5239 15.2867 23.2043C14.6972 22.515 14.1288 21.0163 13.7591 19.1973C13.5103 17.9396 13.2975 16.5473 13.3401 16.4976C13.3612 16.4835 13.6315 16.5899 13.9367 16.7464C14.2422 16.9029 14.7891 17.1157 15.1373 17.2225C15.7127 17.393 15.8904 17.4142 16.8781 17.4216C18.171 17.4286 18.5618 17.3434 19.5422 16.8602C20.5296 16.3771 21.3253 15.6381 21.9078 14.6719C22.9949 12.8743 22.6964 10.4446 21.1406 8.3771C20.501 7.53172 12.4944 0.0293217 12.1959 0.000770569C12.0038 -0.0203629 11.5704 0.370441 7.7554 3.95813Z" fill="white"/>
</svg>
