<svg width="16" height="17" viewBox="0 0 16 17" fill="none" xmlns="http://www.w3.org/2000/svg">
<path d="M15.4352 13.2669L10.379 8.11615L15.4352 2.96544C16.1012 2.2871 16.1012 1.18725 15.4353 0.508821C14.7693 -0.169607 13.6896 -0.16952 13.0238 0.508821L7.96739 5.65953L2.91103 0.508821C2.24521 -0.169607 1.16535 -0.169607 0.49945 0.508821C-0.166455 1.18725 -0.166455 2.2871 0.499536 2.96544L5.55581 8.11615L0.499536 13.2669C-0.166455 13.9453 -0.16654 15.0451 0.49945 15.7235C1.16561 16.402 2.2453 16.4017 2.91103 15.7235L7.96739 10.5728L13.0238 15.7235C13.6895 16.4018 14.7693 16.4019 15.4353 15.7235C16.1013 15.045 16.1012 13.9452 15.4352 13.2669Z" fill="url(#paint0_linear_10459_4232)"/>
<defs>
<linearGradient id="paint0_linear_10459_4232" x1="0" y1="8.11613" x2="15.9348" y2="8.11613" gradientUnits="userSpaceOnUse">
<stop stop-color="#F2D71A"/>
<stop offset="1" stop-color="#ECB024"/>
</linearGradient>
</defs>
</svg>
