<svg width="24" height="24" viewBox="0 0 24 24" fill="none" xmlns="http://www.w3.org/2000/svg">
<path d="M12.0041 8.74805C11.7977 8.74805 11.6289 8.91687 11.6289 9.1232C11.6289 9.47584 11.8202 10.395 12.0041 10.8302C12.1841 10.395 12.3792 9.47584 12.3792 9.1232C12.3792 8.91687 12.2104 8.74805 12.0041 8.74805Z" fill="white"/>
<path d="M14.6157 16.5287V6.87231H9.39355V16.5513C9.44233 17.3353 9.56613 18.1044 9.76871 18.8509C10.0492 19.8997 10.4847 20.9211 11.0517 21.8484C11.4441 22.5464 12.5611 22.5525 12.9575 21.8484C13.9381 20.2422 14.4979 18.4146 14.6157 16.5287ZM12.3798 19.3799C12.3705 19.8721 11.6389 19.8732 11.6295 19.3799V17.3766C11.6387 16.8844 12.3703 16.8833 12.3798 17.3766C12.3798 17.3766 12.3798 19.3799 12.3798 19.3799ZM12.0046 11.7493C11.0667 11.7493 10.8792 9.15325 10.8792 9.12323C10.8792 8.50424 11.3819 7.99777 12.0046 7.99777C12.6236 7.99777 13.1301 8.50424 13.1301 9.12323C13.1301 9.15325 12.9387 11.7493 12.0046 11.7493Z" fill="white"/>
<path d="M16.0748 20.0928L14.8894 19.2937C14.6798 20.0502 14.384 20.7741 14.0303 21.4658H15.6547C16.3831 21.4829 16.6852 20.4844 16.0748 20.0928Z" fill="white"/>
<path d="M9.71185 20.9181C9.4682 20.3661 9.27841 19.8655 9.11534 19.2937C9.11535 19.2937 7.92987 20.0928 7.92987 20.0928C7.3204 20.4822 7.6278 21.4825 8.35007 21.4658C8.35004 21.4658 9.97819 21.4658 9.97819 21.4658C9.88023 21.2832 9.8003 21.1007 9.71185 20.9181Z" fill="white"/>
<path d="M21.2476 9.8886L15.3652 8.93945V13.7977L21.2476 12.8523C22.9174 12.5942 22.9165 10.1524 21.2476 9.8886Z" fill="white"/>
<path d="M8.64289 8.93555L2.76051 9.88845C2.01771 10.0085 1.5 10.62 1.5 11.374C1.5 12.1243 2.02147 12.7358 2.76426 12.8521L8.64289 13.7975V8.93555Z" fill="white"/>
<path d="M9.00347 3.12073H11.6295V4.24994H10.5191C9.89633 4.24994 9.39362 4.75265 9.39362 5.37539V6.12194H14.6158V5.37539C14.6158 4.75265 14.1093 4.24994 13.4903 4.24994H12.3798V3.12073H15.0059C15.2122 3.12073 15.3811 2.95568 15.3811 2.74557C15.3811 2.53924 15.2122 2.37042 15.0059 2.37042H12.3798V1.99526C12.3707 1.50334 11.639 1.50177 11.6295 1.99528C11.6295 1.99526 11.6295 2.37042 11.6295 2.37042H9.00347C8.51194 2.37949 8.50919 3.11359 9.00347 3.12073Z" fill="white"/>
</svg>
