<svg width="13" height="13" viewBox="0 0 13 13" fill="none" xmlns="http://www.w3.org/2000/svg">
<g clip-path="url(#clip0_22335_104823)">
<g clip-path="url(#clip1_22335_104823)">
<path d="M10.5234 3.77606C10.152 3.77606 9.84245 3.65225 9.59483 3.34273C9.34721 3.09511 9.2234 2.72368 9.2234 2.35225C9.2234 1.98082 9.34721 1.60939 9.59483 1.36177C10.0901 0.866537 10.8948 0.804632 11.452 1.29987C11.452 1.29987 11.452 1.29987 11.5139 1.36177C11.7615 1.60939 11.8853 1.98082 11.8853 2.35225C11.8853 2.72368 11.7615 3.09511 11.5139 3.34273C11.2044 3.59035 10.8948 3.77606 10.5234 3.77606ZM11.6377 10.7713L10.6472 11.8237C10.5234 11.9475 10.3377 12.0713 10.152 12.0094C9.96626 12.0094 9.78054 11.9475 9.65673 11.8237L4.70435 6.68558C4.58054 6.56177 4.51864 6.37606 4.51864 6.19035C4.51864 6.00463 4.58054 5.81892 4.70435 5.69511L4.82816 5.5713L3.21864 3.96177L1.3615 2.90939C1.23769 2.78558 1.17578 2.59987 1.17578 2.35225C1.17578 2.16654 1.23769 1.91892 1.4234 1.79511L1.91864 1.23797C2.10435 1.05225 2.29007 0.990346 2.47578 0.990346C2.6615 0.990346 2.90911 1.05225 3.03292 1.23797L4.0234 3.15701L5.57102 4.76654L5.69483 4.64273C5.81864 4.51892 6.00435 4.45701 6.19007 4.45701C6.37578 4.45701 6.5615 4.51892 6.68531 4.64273L11.6377 9.78082C11.7615 9.90463 11.8234 10.0903 11.8234 10.2761C11.8853 10.4618 11.7615 10.6475 11.6377 10.7713Z" stroke="white" stroke-width="0.619048"/>
</g>
</g>
<defs>
<clipPath id="clip0_22335_104823">
<rect width="13" height="13" fill="white"/>
</clipPath>
<clipPath id="clip1_22335_104823">
<rect width="13" height="11.7619" fill="white" transform="translate(0 0.619049)"/>
</clipPath>
</defs>
</svg>
