<?xml version="1.0" encoding="utf-8"?>
<!-- Generator: Adobe Illustrator 27.5.0, SVG Export Plug-In . SVG Version: 6.00 Build 0)  -->
<svg version="1.1" id="Layer_1" xmlns="http://www.w3.org/2000/svg" xmlns:xlink="http://www.w3.org/1999/xlink" x="0px" y="0px"
	 viewBox="0 0 247 66" style="enable-background:new 0 0 247 66;" xml:space="preserve">
<style type="text/css">
	.st0{fill:#f15a24;}
	.st1{fill:#ffffff;}
	.st2{fill:#FFFFFF;fill-opacity:0.35;}
	
	@keyframes slideAnimation {
  0% {
    transform: translateX(0);
  }
  100% {
    transform: translateX(100%);
  }
}
#animatedPath {
    z-index: 10;
	  filter: blur(9.5px);
  animation: slideAnimation 2s infinite;
}
</style>
<path class="st0" d="M0,12C0,5.4,5.4,0,12,0h223c6.6,0,12,5.4,12,12v42c0,6.6-5.4,12-12,12H12C5.4,66,0,60.6,0,54V12z"/>
<path class="st0" d="M0,12C0,5.4,5.4,0,12,0h223c6.6,0,12,5.4,12,12v42c0,6.6-5.4,12-12,12H12C5.4,66,0,60.6,0,54V12z"/>
<g>
	<path class="st1" d="M86.8,32.5V13.8h7c5.9,0,9.9,4,9.9,9.3v0.1c0,5.3-4.1,9.4-9.9,9.4L86.8,32.5L86.8,32.5z M93.8,16.7h-3.7v12.7
		h3.7c3.9,0,6.5-2.6,6.5-6.3V23C100.3,19.4,97.7,16.7,93.8,16.7z M114,32.8c-4.3,0-7.5-3.3-7.5-7.3v-0.1c0-4,3.2-7.4,7.5-7.4
		c4.4,0,7.5,3.3,7.5,7.3v0.1C121.6,29.4,118.4,32.8,114,32.8z M114.1,29.9c2.6,0,4.3-2,4.3-4.5v-0.1c0-2.5-1.8-4.5-4.3-4.5
		c-2.6,0-4.2,2-4.2,4.5v0.1C109.8,27.9,111.6,29.9,114.1,29.9z M127.6,32.6L123,18.3h3.3l2.8,9.7l3.1-9.7h2.8l3.1,9.7l2.9-9.7h3.3
		l-4.6,14.2h-2.9l-3.2-9.6l-3.2,9.6L127.6,32.6L127.6,32.6z M147.2,32.5V18.3h3.3v2.2c0.9-1.3,2.2-2.5,4.4-2.5c3.2,0,5,2.1,5,5.4v9
		h-3.2v-8c0-2.2-1.1-3.4-3-3.4s-3.2,1.3-3.2,3.5v8H147.2z M164,32.5V13h3.3v19.5H164z M178.2,32.8c-4.3,0-7.5-3.3-7.5-7.3v-0.1
		c0-4,3.2-7.4,7.5-7.4c4.4,0,7.5,3.3,7.5,7.3v0.1C185.7,29.4,182.5,32.8,178.2,32.8z M178.2,29.9c2.6,0,4.3-2,4.3-4.5v-0.1
		c0-2.5-1.8-4.5-4.3-4.5c-2.6,0-4.2,2-4.2,4.5v0.1C173.9,27.9,175.7,29.9,178.2,29.9z M193.1,32.8c-2.6,0-5-1.5-5-4.4v-0.1
		c0-3.1,2.4-4.5,5.9-4.5c1.6,0,2.7,0.2,3.8,0.6V24c0-2-1.2-3.1-3.5-3.1c-1.6,0-2.8,0.3-4,0.9l-0.9-2.5c1.6-0.7,3.1-1.1,5.3-1.1
		c2.1,0,3.7,0.5,4.7,1.6c1,1,1.5,2.5,1.5,4.4v8.4h-3.2v-1.8C196.7,31.8,195.2,32.8,193.1,32.8z M194,30.4c2.1,0,3.8-1.2,3.8-3v-1
		c-0.8-0.3-1.9-0.6-3.2-0.6c-2.1,0-3.3,0.9-3.3,2.4v0.1C191.2,29.6,192.4,30.4,194,30.4z M210.5,32.8c-3.3,0-6.5-2.6-6.5-7.3v-0.1
		c0-4.7,3.2-7.3,6.5-7.3c2.3,0,3.8,1.1,4.8,2.5V13h3.2v19.5h-3.2v-2.4C214.3,31.6,212.8,32.8,210.5,32.8z M211.3,29.9
		c2.2,0,4.1-1.8,4.1-4.5v-0.1c0-2.7-1.9-4.5-4.1-4.5c-2.2,0-4.1,1.7-4.1,4.5v0.1C207.2,28.2,209.1,29.9,211.3,29.9z M109.8,53.5
		l6.1-13.1h0.9l6.1,13.1h-1.1l-1.7-3.7h-7.7l-1.7,3.7H109.8z M112.8,48.9h6.9l-3.4-7.5L112.8,48.9z M125.4,56.4V44h0.9v2.1
		c0.8-1.2,2-2.3,3.9-2.3c2.3,0,4.6,1.8,4.6,4.9l0,0c0,3.1-2.3,5-4.6,5c-1.9,0-3.1-1.1-3.9-2.3v5H125.4z M130.1,52.8
		c2.1,0,3.7-1.5,3.7-4.1l0,0c0-2.5-1.7-4.1-3.7-4.1s-3.9,1.7-3.9,4.1l0,0C126.3,51.2,128.1,52.8,130.1,52.8z M137.7,56.4V44h0.9v2.1
		c0.8-1.2,2-2.3,3.9-2.3c2.3,0,4.6,1.8,4.6,4.9l0,0c0,3.1-2.3,5-4.6,5c-1.9,0-3.1-1.1-3.9-2.3v5H137.7z M142.4,52.8
		c2.1,0,3.7-1.5,3.7-4.1l0,0c0-2.5-1.7-4.1-3.7-4.1s-3.9,1.7-3.9,4.1l0,0C138.6,51.2,140.4,52.8,142.4,52.8z M155.8,53.5v-13h0.9
		l9,11.3V40.4h0.9v13h-0.7l-9.2-11.6v11.6L155.8,53.5L155.8,53.5z M174.5,53.7c-2.8,0-4.9-2.3-4.9-4.9l0,0c0-2.7,2.1-5,4.9-5
		c2.8,0,4.9,2.3,4.9,4.9l0,0C179.4,51.4,177.3,53.7,174.5,53.7z M174.5,52.8c2.3,0,3.9-1.8,3.9-4.1l0,0c0-2.3-1.7-4.1-3.9-4.1
		c-2.3,0-3.9,1.8-3.9,4.1l0,0C170.6,51,172.3,52.8,174.5,52.8z M184.4,53.5l-3.5-9.6h1l2.9,8.3l2.9-8.4h0.7l2.9,8.4l2.9-8.3h1
		l-3.5,9.6h-0.8l-2.8-8.1l-2.8,8.1C185.3,53.5,184.4,53.5,184.4,53.5z"/>
	<path class="st1" d="M59.1,46.3H32.2c-0.8,0-1.5,0.7-1.5,1.5v2c0,0.8,0.7,1.5,1.5,1.5h26.9c0.8,0,1.5-0.7,1.5-1.5v-2
		C60.6,46.9,59.9,46.3,59.1,46.3z"/>
	<path class="st1" d="M44.6,43.6c0.3,0.3,0.7,0.4,1,0.4c0.4,0,0.8-0.1,1-0.4l10.2-10.2c0.6-0.6,0.6-1.5,0-2.1l-1.4-1.4
		c-0.6-0.6-1.5-0.6-2.1,0l-5.2,5.2V15.5c0-0.8-0.7-1.5-1.5-1.5h-2c-0.8,0-1.5,0.7-1.5,1.5v19.7L37.9,30c-0.6-0.6-1.5-0.6-2.1,0
		l-1.4,1.4c-0.6,0.6-0.6,1.5,0,2.1L44.6,43.6z"/>
</g>
<path id="animatedPath" class="st2" d="M58.6,0L17.8,66H-8.6L28.3,0H58.6z"/>
</svg>
