<svg width="151" height="150" viewBox="0 0 151 150" fill="none" xmlns="http://www.w3.org/2000/svg">
<g clip-path="url(#clip0_21211_51229)">
<path d="M68.2888 70.0212C66.7155 71.4551 65.6301 73.2873 63.9572 74.6117C59.8149 77.8976 55.3042 80.148 49.8474 79.9389C49.2599 79.919 48.6824 79.8991 48.1347 79.6999C47.836 79.5904 47.3979 79.5605 47.378 79.1722C47.3481 78.7142 47.8061 78.5648 48.1547 78.4951C49.6383 78.1864 50.9826 77.5591 52.287 76.8222C53.8304 75.9559 55.334 75.0398 56.8177 73.4665C55.6527 73.6557 54.9556 74.0939 54.2287 74.4424C49.2301 76.8322 43.9028 77.7981 38.4162 77.6587C35.3891 77.579 32.4417 76.7525 29.5341 75.8962C29.335 75.8364 29.1358 75.7667 28.9665 75.6572C28.5881 75.4282 27.9509 75.2688 28.0903 74.7511C28.2496 74.1636 28.857 74.522 29.2852 74.5121C33.4773 74.4424 37.4503 73.4566 41.3636 71.7638C40.8956 71.256 40.4575 71.4452 40.0791 71.4551C31.5555 71.8136 24.0376 68.9657 17.0872 64.2857C17.0573 64.2658 17.0175 64.2459 16.9876 64.216C16.7188 63.9372 16.1014 63.7779 16.3404 63.3099C16.5296 62.9414 17.0275 63.2203 17.366 63.3298C17.9137 63.509 18.4514 63.7281 18.9991 63.9372C21.5482 64.8832 24.1869 65.3611 26.9153 65.3611C27.443 65.3611 27.9907 65.3611 28.6778 64.913C27.9608 64.7537 27.4132 64.6342 26.8655 64.5147C20.4927 63.1804 15.2052 60.0936 11.2222 54.8759C10.804 54.3282 10.0472 53.5017 10.4754 53.0935C10.9733 52.6055 11.4911 53.6212 11.989 53.9697C13.6021 55.0651 15.1953 56.1902 16.908 57.1263C19.7957 58.6896 22.8626 59.5957 26.1685 59.6754C30.5 59.7849 34.7917 59.6256 39.0137 58.5601C39.7107 58.3809 40.4077 58.3709 41.1147 58.3909C42.2996 58.4207 43.0863 59.0481 43.395 60.1633C43.7136 61.3184 42.8971 61.9258 42.0706 62.4336C41.1944 62.9713 40.1886 63.0311 39.1829 63.0311C38.8245 63.0311 38.3365 62.8319 38.1573 63.2302C37.9482 63.6783 38.4361 63.9671 38.695 64.2558C39.7704 65.4308 41.1744 66.0581 42.7079 66.3569C47.4178 67.2829 51.5601 65.9685 55.2544 63.041C56.3895 62.1448 57.4649 61.1591 58.6101 60.2728C59.4863 59.5957 60.5119 59.2771 61.6471 59.3966C63.4195 59.5758 64.2261 61.0495 63.3797 62.6228C62.6229 64.0268 61.2986 64.7039 59.8647 65.2217C59.5361 65.3412 58.9785 65.3213 59.0283 65.7893C59.0781 66.2573 59.6158 66.3071 60.024 66.3569C61.8064 66.5859 63.4992 66.2473 65.1223 65.5503C67.8208 64.3853 70.1409 62.6527 72.1921 60.5616C72.3016 60.4421 72.4211 60.3226 72.2718 60.004C70.8478 60.2927 69.7425 61.2785 68.4779 61.9158C67.8506 62.2345 67.2631 62.6328 66.6756 63.0211C65.9687 63.4792 65.6102 63.3198 65.5504 62.4635C65.2617 58.0025 61.7965 56.1903 57.923 58.5004C56.8476 59.1377 55.9713 60.0339 55.0253 60.8504C52.4862 63.0311 49.7279 64.7039 46.2528 64.8035C45.725 64.8135 45.0678 65.0126 44.7791 64.455C44.5003 63.9272 45.0778 63.5688 45.3865 63.2103C46.3723 62.0254 46.6809 60.7309 46.0636 59.2771C45.2969 57.4549 44.0024 56.2799 41.991 56.0409C40.1488 55.8218 38.3664 56.2102 36.584 56.6284C31.2568 57.893 25.9793 58.0224 20.8512 55.772C17.2864 54.2087 14.8468 51.4206 12.9847 48.0848C12.8154 47.7762 12.5167 47.3679 12.8453 47.0592C13.2237 46.7007 13.5125 47.1787 13.7913 47.3779C17.0374 49.7278 20.7117 50.7037 24.6649 50.6937C25.2325 50.6937 25.82 50.7037 26.3377 50.3054C26.1585 49.7876 25.6805 49.8473 25.3121 49.7477C22.066 48.7918 19.2082 47.1787 16.8383 44.7391C16.4997 44.3906 16.0018 44.0421 16.1014 43.5143C16.2209 42.897 16.8881 43.0463 17.3361 42.9069C20.2935 41.9908 23.0418 40.6565 25.571 38.8741C28.0106 37.1614 30.4004 35.3591 32.8101 33.5967C33.0093 33.4573 33.2283 33.3378 33.298 32.9793C32.3919 32.81 31.5654 33.1087 30.7589 33.2979C20.0645 35.7973 12.3574 42.2597 6.75131 51.4903C6.22356 52.3566 5.7456 53.2229 4.60049 53.3723C4.10261 53.442 3.59478 53.6312 3.20643 53.1731C2.84796 52.7549 3.07699 52.2969 3.23631 51.8786C4.11257 49.4988 5.08841 47.1787 6.25344 44.9183C10.0572 37.5398 15.5239 31.6649 22.6535 27.4827C26.736 25.0929 31.2169 23.4798 35.897 22.5737C36.0961 22.5339 36.3052 22.4741 36.5044 22.4343C37.062 22.3347 37.769 21.807 38.1374 22.2451C38.5656 22.7629 37.6993 23.0616 37.4304 23.4699C37.0222 24.0872 37.3707 24.3063 37.8885 24.4059C39.2427 24.6648 40.6367 24.8042 41.971 24.4656C44.3708 23.8482 46.5714 22.6334 48.9712 21.9265C47.597 21.6775 46.2528 21.4485 44.9384 22.1057C43.7136 22.7231 42.4888 23.3305 41.0948 23.4599C40.6965 23.4997 40.2285 23.6989 39.9995 23.1911C39.8103 22.7728 40.1488 22.504 40.3878 22.2252C40.4973 22.1057 40.6268 21.9862 40.7264 21.8567C40.9355 21.5779 41.3835 21.319 41.1047 20.9108C40.8757 20.5722 40.4874 20.8212 40.1787 20.9008C38.3166 21.3489 36.5542 21.0203 34.8415 20.2835C34.5129 20.1441 34.0648 19.9648 34.1245 19.5267C34.1942 19.0487 34.6921 19.1284 35.0506 19.1085C36.4347 19.0388 37.5599 18.282 38.7349 17.6746C40.3978 16.8083 42.0905 16.0416 43.9227 15.6134C44.9483 15.3744 45.1276 14.996 44.5102 14.0899C43.156 12.1382 42.8871 9.95752 43.4149 7.66729C43.5045 7.29886 43.3651 6.74124 43.9227 6.64167C44.3409 6.57196 44.57 6.97026 44.8089 7.23912C45.6454 8.16517 46.5017 9.05138 47.4178 9.90773C49.8873 12.2278 52.8446 13.5124 56.1804 13.5223C60.1634 13.5323 63.788 14.5579 67.2233 16.4697C68.0398 16.9178 68.8962 17.2564 69.872 17.1568C66.8549 15.225 63.9871 13.0045 60.2232 12.7058C58.162 12.5365 56.0808 12.417 54.0595 11.949C51.7792 11.4312 49.9271 10.2562 48.8517 8.08551C48.6725 7.71708 48.4036 7.28891 48.8119 6.95035C49.2102 6.63171 49.479 7.05988 49.7678 7.26899C50.5146 7.81665 51.3311 8.21495 52.2074 8.49376C53.0338 8.76262 53.3425 8.46389 53.0239 7.63742C52.5858 6.50226 52.3567 5.32728 52.4663 4.11246C52.4961 3.83365 52.4464 3.48514 52.8247 3.41543C53.0936 3.36565 53.2728 3.59467 53.4222 3.79382C53.4521 3.82369 53.4819 3.85356 53.4919 3.89339C55.4635 8.09546 59.4764 9.24058 63.4096 10.4853C64.2161 10.7342 65.0326 10.8935 64.8932 9.51939C64.8136 8.73274 65.3413 9.03147 65.7098 9.23062C67.293 10.077 68.6771 11.2022 69.9317 12.4867C72.5506 15.1653 75.6274 17.0174 79.3814 17.5949C80.1183 17.7144 80.2876 18.1426 80.0685 18.74C79.6702 19.8254 79.2221 20.9008 78.784 21.9762C78.5151 22.6235 78.1865 23.2608 77.9675 23.9279C77.2704 26.0588 78.4753 27.8512 80.9547 28.1897C80.5166 27.8113 80.188 27.5425 79.8793 27.2537C78.774 26.1883 78.5649 25.1029 79.3516 23.7885C80.5664 21.7671 81.3431 19.6163 81.6219 17.2663C81.7712 16.0316 82.1496 14.8367 82.8267 13.7613C84.1112 11.71 86.1924 10.794 88.3731 11.7598C90.723 12.8054 93.3518 13.0643 95.5724 14.4185C96.2196 14.8068 96.4884 14.3488 96.5283 13.7613C96.598 12.656 96.12 11.7499 95.423 10.9433C94.3774 9.74841 93.0033 9.08126 91.5495 8.55351C89.0303 7.63742 86.4015 7.32874 83.7329 7.23912C80.885 7.13954 77.9973 7.51793 75.1993 6.67154C72.7099 5.92473 70.8478 4.49084 69.9019 2.01142C69.7824 1.69278 69.4737 1.23474 69.9019 1.01567C70.2902 0.816522 70.3898 1.33431 70.569 1.58325C72.6302 4.3614 75.5478 5.34719 78.8437 5.36711C82.538 5.38702 86.2222 5.38702 89.8667 6.14379C92.7145 6.73128 95.3632 7.70712 97.4444 9.8679C99.6151 12.1283 99.9138 14.3189 98.241 16.9477C97.7132 17.7642 97.6634 18.2023 98.5596 18.8197C100.561 20.2038 100.92 22.9521 99.5354 25.0531C99.157 25.6306 98.8782 25.4016 98.6094 24.9934C98.3107 24.5552 98.1713 23.9976 97.7132 23.6591C97.4145 23.44 97.0959 23.1612 96.7075 23.3504C96.349 23.5197 96.4088 23.918 96.4088 24.2366C96.4088 25.7701 96.4287 27.3035 96.13 28.827C95.652 31.2467 94.8156 33.4572 92.6648 34.931C92.3362 35.15 92.0374 35.6579 91.6093 35.379C91.1114 35.0604 91.4898 34.5526 91.5595 34.1244C91.6989 33.2282 91.898 32.3321 92.0076 31.4259C92.0972 30.6891 92.0972 29.9323 91.8582 29.2054C91.7287 28.8071 91.6491 28.3391 91.1512 28.2893C90.6434 28.2395 90.4641 28.6976 90.3048 29.0759C89.9065 30.0319 89.5779 31.0177 89.1597 31.9636C88.9606 32.4018 88.7614 33.049 88.2436 33.039C87.686 33.0291 87.6462 32.332 87.447 31.8939C87.2877 31.5554 87.208 31.177 87.0188 30.8683C86.8296 30.5596 86.5608 30.2211 86.1326 30.2808C85.6945 30.3306 85.575 30.7189 85.4555 31.0874C85.1667 31.9935 84.8879 32.9096 84.5693 33.8058C84.3801 34.3236 84.0714 34.8911 83.474 34.8413C82.9064 34.8015 83.0159 34.1443 82.8964 33.7361C82.5579 32.5212 81.353 32.2126 80.1282 33.049C78.784 33.9651 78.1367 35.7475 78.5848 37.3407C79.0429 38.9936 80.5365 40.318 82.0899 40.4773C83.464 40.6167 84.7087 40.2184 85.9235 39.6409C87.1981 39.0335 88.4627 38.4161 89.7472 37.8286C92.3361 36.6437 94.9948 36.3549 97.7431 37.261C99.8143 37.9381 101.905 38.3862 104.086 37.7489C104.833 37.5299 104.853 38.0178 104.644 38.5356C104.454 39.0036 104.116 39.372 103.658 39.621C103.409 39.7604 103.08 39.8998 103.27 40.2682C103.429 40.5769 103.777 40.5171 104.056 40.4574C105.032 40.2682 105.829 39.8002 106.366 38.9239C106.526 38.6551 106.665 38.2169 107.063 38.3165C107.521 38.436 107.412 38.9239 107.422 39.2724C107.511 41.6025 105.58 43.2156 103.021 42.9965C101.617 42.8671 100.213 42.6381 98.8683 42.2099C95.0944 40.9951 91.6192 41.7618 88.2137 43.5542C86.3915 44.52 84.5992 45.5855 82.5479 46.0734C78.535 47.0194 75.03 45.7548 71.6644 43.7234C70.2803 42.887 68.8962 42.0605 67.1835 42.0506C65.5704 42.0506 64.4053 42.6381 63.6983 44.1417C63.081 45.4561 62.8719 45.4361 61.9159 44.4006C59.4266 41.712 58.9287 38.7746 60.721 35.5085C60.7708 35.4089 60.7708 35.2795 60.8107 35.0604C60.024 35.15 59.6357 35.6579 59.2772 36.2155C57.4649 39.0335 58.3014 43.0165 61.1094 45.3864C63.9672 47.7961 67.3528 49.1005 70.8578 50.1958C74.3429 51.2812 77.7982 52.4263 81.1638 53.8701C83.1055 54.7066 84.7983 55.8716 86.3816 57.2059C88.0843 58.6498 89.7372 58.9087 91.6889 57.6839C94.1783 56.1205 96.7573 54.6867 99.3064 53.203C99.8939 52.8644 100.073 52.3865 100.003 51.7492C99.8342 50.2157 99.5354 48.7221 98.8683 47.3081C98.699 46.9397 98.5895 46.412 98.0816 46.4717C97.5041 46.5414 97.6634 47.099 97.6336 47.4874C97.5041 48.9312 97.3547 50.3651 96.9963 51.789C96.7772 52.6454 96.349 53.2926 95.6122 53.7606C94.3177 54.5771 93.0232 55.4136 91.7287 56.24C91.3006 56.5089 90.8525 56.7977 90.3447 56.4989C89.797 56.1703 89.8468 55.5828 89.8966 55.0451C90.1156 52.9341 90.1853 50.8232 89.8368 48.7221C89.8069 48.513 89.797 48.3039 89.7273 48.1147C89.5978 47.7762 89.548 47.3082 89.1099 47.2683C88.632 47.2285 88.5523 47.6965 88.4428 48.045C87.8652 49.917 86.9591 51.6496 85.9733 53.3324C85.2165 54.617 84.8581 54.6767 83.6333 53.8403C80.188 51.4903 76.2647 50.2854 72.3215 49.1105C70.8478 48.6723 69.3741 48.2541 67.9402 47.7363C67.293 47.4973 66.6856 47.0791 66.1379 46.651C65.5106 46.1531 64.9231 45.5058 65.3612 44.6296C65.8193 43.6936 66.6756 43.3849 67.6714 43.594C68.7269 43.8131 69.7525 44.1516 70.7184 44.6594C73.3472 46.0435 76.1353 46.9298 79.0827 47.338C80.427 47.5272 81.7314 47.4874 83.0259 47.1488C83.9619 46.9098 84.8282 46.9098 85.5949 47.5969C86.2322 48.1745 86.6305 47.8259 86.9392 47.2185C87.2279 46.6709 87.4371 46.0734 87.7955 45.5656C88.4726 44.5997 89.3788 44.5698 90.2052 45.3963C91.3404 46.5414 91.4898 48.055 91.659 49.5386C91.7487 50.3551 92.0773 50.9426 92.8042 51.331C94.3575 52.1575 95.2537 51.7392 95.5027 49.9867C95.662 48.8814 95.6918 47.7562 95.8213 46.651C95.9308 45.6353 96.1897 44.5897 97.2751 44.2412C98.4102 43.8828 99.1471 44.6993 99.7445 45.5158C100.929 47.1389 101.467 49.0009 101.597 50.9825C101.646 51.7492 101.806 52.1575 102.672 52.3168C104.693 52.6852 104.982 53.3324 104.116 55.2443C103.917 55.6824 103.887 56.1205 103.867 56.5786C103.698 60.472 101.826 63.2402 98.2808 64.8433C97.8227 65.0524 97.295 65.5802 96.8071 65.1022C96.2893 64.5944 96.8071 64.0169 96.9764 63.4891C97.305 62.4934 98.0319 61.647 98.2609 60.4421C97.5041 60.691 97.1058 61.1491 96.7473 61.647C95.4827 63.3995 94.4073 65.2616 93.2821 67.1037C91.2508 70.4494 88.5623 72.7994 84.3104 72.4509C82.07 72.2716 80.1382 71.4153 78.5948 69.7623C78.316 69.4636 77.9575 69.145 78.1566 68.677C78.3458 68.2488 78.7939 68.3882 79.1524 68.3583C81.1738 68.209 82.7272 67.3128 83.5536 65.4209C84.1013 64.1762 83.8026 62.9813 82.8865 62.105C81.9007 61.169 80.5365 60.94 79.3117 61.5175C78.2463 62.0254 77.3899 62.802 76.663 63.7281C75.4582 65.2715 74.5321 66.9942 73.4965 68.6371C71.973 71.0369 70.1608 73.1877 67.7311 74.7311C67.3826 74.9502 66.9943 75.5178 66.5661 75.0498C66.2076 74.6614 66.6259 74.2034 66.825 73.8051C67.4324 72.6002 68.1792 71.4452 68.2888 70.0113V70.0212ZM81.2734 30.3804C80.3871 30.46 79.5109 30.5795 78.6247 30.6194C75.0499 30.7687 71.505 30.3505 67.99 29.763C61.7068 28.6976 55.9016 29.6933 50.5245 33.2481C47.1987 35.4388 43.9725 37.7689 40.8558 40.2383C37.6196 42.7974 33.9951 44.1815 29.9424 44.5997C29.7432 44.6196 29.5241 44.6196 29.5142 44.998C30.7888 45.5855 32.133 45.5855 33.4673 45.2868C37.8088 44.3109 41.4732 41.9709 45.028 39.4218C47.5473 37.6095 49.9072 35.5882 52.5161 33.8755C57.8334 30.3903 63.5589 29.9622 69.5832 31.0973C71.7838 31.5155 73.9944 31.9238 76.2448 31.7545C77.9874 31.6251 79.7399 31.4956 81.2734 30.3903V30.3804ZM53.5516 20.0644C54.5275 21.09 55.9315 21.5082 56.6285 22.7728C57.674 24.6548 59.3867 25.6705 61.5176 25.7103C63.6486 25.7501 65.7396 25.4813 67.2034 23.5694C67.5619 23.1014 67.5818 22.8724 66.9943 22.6932C63.6585 21.7074 60.5119 20.1341 57.0766 19.457C56.7181 19.3873 56.2003 19.0189 56.1008 19.7258C55.9813 20.5722 55.5531 20.4627 54.9556 20.2635C54.5474 20.1241 54.1292 19.8852 53.5516 20.0644ZM76.5834 35.0604C76.6929 34.2041 76.4539 33.8755 75.7967 33.8755C74.6417 33.8755 73.4866 33.8755 72.3215 33.8755C71.8336 33.8755 71.505 34.0149 71.6644 34.6123C72.2917 37.0519 72.909 39.4915 73.5463 41.9311C73.6061 42.1701 73.7056 42.419 73.9845 42.4788C74.3131 42.5385 74.3927 42.2597 74.4923 42.0406C75.5776 39.7404 76.0457 37.2511 76.5834 35.0405V35.0604ZM84.0316 25.8099C84.7983 25.8099 85.3161 25.5609 85.585 24.9834C85.9235 24.2665 85.1767 24.4656 84.9078 24.2665C84.5892 24.0275 84.5095 23.7188 84.7087 23.4002C85.7144 21.8667 85.8737 20.0544 86.4811 18.3816C86.75 17.6447 87.0487 16.8979 87.8851 16.5892C88.8809 16.2308 92.2565 17.2265 92.9037 18.0828C93.1228 18.3816 93.2722 18.8197 93.7402 18.5907C94.1783 18.3716 94.1285 17.9036 94.0787 17.4854C94.009 16.8879 93.541 16.6689 93.0631 16.5195C91.8781 16.1511 90.6932 15.7627 89.4784 15.5039C86.9691 14.9462 85.7343 15.7528 85.2265 18.292C84.9078 19.8951 84.41 21.4087 83.5735 22.8127C83.2549 23.3404 82.9562 23.898 82.9562 24.5453C82.9562 25.3618 83.3545 25.7701 84.0316 25.79V25.8099ZM53.4421 37.3506C52.7949 37.51 52.6754 37.9182 52.5658 38.3066C52.1675 39.6707 51.9584 41.0548 52.2273 42.4788C52.8944 46.0137 55.5929 47.7363 58.381 49.3694C58.6499 49.5287 59.0283 49.8274 59.2672 49.4789C59.5759 49.0308 59.0581 48.8516 58.7992 48.6325C57.1363 47.2086 55.812 45.5556 54.8561 43.5641C53.9201 41.6224 53.5417 39.5712 53.4421 37.3506Z" fill="white"/>
<path d="M95.6618 120.516C93.9591 122.298 92.6546 124.051 91.4398 125.873C90.8224 126.799 90.225 127.755 89.6375 128.711C89.4583 129 89.0201 129.318 89.3786 129.677C89.7072 130.015 90.0856 129.677 90.3943 129.507C91.151 129.079 91.8779 128.601 92.6347 128.163C92.8737 128.024 93.1525 127.785 93.4313 127.984C93.73 128.203 93.5309 128.532 93.4214 128.781C92.0273 131.997 91.0813 135.343 90.683 138.828C90.5735 139.764 90.0258 139.714 89.3487 139.555C87.4469 139.097 85.525 138.808 83.5634 138.887C83.2149 138.897 82.8166 138.738 82.3984 139.216C86.0727 141.158 89.1994 143.607 90.5237 147.769C88.6816 146.306 86.6204 145.539 84.3799 145.181C81.1238 144.653 77.8378 144.782 74.5718 144.971C71.1265 145.181 67.7111 145.559 64.3653 144.374C64.2259 144.324 64.0566 144.374 63.728 144.374C64.8532 147.023 67.0738 148.397 69.135 150.01C64.4749 149.701 60.5516 147.64 56.7279 145.23C52.8445 142.781 49.8274 139.594 48.0151 135.323C47.796 135.482 47.7064 135.512 47.6666 135.572C47.4077 135.97 47.8657 136.786 47.2185 136.826C46.6409 136.866 46.5115 136.089 46.3422 135.601C45.3863 132.953 45.7746 130.463 47.2583 128.113C47.4575 127.805 47.7164 127.327 48.0947 127.526C49.1502 128.103 49.3693 127.247 49.7776 126.679C50.2555 126.002 50.7434 125.325 51.4504 124.857C51.7193 124.678 51.9682 124.31 52.3068 124.489C52.7051 124.698 52.4163 125.086 52.3765 125.385C52.0778 128.093 52.5358 130.593 54.358 132.724C54.5771 132.973 54.7762 133.251 55.0451 133.431C55.4733 133.709 55.8019 134.397 56.3894 134.128C56.9071 133.889 56.6881 133.232 56.708 132.754C56.7279 131.917 56.9271 131.111 57.1461 130.314C57.3851 129.468 57.7436 129.408 58.3012 130.085C58.7991 130.692 59.3368 131.27 59.8645 131.857C63.3297 135.661 69.3939 134.765 72.4807 132.037C77.5391 127.566 77.6188 120.665 74.7112 115.318C70.778 108.059 64.4649 105.311 56.5288 105.56C56.2002 105.57 55.8118 105.52 55.6525 105.888C55.4633 106.336 55.6724 106.774 56.0209 106.984C57.5345 107.88 57.0665 108.955 56.4491 110.15C55.5131 111.952 54.6767 113.804 54.1887 115.796C54.0991 116.174 54.0693 116.632 53.5216 116.911C52.2072 114.183 50.7235 111.524 50.3451 108.487C50.1261 106.715 49.5485 105.53 47.6964 105.171C47.1388 105.062 46.7604 104.504 46.0435 104.444C46.153 105.221 46.6111 105.769 47.0393 106.277C47.6367 106.984 47.6367 107.661 47.2185 108.447C46.4318 109.911 45.8045 111.444 45.4759 113.087C45.3963 113.466 45.3863 114.014 44.8386 114.014C44.3906 114.014 44.3209 113.526 44.1914 113.197C43.1857 110.499 42.5982 107.7 42.5584 104.813C42.5484 104.026 42.4688 103.309 41.702 102.891C39.6707 101.786 39.2126 98.7885 40.6067 96.4883C41.4232 95.1341 42.7376 94.1682 43.2056 92.4854C43.4944 91.4697 44.8486 91.0415 45.934 90.7229C47.1986 90.3545 48.3039 89.8068 49.1801 88.7812C49.8871 87.9647 50.8829 87.6261 51.9583 87.5664C53.0038 87.5166 54.0493 87.417 53.6112 89.07C53.4618 89.6276 53.8701 90.1354 54.4476 90.2947C56.4989 90.8822 58.3809 90.4043 60.1931 89.2293C59.4762 89.1098 58.7592 89.0202 58.0423 88.8808C56.6682 88.6219 56.3794 88.0443 57.0466 86.7797C58.1817 84.6289 59.9044 83.0357 61.9357 81.7512C66.1477 79.0925 70.529 78.754 75.0995 80.7455C75.6472 80.9845 76.2148 81.2533 77.1309 81.2433C75.916 79.6302 74.522 78.7141 72.869 78.1665C72.3214 77.9872 71.7339 77.9574 71.1564 77.8379C70.9074 77.7881 70.6585 77.6885 70.6386 77.3898C70.6186 77.0811 70.8775 76.9815 71.1165 76.9118C75.9459 75.3585 80.616 76.1949 83.5734 80.7953C83.7526 81.0741 83.8323 81.6516 84.2903 81.4823C84.7085 81.333 84.5293 80.8351 84.4696 80.4766C84.1708 78.7241 83.3643 77.2902 81.9304 76.2048C81.5918 75.946 80.9944 75.707 81.2134 75.1892C81.4225 74.7013 82.02 74.8905 82.4581 74.9303C86.3316 75.2888 89.7072 76.6131 92.0572 79.929C92.794 80.9745 93.0031 81.8906 92.336 83.1253C91.1112 85.3757 90.8324 87.9348 90.4042 90.4242C89.8864 93.4214 89.06 96.319 88.0443 99.1768C87.1182 101.796 85.0073 103.488 83.2746 105.47C81.4026 107.601 80.0683 109.991 79.3613 112.739C79.2717 113.097 79.1024 113.446 79.3315 113.914C80.0086 113.665 80.2276 112.998 80.5762 112.5C81.313 111.435 82.0997 110.409 83.185 109.692C88.124 106.476 90.9121 101.865 92.1269 96.1597C92.6845 93.5309 93.1226 90.8623 94.1582 88.3431C94.9249 86.481 95.8908 84.7583 97.3944 83.3842C97.9321 82.8863 98.1313 82.4283 97.6035 81.791C95.7514 79.6103 94.0288 77.3201 91.6987 75.5875C91.3701 75.3485 90.932 75.1294 91.0316 74.6316C91.1212 74.1934 91.5792 74.1735 91.9178 74.0441C96.5381 72.2816 101.039 72.879 105.47 74.7212C108.846 76.1252 111.713 78.3059 114.442 80.6857C114.671 80.8849 115.079 81.1039 114.88 81.4823C114.681 81.8707 114.243 81.7611 113.864 81.7313C112.072 81.6018 110.339 81.8308 108.636 82.6673C109.015 82.737 109.393 82.8266 109.772 82.8764C113.745 83.4141 117.299 85.1268 120.844 86.8594C123.981 88.3829 127.128 89.8466 130.503 90.8026C135.781 92.2962 140.59 91.181 145.151 88.4227C145.917 87.9547 146.674 87.4668 147.501 86.949C147.779 87.5664 147.381 87.885 147.162 88.2335C145.101 91.5095 142.253 94.0288 139.425 96.6078C135.94 99.7842 131.559 101.129 127.426 102.991C125.733 103.747 123.931 104.275 122.179 104.922C121.502 105.171 120.914 105.56 120.536 106.187C119.998 107.063 120.297 107.621 121.322 107.681C122.597 107.76 123.622 107.073 124.718 106.595C125.027 106.466 125.405 106.048 125.694 106.486C125.903 106.804 125.475 107.063 125.265 107.302C123.304 109.563 120.894 111.255 118.235 112.55C114.88 114.193 111.365 115.457 107.84 116.702C107.581 116.792 107.272 117.011 107.043 116.712C106.824 116.433 107.033 116.154 107.183 115.915C108.945 113.048 110.19 109.911 111.813 106.974C113.506 103.907 116.035 101.746 119.401 100.501C122.428 99.3859 125.455 98.201 127.984 96.08C128.253 95.851 128.741 95.7017 128.611 95.2536C128.492 94.8354 128.014 94.8951 127.655 94.8055C125.495 94.2678 123.613 93.1027 121.661 92.097C118.425 90.4142 115.348 88.4526 111.922 87.1083C106.575 85.0173 101.616 87.6261 98.5196 91.5195C98.2707 91.8282 98.0914 92.2265 98.4698 92.5053C99.2465 93.0729 98.8681 93.6504 98.5694 94.2379C97.9122 95.5025 97.255 96.7771 96.7173 98.1313C97.9819 97.6235 98.669 96.5381 99.4058 95.5423C100.561 93.969 101.696 92.3858 103.12 91.0415C105.918 88.3729 109.383 87.8253 112.888 89.4583C114.85 90.3744 116.602 91.639 118.395 92.8439C119.878 93.8396 121.422 94.7258 123.164 95.2137C123.523 95.3133 123.941 95.4428 123.991 95.8709C124.051 96.3489 123.573 96.4485 123.254 96.5879C122.189 97.0559 121.153 97.6434 120.038 97.8923C114.77 99.1071 111.434 102.533 109.284 107.242C107.322 111.534 104.673 115.298 101.248 118.504C99.5154 120.127 97.8524 121.78 96.3389 123.603C96.1597 123.822 95.9506 124.11 95.6319 124.001C95.2137 123.852 95.3332 123.463 95.383 123.145C95.5025 122.348 95.9406 121.591 95.6419 120.466L95.6618 120.516ZM104.355 100.969C104.454 101.019 104.544 101.059 104.643 101.109C103.777 105.609 102.025 109.762 99.137 113.685C99.605 113.605 99.7045 113.625 99.7543 113.585C100.033 113.346 100.312 113.087 100.581 112.839C103.996 109.702 106.456 105.868 108.497 101.766C109.662 99.4357 111.156 97.4741 113.516 96.2692C113.765 96.1398 114.123 96.0203 114.013 95.6618C113.914 95.3332 113.545 95.383 113.267 95.3531C108.597 94.8851 102.851 98.0616 100.77 102.264C100.651 102.513 100.382 102.781 100.68 103.04C100.949 103.269 101.248 103.07 101.477 102.921C102.443 102.284 103.389 101.626 104.345 100.969H104.355ZM81.084 122.199C81.7014 121.302 82.2889 120.386 82.956 119.52C84.6687 117.29 87.0187 115.945 89.4981 114.721C92.1269 113.426 94.3673 111.594 96.0501 109.154C96.2592 108.856 96.7472 108.328 96.2095 108.109C94.5565 107.442 95.5821 106.496 95.9207 105.719C96.3489 104.763 96.9264 103.877 97.0658 102.722C96.4285 103.13 95.9506 103.688 95.4826 104.245C93.1824 106.984 90.5934 109.393 87.656 111.464C86.2121 112.48 84.8977 113.705 83.8422 115.169C82.3187 117.26 81.3827 119.58 81.084 122.199ZM74.7211 108.218C76.0057 103.867 80.1181 101.845 82.7768 98.3304C82.3685 98.4499 82.2191 98.4997 82.0698 98.5396C81.6416 98.679 81.2732 99.3959 80.7952 98.9179C80.3969 98.5196 80.8251 97.9819 81.0342 97.5438C82.1694 95.1938 83.3543 92.8737 84.4596 90.5038C84.9176 89.518 85.774 88.7214 86.0229 87.2378C84.8181 88.1937 83.902 89.0202 83.2149 90.0259C80.606 93.8595 78.0669 97.7429 75.4779 101.587C74.0839 103.648 74.4125 105.898 74.7211 108.208V108.218ZM91.4597 119.082C88.8309 120.426 86.8195 122.477 85.1367 124.847C84.3899 125.893 83.7825 127.038 83.0655 128.103C82.8266 128.462 82.5378 128.98 82.03 128.89C81.3429 128.771 82.0499 128.074 81.6317 127.705C80.7554 129.129 80.0584 130.633 79.0327 131.927C77.6686 133.67 76.0654 135.163 74.293 136.478C74.0042 136.697 73.6258 137.015 73.825 137.404C74.0839 137.902 74.4822 137.463 74.7908 137.374C78.5349 136.288 81.3927 133.998 83.653 130.892C86.4212 127.088 88.2733 122.657 91.4498 119.092L91.4597 119.082ZM76.5035 90.2549C74.1237 89.6077 72.1023 89.6973 70.1108 90.3545C67.7111 91.1411 65.3212 91.9875 62.9414 92.8239C62.5331 92.9633 62.0552 93.043 61.7365 93.6902C63.8973 94.3673 65.9984 95.0743 68.1293 95.6817C69.1748 95.9805 70.2701 95.8709 71.3157 95.5125C72.1123 95.2436 72.64 94.7955 72.3612 93.8496C72.1421 93.1127 72.5305 92.6547 73.0881 92.3061C74.1038 91.6788 75.1394 91.0814 76.5135 90.2649L76.5035 90.2549ZM52.4064 96.1C50.1858 95.861 48.2242 95.2635 46.2526 94.676C45.5058 94.457 45.1672 94.8055 45.1175 95.5423C45.0477 96.5779 45.1872 97.5936 45.456 98.5993C45.7149 99.5453 46.2128 99.6946 46.9994 99.2067C48.264 98.4201 49.5784 97.7529 50.9426 97.1555C51.4106 96.9563 51.9782 96.8667 52.3964 96.1H52.4064ZM68.2786 101.716C67.1335 97.4343 62.0353 94.8553 58.58 96.8169C62.2842 97.6932 65.5801 99.127 68.2786 101.716Z" fill="white"/>
<path d="M100.222 125.644C100.631 125.793 100.8 125.564 100.949 125.395C104.026 122.009 108.049 120.147 112.162 118.425C119.012 115.547 125.803 112.55 132.146 108.637C137.384 105.41 141.984 101.467 145.708 96.5381C146.545 95.4229 147.023 94.0587 148.138 93.0331C148.536 93.5011 148.367 93.9392 148.248 94.3475C145.848 102.921 142.193 110.887 137.115 118.246C134.556 121.97 131.628 125.315 128.462 128.482C120.386 136.557 110.897 142.432 100.113 146.206C98.5297 146.764 98.2808 146.545 98.6492 144.832C99.854 139.196 102.981 134.875 107.691 131.618C110.668 129.557 113.934 128.014 117.081 126.241C117.618 125.933 118.146 125.594 118.684 125.295C119.092 125.076 119.57 124.489 119.978 124.937C120.347 125.335 119.809 125.853 119.55 126.241C117.857 128.761 116.005 131.14 113.496 132.943C112.55 133.62 111.723 134.456 111.056 135.412C110.797 135.781 110.22 136.219 110.628 136.687C110.977 137.085 111.474 136.637 111.873 136.458C113.725 135.601 115.428 134.476 117.001 133.182C121.581 129.388 125.126 124.808 127.297 119.221C127.426 118.893 127.725 118.514 127.446 118.176C127.158 117.827 126.739 118.007 126.411 118.176C120.645 121.024 114.621 123.314 108.975 126.411C101.865 130.314 97.6435 136.428 95.4329 144.085C95.2238 144.802 95.0246 145.519 94.7956 146.226C94.706 146.485 94.6761 146.873 94.3077 146.873C93.8596 146.873 93.8696 146.445 93.7999 146.136C93.292 143.936 93.2124 141.695 93.3617 139.455C93.7401 133.839 95.5723 128.761 99.1371 124.369C99.7047 123.662 100.392 123.055 101.049 122.418C101.228 122.248 101.497 122.119 101.726 122.318C101.975 122.537 101.776 122.776 101.656 122.985C101.139 123.852 100.451 124.638 100.242 125.664L100.222 125.644Z" fill="white"/>
<path d="M26.2977 72.6799C24.5552 72.5106 22.7827 72.3313 21.0103 72.1621C20.7116 72.1322 20.3033 71.8633 20.1141 72.2716C19.9349 72.65 20.3332 72.8591 20.5722 73.0582C23.7884 75.7269 27.2537 77.9673 31.3462 79.0726C31.4657 79.1025 31.5852 79.1423 31.7047 79.1722C33.0589 79.5904 33.1883 79.9488 32.342 81.074C29.8426 84.37 27.8909 87.9547 26.4571 91.8381C23.4798 99.9037 23.0914 108.149 24.5651 116.573C26.0488 125.036 29.6435 132.385 35.8072 138.419C35.9267 138.539 36.0461 138.658 36.1457 138.788C36.315 139.007 36.6237 139.226 36.3548 139.525C36.0959 139.803 35.8171 139.584 35.5682 139.435C33.5568 138.19 31.6151 136.836 29.8625 135.253C21.1298 127.347 15.7129 117.529 13.0941 106.077C11.8494 100.641 11.2021 95.134 11.2021 89.5678C11.2021 82.5577 12.3174 75.7069 14.508 69.0354C14.6275 68.6769 14.757 68.3284 14.8864 67.9799C15.2748 66.9344 15.8224 66.7253 16.8779 67.2928C19.9747 68.9557 23.0416 70.7282 26.5168 71.5447C26.9649 71.6542 27.7316 71.714 27.6221 72.3015C27.5126 72.889 26.7757 72.5703 26.2778 72.6699L26.2977 72.6799Z" fill="white"/>
<path d="M129.617 73.2475C126.968 73.4566 124.698 74.1337 122.388 74.5519C121.083 74.7909 119.789 75.0697 118.474 75.2688C115.955 75.6572 114.531 74.9701 113.416 72.66C112.46 70.6884 111.653 68.6371 110.787 66.6158C110.409 65.7495 110.02 64.9031 109.313 63.9969C108.955 64.923 109.413 65.6001 109.413 66.2971C109.413 66.5261 109.582 66.8249 109.234 66.9244C109.005 66.9941 108.855 66.785 108.746 66.6158C108.158 65.6499 107.372 64.8533 106.555 64.0865C106.077 63.6285 106.157 63.1406 106.436 62.6128C107.053 61.4378 107.641 60.2529 108.258 59.0779C108.666 58.3012 109.104 58.1917 109.761 58.9286C110.827 60.1334 112.171 60.9499 113.735 61.3681C114.053 61.4478 114.561 61.637 114.69 61.1491C114.79 60.7707 114.342 60.6412 114.043 60.5118C113.735 60.3724 113.376 60.2429 113.396 59.8546C113.426 59.3269 113.924 59.3766 114.252 59.3368C117.638 58.9186 120.964 59.2472 124.18 60.3425C127.546 61.4876 130.642 63.3895 134.187 64.0567C134.416 64.0965 134.715 64.1762 134.715 64.4848C134.715 64.7836 134.436 64.8533 134.207 64.9529C133.5 65.2715 132.644 65.1221 131.917 65.6499C132.246 66.2374 132.853 66.2175 133.331 66.2772C138.837 67.0439 144.005 66.4266 148.297 62.4336C149.253 61.5474 149.592 61.647 149.781 62.8916C150.119 65.1022 150.358 67.3227 150.607 69.5433C150.697 70.3399 150.398 71.007 149.791 71.5348C146.525 74.3926 142.801 76.0654 138.399 76.1351C134.496 76.2048 130.632 75.4779 126.729 75.5974C126.45 75.5974 126.072 75.6173 125.992 75.2788C125.903 74.8805 126.261 74.7013 126.57 74.5818C127.496 74.2034 128.551 74.0839 129.597 73.2375L129.617 73.2475Z" fill="white"/>
<path d="M3.19622 94.2578C3.02694 91.0515 3.91316 88.0244 4.70976 84.9774C4.84916 84.4596 5.01844 83.9418 5.11802 83.414C5.26738 82.6174 5.11802 81.8607 4.29154 81.5321C3.47503 81.2035 2.71826 81.4524 2.23034 82.2092C1.89178 82.727 1.6528 83.3045 1.37399 83.8522C1.20471 84.1808 1.09518 84.6587 0.657051 84.599C0.169133 84.5293 0.079515 84.0215 0.0596 83.6232C-0.0598902 81.2931 -0.000145054 78.973 0.667008 76.7226C1.36403 74.3627 2.31 72.1222 3.63435 70.0311C4.32142 68.9458 4.94874 67.8206 5.23751 66.546C5.41674 65.7594 5.40679 65.0623 4.65001 64.5645C3.87333 64.0566 3.12651 64.2359 2.4494 64.7337C1.99136 65.0723 1.61297 65.5403 1.1848 65.9286C0.597306 66.4564 0.248793 66.2174 0.248793 65.5303C0.248793 64.7935 0.358325 64.0467 0.507688 63.3198C0.975691 61.0495 1.49348 58.7792 1.96149 56.5088C2.11085 55.7919 2.40957 55.3936 3.19622 55.4036C3.60448 55.4036 4.02269 55.3538 4.43095 55.2641C5.54619 55.0152 6.18347 55.4434 6.68135 56.479C7.95591 59.1376 9.38979 61.7166 11.6402 63.7181C12.1381 64.1662 12.2277 64.6541 11.9887 65.2814C10.0669 70.3498 9.04128 75.6173 8.45378 80.9944C7.92604 85.8735 7.99574 90.7527 8.38408 95.6319C8.68281 99.4456 9.26034 103.2 10.0271 106.934C10.1067 107.312 10.3457 107.88 9.85779 108.049C9.28026 108.248 9.11098 107.601 8.98153 107.212C8.35421 105.41 7.80655 103.588 7.18918 101.786C6.82075 100.72 6.43241 99.7145 4.89895 100.421C4.12227 100.78 3.94303 99.9734 3.79367 99.4357C3.33562 97.7429 3.13647 96.0203 3.22609 94.2578H3.19622Z" fill="white"/>
<path d="M132.844 40.3179C134.238 40.3379 135.612 40.6665 137.026 40.5768C138.32 40.4972 139.585 40.308 140.79 39.8499C141.646 39.5213 142.204 39.7105 142.582 40.5669C143.209 42.0107 143.877 43.4346 144.554 44.8586C145.022 45.8444 144.832 46.5215 143.867 47.1388C141.855 48.4333 139.664 49.0806 137.315 49.2598C134.815 49.449 132.396 49.9867 130.075 50.9227C128.263 51.6496 126.451 52.3466 124.549 52.7947C121.97 53.4121 119.72 52.8744 117.808 50.9725C116.215 49.3992 114.781 47.6666 112.889 46.4219C112.391 46.0933 112.242 45.5655 112.291 44.998C112.361 44.0918 112.441 43.1757 112.58 42.2796C112.71 41.4631 113.894 40.8059 114.711 41.0448C115.458 41.2539 114.97 41.6522 114.83 41.9908C114.661 42.419 114.074 42.877 114.591 43.3052C115.05 43.6836 115.527 43.1857 115.916 42.9168C116.493 42.5185 117.041 42.0705 117.559 41.5925C120.257 39.1031 122.876 38.8044 126.053 40.7262C128.253 42.0605 130.384 43.4944 132.963 44.042C134.885 44.4503 136.797 44.7291 138.748 44.2213C139.097 44.1317 139.625 44.1516 139.655 43.7234C139.684 43.2056 139.117 43.3351 138.788 43.2454C136.807 42.7575 134.875 42.1501 133.182 40.9552C133.013 40.8357 132.824 40.7561 132.644 40.6665C132.714 40.547 132.794 40.4275 132.864 40.308L132.844 40.3179Z" fill="white"/>
<path d="M128.83 79.3514C131.309 79.3514 133.799 79.3614 136.278 79.3514C140.988 79.3216 145.25 77.9375 149.014 75.0797C149.283 74.8805 149.542 74.6814 149.82 74.4922C150.458 74.064 150.786 74.2233 150.876 75.01C151.364 79.1822 150.069 82.4383 146.375 84.7384C142.044 87.427 137.493 88.9505 132.335 88.124C130.373 87.8153 128.561 87.1581 126.888 86.1325C124.608 84.7484 122.228 83.6132 119.689 82.7967C119.251 82.6573 118.544 82.6972 118.554 82.0499C118.554 81.4923 119.211 81.3728 119.639 81.1438C122.507 79.5705 125.564 78.7938 128.85 79.3514H128.83Z" fill="white"/>
<path d="M64.4052 120.675C63.4692 121.77 62.9713 123.135 62.0851 124.26C61.408 125.106 60.7309 125.933 59.775 126.49C59.0481 126.908 58.5203 126.62 58.0822 126.012C57.664 125.435 57.5744 124.937 58.2117 124.409C62.812 120.595 63.9671 115.647 62.9116 109.981C62.8319 109.553 62.4336 109.065 62.8718 108.706C63.29 108.368 63.7381 108.766 64.1364 108.945C67.512 110.479 70.4992 112.46 72.3812 115.816C74.7212 119.968 74.5718 125.266 71.9331 128.731C69.5035 131.917 64.9628 132.644 61.8461 130.324C60.5517 129.368 60.5218 129.059 61.5972 127.914C63.3995 125.982 64.5446 123.204 64.4152 120.675H64.4052Z" fill="white"/>
<path d="M138.26 62.1647C136.209 61.9755 133.879 61.3681 131.649 60.452C129.378 59.526 127.118 58.6099 124.688 58.1817C124.21 58.102 123.603 57.9925 123.483 57.4449C123.354 56.8474 123.971 56.6483 124.35 56.3595C127.825 53.7008 131.778 52.1972 136.1 51.6197C136.398 51.5799 136.807 51.3309 136.946 51.789C137.045 52.1176 136.637 52.2172 136.418 52.3964C135.91 52.8146 134.755 52.9938 135.064 53.7008C135.303 54.2485 136.358 53.7307 137.006 53.5614C140.102 52.725 143.139 51.7392 145.37 49.2199C145.818 48.7121 146.226 48.7121 146.425 49.439C147.103 51.8786 148.009 54.2485 148.527 56.7279C148.646 57.3055 148.606 57.8531 148.108 58.1917C145.221 60.1732 142.323 62.1149 138.27 62.1647H138.26Z" fill="white"/>
<path d="M124.17 34.224C123.473 33.4074 122.757 32.5611 122.04 31.7147C121.671 31.2765 121.382 30.8285 121.98 30.3306C123.663 28.9266 124.529 26.9849 125.336 25.0232C125.794 23.908 126.52 23.0516 127.476 22.3347C128.193 21.797 128.791 21.7771 129.438 22.4442C133.57 26.6762 137.165 31.3164 140.222 36.3847C140.7 37.1813 140.491 37.5896 139.595 37.7589C137.543 38.1472 135.482 38.2767 133.411 38.0676C130.344 37.7688 127.347 37.1714 124.589 35.6877C124.3 35.5284 124.011 35.3591 123.752 35.15C123.414 34.8712 122.737 34.6422 122.936 34.1941C123.185 33.6066 123.712 34.3136 124.131 34.2339C124.21 34.224 124.28 34.1841 124.17 34.224Z" fill="white"/>
<path d="M108.945 19.3474C110.489 19.3773 110.966 18.74 110.429 17.3161C110.11 16.4697 109.572 15.7029 109.244 14.8665C108.626 13.2833 108.965 12.168 110.2 11.3814C111.235 10.7242 112.43 10.9333 113.565 12.0286C114.521 12.9447 115.398 13.9504 116.383 14.8267C117.618 15.922 118.106 15.8224 118.893 14.3686C119.211 13.7712 119.61 13.6816 120.088 14.05C121.85 15.4241 123.603 16.8082 125.335 18.2222C125.833 18.6305 125.514 18.969 125.106 19.1682C123.523 19.9548 122.876 21.4285 122.278 22.952C121.87 23.9876 121.521 25.063 121.014 26.0488C120.028 27.9507 118.106 28.4486 116.284 27.3134C115.547 26.8554 114.9 26.2679 114.203 25.7401C113.336 25.0929 112.45 24.4656 111.325 24.366C110.389 24.2863 109.811 23.8283 109.463 22.9719C109.114 22.0857 108.716 21.2194 108.288 20.373C107.84 19.4968 107.969 19.1184 108.955 19.3374L108.945 19.3474Z" fill="white"/>
<path d="M42.5084 13.7514C42.4786 14.1696 42.2496 14.4683 41.8911 14.6276C39.5511 15.6931 37.4202 17.1867 34.9308 17.9236C34.2636 18.1227 33.5467 18.1824 32.8596 18.292C32.4713 18.3517 31.9535 18.1526 31.7842 18.6704C31.6348 19.1185 32.1028 19.2877 32.3518 19.5466C32.4912 19.696 32.6306 19.8553 32.77 20.0047C33.2878 20.5723 33.1783 20.9208 32.4314 21.1398C26.676 22.7529 21.8167 25.9294 17.3259 29.763C17.1367 29.9224 16.9575 30.0916 16.7583 30.241C16.2206 30.6592 15.6032 31.1372 14.9958 30.5596C14.3884 29.9921 14.946 29.3747 15.2946 28.9166C21.7669 20.4528 29.9221 14.5679 40.5369 12.4569C41.6322 12.2378 42.5383 12.8452 42.5184 13.7414L42.5084 13.7514Z" fill="white"/>
<path d="M85.7942 0.0398761C91.5795 0.78669 97.1457 2.3301 102.583 4.43114C105.639 5.61608 108.607 7.00018 111.495 8.53364C111.793 8.69296 112.351 8.77262 112.172 9.25058C112.042 9.60905 111.584 9.39994 111.275 9.35015C108.129 8.91202 106.386 10.4056 106.307 13.5721C106.297 14.0103 106.506 14.6177 106.018 14.8168C105.401 15.0658 105.251 14.3488 104.952 14.0003C102.154 10.7243 98.8883 8.01585 95.2339 5.76545C92.1968 3.89343 89.1001 2.14091 85.7543 0.856392C85.4656 0.74686 85.0374 0.6672 85.1469 0.219111C85.2266 -0.0995291 85.5552 0.0398761 85.7942 0.0498336V0.0398761Z" fill="white"/>
<path d="M32.6605 101.099C31.4955 101.059 30.3504 100.909 29.2053 100.68C28.3191 100.501 27.9606 100.053 28.2195 99.0773C29.0758 95.8311 30.1811 92.6746 31.6249 89.6375C32.2921 88.2236 32.5809 88.0941 34.0048 88.6617C35.7075 89.3388 37.4501 89.8466 39.2624 90.0657C40.3876 90.2051 40.527 90.6233 39.9992 91.5892C38.6052 94.1284 37.4302 96.7771 36.5738 99.5552C36.305 100.412 35.8071 100.86 34.8711 100.88C34.1342 100.89 33.3874 101.019 32.6506 101.089L32.6605 101.099Z" fill="white"/>
<path d="M32.6904 114.681C33.019 114.651 33.3575 114.641 33.6762 114.571C34.413 114.432 34.8014 114.77 34.8711 115.467C35.1598 118.445 35.6776 121.382 36.6037 124.23C36.8128 124.867 36.534 125.345 36.0062 125.724C34.9906 126.45 33.8853 127.018 32.78 127.586C31.6946 128.143 31.127 127.755 30.6491 126.739C29.484 124.23 28.9563 121.541 28.3588 118.873C28.1597 117.987 28.0103 117.08 27.8311 116.194C27.6618 115.358 27.9705 114.96 28.8468 114.92C30.1313 114.87 31.4058 114.75 32.6904 114.661C32.6904 114.661 32.6904 114.671 32.6904 114.681Z" fill="white"/>
<path d="M27.1045 107.9C27.0149 106.735 27.2837 105.261 27.3634 103.777C27.4231 102.801 27.8413 102.393 28.9068 102.602C30.6494 102.951 32.4318 103.03 34.2142 102.951C35.2796 102.911 35.648 103.319 35.3891 104.375C34.8614 106.555 34.8713 108.806 34.7021 111.026C34.6324 111.932 34.3436 112.41 33.4574 112.54C31.904 112.769 30.3506 113.028 28.7774 112.968C27.8911 112.928 27.3435 112.6 27.2539 111.574C27.1543 110.459 27.1144 109.343 27.0945 107.9H27.1045Z" fill="white"/>
<path d="M41.1246 88.3332C39.0435 88.0345 36.803 87.6461 34.702 86.6802C33.8357 86.2819 33.7461 85.7343 34.3037 85.0173C35.18 83.8623 36.0562 82.7072 36.9325 81.5521C37.3806 80.9646 37.9482 80.7356 38.6751 80.9348C41.2043 81.6318 43.7833 82.0102 46.412 81.8608C46.7406 81.8409 47.1389 81.821 47.2684 82.1994C47.3779 82.508 47.0792 82.7271 46.88 82.9263C45.3665 84.4099 43.9824 86.0031 42.6581 87.6561C42.3095 88.0842 41.9013 88.4328 41.1047 88.3431L41.1246 88.3332Z" fill="white"/>
<path d="M37.2212 127.526C37.739 127.526 37.8983 127.894 38.0278 128.233C39.1032 130.892 40.4574 133.401 42.1103 135.751C42.2298 135.92 42.3991 136.139 42.3593 136.298C42.0307 137.653 40.6366 137.832 39.7405 138.569C39.2625 138.957 38.7845 138.688 38.4161 138.31C36.2454 136.069 34.3933 133.58 32.8499 130.872C32.6009 130.433 32.5611 129.956 33.1088 129.717C34.4032 129.159 35.618 128.442 36.793 127.675C36.9225 127.586 37.1017 127.566 37.2212 127.526Z" fill="white"/>
<path d="M114.621 38.8243C113.655 38.8343 113.048 38.3961 112.968 37.1614C112.809 34.8612 112.56 32.561 111.963 30.3106C111.863 29.9322 111.614 29.4841 112.012 29.1555C112.351 28.8767 112.729 29.1356 113.058 29.285C114.671 30.0218 116.284 30.7687 117.887 31.5155C118.574 31.8341 118.495 32.3718 118.315 32.9892C118.106 33.7161 117.21 34.5426 118.515 35.15C118.574 35.1798 118.584 35.379 118.574 35.4885C118.435 36.7432 116.055 38.8343 114.621 38.8243Z" fill="white"/>
<path d="M115.617 56.9868C114.203 57.0167 112.639 57.0067 111.196 56.2101C110.419 55.7819 110.16 55.2442 110.439 54.3779C110.947 52.8046 111.405 51.2114 111.863 49.6182C112.102 48.7619 112.48 48.7021 113.028 49.3494C114.83 51.5102 116.632 53.6709 118.415 55.8417C118.614 56.0807 118.903 56.3595 118.684 56.7179C118.485 57.0465 118.096 56.9768 117.778 56.9768C117.11 56.9868 116.453 56.9768 115.617 56.9768V56.9868Z" fill="white"/>
<path d="M104.643 66.3668C105.062 66.4565 105.41 66.6855 105.709 66.9742C108.009 69.2246 109.552 72.0526 111.484 74.5917C111.624 74.7809 111.763 75.0398 111.524 75.2589C111.355 75.4182 111.136 75.3585 110.937 75.2888C110.22 75.0498 109.602 74.6316 109.005 74.1835C106.993 72.65 105.002 71.0867 102.493 70.3996C101.716 70.1905 101.517 69.7524 102.194 69.0653C102.831 68.4181 103.339 67.6514 103.897 66.9344C104.096 66.6755 104.235 66.337 104.643 66.3668Z" fill="white"/>
<path d="M51.4405 146.147C51.2912 146.724 50.863 146.515 50.5742 146.376C49.0707 145.688 47.5571 145.011 46.1033 144.225C44.5798 143.398 43.0464 142.562 41.7021 141.447C40.9453 140.809 40.8955 140.331 41.7519 139.704C43.9127 138.141 43.8629 138.131 45.5557 140.112C47.109 141.934 48.7122 143.727 50.624 145.21C50.9427 145.459 51.2912 145.708 51.4505 146.147H51.4405Z" fill="white"/>
</g>
<defs>
<clipPath id="clip0_21211_51229">
<rect width="150.976" height="150" fill="white"/>
</clipPath>
</defs>
</svg>
