<svg width="24" height="24" viewBox="0 0 24 24" fill="none" xmlns="http://www.w3.org/2000/svg">
<path d="M23.3561 11.2695C22.2956 6.47476 20.6995 3.91561 18.3318 3.21657C17.8341 3.07059 17.3179 2.99765 16.7992 3.00006C16.1137 3.00006 15.5167 3.16707 14.8851 3.34408C14.1241 3.55759 13.2595 3.8001 11.999 3.8001C10.7384 3.8001 9.87335 3.55809 9.1108 3.34458C8.47877 3.16707 7.88223 3.00006 7.19869 3.00006C6.66238 2.9982 6.1284 3.0709 5.6121 3.21607C3.25697 3.91211 1.66188 6.47026 0.585813 11.2665C-0.571253 16.4278 -0.00172034 19.6865 2.18291 20.4426C2.48236 20.5481 2.79744 20.6025 3.11496 20.6036C4.61155 20.6036 5.81161 19.357 6.63166 18.3364C7.55821 17.1814 8.64278 16.5953 11.999 16.5953C14.9966 16.5953 16.2372 17.0019 17.3088 18.3364C17.9823 19.1755 18.6189 19.7625 19.2539 20.132C20.0984 20.6231 20.9425 20.7321 21.762 20.4506C23.0531 20.01 23.7931 18.8455 23.9622 16.9884C24.0907 15.5643 23.8927 13.6937 23.3561 11.2695ZM9.59883 11.0005H7.99874V12.6006C7.99874 12.8128 7.91445 13.0163 7.76441 13.1663C7.61437 13.3164 7.41088 13.4007 7.19869 13.4007C6.98651 13.4007 6.78301 13.3164 6.63298 13.1663C6.48294 13.0163 6.39865 12.8128 6.39865 12.6006V11.0005H4.79856C4.58637 11.0005 4.38288 10.9162 4.23284 10.7662C4.0828 10.6162 3.99851 10.4127 3.99851 10.2005C3.99851 9.98829 4.0828 9.78479 4.23284 9.63475C4.38288 9.48472 4.58637 9.40043 4.79856 9.40043H6.39865V7.80033C6.39865 7.58815 6.48294 7.38465 6.63298 7.23462C6.78301 7.08458 6.98651 7.00029 7.19869 7.00029C7.41088 7.00029 7.61437 7.08458 7.76441 7.23462C7.91445 7.38465 7.99874 7.58815 7.99874 7.80033V9.40043H9.59883C9.81102 9.40043 10.0145 9.48472 10.1645 9.63475C10.3146 9.78479 10.3989 9.98829 10.3989 10.2005C10.3989 10.4127 10.3146 10.6162 10.1645 10.7662C10.0145 10.9162 9.81102 11.0005 9.59883 11.0005ZM13.7991 11.2005C13.6013 11.2005 13.4079 11.1419 13.2435 11.032C13.079 10.9221 12.9508 10.7659 12.8751 10.5832C12.7994 10.4004 12.7796 10.1994 12.8182 10.0054C12.8568 9.81138 12.9521 9.63318 13.0919 9.49332C13.2318 9.35346 13.41 9.25822 13.604 9.21963C13.798 9.18104 13.999 9.20085 14.1818 9.27654C14.3645 9.35223 14.5207 9.48041 14.6306 9.64487C14.7405 9.80933 14.7991 10.0027 14.7991 10.2005C14.7991 10.4657 14.6938 10.7201 14.5062 10.9076C14.3187 11.0952 14.0643 11.2005 13.7991 11.2005ZM15.9992 13.4007C15.8013 13.4007 15.6079 13.3419 15.4433 13.2319C15.2788 13.1219 15.1506 12.9656 15.075 12.7827C14.9994 12.5998 14.9798 12.3986 15.0185 12.2046C15.0573 12.0105 15.1528 11.8323 15.2929 11.6926C15.4331 11.5528 15.6115 11.4578 15.8056 11.4195C15.9998 11.3811 16.2009 11.4013 16.3836 11.4774C16.5663 11.5535 16.7223 11.682 16.8319 11.8468C16.9415 12.0116 16.9998 12.2052 16.9993 12.4031C16.9986 12.6679 16.8929 12.9216 16.7055 13.1086C16.518 13.2956 16.264 13.4007 15.9992 13.4007ZM15.9992 9.0004C15.8014 9.0004 15.6081 8.94175 15.4436 8.83186C15.2791 8.72198 15.151 8.56579 15.0753 8.38305C14.9996 8.20031 14.9798 7.99924 15.0184 7.80524C15.0569 7.61125 15.1522 7.43306 15.2921 7.2932C15.4319 7.15334 15.6101 7.05809 15.8041 7.0195C15.9981 6.98092 16.1992 7.00072 16.3819 7.07641C16.5646 7.15211 16.7208 7.28028 16.8307 7.44474C16.9406 7.6092 16.9993 7.80255 16.9993 8.00035C16.9993 8.26558 16.8939 8.51995 16.7063 8.70749C16.5188 8.89504 16.2644 9.0004 15.9992 9.0004ZM18.1993 11.2005C18.0015 11.2005 17.8082 11.1419 17.6437 11.032C17.4793 10.9221 17.3511 10.7659 17.2754 10.5832C17.1997 10.4004 17.1799 10.1994 17.2185 10.0054C17.2571 9.81138 17.3523 9.63318 17.4922 9.49332C17.632 9.35346 17.8102 9.25822 18.0042 9.21963C18.1982 9.18104 18.3993 9.20085 18.582 9.27654C18.7648 9.35223 18.921 9.48041 19.0308 9.64487C19.1407 9.80933 19.1994 10.0027 19.1994 10.2005C19.1994 10.4657 19.094 10.7201 18.9065 10.9076C18.7189 11.0952 18.4646 11.2005 18.1993 11.2005Z" fill="white"/>
</svg>
