<svg width="9" height="9" viewBox="0 0 9 9" fill="none" xmlns="http://www.w3.org/2000/svg">
<path d="M7.34383 4.24083H6.81011C6.69957 4.24083 6.60996 4.33044 6.60996 4.44097V6.87433C6.60996 7.00349 6.50485 7.10858 6.37569 7.10858H1.71212C1.58299 7.10858 1.47795 7.00349 1.47795 6.87433V2.2109C1.47795 2.08172 1.58299 1.9766 1.71212 1.9766H4.27011C4.38064 1.9766 4.47025 1.88699 4.47025 1.77646V1.24275C4.47025 1.13221 4.38064 1.0426 4.27011 1.0426H1.71212C1.06798 1.0426 0.543945 1.56671 0.543945 2.2109V6.87436C0.543945 7.51855 1.068 8.0426 1.71212 8.0426H6.37566C7.01986 8.0426 7.54395 7.51852 7.54395 6.87436V4.441C7.54397 4.33044 7.45436 4.24083 7.34383 4.24083Z" fill="white"/>
<path d="M8.31625 0.0426025H5.90102C5.77527 0.0426025 5.67332 0.144552 5.67332 0.270303V0.877504C5.67332 1.00326 5.77527 1.1052 5.90102 1.1052H6.72997L3.61064 4.22449C3.52171 4.31341 3.52171 4.45756 3.61064 4.54652L4.03999 4.9759C4.08271 5.01862 4.1406 5.0426 4.20102 5.0426C4.2614 5.0426 4.31933 5.01862 4.36202 4.9759L7.48135 1.85656V2.68548C7.48135 2.81123 7.5833 2.91318 7.70905 2.91318H8.31625C8.442 2.91318 8.54395 2.81123 8.54395 2.68548V0.270303C8.54395 0.144552 8.442 0.0426025 8.31625 0.0426025Z" fill="white"/>
</svg>
