<svg width="24" height="24" viewBox="0 0 24 24" fill="none" xmlns="http://www.w3.org/2000/svg">
<g clip-path="url(#clip0_10475_6548)">
<g clip-path="url(#clip1_10475_6548)">
<g clip-path="url(#clip2_10475_6548)">
<path d="M18.1775 0H5.82206V1.97589H1.5957V5.22165C1.5957 7.55546 3.48825 9.44801 5.82206 9.44801H6.37119C6.90071 10.6149 7.77834 11.5857 8.8717 12.2329C10.019 12.9095 10.6956 14.1745 10.6956 15.5081V18.0723H9.18059C8.7148 18.0723 8.33237 18.4498 8.33237 18.9205V20.0335H7.03799V24H16.9567V20.0335H15.6623V18.9205C15.6623 18.4548 15.2848 18.0723 14.8141 18.0723H13.2991V15.5081C13.2991 14.1745 13.9757 12.9095 15.123 12.2329C16.2163 11.5906 17.0989 10.6149 17.6235 9.44801H18.1775C20.5113 9.44801 22.4039 7.55546 22.4039 5.22165V1.9808H18.1775V0ZM5.82206 7.31032C4.66986 7.31032 3.73339 6.37385 3.73339 5.22165V4.11849H5.82206V6.90337C5.82206 7.04065 5.82696 7.17303 5.83677 7.30541H5.82206V7.31032ZM13.7158 20.2247V22.3477H10.2838V20.2247H13.7158ZM11.5781 5.16772C11.6811 5.28539 11.8723 5.40797 12.1567 5.53054C12.8088 5.80511 13.2893 6.07967 13.5982 6.35424C13.907 6.62881 14.059 7.02104 14.059 7.53095C14.059 8.01634 13.9021 8.40858 13.5982 8.70276C13.3334 8.95281 12.9951 9.11461 12.5783 9.19305V9.89908C12.5783 9.99224 12.4999 10.0658 12.4067 10.0658H11.789C11.6958 10.0658 11.6174 9.99224 11.6174 9.89908V9.21267C11.0976 9.15383 10.6613 8.96752 10.3132 8.65373C9.98958 8.36445 9.81797 7.9526 9.79346 7.42308C9.78855 7.31522 9.88171 7.22206 9.98958 7.22206L10.9996 7.20245H11.0045C11.1025 7.20245 11.1908 7.276 11.2006 7.37405C11.2251 7.62901 11.2987 7.82022 11.4212 7.9428C11.5732 8.09479 11.7694 8.16833 12.0145 8.16833C12.2155 8.16833 12.3724 8.1095 12.4754 7.99183C12.5783 7.87416 12.6323 7.72217 12.6323 7.53095C12.6323 7.31032 12.5783 7.13871 12.4705 7.02104C12.3626 6.89847 12.1714 6.7808 11.9017 6.66313C11.2349 6.40327 10.7544 6.13361 10.4505 5.86885C10.1465 5.59918 9.99448 5.20695 9.99448 4.68233C9.99448 4.21164 10.1563 3.82431 10.475 3.51542C10.7691 3.23595 11.1467 3.06925 11.6174 3.00061V2.27988C11.6174 2.18672 11.6958 2.11318 11.789 2.11318H12.4067C12.4999 2.11318 12.5783 2.18672 12.5783 2.27988V3.03493C13.0196 3.12319 13.3726 3.31931 13.6423 3.62819C13.9021 3.92237 14.0443 4.29009 14.0688 4.73136C14.0737 4.83922 13.9806 4.93238 13.8727 4.93238L12.8578 4.94709H12.8529C12.7548 4.94709 12.6666 4.87354 12.6568 4.77549C12.6372 4.55485 12.5832 4.38815 12.4852 4.27048C12.3675 4.12339 12.2106 4.04494 12.0096 4.04494C11.8086 4.04494 11.6615 4.10868 11.5634 4.23126C11.4703 4.35383 11.4212 4.51073 11.4212 4.70194C11.4212 4.89316 11.4752 5.05005 11.5781 5.16772ZM20.2662 4.11849V5.22165C20.2662 6.37385 19.3297 7.31032 18.1775 7.31032H18.1628C18.1726 7.17794 18.1775 7.04065 18.1775 6.90827V4.11849H20.2662Z" fill="white"/>
</g>
</g>
</g>
<defs>
<clipPath id="clip0_10475_6548">
<rect width="24" height="24" fill="white"/>
</clipPath>
<clipPath id="clip1_10475_6548">
<rect width="24" height="24" fill="white"/>
</clipPath>
<clipPath id="clip2_10475_6548">
<rect width="24" height="24" fill="white"/>
</clipPath>
</defs>
</svg>
