<svg width="14" height="19" viewBox="0 0 14 19" fill="none" xmlns="http://www.w3.org/2000/svg">
<path d="M13.8383 5.9478C13.7136 5.76069 13.5265 5.63594 13.277 5.63594H7.66356V0.646212C7.66356 0.396726 7.47645 0.147239 7.22696 0.0224962C6.97747 -0.0398754 6.66561 0.0224962 6.54087 0.271983L0.303707 9.00401C0.178964 9.19112 0.116592 9.44061 0.241336 9.62773C0.36608 9.87721 0.553195 10.002 0.802681 10.002H6.29138L5.16869 18.0479C5.10632 18.3598 5.29344 18.6092 5.54292 18.734C5.6053 18.734 5.66767 18.7964 5.73004 18.7964C5.91716 18.7964 6.16664 18.6716 6.22901 18.4845L13.7136 6.63389C13.9007 6.3844 13.9007 6.13492 13.8383 5.9478Z" fill="white"/>
</svg>
