<svg width="24" height="24" viewBox="0 0 24 24" fill="none" xmlns="http://www.w3.org/2000/svg">
<path d="M7.27344 12.208V12.3867C7.27344 13.0986 7.85059 13.6757 8.5625 13.6757C9.27441 13.6757 9.85156 13.0986 9.85156 12.3867V12.208C9.44164 12.3244 9.0092 12.3867 8.5625 12.3867C8.1158 12.3867 7.68336 12.3243 7.27344 12.208Z" fill="white"/>
<path d="M7.98599 3.93442C8.22352 3.45936 8.90144 3.45936 9.13897 3.93442C9.55916 4.7748 10.4039 5.29688 11.3435 5.29688H12V3.57812C12 2.15427 10.8457 1 9.42188 1H7.70312C6.27927 1 5.125 2.15427 5.125 3.57812V5.29688H5.78152C6.72112 5.29688 7.56584 4.7748 7.98599 3.93442Z" fill="white"/>
<path d="M8.5625 11.0975C10.461 11.0975 12 9.55853 12 7.66004V6.58582H11.3435C10.2616 6.58582 9.26225 6.1313 8.5625 5.35645C7.86275 6.1313 6.86343 6.58582 5.78152 6.58582H5.125V7.66004C5.125 9.55853 6.66401 11.0975 8.5625 11.0975Z" fill="white"/>
<path d="M18.6797 17.5257L19.0471 18.0156L19.4145 17.5257L19.0471 17.0359L18.6797 17.5257Z" fill="white"/>
<path d="M8.5625 14.9648C7.14092 14.9648 5.98438 13.8083 5.98438 12.3867C3.25968 12.3867 1.04297 14.6034 1.04297 17.3281V19.2617C1.04297 19.6177 1.33155 19.9062 1.6875 19.9062H13.8477V13.1963C13.0696 12.6848 12.1393 12.3867 11.1406 12.3867C11.1406 13.8083 9.98408 14.9648 8.5625 14.9648Z" fill="white"/>
<path d="M21.784 12.0515H16.3098C15.6619 12.0515 15.1367 12.5767 15.1367 13.2246V21.8269C15.1367 22.4747 15.6619 23 16.3098 23H21.784C22.4318 23 22.957 22.4747 22.957 21.8269V13.2246C22.957 12.5767 22.4318 12.0515 21.784 12.0515ZM16.4473 14.7886V14.0066C16.4473 13.6506 16.7358 13.3621 17.0918 13.3621C17.4478 13.3621 17.7363 13.6506 17.7363 14.0066V14.7886C17.7363 15.1446 17.4478 15.4332 17.0918 15.4332C16.7358 15.4332 16.4473 15.1446 16.4473 14.7886ZM18.5312 19.4765L17.3582 17.9125C17.1863 17.6833 17.1863 17.3682 17.3582 17.139L18.5312 15.575C18.7891 15.2312 19.3047 15.2312 19.5625 15.575L20.7355 17.139C20.9074 17.3682 20.9074 17.6833 20.7355 17.9125L19.5625 19.4765C19.3047 19.8203 18.7891 19.8203 18.5312 19.4765ZM21.6465 21.0449C21.6465 21.4008 21.3579 21.6894 21.002 21.6894C20.646 21.6894 20.3574 21.4008 20.3574 21.0449V20.2628C20.3574 19.9069 20.646 19.6183 21.002 19.6183C21.3579 19.6183 21.6465 19.9069 21.6465 20.2628V21.0449Z" fill="white"/>
</svg>
