<svg width="10" height="10" viewBox="0 0 10 10" fill="none" xmlns="http://www.w3.org/2000/svg">
<path d="M1 5.0007C1 5.1415 1.12446 5.25414 1.28003 5.25414H8.04427L6.59435 6.56635C6.48441 6.66585 6.48441 6.82541 6.59435 6.92491C6.64828 6.97372 6.72088 7 6.7914 7C6.86193 7 6.93453 6.9756 6.98846 6.92491L8.91755 5.17904C9.02748 5.07955 9.02748 4.91998 8.91755 4.82049L6.98846 3.07462C6.87852 2.97513 6.70221 2.97513 6.59227 3.07462C6.48234 3.17412 6.48234 3.33369 6.59227 3.43318L8.0422 4.74539H1.28003C1.12446 4.74727 1 4.85991 1 5.0007Z" fill="#F15A24"/>
<path d="M7.94185 0H2.05607C0.922119 0 0 0.922119 0 2.05607V3.2648C0 3.42056 0.124611 3.54517 0.280374 3.54517C0.436137 3.54517 0.560748 3.42056 0.560748 3.2648V2.05607C0.560748 1.23157 1.23157 0.560748 2.05607 0.560748H7.94393C8.76843 0.560748 9.43925 1.23157 9.43925 2.05607V7.94393C9.43925 8.76843 8.76843 9.43925 7.94393 9.43925H2.05607C1.23157 9.43925 0.560748 8.76843 0.560748 7.94393V6.74974C0.560748 6.59398 0.436137 6.46937 0.280374 6.46937C0.124611 6.46937 0 6.59398 0 6.74974V7.94393C0 9.07788 0.922119 10 2.05607 10H7.94393C9.07788 10 10 9.07788 10 7.94393V2.05607C9.99792 0.922119 9.0758 0 7.94185 0Z" fill="#F15A24"/>
</svg>
