<svg width="24" height="24" viewBox="0 0 24 24" fill="none" xmlns="http://www.w3.org/2000/svg">
<g clip-path="url(#clip0_10475_6556)">
<path d="M15.0479 19.8071C14.0724 20.0987 13.0482 20.2501 12.001 20.2501C10.9538 20.2501 9.92957 20.0987 8.9541 19.8071V22.5938H6.37598V24.0001H17.626V22.5938H15.0479V19.8071Z" fill="white"/>
<path d="M10.372 2.34844L9.60797 0.820312C8.27203 1.18172 7.05656 1.8375 6.03516 2.71453L7.21688 3.89625C8.11641 3.15047 9.19219 2.61 10.372 2.34844Z" fill="white"/>
<path d="M17.9648 2.71453C16.9434 1.8375 15.7279 1.18172 14.392 0.820312L13.6279 2.34844C14.8078 2.61 15.8836 3.15047 16.7831 3.89625L17.9648 2.71453Z" fill="white"/>
<path d="M6.22352 4.89093L5.04133 3.70874C3.80711 5.1464 3.00977 6.96983 2.85742 8.97046H4.53039C4.6743 7.42827 5.28648 6.02061 6.22352 4.89093Z" fill="white"/>
<path d="M4.53039 10.3767H2.85742C3.00977 12.3773 3.80711 14.2008 5.04133 15.6389L6.22352 14.4567C5.28648 13.3266 4.6743 11.9189 4.53039 10.3767Z" fill="white"/>
<path d="M11.2969 17.1445C9.75469 17.0006 8.34703 16.3884 7.21688 15.4509L6.03516 16.6331C7.47328 17.8673 9.29625 18.6647 11.2969 18.817V17.1445Z" fill="white"/>
<path d="M12.7041 17.1445V18.817C14.7047 18.6647 16.5277 17.8673 17.9658 16.6331L16.7841 15.4509C15.6539 16.3884 14.2463 17.0006 12.7041 17.1445Z" fill="white"/>
<path d="M17.7783 14.4567L18.9605 15.6389C20.1947 14.2008 20.9921 12.3773 21.1444 10.3767H19.4714C19.3275 11.9189 18.7154 13.3266 17.7783 14.4567Z" fill="white"/>
<path d="M19.4714 8.97046H21.1444C20.9921 6.96983 20.1947 5.1464 18.9605 3.70874L17.7783 4.89093C18.7154 6.02061 19.3275 7.42827 19.4714 8.97046Z" fill="white"/>
<path d="M12.9754 3.65454L12.0004 5.60454L11.0254 3.65454C8.1252 4.12282 5.90332 6.64376 5.90332 9.67376C5.90332 13.0361 8.63848 15.7713 12.0004 15.7713C15.3622 15.7713 18.0974 13.0361 18.0974 9.67376C18.0974 6.64376 15.8755 4.12282 12.9754 3.65454ZM9.96035 7.45938H14.0404V8.86563H9.96035V7.45938ZM15.8539 11.8881H8.14676V10.4819H15.8539V11.8881Z" fill="white"/>
<path d="M11.9995 2.45953L13.2295 0H10.7695L11.9995 2.45953Z" fill="white"/>
</g>
<defs>
<clipPath id="clip0_10475_6556">
<rect width="24" height="24" fill="white"/>
</clipPath>
</defs>
</svg>
