<svg width="34" height="34" viewBox="0 0 34 34" fill="none" xmlns="http://www.w3.org/2000/svg">
<g clip-path="url(#clip0_14527_42274)">
<path d="M17.0041 8.41771C18.6262 8.41771 19.9458 7.09808 19.9458 5.47601V3.41748C19.9458 2.08555 18.8622 1.00195 17.5303 1.00195H16.478C15.1461 1.00195 14.0625 2.08555 14.0625 3.41748V5.47608C14.0624 7.09808 15.3821 8.41771 17.0041 8.41771Z" fill="#F5F5F5"/>
<path d="M21.939 5.47591C21.939 6.07845 21.8301 6.65586 21.6315 7.19008C22.2314 7.66151 22.9917 7.9642 23.7773 7.9642C25.6526 7.9642 27.1728 6.44394 27.1728 4.56869V2.85977C27.1728 1.28036 25.8924 0 24.313 0H23.2416C22.3954 0 21.6545 0.331869 21.1426 0.894266C21.6438 1.60971 21.939 2.47945 21.939 3.41731V5.47591Z" fill="#F5F5F5"/>
<path d="M10.2295 7.9642C11.0449 7.9642 11.7928 7.67652 12.3782 7.19753C12.1779 6.66118 12.0678 6.08124 12.0678 5.47585V3.41731C12.0678 2.4853 12.3593 1.62054 12.8547 0.90769C12.3328 0.34928 11.5899 0 10.7652 0H9.69382C8.11441 0 6.83398 1.28036 6.83398 2.85977V4.56869C6.83398 6.44401 8.35418 7.9642 10.2295 7.9642Z" fill="#F5F5F5"/>
<path d="M19.8234 10.4111H14.1825C12.8035 10.4111 11.6855 11.529 11.6855 12.9081C11.6855 13.1702 11.898 13.3826 12.1601 13.3826H21.8458C22.1079 13.3826 22.3204 13.1702 22.3204 12.9081C22.3204 11.5291 21.2024 10.4111 19.8234 10.4111Z" fill="#F5F5F5"/>
<path d="M22.9609 9.70117C23.6276 10.3538 24.092 11.2117 24.2511 12.1717H27.67C27.9801 12.1717 28.2124 11.8777 28.1296 11.5789C27.8301 10.4974 26.837 9.70124 25.6614 9.70124H22.9609V9.70117Z" fill="#F5F5F5"/>
<path d="M6.33389 12.1717H9.7528C9.91195 11.2117 10.3763 10.3538 11.043 9.70117H8.34252C7.16695 9.70117 6.17394 10.4974 5.8743 11.5788C5.79156 11.8777 6.02388 12.1717 6.33389 12.1717Z" fill="#F5F5F5"/>
<path d="M30.767 15.8483C29.1973 14.3224 26.4777 13.8725 24.4688 14.8483C22.3306 15.8245 19.9931 16.2854 17.6426 16.2854H16.3864C14.036 16.2854 11.6985 15.8245 9.56037 14.8483C8.81629 14.5086 7.98788 14.3216 7.11508 14.3273C3.7068 14.3207 1.01311 17.4388 1.40518 20.7299L2.30031 29.5926C2.5531 32.0954 4.66001 34.0003 7.17555 34.0003C9.01864 34.0003 10.7059 32.9661 11.5421 31.3235L14.2219 26.0605C14.7501 25.0231 15.8159 24.3697 16.9802 24.3697C18.1801 24.3697 19.2719 25.0632 19.7819 26.1493L22.1455 31.1828C22.9529 32.9023 24.6813 34.0002 26.5809 34.0002H26.5843C29.0473 34.0002 31.1276 32.1719 31.4437 29.7292L32.5824 20.9336C32.8268 19.0456 32.1694 17.1359 30.767 15.8483ZM9.62137 22.3389H8.4888V23.4715C8.44382 24.6837 6.70406 24.6829 6.65947 23.4715V22.3389H5.52683C4.31459 22.2939 4.31545 20.5542 5.52683 20.5096H6.6594V19.377C6.70439 18.1647 8.44415 18.1656 8.48874 19.377V20.5096H9.62131C10.8336 20.5546 10.8327 22.2944 9.62137 22.3389ZM15.0754 21.3593C14.5249 21.3593 14.0786 20.913 14.0786 20.3625C14.1274 19.0417 16.0235 19.0421 16.0722 20.3625C16.0722 20.9131 15.6259 21.3593 15.0754 21.3593ZM18.9416 21.3593C18.3911 21.3593 17.9448 20.913 17.9448 20.3625C17.9937 19.0417 19.8898 19.0421 19.9384 20.3625C19.9384 20.9131 19.4921 21.3593 18.9416 21.3593ZM28.4779 22.2739H27.3453V23.4065C27.3003 24.6187 25.5605 24.6179 25.516 23.4065V22.2739H24.3834C23.1711 22.2289 23.172 20.4892 24.3834 20.4446H25.516V19.312C25.5609 18.0998 27.3007 18.1006 27.3453 19.312V20.4446H28.4779C29.6902 20.4896 29.6892 22.2294 28.4779 22.2739Z" fill="#F5F5F5"/>
</g>
<defs>
<clipPath id="clip0_14527_42274">
<rect width="34" height="34" fill="white"/>
</clipPath>
</defs>
</svg>
