<svg width="100" height="76" viewBox="0 0 100 76" fill="none" xmlns="http://www.w3.org/2000/svg">
<path d="M99.8764 48.5234C99.454 51.1461 98.7867 53.7236 97.8834 56.2218C95.2062 63.1444 90.0928 68.8509 83.5043 72.2688C79.3369 74.4874 74.6933 75.6615 69.9722 75.6904C62.481 75.8849 55.1891 73.2631 49.5371 68.3426C45.1549 64.5872 41.9255 59.6678 40.2226 54.1536C38.5197 48.6394 38.4129 42.7557 39.9145 37.1833C41.4161 31.6109 44.4647 26.5775 48.7077 22.6656C52.9507 18.7536 58.2146 16.1229 63.8904 15.0779C67.9726 14.3307 72.1641 14.4222 76.2097 15.3469C80.2554 16.2715 84.0705 18.01 87.4228 20.4563C90.775 22.9027 93.5943 26.0058 95.7088 29.5766C97.8234 33.1475 99.189 37.1114 99.7224 41.2269C99.7565 41.4474 99.808 41.6647 99.8764 41.877V48.5234ZM85.5316 45.2216C85.5333 42.0305 84.5886 38.9106 82.8169 36.2565C81.0453 33.6024 78.5263 31.5333 75.5787 30.311C72.631 29.0886 69.387 28.7679 66.257 29.3894C63.127 30.0109 60.2517 31.5467 57.9947 33.8026C55.7376 36.0584 54.2003 38.9329 53.5771 42.0626C52.954 45.1922 53.2729 48.4364 54.4937 51.3847C55.7145 54.333 57.7823 56.8531 60.4354 58.6261C63.0886 60.3992 66.208 61.3456 69.3991 61.3456C71.5179 61.349 73.6165 60.9343 75.5747 60.1253C77.533 59.3163 79.3124 58.1288 80.811 56.631C82.3096 55.1332 83.498 53.3544 84.308 51.3966C85.1181 49.4388 85.5339 47.3404 85.5316 45.2216ZM91.5792 40.8933L94.4191 40.4913C95.0264 40.4058 95.1803 40.1321 95.0606 39.4991C94.4504 36.3049 93.2181 33.2619 91.4338 30.5432C91.1173 30.0642 90.8436 29.953 90.3645 30.3294C89.8855 30.7057 89.1242 31.2446 88.4827 31.6723C88.1063 31.9204 87.9694 32.1513 88.2346 32.6047C89.659 34.9857 90.6766 37.5875 91.2456 40.3031C91.314 40.6111 91.4252 40.9019 91.5792 40.8933ZM65.661 22.3914C65.5242 21.536 65.3702 20.6122 65.2419 19.7311C65.182 19.2521 64.9254 19.158 64.5063 19.2436C61.2378 19.9588 58.1066 21.198 55.2339 22.9132C54.8661 23.127 54.7121 23.3494 55.003 23.7686C55.5504 24.5127 56.0979 25.274 56.6282 26.0353C56.8934 26.4288 57.1756 26.3775 57.4836 26.1465C59.7449 24.6034 62.3074 23.5568 65.0024 23.0757C65.3873 23.0244 65.7637 22.9303 65.661 22.3914ZM75.0703 19.5258C74.7025 19.4831 74.6255 19.7226 74.5741 19.9963C74.4031 20.9116 74.232 21.8268 74.0695 22.7421C73.9754 23.2895 74.3004 23.4692 74.7623 23.5975C76.9884 24.1439 79.094 25.0981 80.9724 26.4117C81.4685 26.7538 81.7508 26.6512 82.0673 26.1893C82.5228 25.4889 83.0139 24.8122 83.5386 24.162C84.0432 23.5633 83.8551 23.2639 83.2477 22.9046C81.4158 21.8315 79.4817 20.9433 77.4739 20.2529C76.6613 19.9963 75.8572 19.8252 75.0531 19.5515L75.0703 19.5258ZM64.5662 67.7267C64.6945 67.2563 64.2753 67.1879 63.8904 67.0938C62.5022 66.6959 61.1513 66.1779 59.853 65.5455C58.9121 65.1178 58.0481 63.8347 57.15 64.2282C56.2518 64.6217 55.807 65.8791 55.1569 66.7516L55.0457 66.9056C54.7549 67.2477 54.8832 67.453 55.2254 67.6669C57.7201 69.1355 60.4017 70.2605 63.1975 71.0114C63.6252 71.1312 63.9674 71.1226 64.0529 70.5837C64.2154 69.6257 64.3865 68.7104 64.5662 67.7267ZM95.4797 50.2256C95.4797 49.8578 95.2146 49.8235 94.9152 49.7722C94.0598 49.6354 93.2557 49.5327 92.4517 49.3274C91.8272 49.1735 91.5963 49.3702 91.4252 49.9604C90.9825 51.5696 90.3956 53.1356 89.6717 54.6394C89.3295 55.4092 88.3715 56.1534 88.7308 56.9232C89.09 57.6931 90.0395 57.9925 90.7067 58.5399C91.2199 58.9505 91.5621 58.9248 91.9384 58.3432C92.8118 57.031 93.5702 55.6458 94.2052 54.2031C94.7752 52.9164 95.2026 51.5711 95.4797 50.1914V50.2256ZM74.5314 67.4273C74.6597 68.3255 74.7623 69.0526 74.8735 69.7797C74.9334 70.2245 75.0959 70.4554 75.6348 70.3528C78.3625 69.8827 80.9877 68.942 83.3931 67.5728C83.8465 67.3162 83.8893 67.0767 83.5899 66.6661C83.0339 65.9219 82.4864 65.1691 81.9818 64.3822C81.6909 63.9374 81.4343 63.9973 81.0323 64.2197C79.1795 65.3234 77.1931 66.1858 75.1216 66.7858C74.6939 66.8713 74.4458 67.0937 74.5314 67.4273ZM46.9452 49.7637C46.0899 49.892 45.2345 50.0545 44.3791 50.1486C43.7632 50.217 43.6178 50.5164 43.7803 51.0639C44.5354 53.6602 45.607 56.1539 46.9709 58.4886C47.2275 58.9248 47.4927 58.9762 47.8947 58.6682C48.4849 58.2149 49.0837 57.8128 49.6996 57.3766C50.1444 57.0772 50.1529 56.7522 49.9134 56.3159C48.8975 54.486 48.1922 52.5002 47.8263 50.4394C47.8227 50.3333 47.7957 50.2293 47.7472 50.1349C47.6986 50.0405 47.6297 49.958 47.5455 49.8933C47.4612 49.8287 47.3637 49.7836 47.2599 49.7612C47.1561 49.7387 47.0487 49.7396 46.9452 49.7637ZM46.834 39.73C47.4414 39.8754 47.5355 39.4392 47.6381 39.0286C48.0789 37.3473 48.7193 35.7248 49.5456 34.1957C49.9049 33.4943 50.8201 32.8869 50.6063 32.1342C50.3924 31.3815 49.3403 31.1249 48.7244 30.5689C48.1086 30.0129 47.8691 30.2181 47.5611 30.8084C46.2953 33.0449 45.288 35.4182 44.5587 37.8824C44.1567 39.2339 44.1567 39.2339 45.5082 39.482L46.834 39.73Z" fill="white"/>
<path d="M0.787598 30.5458C1.4719 17.5354 7.41683 7.86101 19.4521 2.4892C25.9283 -0.310251 33.1779 -0.763833 39.9525 1.20657C46.7272 3.17697 52.6027 7.44802 56.5672 13.2842C57.2772 14.3277 57.2686 14.3192 56.1053 14.8067C55.5151 15.0548 54.9249 15.32 54.3432 15.5851C53.9326 15.7733 53.5477 16.047 53.1457 15.5851C52.966 15.3627 52.7351 15.491 52.5469 15.6279C51.7856 16.1668 50.7078 16.5432 50.3229 17.2873C49.2964 19.2291 47.1751 19.9048 45.9091 21.5044C45.3959 22.1545 45.0537 21.9834 44.5833 21.3675C43.13 19.2232 41.1655 17.4748 38.8671 16.28C36.5687 15.0853 34.0089 14.4819 31.4189 14.5245C27.4146 14.5133 23.549 15.991 20.5732 18.6706C17.5975 21.3501 15.7239 25.04 15.3166 29.0236C14.9093 33.0072 15.9973 37 18.3692 40.2263C20.7411 43.4527 24.2276 45.6821 28.1513 46.4816C30.3299 46.9567 32.588 46.9304 34.7549 46.4046C35.6103 46.1993 35.9439 46.4046 35.9952 47.3455C36.0955 48.6593 36.2639 49.9669 36.4999 51.2632C36.6966 52.5206 36.5512 53.8293 36.8677 55.0782C36.9618 55.4546 36.9361 55.8566 37.475 55.9336C37.8086 55.9336 37.8942 56.2929 38.0139 56.558C38.4159 57.4647 38.7923 58.3971 39.22 59.2867C39.5194 59.894 39.4595 60.1849 38.7239 60.3645C34.9325 61.294 30.9981 61.4885 27.1334 60.9376C20.6777 60.0238 14.6828 57.071 10.0234 52.5101C5.36403 47.9492 2.2839 42.0188 1.2324 35.584C0.958244 33.9181 0.809556 32.234 0.787598 30.5458ZM27.698 8.0321C27.5184 6.9201 27.3815 6.00483 27.2361 5.08957C27.1762 4.6961 26.9624 4.57634 26.5518 4.66188C23.2779 5.35505 20.1417 6.5864 17.2709 8.30581C16.8517 8.54532 16.7491 8.82759 17.057 9.23818C17.5873 9.96525 18.1091 10.6923 18.6224 11.4365C18.8362 11.7616 19.0501 11.8728 19.4008 11.6247C21.7333 10.0093 24.3894 8.92056 27.1847 8.43411C27.4841 8.38279 27.7151 8.20317 27.698 8.0321ZM37.2098 4.99548C36.7394 4.86717 36.5854 5.12378 36.517 5.53436C36.3801 6.38975 36.2347 7.31356 36.0465 8.19461C35.9439 8.65652 36.1406 8.84471 36.5427 8.9388C38.8566 9.51627 41.0492 10.5011 43.0179 11.8471C43.3515 12.0695 43.6594 12.1208 43.9332 11.7445C44.5319 10.8891 45.1307 10.0337 45.7466 9.25529C45.9604 8.9559 45.9348 8.75917 45.6097 8.55388C43.008 6.94562 40.1751 5.74556 37.2098 4.99548ZM26.5261 53.3503C26.6031 52.7601 26.355 52.5634 25.9701 52.495C23.7525 51.9383 21.6561 50.9786 19.7857 49.6636C19.7172 49.5959 19.6333 49.546 19.5411 49.5182C19.4489 49.4904 19.3513 49.4855 19.2568 49.5041C19.1624 49.5226 19.0739 49.564 18.9991 49.6246C18.9242 49.6853 18.8654 49.7632 18.8277 49.8518C18.2717 50.6388 17.7071 51.4257 17.1169 52.187C16.7918 52.6061 16.903 52.8542 17.3222 53.1023C19.8166 54.5714 22.5023 55.6883 25.3029 56.4212C25.6194 56.5067 25.9359 56.5666 26.0214 56.079C26.1925 55.0953 26.3807 54.1544 26.5261 53.3503ZM5.70606 36.1229C5.74882 36.3025 5.80016 36.4907 5.85148 36.6789C6.54092 38.9847 7.48779 41.2056 8.67424 43.2996C9.30722 44.4372 9.29867 44.4372 10.3166 43.7187C10.8127 43.3594 11.3088 43.0002 11.8135 42.658C11.8865 42.6244 11.951 42.5748 12.0023 42.513C12.0536 42.4512 12.0905 42.3786 12.1101 42.3007C12.1298 42.2228 12.1318 42.1415 12.116 42.0627C12.1002 41.9839 12.067 41.9097 12.0188 41.8454C10.9243 39.917 10.1637 37.8173 9.76913 35.6353C9.7007 35.259 9.51252 35.0366 9.11904 35.0879L6.17652 35.5498C5.88569 35.6011 5.60341 35.7123 5.70606 36.1229ZM8.95652 25.0884C9.48686 25.174 9.56384 24.6779 9.67504 24.2331C10.121 22.5578 10.7702 20.9434 11.6082 19.4258C11.9589 18.7586 12.8913 18.1427 12.609 17.4755C12.3267 16.8083 11.4029 16.4833 10.8041 15.9615C10.2054 15.4397 9.85468 15.6365 9.48686 16.278C8.38924 18.1688 7.50833 20.1774 6.86083 22.2657C6.00545 25.1654 5.81726 24.4469 8.64858 25.0542C8.7503 25.0728 8.8532 25.0842 8.95652 25.0884Z" fill="white"/>
<path d="M19.607 30.5834C19.5767 27.5185 20.751 24.5642 22.8771 22.3565C25.0032 20.1488 27.9112 18.8641 30.9751 18.7791C33.1794 18.665 35.3699 19.1873 37.2855 20.2839C39.2011 21.3805 40.7608 23.0049 41.7786 24.9635C41.9223 25.1741 41.9934 25.4259 41.981 25.6806C41.9687 25.9354 41.8736 26.1791 41.7102 26.3749C38.7803 30.5241 36.9044 35.3241 36.2442 40.3604C36.2188 40.7378 36.069 41.0961 35.8183 41.3794C35.5676 41.6626 35.2301 41.8547 34.8585 41.9257C33.0897 42.464 31.2192 42.5795 29.3976 42.2629C27.5759 41.9464 25.854 41.2067 24.3704 40.1034C22.8868 39 21.6829 37.5638 20.8556 35.9103C20.0282 34.2569 19.6006 32.4323 19.607 30.5834Z" fill="white"/>
<path d="M81.1953 45.2225C81.1976 46.7793 80.8923 48.3211 80.2971 49.7596C79.7019 51.198 78.8284 52.5047 77.7269 53.6047C76.6253 54.7047 75.3173 55.5763 73.878 56.1694C72.4387 56.7626 70.8964 57.0656 69.3397 57.061C67.7591 57.0948 66.1877 56.8116 64.7184 56.2282C63.249 55.6448 61.9113 54.773 60.7844 53.6642C59.6574 52.5554 58.764 51.2322 58.1567 49.7725C57.5494 48.3128 57.2407 46.7463 57.2487 45.1653C57.2567 43.5844 57.5813 42.0211 58.2033 40.5676C58.8253 39.1142 59.7321 37.8 60.8702 36.7027C62.0083 35.6054 63.3547 34.7472 64.8299 34.1786C66.3051 33.6101 67.8793 33.3428 69.4594 33.3926C71.0079 33.3948 72.5407 33.703 73.9697 34.2995C75.3987 34.8959 76.6957 35.7689 77.7863 36.8682C78.8769 37.9675 79.7394 39.2715 80.3245 40.7052C80.9095 42.1389 81.2055 43.6741 81.1953 45.2225Z" fill="white"/>
</svg>
