<?xml version="1.0" encoding="UTF-8"?>
<svg id="Layer_2" data-name="Layer 2" xmlns="http://www.w3.org/2000/svg" viewBox="0 0 412.06 411.92">
  <defs>
    <style>
      .cls-1 {
        fill: #fff;
      }
    </style>
  </defs>
  <g id="Capa_1" data-name="Capa 1">
    <g>
      <path class="cls-1" d="m299.08,190.97c-15.18,13.21-39.96,7.32-46.7-12.68-4.28-12.68-20.33-16.45-29.75-7.02l-20.38,20.38-16.96-16.96c-1.45-1.45-1.05-3.89.78-4.76,5.35-2.55,10.09-6.12,14.06-10.6,14.68-16.53,14.8-41.55.29-58.21-17.18-19.72-46.83-20.01-64.56-2.27-3.55,3.55-6.44,7.63-8.6,12.12-.91,1.92-3.36,2.34-4.8.89l-16.97-16.96L196.44,3.94c5.26-5.25,13.76-5.25,19.01,0,4.92,4.92,65.97,65.97,86.14,86.14.62.62.62,1.61,0,2.23l-19.27,19.27c-9.43,9.43-5.67,25.49,6.98,29.73,21.17,7.1,26.9,34.75,9.78,49.66Z"/>
      <path class="cls-1" d="m302.87,320.56l-87.41,87.42c-5.26,5.25-13.76,5.25-19.01,0l-94.66-94.66,17.12-17.12,3.26-3.26c9.44-9.43,5.66-25.49-6.98-29.73-4.27-1.44-8.08-3.8-11.3-7.02-11.91-11.91-11.35-31.43,1.53-42.65,10.82-9.43,27.18-9.47,38.05-.1,3.99,3.44,6.98,7.86,8.64,12.77,4.29,12.68,20.32,16.47,29.76,7.04l2.43-2.43,17.95-17.96,15.11,15.12c1.45,1.45,1.04,3.89-.82,4.77-4.52,2.16-8.62,5.06-12.19,8.63-17.71,17.71-17.48,47.34,2.26,64.55,16.66,14.52,41.68,14.4,58.22-.27,4.48-3.98,8.05-8.72,10.6-14.07.88-1.85,3.32-2.22,4.76-.79l22.69,22.69c1.95,1.95,1.95,5.11-.01,7.07Z"/>
      <path class="cls-1" d="m183.39,194.01l8.25,8.25-20.38,20.38c-1.58,1.57-4.21.92-4.94-1.24-2.52-7.45-7.03-14.13-13.05-19.32-16.49-14.21-41.29-14.14-57.71.15-19.73,17.19-20.01,46.83-2.28,64.56,4.88,4.88,10.65,8.46,17.14,10.64,2.09.7,2.71,3.34,1.14,4.9h0s-20.38,20.39-20.38,20.39L3.93,215.47c-2.54-2.54-3.93-5.92-3.93-9.51s1.39-6.97,3.93-9.51l90.95-90.95,16.97,16.97c8.77,8.77,23.57,6.18,28.94-5.02,1.42-2.96,3.33-5.65,5.67-7.99,11.69-11.69,31.25-11.56,42.65,1.52,9.57,10.98,9.49,27.49-.19,38.4-2.64,2.97-5.77,5.33-9.3,7.01-11.17,5.32-13.7,20.14-4.94,28.91l8.71,8.71Z"/>
      <path class="cls-1" d="m408.19,214.29l-80.99,82.07c-5.16,5.22-13.61,5.28-18.84.13l-16.91-16.69c-8.99-8.87-23.68-5.81-28.94,5.28-1.65,3.48-3.97,6.57-6.88,9.2-10.84,9.76-27.35,9.95-38.4.45-16.29-14.01-12.27-39.46,6.27-48.41,11.09-5.36,13.46-20.29,4.63-29.01l-14-13.82c-.63-.62-.63-1.62-.01-2.23l19.13-19.39c1.54-1.56,4.19-.98,4.94,1.21,10.28,29.72,47.6,39.24,70.88,18.69,25.72-22.71,16.88-64.52-15.36-75.1-2.1-.69-2.72-3.33-1.17-4.89l19.13-19.39c.62-.63,1.61-.63,2.23-.01l94.15,92.91c5.27,5.2,5.33,13.73.13,19.01Z"/>
    </g>
  </g>
</svg>