<svg width="1440" height="512" viewBox="0 0 1440 512" fill="none" xmlns="http://www.w3.org/2000/svg">
<style>
       .cls-2 {
         fill: transparent;
         stroke: #545454;
     stroke-width: 7px;
     stroke-dasharray: 4000;
     stroke-dashoffset: 4000;
     animation:animate1 2s linear infinite;
       }
        @keyframes animate1 {
         70% {
           stroke-dashoffset: 0;
           fill:transparent;
         }
         80%,100%{
             stroke-dashoffset: 4000;
           fill: #545454;
         }
         }
         .cls-1 {
         fill: transparent;
         stroke: #545454;
     stroke-width: 7px;
     stroke-dasharray: 4000;
     stroke-dashoffset: 4000;
     animation:animate2 2s linear infinite;
       }
        @keyframes animate2 {
         70% {
           stroke-dashoffset: 0;
           fill:transparent;
         }
         80%,100%{
             stroke-dashoffset: 4000;
           fill: #545454;
         }
         }
     </style>
<g clip-path="url(#clip0_23661_7726)">
<path d="M0 50C0 22.4 22.4 0 50 0H1390C1417.6 0 1440 22.4 1440 50V462C1440 489.6 1417.6 512 1390 512H50C22.4 512 0 489.6 0 462V50Z" fill="#333333"/>
<path class="cls-2" d="M686.031 193.712C678.806 203.067 669.68 215.874 658.663 232.129C647.642 248.384 637.658 264.252 628.717 279.719C619.772 295.187 614.797 306.441 613.777 313.483C613.223 317.837 610.954 320.014 606.969 320.014C602.149 320.014 597.707 319.068 593.63 317.164C589.549 315.268 586.241 312.489 583.691 308.83C581.14 305.17 579.873 300.658 579.873 295.284V294.866C579.873 286.25 581.98 275.642 586.197 263.047C590.415 250.455 595.134 238.154 600.372 226.161C605.601 214.163 610.074 204.325 613.781 196.637V195.107C603.222 202.794 592.016 215.487 580.155 233.175C568.293 250.869 558.063 269.441 549.448 288.893C540.832 308.346 536.527 323.536 536.527 334.465C536.527 336.321 536.663 337.988 536.944 339.466C537.309 341.414 537.82 342.892 538.475 343.912C539.121 344.933 539.768 345.808 540.423 346.555C541.444 347.576 542.363 349.005 543.203 350.865C543.669 351.789 543.898 352.669 543.898 353.509C543.898 355.36 542.785 356.653 540.564 357.401C537.23 358.047 533.804 358.373 530.281 358.373C527.41 358.373 524.489 358.047 521.529 357.401C513.565 355.088 507.891 350.25 504.509 342.879C501.127 335.516 499.434 326.553 499.434 315.994C499.434 303.029 501.286 288.735 504.993 273.131C508.701 257.527 513.055 242.376 518.055 227.7C523.056 213.024 527.713 200.353 532.019 189.701C536.329 179.05 539.262 171.964 540.837 168.442C541.021 168.077 541.118 167.747 541.118 167.465C541.118 166.726 540.744 166.353 540.005 166.353C539.267 166.353 538.431 166.678 537.507 167.324C527.871 173.627 519.515 182.19 512.426 193.026C505.341 203.859 499.689 215.465 495.471 227.828C491.254 240.19 488.641 251.889 487.621 262.91C487.621 264.023 487.529 265.224 487.348 266.525C487.159 268.566 486.464 269.586 485.264 269.586C484.525 269.586 483.641 269.261 482.621 268.614C477.8 265.281 474.33 261.481 472.197 257.219C470.064 252.962 469 248.375 469 243.462C469 235.036 471.502 226.117 476.507 216.714C481.508 207.311 487.74 198.282 495.194 189.622C502.649 180.958 510.337 173.367 518.262 166.836C526.187 160.305 533.241 155.604 539.451 152.732C543.625 150.973 547.785 150.089 551.959 150.089C558.534 150.089 564.441 151.967 569.67 155.718C574.899 159.47 577.52 164.127 577.52 169.682C577.52 171.533 577.146 173.389 576.407 175.241C573.074 185.062 569.692 194.781 566.266 204.421C561.076 218.961 555.935 233.602 550.842 248.322C550.75 248.696 550.653 249.061 550.561 249.435C550.288 250.178 550.143 251.009 550.143 251.937L550.279 253.468C556.577 241.061 566.349 225.703 579.596 207.408C592.843 189.112 605.443 174.783 617.388 164.409C621.557 161.348 625.907 159.826 630.445 159.826C636.092 159.826 641.212 161.682 645.794 165.385C650.377 169.092 652.673 173.301 652.673 178.029C652.673 179.331 652.484 180.58 652.119 181.781C651.745 182.986 651.38 184.186 651.006 185.396C646.925 200.125 641.88 214.484 635.864 228.47C634.843 230.783 634.333 232.221 634.333 232.78C634.333 233.052 634.377 233.197 634.47 233.197C634.936 233.197 635.811 232.085 637.113 229.864C643.507 217.637 652.607 203.234 664.415 186.654C676.224 170.073 687.777 157.337 699.08 148.444C700.466 147.52 702.37 147.059 704.776 147.059C708.202 147.059 712.072 147.89 716.382 149.557C720.692 151.223 724.443 153.493 727.632 156.365C730.829 159.237 732.426 162.478 732.426 166.093V167.069C731.964 171.516 730.944 175.87 729.365 180.131C728.903 181.424 728.481 182.726 728.116 184.024C727.188 186.896 726.172 190.181 725.055 193.888C721.255 205.376 716.927 219.313 712.063 235.713C707.199 252.109 702.871 268.83 699.071 285.872C695.272 302.914 693.376 317.599 693.376 329.918C693.376 337.79 694.44 344.185 696.573 349.093C698.333 353.073 699.217 356.227 699.217 358.54C699.217 360.853 698.57 362.313 697.273 363.193C695.971 364.068 694.401 364.512 692.545 364.512C689.211 364.512 685.688 363.703 681.985 362.08C678.278 360.457 675.736 358.901 674.342 357.427C668.501 354.274 664.358 349.137 661.909 342.004C659.454 334.87 658.227 326.536 658.227 316.997C658.227 303.57 659.965 288.999 663.439 273.303C666.909 257.606 670.784 242.992 675.037 229.464C679.298 215.944 682.953 205.385 686.014 197.789C686.014 197.605 686.058 197.424 686.15 197.235C686.335 196.769 686.423 196.215 686.423 195.568C686.423 195.014 686.287 194.412 686.005 193.765L686.018 193.734L686.031 193.712Z" fill="#545454"/>
<path class="cls-1" d="M806.642 350.852C802.934 354.925 799.025 357.867 794.908 359.679C790.783 361.482 786.684 362.384 782.607 362.384C775.478 362.384 768.872 360.163 762.807 355.717C756.738 351.27 752.265 345.667 749.398 338.907C747.357 333.168 746.341 326.408 746.341 318.62C746.341 309.173 747.498 298.657 749.816 287.082C752.129 275.502 754.979 263.72 758.361 251.722C761.738 239.733 765.094 228.219 768.432 217.193C773.991 199.601 777.835 185.607 779.968 175.232C780.522 171.617 780.804 168.754 780.804 166.617C780.804 163.375 780.201 161.752 779.001 161.752C777.8 161.752 776.129 163.191 774 166.062C770.108 171.155 765.661 177.594 760.661 185.374C755.66 193.154 750.748 201.581 745.932 210.662C741.112 219.744 737.083 228.747 733.842 237.684C730.601 246.62 728.978 254.655 728.978 261.789C728.978 266.051 729.717 269.85 731.199 273.184C731.665 274.297 731.894 275.176 731.894 275.823C731.894 277.028 731.291 277.626 730.091 277.626C728.701 277.626 726.893 276.887 724.668 275.405C722.447 273.927 720.635 272.115 719.25 269.987C714.619 261.741 712.301 252.949 712.301 243.586C712.301 232.287 715.076 220.782 720.635 209.057C726.194 197.341 733.301 186.619 741.961 176.89C750.625 167.162 759.865 159.382 769.681 153.55C774.594 150.955 779.779 149.658 785.241 149.658C792.832 149.658 799.763 151.861 806.013 156.255C812.267 160.653 815.627 166.511 816.089 173.829V174.111C816.089 182.172 814.33 192.705 810.816 205.723C807.288 218.741 803.216 232.701 798.589 247.614C795.343 258.363 792.221 269.015 789.204 279.57C786.191 290.129 783.693 300.113 781.705 309.511C779.713 318.914 778.719 327.13 778.719 334.175C778.719 340.288 779.691 345.245 781.635 349.04C782.655 351.261 783.72 352.374 784.832 352.374C785.853 352.374 787.146 351.538 788.72 349.876C794.279 345.056 800.832 337.139 808.383 326.118C815.935 315.097 823.315 302.778 830.54 289.158C837.762 275.537 843.831 262.365 848.739 249.628C853.652 236.892 856.102 226.724 856.102 219.128C856.102 217.835 856.009 216.679 855.829 215.658C855.737 215.197 855.688 214.774 855.688 214.409C855.688 212.65 856.801 211.722 859.026 211.63C864.766 211.63 869.722 212.259 873.891 213.508C878.065 214.757 881.28 217.031 883.549 220.316C885.819 223.606 886.953 228.307 886.953 234.42C886.953 241.554 885.933 249.334 883.897 257.76C881.856 266.187 879.494 274.895 876.807 283.88C874.12 293.054 871.688 302.127 869.511 311.112C867.334 320.102 866.248 328.475 866.248 336.264C866.248 341.639 866.943 346.595 868.328 351.129C868.609 351.684 869.067 351.961 869.722 351.961C870.377 351.961 871.015 351.824 871.662 351.543C872.308 351.27 872.818 351.033 873.192 350.848C880.792 345.482 888.752 336.308 897.091 323.334C905.425 310.369 913.297 295.411 920.712 278.457C928.118 261.503 934.188 244.259 938.911 226.702C943.639 209.145 946.001 193.422 946.001 179.529C946.001 171.938 945.161 165.17 943.503 159.241C942.575 156.743 941.554 154.192 940.442 151.597C940.169 150.859 940.024 150.203 940.024 149.649C940.024 147.798 941.229 146.918 943.639 147.006C946.045 147.006 949.106 147.798 952.804 149.368C956.512 150.942 959.867 152.82 962.88 154.997C965.888 157.174 967.766 159.378 968.505 161.594C970.172 167.896 970.999 174.885 970.999 182.572C970.999 196.101 968.76 210.988 964.265 227.238C959.775 243.493 953.706 259.607 946.067 275.585C938.423 291.563 929.785 306.178 920.149 319.424C910.513 332.671 900.464 343.367 889.997 351.521C879.53 359.675 869.339 363.747 859.431 363.747C853.498 363.747 847.759 361.988 842.204 358.465C837.938 355.497 834.996 351.609 833.382 346.793C831.763 341.973 830.949 336.88 830.949 331.506C830.949 324.654 831.688 317.986 833.175 311.499V310.945C833.175 310.58 833.083 310.391 832.898 310.391C832.805 310.391 832.599 310.628 832.278 311.086C831.952 311.552 831.649 312.058 831.376 312.616C827.295 321.232 822.642 329.214 817.413 336.585C812.175 343.948 808.59 348.693 806.642 350.826V350.844V350.852Z" fill="#545454"/>
</g>
<defs>
<clipPath id="clip0_23661_7726">
<rect width="1440" height="512" fill="white"/>
</clipPath>
</defs>
</svg>
