<svg width="13" height="13" viewBox="0 0 13 13" fill="none" xmlns="http://www.w3.org/2000/svg">
<g clip-path="url(#clip0_45749_3350)">
<path d="M2.07582 2.83388C1.24526 2.50076 0.888663 1.90493 1.02498 1.13395C1.14054 0.478537 1.72012 0.00548103 2.41526 6.43664e-05C3.12665 -0.00625508 3.69179 0.453259 3.83804 1.15562C3.9879 1.87513 3.61144 2.48812 2.78991 2.83298C2.91089 2.86277 3.0129 2.88444 3.11311 2.91152C4.17929 3.20763 4.84644 4.11493 4.88255 5.31652C4.88526 5.39236 4.88436 5.46819 4.88255 5.54402C4.87443 5.93763 4.71825 6.10013 4.32644 6.10194C3.45797 6.10555 2.5895 6.10374 1.72193 6.10374C1.31748 6.10374 0.913038 6.10736 0.507691 6.10194C0.142969 6.09742 0.00123248 5.95298 -0.00328141 5.59638C-0.00689252 5.26777 -0.0141147 4.93916 0.0752603 4.61777C0.328038 3.71048 0.911233 3.13902 1.81943 2.89527C1.89345 2.87631 1.96658 2.86006 2.07582 2.83388Z" fill="white"/>
<path d="M10.2057 2.82695C9.39144 2.50647 9.02943 1.92237 9.16033 1.17307C9.27859 0.492371 9.82838 0.0157041 10.5127 -0.000545926C11.2205 -0.0167959 11.8145 0.428273 11.9644 1.09272C12.0962 1.67501 11.9129 2.45952 10.956 2.82786C11.9346 3.04633 12.5981 3.60966 12.9096 4.56841C13.0351 4.9557 13.0053 5.35293 12.9881 5.74744C12.9782 5.97043 12.7931 6.09682 12.5114 6.10043C12.0646 6.10675 11.6177 6.10223 11.1708 6.10223C10.3529 6.10223 9.53498 6.10313 8.71706 6.10133C8.26206 6.10043 8.11581 5.95056 8.1122 5.49015C8.10047 4.07459 8.81005 3.16369 10.2057 2.82695Z" fill="white"/>
<path d="M6.06964 9.74671C5.22735 9.27727 4.92491 8.7022 5.11089 7.98359C5.2779 7.3381 5.83672 6.90116 6.50116 6.89845C7.13672 6.89574 7.70547 7.33539 7.88241 7.96553C8.08012 8.67151 7.78401 9.24387 6.96429 9.73137C7.01123 9.8063 7.09519 9.79908 7.1629 9.81803C8.20561 10.1187 8.93054 11.063 8.94318 12.1418C8.95311 12.9669 8.92061 12.9994 8.10179 12.9994C6.93721 12.9994 5.77262 13.0003 4.60894 12.9994C4.18373 12.9994 4.06818 12.8694 4.05283 12.437C4.01491 11.3961 4.4004 10.5818 5.30679 10.0365C5.52978 9.90109 5.78255 9.83519 6.06964 9.74671Z" fill="white"/>
<path d="M10.9748 6.78906C11.3828 6.78906 11.3982 6.79087 11.3702 7.19351C11.2709 8.64246 10.6461 9.8224 9.52309 10.7414C9.41385 10.8308 9.3317 10.8371 9.27031 10.6936C9.19177 10.5067 8.95614 10.3541 8.99045 10.1763C9.02114 10.0201 9.24413 9.90274 9.37774 9.76552C10.0747 9.05052 10.4818 8.20281 10.5396 7.19892C10.564 6.78906 10.5595 6.78906 10.9748 6.78906Z" fill="white"/>
<path d="M2.03281 6.78906C2.43635 6.78906 2.43093 6.78906 2.4535 7.18538C2.5185 8.32469 3.01323 9.25365 3.86635 9.99483C4.02073 10.1284 4.05955 10.2295 3.916 10.3794C3.89885 10.3975 3.88712 10.4209 3.87357 10.4417C3.60184 10.8543 3.59281 10.8651 3.2308 10.5329C2.2558 9.63823 1.71142 8.52871 1.62385 7.20615C1.59587 6.79087 1.61031 6.78997 2.03281 6.78906Z" fill="white"/>
<path d="M8.75992 2.62559C8.75721 2.63552 8.75811 2.64726 8.7536 2.65177C8.58117 2.81156 8.40964 2.97316 8.2336 3.12844C8.137 3.2133 8.04131 3.14108 7.94922 3.10767C6.98415 2.76011 6.01637 2.75379 5.05492 3.11038C4.87617 3.17719 4.75158 3.16184 4.63512 3.01469C4.5936 2.96233 4.53853 2.9208 4.48617 2.87747C4.15665 2.60122 4.15124 2.58858 4.562 2.42066C5.90262 1.87087 7.23783 1.88441 8.56311 2.48115C8.63804 2.51455 8.7229 2.54073 8.75992 2.62559Z" fill="white"/>
</g>
<defs>
<clipPath id="clip0_45749_3350">
<rect width="13" height="13" fill="white"/>
</clipPath>
</defs>
</svg>
