<svg width="24" height="24" viewBox="0 0 24 24" fill="none" xmlns="http://www.w3.org/2000/svg">
<g clip-path="url(#clip0_10475_6554)">
<path d="M11.0964 0.0155582C9.40736 0.165617 7.92953 0.587887 6.46101 1.34797C3.61307 2.82115 1.44566 5.42992 0.502466 8.50283C0.136498 9.69473 0.00528795 10.5953 0.00528795 11.9747C0.00063685 13.1008 0.0334393 13.4621 0.239801 14.4849C0.502466 15.7845 1.20625 17.464 1.96169 18.6043C4.87988 22.9724 10.1535 24.9474 15.1923 23.5636C17.2332 23.0052 19.0865 21.898 20.5972 20.345C24.2052 16.629 25.0262 11.0739 22.6429 6.48548C21.7093 4.68379 20.3205 3.13546 18.6129 1.9908C17.9889 1.57784 16.7923 0.968054 16.0934 0.710041C15.4601 0.480179 14.5263 0.240768 13.7899 0.128162C13.2031 0.0344067 11.622 -0.0314426 11.0964 0.0155582ZM13.4188 2.23486C14.5167 2.39912 15.408 2.68064 16.3982 3.17781C17.3835 3.67523 18.1857 4.25222 18.9551 5.02626C20.8412 6.9217 21.8405 9.33341 21.8405 11.9982C21.8405 14.208 21.1648 16.2161 19.8185 17.9989C18.7722 19.3783 17.1722 20.5793 15.502 21.2221C14.9201 21.4473 13.9348 21.6914 13.278 21.7805C12.5838 21.8696 11.3966 21.8696 10.7116 21.7805C8.94298 21.546 7.2397 20.8233 5.82283 19.7019C5.39591 19.3641 4.62162 18.5901 4.28381 18.1632C3.37831 17.0182 2.67453 15.5639 2.36951 14.2034C2.05055 12.7865 2.05055 11.2193 2.36951 9.79314C2.66988 8.43722 3.38296 6.96405 4.28381 5.83334C5.81818 3.9144 8.06098 2.61479 10.5099 2.23952C11.3077 2.11736 12.6073 2.11736 13.4188 2.23486Z" fill="white"/>
<path d="M11.2845 2.59578C11.2188 2.61463 11.2235 2.75074 11.3173 3.84839C11.3736 4.52403 11.4206 5.1059 11.4252 5.13405C11.4252 5.18105 11.5706 5.19501 11.9882 5.19501C12.4059 5.19501 12.5513 5.18105 12.5513 5.13405C12.5559 5.1059 12.6029 4.52403 12.6592 3.84839L12.7672 2.61928L12.6685 2.59578C12.5606 2.56763 11.3924 2.56763 11.2845 2.59578ZM9.00884 3.06505C8.67568 3.18231 8.36136 3.29026 8.31925 3.30446C8.27225 3.31841 8.2348 3.35146 8.2348 3.38426C8.2348 3.41241 8.46001 3.95659 8.73687 4.59477C9.13099 5.50492 9.25755 5.74898 9.31386 5.72548C9.35131 5.71152 9.58117 5.62707 9.82058 5.54262C10.0646 5.45816 10.271 5.37836 10.2803 5.36906C10.3085 5.34091 9.68447 2.84963 9.64702 2.84963C9.63282 2.84914 9.34666 2.94779 9.00884 3.06505ZM13.9867 4.0971C13.8132 4.78669 13.6817 5.35927 13.6959 5.36857C13.7052 5.37787 13.9118 5.45767 14.1556 5.54213C14.3948 5.62658 14.6249 5.71103 14.6624 5.72499C14.7187 5.74849 14.8455 5.49513 15.2535 4.56148L15.7791 3.36027L15.6056 3.29002C15.385 3.19626 14.5782 2.9194 14.4232 2.88194L14.2966 2.84914L13.9867 4.0971ZM6.42381 4.38817C6.2221 4.53822 5.95454 4.75878 5.83263 4.87139L5.60742 5.07775L6.47546 6.01605C6.94939 6.53208 7.35281 6.95435 7.36211 6.95435C7.37631 6.95435 7.54032 6.83244 7.72808 6.68703C7.91583 6.53697 8.11289 6.38667 8.15965 6.35387C8.24875 6.28826 8.2206 6.23661 7.54962 5.20431C7.1648 4.60848 6.83653 4.1206 6.82234 4.11595C6.80838 4.11595 6.63017 4.23786 6.42381 4.38817ZM16.4217 5.20456L15.7226 6.28826L15.854 6.38667C15.9292 6.44297 16.0932 6.56953 16.2246 6.67283C16.3512 6.77614 16.492 6.88874 16.5343 6.91689C16.6048 6.96854 16.7267 6.85129 17.4915 6.02535L18.3688 5.07751L18.1529 4.8758C17.9184 4.65989 17.2004 4.11571 17.1536 4.11571C17.1397 4.1206 16.8112 4.60873 16.4217 5.20456ZM11.0029 5.73454C8.2818 6.16635 6.13765 8.32911 5.72468 11.0598C5.30706 13.7856 6.73813 16.4835 9.2436 17.7033C10.1961 18.163 11.1109 18.3554 12.1995 18.318C12.5608 18.304 13.0252 18.2617 13.2318 18.2146C15.7326 17.694 17.6844 15.742 18.205 13.2414C18.3223 12.6877 18.3458 11.6556 18.2567 11.0833C17.8298 8.30586 15.6856 6.15215 12.9268 5.73478C12.3824 5.65008 11.5378 5.65008 11.0029 5.73454ZM12.9921 7.88824C14.5216 8.30586 15.5914 9.34256 16.0511 10.8534C16.1683 11.2287 16.1825 11.3413 16.1825 11.9983C16.1825 12.6551 16.1683 12.7677 16.056 13.1383C15.6102 14.5927 14.5828 15.6203 13.1282 16.0661C12.7576 16.1787 12.645 16.1929 11.9882 16.1929C11.3315 16.1929 11.2188 16.1789 10.8482 16.0661C8.97628 15.4938 7.76577 13.8891 7.76577 11.9655C7.76577 10.2436 8.90578 8.62042 10.5339 8.03389C11.1204 7.82263 11.4348 7.77588 12.1057 7.79938C12.4573 7.80843 12.8325 7.84589 12.9921 7.88824Z" fill="white"/>
<path d="M12.5876 9.02385C12.3249 9.16461 12.2405 9.54918 12.4094 9.82604C12.4892 9.96215 12.4938 9.99495 12.4375 10.1311C12.4047 10.2155 12.3389 10.3844 12.2968 10.5063L12.2123 10.7315H11.9497C11.6072 10.7315 11.274 10.8865 11.0349 11.1492L10.8566 11.3462L10.486 11.2148C10.1436 11.0929 10.1154 11.074 10.0684 10.9097C9.89019 10.3279 9.03146 10.4077 8.95165 11.0131C8.89535 11.4072 9.20036 11.7122 9.58983 11.6559C9.70244 11.6417 9.829 11.5996 9.87135 11.5572C9.9465 11.4916 9.97465 11.4867 10.1154 11.543C10.2045 11.5805 10.3734 11.6463 10.5 11.6884L10.7205 11.7729V12.0358C10.7205 12.3783 10.8752 12.7114 11.1382 12.9508L11.3399 13.1291L11.2082 13.4997C11.1049 13.8 11.0628 13.8749 10.9641 13.8984C10.7624 13.9501 10.6309 14.0674 10.556 14.2691C10.4904 14.4333 10.4904 14.4896 10.5418 14.649C10.6919 15.1087 11.3722 15.1885 11.5881 14.7662C11.6772 14.5927 11.6772 14.297 11.5881 14.1751C11.4943 14.0532 11.499 13.9922 11.6397 13.6027L11.7663 13.2649H12.029C12.3668 13.2649 12.6999 13.1102 12.9391 12.8473L13.1173 12.6456L13.4926 12.777C13.8211 12.8896 13.8679 12.9224 13.9102 13.0539C14.0135 13.3636 14.3467 13.5464 14.6328 13.4527C14.8909 13.3682 15.0363 13.1619 15.0363 12.8803C15.0363 12.674 15.0174 12.627 14.8767 12.4862C14.7359 12.3455 14.6843 12.3266 14.4825 12.3266C14.3276 12.3266 14.215 12.3548 14.1401 12.4157C14.0275 12.5002 14.0228 12.5002 13.6427 12.3594L13.2532 12.2187V11.956C13.2532 11.6182 13.0985 11.285 12.8356 11.0459L12.6385 10.8676L12.77 10.4924C12.8872 10.1592 12.9154 10.1125 13.0326 10.089C13.2157 10.0515 13.4314 9.82164 13.4688 9.62458C13.5298 9.28211 13.2529 8.94894 12.9105 8.94894C12.8035 8.95335 12.6578 8.9815 12.5876 9.02385ZM12.1465 11.3039C12.2216 11.4258 12.1323 11.543 11.9352 11.5854C11.7523 11.6228 11.5646 11.8152 11.5646 11.9702C11.5646 12.1766 11.3301 12.2564 11.2221 12.0875C11.1002 11.8904 11.3675 11.4025 11.6818 11.2664C11.865 11.182 12.0809 11.2008 12.1465 11.3039ZM4.34413 6.48092C4.10962 6.79524 3.72945 7.41922 3.72945 7.48483C3.72945 7.50833 4.23618 7.80869 4.86016 8.14161L5.98621 8.75629L6.08952 8.58273C6.14582 8.48897 6.28192 8.27307 6.39453 8.10881C6.50713 7.94455 6.58229 7.79449 6.55879 7.77564C6.45083 7.67699 4.56959 6.22732 4.55074 6.22732C4.54119 6.22756 4.44743 6.34017 4.34413 6.48092ZM18.4849 6.936C17.9971 7.32547 17.542 7.67724 17.4808 7.72424L17.3635 7.80869L17.5278 8.03855C17.6215 8.16511 17.753 8.36707 17.8235 8.48897C17.894 8.61553 17.9736 8.71418 18.002 8.71418C18.0864 8.71418 20.2445 7.53183 20.2445 7.48483C20.2445 7.37222 19.5126 6.26967 19.4235 6.24617C19.4 6.24152 18.9777 6.55118 18.4849 6.936ZM3.02102 9.0755C2.95541 9.25371 2.763 10.0091 2.72065 10.2486C2.6925 10.4314 2.69715 10.441 2.82396 10.4691C3.13362 10.5301 5.24497 10.8725 5.24962 10.8632C5.29663 10.7927 5.50299 9.81233 5.47484 9.78418C5.44668 9.76068 3.13362 8.94919 3.08662 8.94919C3.07732 8.9487 3.04917 9.005 3.02102 9.0755ZM19.658 9.35702C19.0152 9.58223 18.4756 9.76509 18.4663 9.77464C18.4524 9.78394 18.6962 10.8255 18.7243 10.863C18.7336 10.8818 21.2391 10.4549 21.2626 10.4314C21.3236 10.3705 20.9623 8.99105 20.8778 8.96755C20.8496 8.958 20.3055 9.13646 19.658 9.35702ZM2.55664 12.2564C2.55664 12.6035 2.6504 13.4669 2.69275 13.5136C2.7209 13.5418 4.52724 13.2698 5.14192 13.143C5.25452 13.1195 5.25917 13.1149 5.22637 12.8757C5.20752 12.7396 5.18892 12.4909 5.18892 12.3127L5.18426 11.9983H3.87045H2.55664V12.2564ZM18.7853 12.3127C18.7853 12.4909 18.7664 12.7349 18.7429 12.8664C18.7241 12.9929 18.7101 13.1058 18.7148 13.1104C18.7476 13.1479 21.2577 13.5374 21.2859 13.5092C21.3233 13.4718 21.4171 12.5521 21.4171 12.2236V11.9983H20.1033H18.7895L18.7853 12.3127ZM4.31598 14.635C3.645 14.8695 3.09152 15.062 3.08197 15.0713C3.05847 15.0948 3.34929 15.789 3.52774 16.1457L3.70595 16.4928L4.80851 15.8876C5.41364 15.5591 5.92991 15.2776 5.95316 15.2683C5.97667 15.2637 5.95782 15.1839 5.91106 15.0948C5.86406 15.0056 5.761 14.7711 5.6812 14.5741L5.53579 14.2174L4.31598 14.635ZM18.2223 14.7244L18.0017 15.2404L18.1048 15.3014C18.2925 15.4186 20.2301 16.4556 20.2582 16.4556C20.3334 16.4556 20.9339 15.1138 20.8822 15.0622C20.8729 15.0529 20.3473 14.8651 19.7233 14.6492C19.0947 14.4333 18.5456 14.2458 18.5082 14.2316C18.457 14.2128 18.3819 14.3349 18.2223 14.7244ZM4.80385 16.1694C4.70545 16.2727 4.66775 16.3523 4.66775 16.4791C4.66775 16.6903 4.87901 16.9248 5.06652 16.9248C5.36199 16.9248 5.60605 16.648 5.54044 16.3807C5.45134 16.0333 5.05722 15.9207 4.80385 16.1694ZM17.3263 16.2162C17.3217 16.2443 17.1574 16.4318 16.965 16.6431L16.6179 17.0232L16.7821 17.1968C16.8712 17.2906 17.2137 17.6661 17.5469 18.0274C17.8754 18.3887 18.1944 18.7312 18.2507 18.7921C18.3163 18.8624 18.3775 18.8859 18.4338 18.8673C18.5275 18.8296 19.4002 17.8585 19.3956 17.7929C19.3956 17.7647 19.0249 17.4597 18.5745 17.1126C17.3873 16.1976 17.3449 16.1645 17.3263 16.2162ZM5.57349 16.9997C5.02466 17.4267 4.57424 17.7926 4.57424 17.8066C4.57424 17.8722 5.52208 18.8952 5.57838 18.8952C5.63004 18.8952 6.83589 17.6284 7.26747 17.1263C7.35192 17.0232 7.35192 17.0232 6.9906 16.6196C6.78889 16.399 6.61068 16.2208 6.59648 16.2208C6.58229 16.2208 6.11767 16.5728 5.57349 16.9997ZM7.57689 18.7637C7.20162 19.3361 6.89195 19.8288 6.8824 19.8616C6.8731 19.8898 6.99036 19.9931 7.14042 20.0822C7.45939 20.2746 8.19132 20.6452 8.21017 20.6217C8.21482 20.6124 8.44003 20.1103 8.7027 19.505C8.96536 18.8998 9.20012 18.365 9.22337 18.3226C9.26083 18.257 9.22803 18.224 9.04982 18.1491C8.93256 18.0928 8.712 17.9755 8.56194 17.8864C8.41188 17.7973 8.28508 17.7221 8.27112 17.7221C8.26182 17.7221 7.94751 18.1914 7.57689 18.7637ZM15.2713 17.9615C15.0554 18.0881 14.849 18.1914 14.8162 18.1914C14.7834 18.1914 14.7552 18.2149 14.7552 18.2431C14.7552 18.2852 15.7077 20.4903 15.7733 20.5982C15.7968 20.6403 16.8384 20.1103 17.0167 19.96L17.1386 19.8567L16.4441 18.8012C16.0595 18.2242 15.731 17.7456 15.7075 17.7361C15.6889 17.7317 15.4918 17.835 15.2713 17.9615ZM10.0023 19.8616C9.8241 20.5466 9.69265 21.1191 9.70684 21.1331C9.74895 21.1752 10.5372 21.3255 10.8892 21.3583L11.2177 21.3911L11.3257 20.115C11.382 19.4112 11.4194 18.8247 11.4055 18.8154C11.3913 18.8014 11.1942 18.7591 10.9597 18.7263C10.7298 18.6935 10.4904 18.6511 10.4295 18.6372C10.3215 18.609 10.3169 18.6325 10.0023 19.8616ZM13.0708 18.7121C12.8035 18.7591 12.5783 18.8058 12.5687 18.8107C12.5594 18.82 12.7658 21.2834 12.78 21.3772C12.7942 21.4288 14.2015 21.1987 14.272 21.1331C14.2955 21.1049 14.1217 20.3495 13.8076 19.1625C13.7278 18.8575 13.6387 18.6183 13.6106 18.6183C13.5822 18.623 13.3384 18.6653 13.0708 18.7121Z" fill="white"/>
</g>
<defs>
<clipPath id="clip0_10475_6554">
<rect width="24" height="24" fill="white"/>
</clipPath>
</defs>
</svg>
