<svg width="24" height="24" viewBox="0 0 24 24" fill="none" xmlns="http://www.w3.org/2000/svg">
<g clip-path="url(#clip0_10475_6555)">
<path d="M8.28224 8.30111C8.68546 9.89631 9.67434 11.5417 11.0668 12.9341C12.4592 14.3264 14.1046 15.3154 15.6997 15.7186C17.4137 16.1518 18.8784 15.8697 19.8237 14.9243C20.7692 13.9789 21.0512 12.5143 20.618 10.8003C20.2148 9.2051 19.2259 7.5598 17.8335 6.16736C16.4411 4.77492 14.7957 3.78603 13.2005 3.38281C11.4866 2.94959 10.0219 3.23173 9.07652 4.17709C8.13109 5.12252 7.84901 6.58713 8.28224 8.30111Z" fill="white"/>
<path d="M8.60582 21.365L7.41169 22.5591C7.08244 22.8884 7.08244 23.424 7.41169 23.7533C7.74089 24.0825 8.27656 24.0825 8.60582 23.7533L15.0626 17.2965C13.2482 16.7882 11.4133 15.6701 9.87165 14.1284C8.33004 12.5869 7.21186 10.7519 6.70359 8.9375L0.246897 15.3943C-0.082299 15.7236 -0.082299 16.2592 0.246897 16.5885C0.576093 16.9177 1.11177 16.9177 1.44102 16.5885C1.77072 16.2588 2.30538 16.2588 2.63514 16.5885C2.80002 16.7534 2.88249 16.9695 2.88249 17.1855C2.88249 17.4016 2.80008 17.6177 2.63514 17.7826C2.30589 18.1118 2.30589 18.6475 2.63514 18.9767C2.79462 19.1362 3.00667 19.2241 3.23223 19.2241C3.45774 19.2241 3.66979 19.1362 3.82927 18.9767L5.02345 17.7826C5.35315 17.453 5.88781 17.4529 6.21757 17.7826C6.54733 18.1124 6.54727 18.647 6.21757 18.9767V18.9768C6.05809 19.1362 5.97028 19.3483 5.97028 19.5738C5.97028 19.7993 6.05809 20.0113 6.21757 20.1708C6.37704 20.3303 6.5891 20.4182 6.81466 20.4182C7.03943 20.4182 7.25081 20.3309 7.41012 20.1724L7.41169 20.1709C7.74139 19.8412 8.27606 19.8412 8.60582 20.1709C8.93557 20.5006 8.93557 21.0352 8.60582 21.365Z" fill="white"/>
<path d="M23.8015 7.6162C23.3982 6.02105 22.4094 4.37569 21.0169 2.98325C19.6245 1.59081 17.9791 0.601926 16.384 0.198706C14.67 -0.234461 13.2053 0.0476182 12.26 0.992987L11.7588 1.49416C12.3502 1.50035 12.9711 1.58343 13.6134 1.74578C15.4996 2.22252 17.4221 3.36879 19.0267 4.9734C20.6314 6.57806 21.7776 8.50049 22.2543 10.3867C22.4167 11.029 22.4998 11.6499 22.506 12.2413L23.0071 11.7402C23.9525 10.7948 24.2346 9.33023 23.8015 7.6162Z" fill="white"/>
</g>
<defs>
<clipPath id="clip0_10475_6555">
<rect width="24" height="24" fill="white"/>
</clipPath>
</defs>
</svg>
