<svg width="24" height="24" viewBox="0 0 24 24" fill="none" xmlns="http://www.w3.org/2000/svg">
<g clip-path="url(#clip0_10475_6549)">
<g clip-path="url(#clip1_10475_6549)">
<path d="M11.9987 13.5311C12.855 13.5311 13.5492 12.837 13.5492 11.9807C13.5492 11.1243 12.855 10.4302 11.9987 10.4302C11.1424 10.4302 10.4482 11.1243 10.4482 11.9807C10.4482 12.837 11.1424 13.5311 11.9987 13.5311Z" fill="white"/>
<path d="M11.4935 23.5076H12.5102C12.9313 23.5076 13.2727 23.1662 13.2727 22.7451V21.4444C14.1109 21.3328 14.9271 21.1104 15.7111 20.7789C16.8458 20.2989 17.8647 19.612 18.7394 18.7374C19.614 17.8628 20.3009 16.8439 20.7808 15.7091C21.1124 14.9251 21.3349 14.1089 21.4463 13.2707H22.747C23.1681 13.2707 23.5096 12.9293 23.5096 12.5082V11.4915C23.5096 11.0704 23.1681 10.729 22.747 10.729H21.4463C21.3348 9.89081 21.1124 9.07459 20.7808 8.29059C20.3008 7.15582 19.614 6.13697 18.7394 5.26231C17.8647 4.38765 16.8459 3.70081 15.711 3.22085C14.927 2.88926 14.1108 2.66683 13.2726 2.55535V1.2547C13.2726 0.833566 12.9312 0.492188 12.5101 0.492188H11.4934C11.0723 0.492188 10.7309 0.833566 10.7309 1.2547V2.55538C9.89275 2.66686 9.07653 2.88928 8.29254 3.22088C7.15779 3.70086 6.13894 4.38768 5.26428 5.26234C4.38963 6.13699 3.70278 7.15584 3.22283 8.29062C2.89124 9.07459 2.66881 9.89084 2.55733 10.729H1.25666C0.835544 10.729 0.494141 11.0704 0.494141 11.4915V12.5082C0.494141 12.9294 0.835544 13.2707 1.25666 13.2707H2.55733C2.66881 14.1089 2.89124 14.9251 3.22283 15.7091C3.70281 16.8439 4.38963 17.8627 5.26428 18.7374C6.13894 19.6121 7.15779 20.299 8.29259 20.7789C9.07658 21.1105 9.8928 21.3329 10.731 21.4444V22.7451C10.731 23.1662 11.0724 23.5076 11.4935 23.5076ZM7.06158 16.9401C6.0467 15.9253 5.38298 14.6531 5.13036 13.2708H6.23215C6.65326 13.2708 6.99466 12.9294 6.99466 12.5082V11.4916C6.99466 11.0704 6.65326 10.729 6.23215 10.729H5.13034C5.38298 9.34676 6.0467 8.07452 7.06156 7.05966C8.07642 6.04478 9.34862 5.38106 10.7309 5.12846V6.23027C10.7309 6.65141 11.0723 6.99279 11.4935 6.99279H12.5101C12.9313 6.99279 13.2727 6.65141 13.2727 6.23027V5.12846C14.655 5.38111 15.9272 6.04483 16.942 7.05966C17.9569 8.07452 18.6206 9.34676 18.8732 10.729H17.7715C17.3504 10.729 17.009 11.0704 17.009 11.4916V12.5082C17.009 12.9294 17.3504 13.2708 17.7715 13.2708H18.8733C18.6207 14.6531 17.9569 15.9253 16.9421 16.9401C15.9272 17.955 14.655 18.6187 13.2727 18.8713V17.7695C13.2727 17.3484 12.9313 17.007 12.5102 17.007H11.4935C11.0724 17.007 10.731 17.3484 10.731 17.7695V18.8713C9.34865 18.6187 8.07642 17.955 7.06158 16.9401Z" fill="white"/>
</g>
</g>
<defs>
<clipPath id="clip0_10475_6549">
<rect width="24" height="24" fill="white"/>
</clipPath>
<clipPath id="clip1_10475_6549">
<rect width="24" height="24" fill="white"/>
</clipPath>
</defs>
</svg>
