<svg width="26" height="26" viewBox="0 0 26 26" fill="none" xmlns="http://www.w3.org/2000/svg">
<path d="M23.9688 22.75H23.0815C23.1372 22.5999 23.1622 22.4402 23.1551 22.2803C23.148 22.1204 23.1089 21.9636 23.0401 21.819C22.9713 21.6745 22.8743 21.5452 22.7547 21.4389C22.6351 21.3325 22.4953 21.2512 22.3438 21.1997V10.1562C22.3437 7.67813 21.3593 5.30151 19.607 3.54922C17.8547 1.79693 15.4781 0.8125 13 0.8125C10.5219 0.8125 8.14526 1.79693 6.39297 3.54922C4.64068 5.30151 3.65625 7.67813 3.65625 10.1562V21.1997C3.50467 21.2512 3.36495 21.3325 3.24534 21.4389C3.12573 21.5452 3.02866 21.6745 2.95988 21.819C2.8911 21.9636 2.852 22.1204 2.84489 22.2803C2.83778 22.4402 2.86281 22.5999 2.9185 22.75H2.03125C1.70802 22.75 1.39802 22.8784 1.16946 23.107C0.940904 23.3355 0.8125 23.6455 0.8125 23.9688C0.8125 24.292 0.940904 24.602 1.16946 24.8305C1.39802 25.0591 1.70802 25.1875 2.03125 25.1875H23.9688C24.292 25.1875 24.602 25.0591 24.8305 24.8305C25.0591 24.602 25.1875 24.292 25.1875 23.9688C25.1875 23.6455 25.0591 23.3355 24.8305 23.107C24.602 22.8784 24.292 22.75 23.9688 22.75ZM4.46875 10.1562C4.46875 7.89362 5.36758 5.72367 6.96749 4.12375C8.56741 2.52383 10.7374 1.625 13 1.625C15.2626 1.625 17.4326 2.52383 19.0325 4.12375C20.6324 5.72367 21.5312 7.89362 21.5312 10.1562V21.125H18.2812V16.6562C18.2812 16.5485 18.2384 16.4452 18.1623 16.369C18.0861 16.2928 17.9827 16.25 17.875 16.25H15.8438V11.7812C15.8438 11.6735 15.8009 11.5702 15.7248 11.494C15.6486 11.4178 15.5452 11.375 15.4375 11.375H10.5625C10.4548 11.375 10.3514 11.4178 10.2752 11.494C10.1991 11.5702 10.1562 11.6735 10.1562 11.7812V16.25H8.125C8.01726 16.25 7.91392 16.2928 7.83774 16.369C7.76155 16.4452 7.71875 16.5485 7.71875 16.6562V21.125H4.46875V10.1562ZM10.9688 16.25V12.1875H15.0312V16.25H10.9688ZM12.5938 17.0625V21.125H8.53125V17.0625H12.5938ZM13.4062 17.0625H17.4688V21.125H13.4062V17.0625ZM4.0625 21.9375H21.9375C22.0452 21.9375 22.1486 21.9803 22.2248 22.0565C22.3009 22.1327 22.3438 22.236 22.3438 22.3438C22.3438 22.4515 22.3009 22.5548 22.2248 22.631C22.1486 22.7072 22.0452 22.75 21.9375 22.75H4.0625C3.95476 22.75 3.85142 22.7072 3.77524 22.631C3.69905 22.5548 3.65625 22.4515 3.65625 22.3438C3.65625 22.236 3.69905 22.1327 3.77524 22.0565C3.85142 21.9803 3.95476 21.9375 4.0625 21.9375ZM23.9688 24.375H2.03125C1.92351 24.375 1.82017 24.3322 1.74399 24.256C1.6678 24.1798 1.625 24.0765 1.625 23.9688C1.625 23.861 1.6678 23.7577 1.74399 23.6815C1.82017 23.6053 1.92351 23.5625 2.03125 23.5625H23.9688C24.0765 23.5625 24.1798 23.6053 24.256 23.6815C24.3322 23.7577 24.375 23.861 24.375 23.9688C24.375 24.0765 24.3322 24.1798 24.256 24.256C24.1798 24.3322 24.0765 24.375 23.9688 24.375Z" fill="white"/>
<path d="M13 13C12.759 13 12.5233 13.0715 12.3229 13.2054C12.1225 13.3393 11.9663 13.5297 11.874 13.7524C11.7818 13.9751 11.7576 14.2201 11.8047 14.4565C11.8517 14.6929 11.9678 14.9101 12.1382 15.0805C12.3087 15.251 12.5258 15.3671 12.7622 15.4141C12.9986 15.4611 13.2437 15.437 13.4664 15.3447C13.6891 15.2525 13.8794 15.0963 14.0134 14.8959C14.1473 14.6954 14.2188 14.4598 14.2188 14.2188C14.2188 13.8955 14.0903 13.5855 13.8618 13.357C13.6332 13.1284 13.3232 13 13 13ZM13 14.625C12.9197 14.625 12.8411 14.6012 12.7743 14.5565C12.7075 14.5119 12.6554 14.4484 12.6247 14.3742C12.5939 14.3 12.5859 14.2183 12.6016 14.1395C12.6172 14.0607 12.6559 13.9883 12.7127 13.9315C12.7696 13.8747 12.8419 13.836 12.9207 13.8203C12.9995 13.8046 13.0812 13.8127 13.1555 13.8434C13.2297 13.8742 13.2931 13.9262 13.3378 13.9931C13.3824 14.0599 13.4063 14.1384 13.4063 14.2188C13.4063 14.3265 13.3634 14.4298 13.2873 14.506C13.2111 14.5822 13.1077 14.625 13 14.625Z" fill="white"/>
<path d="M9.34375 17.875H10.1562V18.6875H9.34375V17.875Z" fill="white"/>
<path d="M10.9688 19.5H11.7812V20.3125H10.9688V19.5Z" fill="white"/>
<path d="M14.2188 17.875H15.0312V18.6875H14.2188V17.875Z" fill="white"/>
<path d="M15.8438 17.875H16.6562V18.6875H15.8438V17.875Z" fill="white"/>
<path d="M14.2188 19.5H15.0312V20.3125H14.2188V19.5Z" fill="white"/>
<path d="M15.8438 19.5H16.6562V20.3125H15.8438V19.5Z" fill="white"/>
<path d="M5.28125 14.625H6.09375V20.3125H5.28125V14.625Z" fill="white"/>
<path d="M5.28125 13H6.09375V13.8125H5.28125V13Z" fill="white"/>
<path d="M19.9062 10.1562V10.5625H20.7188V10.1562C20.7165 8.1098 19.9025 6.14782 18.4555 4.70076C17.0084 3.25371 15.0464 2.43976 13 2.4375V3.25C14.831 3.25204 16.5865 3.98032 17.8812 5.27505C19.1759 6.56978 19.9042 8.32523 19.9062 10.1562Z" fill="white"/>
<path d="M19.9062 11.375H20.7188V12.1875H19.9062V11.375Z" fill="white"/>
</svg>
