<svg width="13" height="13" viewBox="0 0 13 13" fill="none" xmlns="http://www.w3.org/2000/svg">
<path fill-rule="evenodd" clip-rule="evenodd" d="M7.40638 11.8601H0.626479C0.0898637 11.8188 -0.0398095 11.4316 0.00974045 10.9841C0.303877 8.3478 3.25052 9.11056 4.43444 8.04101C5.02482 9.78446 7.49283 9.84899 8.04631 8.04101C8.17388 8.15632 8.35099 8.25365 8.55868 8.33934C8.36786 8.45571 8.18758 8.59641 8.02312 8.76145C7.18815 9.59826 6.98257 10.8286 7.40638 11.8601ZM11.597 9.19943C12.4636 10.069 12.4636 11.4782 11.597 12.3478C10.7304 13.2174 9.32618 13.2174 8.45958 12.3478C7.59299 11.4782 7.59299 10.069 8.45958 9.19943C9.32618 8.32982 10.7315 8.32982 11.597 9.19943ZM9.80165 9.53796H10.255C10.3172 9.53796 10.3678 9.58874 10.3678 9.65116V10.4319H11.1458C11.208 10.4319 11.2586 10.4827 11.2586 10.5451V11C11.2586 11.0624 11.208 11.1132 11.1458 11.1132H10.3678V11.8939C10.3678 11.9564 10.3172 12.0071 10.255 12.0071H9.80165C9.73945 12.0071 9.68884 11.9564 9.68884 11.8939V11.1132H8.9108C8.8486 11.1132 8.798 11.0624 8.798 11V10.5451C8.798 10.4827 8.8486 10.4319 8.9108 10.4319H9.68884V9.65116C9.68884 9.5898 9.73945 9.53796 9.80165 9.53796ZM4.41863 6.29226C4.64318 6.64878 4.87723 7.01376 5.1682 7.28248C5.44863 7.53955 5.78916 7.71411 6.23827 7.71517C6.72639 7.71622 7.08167 7.53532 7.37159 7.26343C7.67311 6.98097 7.90926 6.59377 8.14436 6.20657L8.77375 5.16664C8.89077 4.89687 8.934 4.71808 8.90659 4.61229C8.88972 4.54987 8.82119 4.51919 8.70417 4.5139C8.67992 4.51285 8.65356 4.51285 8.62826 4.51285C8.60085 4.5139 8.57133 4.51602 8.53971 4.51813C8.52178 4.51919 8.50702 4.51813 8.49121 4.51496C8.43639 4.51813 8.37735 4.5139 8.31937 4.50544L8.53443 3.54802C6.93513 3.80087 5.73961 2.60965 4.05069 3.30999L4.17299 4.43773C4.10657 4.44196 4.04121 4.43879 3.98111 4.43033C3.0112 4.46207 4.22781 5.98653 4.41863 6.29226ZM8.92135 4.22721C9.07632 4.27481 9.17542 4.3732 9.21654 4.53295C9.26187 4.70962 9.21232 4.95823 9.06262 5.29888C9.05945 5.30523 9.05734 5.31157 9.05313 5.31686L8.41741 6.36843C8.17177 6.77362 7.92402 7.18092 7.59088 7.49194C7.24719 7.81567 6.82233 8.03043 6.24249 8.02831C5.70165 8.02725 5.2926 7.8199 4.95841 7.51205C4.55463 7.13966 2.69282 4.80166 3.52462 4.23779C3.56574 4.21134 3.61107 4.18701 3.65957 4.16902C3.62267 3.68555 3.61002 3.07619 3.63321 2.56627C3.64586 2.44567 3.66905 2.32507 3.70174 2.20341C3.84406 1.69137 4.20251 1.27879 4.64529 0.996322C4.88988 0.83975 5.15766 0.722321 5.43598 0.644035C5.6131 0.593255 5.28522 0.0240947 5.46761 0.00716798C6.35318 -0.084871 7.78908 0.727611 8.40792 1.40045C8.71682 1.73687 8.91291 2.18331 8.95508 2.77363L8.92135 4.22721Z" fill="#F5F5F5"/>
</svg>
