<svg width="24" height="24" viewBox="0 0 24 24" fill="none" xmlns="http://www.w3.org/2000/svg">
<g clip-path="url(#clip0_10475_6547)">
<path d="M8.48438 6.375V17.625H15.5156V6.375H8.48438ZM14.1094 11.588L13.9034 11.794C13.1406 12.5568 12.7031 13.613 12.7031 14.6917V15.5156H11.2969V14.6917C11.2969 13.3431 11.8063 12.0207 12.7031 11.0175V10.5938H11.2969V11.2969H9.89062V9.1875H14.1094V11.588Z" fill="white"/>
<path d="M0 2.15625H24V4.96875H0V2.15625Z" fill="white"/>
<path d="M0 19.0312H24V21.8438H0V19.0312Z" fill="white"/>
<path d="M7.07812 6.375H0V17.625H7.07812V6.375ZM5.67188 11.588L5.46588 11.794C4.70306 12.5568 4.26562 13.613 4.26562 14.6917V15.5156H2.85938V14.6917C2.85938 13.3431 3.36877 12.0207 4.26562 11.0175V10.5938H2.85938V11.2969H1.45312V9.1875H5.67188V11.588Z" fill="white"/>
<path d="M16.9219 17.625H24V6.375H16.9219V17.625ZM18.3281 9.1875H22.5469V11.588L22.3409 11.794C21.5781 12.5568 21.1406 13.613 21.1406 14.6917V15.5156H19.7344V14.6917C19.7344 13.3431 20.2438 12.0207 21.1406 11.0175V10.5938H19.7344V11.2969H18.3281V9.1875Z" fill="white"/>
</g>
<defs>
<clipPath id="clip0_10475_6547">
<rect width="24" height="24" fill="white"/>
</clipPath>
</defs>
</svg>
