<svg width="13" height="13" viewBox="0 0 13 13" fill="none" xmlns="http://www.w3.org/2000/svg">
<g clip-path="url(#clip0_22335_104826)">
<g clip-path="url(#clip1_22335_104826)">
<path d="M6.50069 0.680908C9.71974 0.680908 12.3197 3.28091 12.3197 6.49996C12.3197 9.719 9.71974 12.319 6.50069 12.319C3.28164 12.319 0.681641 9.719 0.681641 6.49996C0.681641 3.28091 3.28164 0.680908 6.50069 0.680908ZM6.50069 11.7C9.41021 11.7 11.7007 9.34757 11.7007 6.49996C11.7007 3.65234 9.34831 1.29996 6.50069 1.29996C3.59116 1.29996 1.30069 3.65234 1.30069 6.49996C1.30069 9.40948 3.59116 11.7 6.50069 11.7Z" fill="white"/>
<path d="M6.49963 3.83798C6.56153 3.83798 6.62344 3.83798 6.68534 3.89989L8.85201 5.75703C8.91391 5.81893 8.97582 5.94274 8.97582 6.06655L8.41868 8.41893C8.35677 8.54274 8.23296 8.66655 8.10915 8.66655H4.8901C4.76629 8.66655 4.64249 8.54274 4.58058 8.41893L4.02344 6.06655C4.02344 5.94274 4.02344 5.81893 4.14725 5.75703L6.31391 3.89989C6.37582 3.89989 6.43772 3.83798 6.49963 3.83798ZM8.35677 6.12846L6.49963 4.58084L4.64249 6.12846L5.13772 8.04751H7.86153L8.35677 6.12846Z" fill="white"/>
<path d="M8.66695 6.31427C8.48123 6.31427 8.35742 6.19046 8.35742 6.00474C8.35742 5.88093 8.41933 5.75712 8.54314 5.69522L9.96695 5.07617L10.6479 3.09522C10.7098 2.90951 10.8955 2.8476 11.0193 2.90951C11.1431 2.97141 11.2669 3.15712 11.205 3.28093L10.5241 5.4476C10.5241 5.50951 10.4622 5.57141 10.3384 5.63332L8.79076 6.25236C8.79076 6.31427 8.72885 6.31427 8.66695 6.31427Z" fill="white"/>
<path d="M12.0094 7.24273C11.9475 7.24273 11.8855 7.24273 11.8236 7.18083L10.0284 5.5713C9.90459 5.44749 9.90459 5.26178 10.0284 5.13797C10.1522 5.01416 10.3379 5.01416 10.4617 5.07606L12.257 6.62368C12.3808 6.74749 12.3808 6.93321 12.3189 7.05702C12.1951 7.18082 12.0713 7.24273 12.0094 7.24273Z" fill="white"/>
<path d="M4.33326 6.31416C4.27136 6.31416 4.27136 6.31416 4.20945 6.31416L2.66183 5.69511C2.59993 5.63321 2.53802 5.5713 2.47612 5.44749L1.73326 3.34273C1.67136 3.21892 1.79517 3.03321 1.91898 2.9713C2.10469 2.9094 2.2285 2.9713 2.29041 3.15702L2.97136 5.13797L4.39517 5.75702C4.58088 5.81892 4.64279 6.00464 4.58088 6.19035C4.51898 6.25226 4.45707 6.31416 4.33326 6.31416Z" fill="white"/>
<path d="M0.991164 7.24269C0.80545 7.24269 0.681641 7.11888 0.681641 6.93317C0.681641 6.87126 0.743545 6.74746 0.80545 6.68555L2.60069 5.13793C2.7245 5.01412 2.91021 5.01412 3.03402 5.13793C3.15783 5.26174 3.09593 5.44746 2.97212 5.57126L1.17688 7.11888C1.11497 7.18079 1.05307 7.24269 0.991164 7.24269Z" fill="white"/>
<path d="M6.50093 4.45701C6.31522 4.45701 6.19141 4.3332 6.19141 4.14749V2.53797C6.19141 2.41416 6.25331 2.35225 6.31522 2.29035L8.17236 1.05225C8.29617 0.990347 8.48188 0.990347 8.60569 1.17606C8.6676 1.23797 8.6676 1.42368 8.54379 1.54749L6.81045 2.66178V4.14749C6.81045 4.3332 6.68664 4.45701 6.50093 4.45701Z" fill="white"/>
<path d="M6.50089 2.84759C6.43899 2.84759 6.37708 2.84759 6.31518 2.78568L4.45804 1.54759C4.33423 1.42378 4.33423 1.23806 4.39613 1.11425C4.51994 0.990445 4.70566 0.92854 4.82946 1.05235L6.68661 2.29045C6.81042 2.41425 6.87232 2.59997 6.74851 2.72378C6.68661 2.78568 6.6247 2.84759 6.50089 2.84759Z" fill="white"/>
<path d="M8.10943 12.0713C7.92372 12.0713 7.79991 11.9475 7.79991 11.7618C7.79991 11.6998 7.79991 11.6998 7.79991 11.6379L8.54277 9.7189L7.79991 8.4808C7.6761 8.35699 7.738 8.17128 7.86181 8.04747C7.98562 7.92366 8.17134 7.98556 8.29515 8.10937C8.29515 8.10937 8.29515 8.10937 8.29515 8.17128L9.09991 9.53318C9.16181 9.59509 9.16181 9.7189 9.09991 9.7808L8.29515 11.8237C8.35705 12.0094 8.23324 12.0713 8.10943 12.0713Z" fill="white"/>
<path d="M10.9565 10.0284H8.97554C8.78983 10.0284 8.66602 9.90463 8.66602 9.71892C8.66602 9.5332 8.78983 9.40939 8.97554 9.40939H10.9565C11.1422 9.40939 11.266 9.5332 11.266 9.71892C11.266 9.90463 11.1422 10.0284 10.9565 10.0284Z" fill="white"/>
<path d="M4.88985 12.0713C4.76604 12.0713 4.64223 12.0094 4.58032 11.8856L3.77556 9.84271C3.71366 9.78081 3.77556 9.657 3.77556 9.59509L4.58032 8.23319C4.70413 8.04748 4.88985 7.98557 5.01366 8.04748C5.13747 8.10938 5.19937 8.29509 5.13747 8.48081C5.13747 8.48081 5.13747 8.48081 5.13747 8.54271L4.39461 9.78081L5.13747 11.6999C5.19937 11.8856 5.13746 12.0094 4.95175 12.0713C4.95175 12.0713 4.95175 12.0713 4.88985 12.0713Z" fill="white"/>
<path d="M4.0848 10.0284H2.04195C1.85623 10.0284 1.73242 9.90463 1.73242 9.71892C1.73242 9.5332 1.85623 9.40939 2.04195 9.40939H4.0848C4.27052 9.40939 4.39433 9.5332 4.39433 9.71892C4.39433 9.90463 4.27052 10.0284 4.0848 10.0284Z" fill="white"/>
</g>
</g>
<defs>
<clipPath id="clip0_22335_104826">
<rect width="13" height="13" fill="white"/>
</clipPath>
<clipPath id="clip1_22335_104826">
<rect width="13" height="11.7619" fill="white" transform="translate(0 0.619049)"/>
</clipPath>
</defs>
</svg>
