<svg width="19" height="19" viewBox="0 0 19 19" fill="none" xmlns="http://www.w3.org/2000/svg">
<path d="M2.97923 4.17777C1.79014 3.68667 1.27961 2.80828 1.47478 1.6717C1.64151 0.705468 2.47128 0.00808025 3.4652 9.48903e-05C4.48368 -0.00922136 5.29277 0.668203 5.50215 1.70364C5.7167 2.76436 5.17774 3.66804 4.00158 4.17644C4.17477 4.22036 4.32082 4.2523 4.46429 4.29222C5.99071 4.72876 6.94585 6.0663 6.99755 7.83772C7.00143 7.94952 7.00014 8.06131 6.99755 8.17311C6.98592 8.75338 6.76232 8.99294 6.20138 8.9956C4.95802 9.00092 3.71465 8.99826 2.47257 8.99826C1.89354 8.99826 1.31451 9.00358 0.734187 8.9956C0.212024 8.98894 0.00910463 8.776 0.00264222 8.2503C-0.00252771 7.76586 -0.0128676 7.28141 0.115088 6.80761C0.476983 5.47007 1.31193 4.62761 2.61216 4.26827C2.71556 4.23899 2.82154 4.21636 2.97794 4.17777H2.97923Z" fill="#474747"/>
<path d="M14.9972 4.1691C13.832 3.69662 13.3139 2.83551 13.5013 1.73084C13.6705 0.727321 14.4559 0.0245915 15.4351 0.000634869C16.4479 -0.0233218 17.2979 0.632825 17.5123 1.61239C17.7009 2.47083 17.4387 3.62741 16.0694 4.17043C17.4697 4.49251 18.4192 5.32301 18.8649 6.73645C19.0444 7.30742 19.0018 7.89303 18.9772 8.47464C18.963 8.80338 18.6982 8.98971 18.2952 8.99504C17.6557 9.00435 17.0163 8.9977 16.3768 8.9977C15.2064 8.9977 14.0361 8.99903 12.8657 8.9977C12.2146 8.99637 12.0053 8.77543 12.0002 8.09666C11.9847 6.00844 12.9987 4.66553 14.9972 4.1691Z" fill="#474747"/>
<path d="M8.88826 14.2017C7.68353 13.5092 7.25097 12.6609 7.51696 11.6008C7.75584 10.6486 8.55512 10.004 9.50547 10C10.4145 9.99602 11.228 10.6446 11.4811 11.5741C11.7638 12.6156 11.3403 13.4599 10.1679 14.1791C10.235 14.2896 10.3551 14.2789 10.4519 14.3069C11.9433 14.7504 12.9802 16.1434 12.9983 17.7348C13.0125 18.9521 12.966 19 11.7948 19C10.1291 19 8.46344 19 6.79903 19C6.19086 19 6.02558 18.8082 6.00363 18.1703C5.9494 16.6348 6.50076 15.4336 7.79716 14.6292C8.11868 14.4294 8.47894 14.3322 8.89084 14.203L8.88826 14.2017Z" fill="#474747"/>
<path d="M15.662 10C16.0032 10 16.016 10.0022 15.9926 10.5035C15.9096 12.3072 15.3872 13.7761 14.4482 14.9202C14.3569 15.0314 14.2882 15.0393 14.2368 14.8606C14.1712 14.628 13.9741 14.4381 14.0028 14.2167C14.0285 14.0222 14.2149 13.8761 14.3267 13.7053C14.9094 12.8152 15.2498 11.7599 15.2981 10.5102C15.3178 10.0011 15.314 10 15.6612 10.0011L15.662 10Z" fill="#474747"/>
<path d="M3.34959 10C3.68723 10 3.6827 10 3.70158 10.498C3.75597 11.9297 4.1699 13.0971 4.88371 14.0285C5.01288 14.1964 5.04536 14.3235 4.92526 14.5118C4.91091 14.5345 4.90109 14.564 4.88976 14.5901C4.6624 15.1085 4.65484 15.1221 4.35194 14.7047C3.53692 13.5804 3.08144 12.185 3.00741 10.523C2.984 10.0011 2.99608 10 3.34959 10Z" fill="#474747"/>
<path d="M13 4.05441C12.9958 4.07172 12.9972 4.09217 12.9902 4.10004C12.7229 4.37849 12.4569 4.66008 12.184 4.93067C12.0342 5.07855 11.8859 4.95269 11.7431 4.89449C10.2455 4.28882 8.74642 4.2778 7.25438 4.89921C6.97724 5.01562 6.78409 4.98888 6.60353 4.73245C6.53915 4.64121 6.45377 4.56884 6.37259 4.49333C5.86171 4.01194 5.85331 3.98991 6.49016 3.6973C8.56866 2.73924 10.6388 2.76284 12.6935 3.80271C12.8096 3.86091 12.9412 3.90653 12.9986 4.05441H13Z" fill="#474747"/>
</svg>
