<svg width="17" height="19" viewBox="0 0 17 19" fill="none" xmlns="http://www.w3.org/2000/svg">
<path d="M11.9849 -2.09692e-07C12.3099 0.196424 12.5433 0.49533 12.8051 0.755805C13.6973 1.64185 14.5807 2.53643 15.4664 3.42674C15.8394 3.80251 16.2103 4.18041 16.5855 4.55191C16.7818 4.7462 16.8734 4.96611 16.7752 5.23085C16.6771 5.4956 16.4677 5.62584 16.1863 5.63011C15.6627 5.63865 15.1414 5.63865 14.6178 5.64078C14.3233 5.64078 14.3233 5.64078 14.3233 5.92261C14.3233 7.4513 14.3233 8.98213 14.3233 10.5108C14.3233 11.0681 14.0965 11.2922 13.5293 11.2922C12.3492 11.2922 11.169 11.2922 9.99106 11.2922C9.46534 11.2922 9.23629 11.0681 9.23629 10.5535C9.23629 9.02483 9.23629 7.494 9.23629 5.96531C9.23629 5.62584 9.27774 5.64292 8.89818 5.64292C8.42481 5.64292 7.94926 5.64719 7.4759 5.64292C7.08543 5.63865 6.8651 5.502 6.76912 5.22231C6.67968 4.96611 6.7713 4.75901 6.95454 4.5754C7.88818 3.63811 8.82183 2.69869 9.75547 1.76141C10.2528 1.26181 10.7502 0.76648 11.2432 0.264745C11.3457 0.160128 11.4548 0.0683211 11.5857 0.00426986L11.9871 0.00426988L11.9849 -2.09692e-07Z" fill="black"/>
<path d="M7.58074 10.0263C7.58074 10.8227 7.5851 11.6212 7.57638 12.4176C7.57638 12.5991 7.63309 12.6546 7.81633 12.6503C8.32678 12.6396 8.83723 12.6439 9.34768 12.6503C9.72943 12.6546 9.94539 12.7848 10.0457 13.0581C10.1439 13.3207 10.0501 13.5342 9.86249 13.7221C8.9463 14.6423 8.03011 15.5625 7.11392 16.4848C6.5882 17.0143 6.06248 17.5438 5.53894 18.0733C5.23572 18.3808 4.86488 18.3914 4.56385 18.0883C3.11103 16.6322 1.66258 15.1739 0.209759 13.7157C0.0243394 13.5299 -0.0520099 13.3143 0.0374276 13.0645C0.129047 12.8062 0.325373 12.6674 0.602412 12.6631C1.13031 12.6524 1.6604 12.6524 2.1883 12.6482C2.49151 12.6482 2.49151 12.6482 2.49151 12.3578C2.49151 10.8291 2.49151 9.29828 2.49151 7.76959C2.49151 7.21875 2.7162 6.9967 3.27464 6.9967C4.45914 6.9967 5.64583 6.9967 6.83033 6.9967C7.34515 6.9967 7.57856 7.22302 7.57856 7.72475C7.57856 8.49337 7.57856 9.25985 7.57856 10.0285L7.58074 10.0263Z" fill="black"/>
</svg>
