<svg width="24" height="24" viewBox="0 0 24 24" fill="none" xmlns="http://www.w3.org/2000/svg">
<g clip-path="url(#clip0_10475_6550)">
<path d="M20.4419 11.0421H24.0011C23.7918 8.51848 22.4745 6.30487 20.5379 4.88989L17.8379 7.36306C19.2156 8.08791 20.2121 9.44279 20.4419 11.0421Z" fill="white"/>
<path d="M6.16323 7.36311L3.46314 4.88989C1.5266 6.30492 0.209223 8.51853 0 11.0421H3.55919C3.78898 9.44283 4.78547 8.08796 6.16323 7.36311Z" fill="white"/>
<path d="M7.7035 16.6455L4.72461 19.3736C5.85304 19.929 7.12154 20.2416 8.46189 20.2416H11.2924V16.7035H8.46189C8.20408 16.7035 7.95079 16.6836 7.7035 16.6455Z" fill="white"/>
<path d="M8.46179 6.7967H11.2923V3.25854H8.46179C7.1215 3.25854 5.853 3.57118 4.72461 4.12652L7.70307 6.85477C7.95046 6.81661 8.20384 6.7967 8.46179 6.7967Z" fill="white"/>
<path d="M16.2973 6.85482L19.2757 4.12657C18.1473 3.57118 16.8788 3.25854 15.5385 3.25854H12.708V6.7967H15.5385C15.7965 6.7967 16.0499 6.81661 16.2973 6.85482Z" fill="white"/>
<path d="M3.55919 12.4578H0C0.209223 14.9813 1.5266 17.1949 3.4631 18.6099L6.16342 16.1369C4.78556 15.4121 3.78898 14.0572 3.55919 12.4578Z" fill="white"/>
<path d="M15.5385 16.7035H12.708V20.2416H15.5385C16.8788 20.2416 18.1474 19.929 19.2758 19.3736L16.2969 16.6455C16.0496 16.6836 15.7963 16.7035 15.5385 16.7035Z" fill="white"/>
<path d="M17.8359 16.1369L20.5363 18.61C22.4728 17.1949 23.7902 14.9813 23.9994 12.4578H20.4402C20.2104 14.0572 19.2138 15.4121 17.8359 16.1369Z" fill="white"/>
<path d="M15.5387 8.21216H8.46237C3.7738 8.39058 3.77733 15.1117 8.46237 15.2885H15.5387C20.2272 15.11 20.2237 8.38888 15.5387 8.21216ZM8.46237 13.1656H7.04711V10.3351H8.46237V13.1656ZM11.2929 13.1656H9.87763V10.3351H11.2929V13.1656ZM14.1234 13.1656H12.7082V10.3351H14.1234V13.1656ZM16.9539 13.1656H15.5387V10.3351H16.9539V13.1656Z" fill="white"/>
</g>
<defs>
<clipPath id="clip0_10475_6550">
<rect width="24" height="18" fill="white" transform="translate(0 2.75)"/>
</clipPath>
</defs>
</svg>
