<svg width="29" height="22" viewBox="0 0 29 22" fill="none" xmlns="http://www.w3.org/2000/svg">
<path d="M28.6217 5.42168C28.5417 5.71448 28.4306 6.21096 28.2731 6.69726C26.8837 10.9314 25.4892 15.1629 24.0843 19.3919C23.4955 21.1665 22.5709 21.6146 20.7813 21.0468C17.8579 20.1175 14.9345 19.1882 12.0111 18.2436C10.1982 17.6555 9.75403 16.7822 10.3428 14.9898C11.7658 10.6513 13.1965 6.3128 14.6298 1.97941C15.2496 0.113152 16.1173 -0.319678 17.9922 0.2761C20.9517 1.21814 23.9035 2.17037 26.8605 3.11241C27.8986 3.44594 28.6295 4.02135 28.6191 5.42168H28.6217ZM23.8364 9.6736C23.8364 8.0263 22.3334 7.00788 20.8613 7.76915C20.0814 8.17397 19.9084 7.88881 19.5804 7.29558C18.8212 5.97927 17.2407 5.86979 16.2438 7.04352C15.6886 7.69786 15.451 8.55588 15.5931 9.39863C15.8151 11.0459 16.6338 12.4183 17.6255 13.7193C17.8527 14.1139 18.3486 14.2718 18.7669 14.0859C19.9058 13.76 20.9905 13.2635 21.977 12.6168C22.9971 11.9039 23.8338 11.0256 23.839 9.67615L23.8364 9.6736Z" fill="white"/>
<path d="M8.34403 18.7324C6.29353 19.7508 5.18564 19.3104 4.51936 17.3142C3.1119 13.0878 1.71477 8.85624 0.333135 4.61451C-0.395128 2.38671 -6.40343e-06 1.67126 2.22352 0.943091C3.06541 0.668117 3.92022 0.428787 4.75178 0.120714C5.5317 -0.169536 5.86484 0.0570629 5.84676 0.871801C5.83126 1.89277 5.84676 2.91374 5.84676 3.94235V13.9025C5.85192 15.9462 6.68435 17.5561 8.34403 18.7324Z" fill="white"/>
<path d="M10.4282 18.9666C8.38283 19.5115 7.11999 18.6356 7.11999 16.6293C7.11224 11.9573 7.11224 7.28274 7.11999 2.60818C7.11999 0.948152 7.87666 0.194519 9.53979 0.158875C10.5392 0.138506 11.5412 0.199612 12.5381 0.141052C13.5943 0.0824929 13.7028 0.4975 13.4032 1.38098C12.0913 5.25863 10.8233 9.149 9.53462 13.0343C8.45514 16.3238 8.44223 16.3238 10.4282 18.9666Z" fill="white"/>
</svg>
