<svg width="14" height="18" viewBox="0 0 14 18" fill="none" xmlns="http://www.w3.org/2000/svg">
<g clip-path="url(#clip0_48027_201)">
<path d="M12.66 8.2C12.43 7.9 12.15 7.64 11.89 7.38C11.22 6.78 10.46 6.35 9.82005 5.72C8.33005 4.26 8.00005 1.85 8.95005 0C8.00005 0.23 7.17005 0.75 6.46005 1.32C3.87005 3.4 2.85005 7.07 4.07005 10.22C4.11005 10.32 4.15005 10.42 4.15005 10.55C4.15005 10.77 4.00005 10.97 3.80005 11.05C3.57005 11.15 3.33005 11.09 3.14005 10.93C3.08329 10.8825 3.03583 10.8248 3.00005 10.76C1.87005 9.33 1.69005 7.28 2.45005 5.64C0.780049 7 -0.12995 9.3 4.97065e-05 11.47C0.0600497 11.97 0.12005 12.47 0.29005 12.97C0.43005 13.57 0.70005 14.17 1.00005 14.7C2.08005 16.43 3.95005 17.67 5.96005 17.92C8.10005 18.19 10.3901 17.8 12.0301 16.32C13.8601 14.66 14.5 12 13.56 9.72L13.43 9.46C13.22 9 12.66 8.2 12.66 8.2ZM9.50005 14.5C9.22005 14.74 8.76005 15 8.40005 15.1C7.28005 15.5 6.16005 14.94 5.50005 14.28C6.69005 14 7.40005 13.12 7.61005 12.23C7.78005 11.43 7.46005 10.77 7.33005 10C7.21005 9.26 7.23005 8.63 7.50005 7.94C7.69005 8.32 7.89005 8.7 8.13005 9C8.90005 10 10.11 10.44 10.37 11.8C10.41 11.94 10.43 12.08 10.43 12.23C10.46 13.05 10.1 13.95 9.50005 14.5Z" fill="white"/>
</g>
<defs>
<clipPath id="clip0_48027_201">
<rect width="14" height="18" fill="white"/>
</clipPath>
</defs>
</svg>
